<svg xmlns="http://www.w3.org/2000/svg" xmlns:xlink="http://www.w3.org/1999/xlink" width="4450" zoomAndPan="magnify" viewBox="0 0 3337.5 689.999997" height="920" preserveAspectRatio="xMidYMid meet" version="1.0"><defs><g/><clipPath id="893dbd8bfa"><path d="M 7.5 187 L 484.425781 187 L 484.425781 569.230469 L 7.5 569.230469 Z M 7.5 187 " clip-rule="nonzero"/></clipPath><clipPath id="80bcb55c5d"><path d="M 207 120.046875 L 303 120.046875 L 303 263 L 207 263 Z M 207 120.046875 " clip-rule="nonzero"/></clipPath></defs><g clip-path="url(#893dbd8bfa)"><path fill="#000000" d="M 96.210938 374.078125 L 96.210938 418.613281 C 96.210938 433.296875 102.050781 447.382812 112.445312 457.765625 C 122.84375 468.152344 136.945312 473.984375 151.648438 473.984375 L 152.148438 473.984375 C 166.847656 473.984375 180.949219 468.152344 191.347656 457.765625 C 201.742188 447.382812 207.582031 433.296875 207.582031 418.613281 L 207.582031 329.324219 L 349.664062 187.40625 L 484.453125 187.40625 L 325.875 345.804688 L 482.46875 569.1875 L 366.117188 569.1875 L 294.714844 467.332031 C 287.320312 488.84375 275.078125 508.621094 258.667969 525.011719 C 230.351562 553.296875 191.945312 569.1875 151.898438 569.1875 C 83.9375 569.1875 26.464844 524.34375 7.519531 462.667969 Z M 96.210938 374.078125 " fill-opacity="1" fill-rule="evenodd"/></g><g clip-path="url(#80bcb55c5d)"><path fill="#000000" d="M 302.894531 167.632812 L 207.582031 262.835938 L 207.582031 120.089844 L 302.894531 120.089844 Z M 302.894531 167.632812 " fill-opacity="1" fill-rule="evenodd"/></g><g fill="#155dfc" fill-opacity="1"><g transform="translate(548.650877, 525.494601)"><g><path d="M 214.453125 -128.71875 L 177.765625 -232.4375 C 175.585938 -237.882812 173.289062 -244.265625 170.875 -251.578125 C 168.46875 -258.898438 166.171875 -266.847656 163.984375 -275.421875 C 161.804688 -266.691406 159.507812 -258.628906 157.09375 -251.234375 C 154.675781 -243.835938 152.378906 -237.414062 150.203125 -231.96875 L 113.765625 -128.71875 Z M 332.1875 0 L 277.75 0 C 271.675781 0 266.734375 -1.4375 262.921875 -4.3125 C 259.109375 -7.195312 256.265625 -10.898438 254.390625 -15.421875 L 231.5 -80.125 L 96.484375 -80.125 L 73.578125 -15.421875 C 72.023438 -11.523438 69.300781 -7.976562 65.40625 -4.78125 C 61.507812 -1.59375 56.601562 0 50.6875 0 L -4.203125 0 L 128.25 -338.953125 L 199.96875 -338.953125 Z M 332.1875 0 "/></g></g></g><g fill="#155dfc" fill-opacity="1"><g transform="translate(872.895207, 525.494601)"><g><path d="M 149.96875 -170.296875 C 171.925781 -170.296875 188.003906 -175.585938 198.203125 -186.171875 C 208.410156 -196.765625 213.515625 -211.25 213.515625 -229.625 C 213.515625 -238.039062 212.226562 -245.710938 209.65625 -252.640625 C 207.082031 -259.566406 203.1875 -265.484375 197.96875 -270.390625 C 192.757812 -275.296875 186.179688 -279.070312 178.234375 -281.71875 C 170.296875 -284.363281 160.875 -285.6875 149.96875 -285.6875 L 105.59375 -285.6875 L 105.59375 -170.296875 Z M 149.96875 -338.953125 C 173.175781 -338.953125 193.226562 -336.226562 210.125 -330.78125 C 227.019531 -325.332031 240.914062 -317.738281 251.8125 -308 C 262.71875 -298.269531 270.78125 -286.707031 276 -273.3125 C 281.21875 -259.914062 283.828125 -245.351562 283.828125 -229.625 C 283.828125 -212.96875 281.097656 -197.707031 275.640625 -183.84375 C 270.191406 -169.976562 261.9375 -158.0625 250.875 -148.09375 C 239.820312 -138.132812 225.882812 -130.390625 209.0625 -124.859375 C 192.25 -119.328125 172.550781 -116.5625 149.96875 -116.5625 L 105.59375 -116.5625 L 105.59375 0 L 35.5 0 L 35.5 -338.953125 Z M 149.96875 -338.953125 "/></g></g></g><g fill="#155dfc" fill-opacity="1"><g transform="translate(1162.098774, 525.494601)"><g><path d="M 149.96875 -170.296875 C 171.925781 -170.296875 188.003906 -175.585938 198.203125 -186.171875 C 208.410156 -196.765625 213.515625 -211.25 213.515625 -229.625 C 213.515625 -238.039062 212.226562 -245.710938 209.65625 -252.640625 C 207.082031 -259.566406 203.1875 -265.484375 197.96875 -270.390625 C 192.757812 -275.296875 186.179688 -279.070312 178.234375 -281.71875 C 170.296875 -284.363281 160.875 -285.6875 149.96875 -285.6875 L 105.59375 -285.6875 L 105.59375 -170.296875 Z M 149.96875 -338.953125 C 173.175781 -338.953125 193.226562 -336.226562 210.125 -330.78125 C 227.019531 -325.332031 240.914062 -317.738281 251.8125 -308 C 262.71875 -298.269531 270.78125 -286.707031 276 -273.3125 C 281.21875 -259.914062 283.828125 -245.351562 283.828125 -229.625 C 283.828125 -212.96875 281.097656 -197.707031 275.640625 -183.84375 C 270.191406 -169.976562 261.9375 -158.0625 250.875 -148.09375 C 239.820312 -138.132812 225.882812 -130.390625 209.0625 -124.859375 C 192.25 -119.328125 172.550781 -116.5625 149.96875 -116.5625 L 105.59375 -116.5625 L 105.59375 0 L 35.5 0 L 35.5 -338.953125 Z M 149.96875 -338.953125 "/></g></g></g><g fill="#155dfc" fill-opacity="1"><g transform="translate(1451.302295, 525.494601)"><g><path d="M 236.640625 -57 L 236.640625 0 L 35.5 0 L 35.5 -338.953125 L 105.59375 -338.953125 L 105.59375 -57 Z M 236.640625 -57 "/></g></g></g><g fill="#155dfc" fill-opacity="1"><g transform="translate(1691.448678, 525.494601)"><g><path d="M 106.0625 0 L 35.5 0 L 35.5 -338.953125 L 106.0625 -338.953125 Z M 106.0625 0 "/></g></g></g><g fill="#155dfc" fill-opacity="1"><g transform="translate(1829.275864, 525.494601)"><g><path d="M 214.453125 -128.71875 L 177.765625 -232.4375 C 175.585938 -237.882812 173.289062 -244.265625 170.875 -251.578125 C 168.46875 -258.898438 166.171875 -266.847656 163.984375 -275.421875 C 161.804688 -266.691406 159.507812 -258.628906 157.09375 -251.234375 C 154.675781 -243.835938 152.378906 -237.414062 150.203125 -231.96875 L 113.765625 -128.71875 Z M 332.1875 0 L 277.75 0 C 271.675781 0 266.734375 -1.4375 262.921875 -4.3125 C 259.109375 -7.195312 256.265625 -10.898438 254.390625 -15.421875 L 231.5 -80.125 L 96.484375 -80.125 L 73.578125 -15.421875 C 72.023438 -11.523438 69.300781 -7.976562 65.40625 -4.78125 C 61.507812 -1.59375 56.601562 0 50.6875 0 L -4.203125 0 L 128.25 -338.953125 L 199.96875 -338.953125 Z M 332.1875 0 "/></g></g></g><g fill="#155dfc" fill-opacity="1"><g transform="translate(2153.520248, 525.494601)"><g><path d="M 325.875 -338.953125 L 325.875 0 L 289.671875 0 C 284.210938 0 279.613281 -0.894531 275.875 -2.6875 C 272.144531 -4.476562 268.488281 -7.550781 264.90625 -11.90625 L 96.015625 -226.828125 C 96.484375 -221.378906 96.832031 -216.003906 97.0625 -210.703125 C 97.289062 -205.410156 97.40625 -200.503906 97.40625 -195.984375 L 97.40625 0 L 35.5 0 L 35.5 -338.953125 L 72.421875 -338.953125 C 75.378906 -338.953125 77.90625 -338.832031 80 -338.59375 C 82.101562 -338.363281 84.007812 -337.820312 85.71875 -336.96875 C 87.4375 -336.113281 89.070312 -334.984375 90.625 -333.578125 C 92.1875 -332.179688 93.90625 -330.316406 95.78125 -327.984375 L 265.84375 -112.125 C 265.21875 -118.039062 264.75 -123.765625 264.4375 -129.296875 C 264.125 -134.828125 263.96875 -140.082031 263.96875 -145.0625 L 263.96875 -338.953125 Z M 325.875 -338.953125 "/></g></g></g><g fill="#155dfc" fill-opacity="1"><g transform="translate(2511.170145, 525.494601)"><g><path d="M 266.3125 -83.390625 C 270.195312 -83.390625 273.460938 -81.988281 276.109375 -79.1875 L 303.921875 -49.53125 C 290.210938 -32.082031 273.195312 -18.84375 252.875 -9.8125 C 232.550781 -0.78125 208.375 3.734375 180.34375 3.734375 C 154.957031 3.734375 132.140625 -0.582031 111.890625 -9.21875 C 91.648438 -17.863281 74.441406 -29.894531 60.265625 -45.3125 C 46.097656 -60.726562 35.195312 -79.023438 27.5625 -100.203125 C 19.9375 -121.390625 16.125 -144.519531 16.125 -169.59375 C 16.125 -186.414062 17.953125 -202.414062 21.609375 -217.59375 C 25.265625 -232.78125 30.597656 -246.757812 37.609375 -259.53125 C 44.617188 -272.300781 53.066406 -283.820312 62.953125 -294.09375 C 72.847656 -304.375 84.023438 -313.132812 96.484375 -320.375 C 108.941406 -327.625 122.523438 -333.15625 137.234375 -336.96875 C 151.953125 -340.78125 167.644531 -342.6875 184.3125 -342.6875 C 196.769531 -342.6875 208.566406 -341.597656 219.703125 -339.421875 C 230.835938 -337.242188 241.234375 -334.207031 250.890625 -330.3125 C 260.546875 -326.414062 269.460938 -321.703125 277.640625 -316.171875 C 285.816406 -310.648438 293.171875 -304.617188 299.703125 -298.078125 L 276.109375 -265.84375 C 274.710938 -263.8125 272.921875 -262.015625 270.734375 -260.453125 C 268.554688 -258.898438 265.601562 -258.125 261.875 -258.125 C 258.132812 -258.125 254.351562 -259.445312 250.53125 -262.09375 C 246.71875 -264.75 242.046875 -267.710938 236.515625 -270.984375 C 230.992188 -274.253906 224.066406 -277.210938 215.734375 -279.859375 C 207.398438 -282.503906 196.847656 -283.828125 184.078125 -283.828125 C 169.898438 -283.828125 156.894531 -281.253906 145.0625 -276.109375 C 133.226562 -270.972656 123.066406 -263.535156 114.578125 -253.796875 C 106.085938 -244.066406 99.503906 -232.113281 94.828125 -217.9375 C 90.160156 -203.769531 87.828125 -187.65625 87.828125 -169.59375 C 87.828125 -151.375 90.359375 -135.140625 95.421875 -120.890625 C 100.484375 -106.640625 107.414062 -94.609375 116.21875 -84.796875 C 125.019531 -74.984375 135.296875 -67.546875 147.046875 -62.484375 C 158.804688 -57.421875 171.382812 -54.890625 184.78125 -54.890625 C 192.71875 -54.890625 199.914062 -55.28125 206.375 -56.0625 C 212.84375 -56.84375 218.84375 -58.164062 224.375 -60.03125 C 229.90625 -61.90625 235.125 -64.320312 240.03125 -67.28125 C 244.9375 -70.238281 249.878906 -73.972656 254.859375 -78.484375 C 256.566406 -79.890625 258.351562 -81.054688 260.21875 -81.984375 C 262.09375 -82.921875 264.125 -83.390625 266.3125 -83.390625 Z M 266.3125 -83.390625 "/></g></g></g><g fill="#155dfc" fill-opacity="1"><g transform="translate(2815.324453, 525.494601)"><g><path d="M 106.0625 -284.0625 L 106.0625 -196.921875 L 219.125 -196.921875 L 219.125 -143.90625 L 106.0625 -143.90625 L 106.0625 -54.890625 L 251.359375 -54.890625 L 251.359375 0 L 35.5 0 L 35.5 -338.953125 L 251.359375 -338.953125 L 251.359375 -284.0625 Z M 106.0625 -284.0625 "/></g></g></g><g fill="#155dfc" fill-opacity="1"><g transform="translate(3079.765846, 525.494601)"><g><path d="M 219.125 -274.015625 C 216.9375 -270.429688 214.710938 -267.820312 212.453125 -266.1875 C 210.203125 -264.550781 207.285156 -263.734375 203.703125 -263.734375 C 200.273438 -263.734375 196.570312 -264.941406 192.59375 -267.359375 C 188.625 -269.773438 183.992188 -272.382812 178.703125 -275.1875 C 173.410156 -277.988281 167.335938 -280.59375 160.484375 -283 C 153.628906 -285.414062 145.609375 -286.625 136.421875 -286.625 C 120.222656 -286.625 108.070312 -283.003906 99.96875 -275.765625 C 91.875 -268.523438 87.828125 -259.066406 87.828125 -247.390625 C 87.828125 -239.910156 90.046875 -233.71875 94.484375 -228.8125 C 98.929688 -223.90625 104.773438 -219.660156 112.015625 -216.078125 C 119.253906 -212.492188 127.46875 -209.300781 136.65625 -206.5 C 145.84375 -203.695312 155.265625 -200.617188 164.921875 -197.265625 C 174.578125 -193.921875 184 -189.988281 193.1875 -185.46875 C 202.375 -180.957031 210.585938 -175.273438 217.828125 -168.421875 C 225.078125 -161.566406 230.921875 -153.195312 235.359375 -143.3125 C 239.796875 -133.425781 242.015625 -121.394531 242.015625 -107.21875 C 242.015625 -91.800781 239.328125 -77.359375 233.953125 -63.890625 C 228.578125 -50.421875 220.828125 -38.660156 210.703125 -28.609375 C 200.585938 -18.566406 188.09375 -10.664062 173.21875 -4.90625 C 158.34375 0.851562 141.484375 3.734375 122.640625 3.734375 C 111.890625 3.734375 101.179688 2.644531 90.515625 0.46875 C 79.847656 -1.707031 69.566406 -4.742188 59.671875 -8.640625 C 49.785156 -12.535156 40.484375 -17.207031 31.765625 -22.65625 C 23.046875 -28.101562 15.414062 -34.175781 8.875 -40.875 L 29.4375 -74.046875 C 31.144531 -76.546875 33.398438 -78.609375 36.203125 -80.234375 C 39.003906 -81.867188 41.960938 -82.6875 45.078125 -82.6875 C 49.285156 -82.6875 53.722656 -81.128906 58.390625 -78.015625 C 63.066406 -74.898438 68.441406 -71.472656 74.515625 -67.734375 C 80.585938 -64.003906 87.632812 -60.582031 95.65625 -57.46875 C 103.675781 -54.351562 113.296875 -52.796875 124.515625 -52.796875 C 140.859375 -52.796875 153.507812 -56.53125 162.46875 -64 C 171.425781 -71.476562 175.90625 -82.613281 175.90625 -97.40625 C 175.90625 -105.976562 173.6875 -112.910156 169.25 -118.203125 C 164.8125 -123.492188 159.007812 -127.929688 151.84375 -131.515625 C 144.675781 -135.097656 136.5 -138.171875 127.3125 -140.734375 C 118.125 -143.304688 108.703125 -146.148438 99.046875 -149.265625 C 89.390625 -152.378906 79.96875 -156.117188 70.78125 -160.484375 C 61.59375 -164.847656 53.414062 -170.609375 46.25 -177.765625 C 39.082031 -184.929688 33.28125 -193.804688 28.84375 -204.390625 C 24.40625 -214.984375 22.1875 -228.144531 22.1875 -243.875 C 22.1875 -256.488281 24.675781 -268.710938 29.65625 -280.546875 C 34.644531 -292.390625 41.96875 -302.90625 51.625 -312.09375 C 61.28125 -321.28125 73.15625 -328.675781 87.25 -334.28125 C 101.34375 -339.882812 117.5 -342.6875 135.71875 -342.6875 C 156.125 -342.6875 175.007812 -339.53125 192.375 -333.21875 C 209.738281 -326.914062 224.414062 -318.160156 236.40625 -306.953125 Z M 219.125 -274.015625 "/></g></g></g></svg>