<svg xmlns="http://www.w3.org/2000/svg" xmlns:xlink="http://www.w3.org/1999/xlink" width="512" zoomAndPan="magnify" viewBox="0 0 384 383.999986" height="512" preserveAspectRatio="xMidYMid meet" version="1.0"><defs><clipPath id="6e9deac6fd"><path d="M 38.398438 38.398438 L 345.601562 38.398438 L 345.601562 345.601562 L 38.398438 345.601562 Z M 38.398438 38.398438 " clip-rule="nonzero"/></clipPath><clipPath id="2da8846eb2"><path d="M 192 38.398438 C 107.167969 38.398438 38.398438 107.167969 38.398438 192 C 38.398438 276.832031 107.167969 345.601562 192 345.601562 C 276.832031 345.601562 345.601562 276.832031 345.601562 192 C 345.601562 107.167969 276.832031 38.398438 192 38.398438 Z M 192 38.398438 " clip-rule="nonzero"/></clipPath><clipPath id="e53e17313c"><path d="M 102.429688 135 L 274.929688 135 L 274.929688 273.425781 L 102.429688 273.425781 Z M 102.429688 135 " clip-rule="nonzero"/></clipPath><clipPath id="f4f2766a43"><path d="M 174 110.675781 L 210 110.675781 L 210 163 L 174 163 Z M 174 110.675781 " clip-rule="nonzero"/></clipPath></defs><g clip-path="url(#6e9deac6fd)"><g clip-path="url(#2da8846eb2)"><path fill="#ffffff" d="M 38.398438 38.398438 L 345.601562 38.398438 L 345.601562 345.601562 L 38.398438 345.601562 Z M 38.398438 38.398438 " fill-opacity="1" fill-rule="nonzero"/></g></g><g clip-path="url(#e53e17313c)"><path fill="#00285d" d="M 134.511719 202.660156 L 134.511719 218.785156 C 134.511719 224.101562 136.625 229.203125 140.386719 232.960938 C 144.144531 236.722656 149.246094 238.835938 154.5625 238.835938 L 154.742188 238.835938 C 160.0625 238.835938 165.160156 236.722656 168.921875 232.960938 C 172.679688 229.203125 174.792969 224.101562 174.792969 218.785156 L 174.792969 186.453125 L 226.179688 135.070312 L 274.929688 135.070312 L 217.574219 192.421875 L 274.210938 273.304688 L 232.128906 273.304688 L 206.304688 236.425781 C 203.632812 244.214844 199.203125 251.375 193.269531 257.308594 C 183.027344 267.550781 169.136719 273.304688 154.652344 273.304688 C 130.074219 273.304688 109.289062 257.070312 102.4375 234.734375 Z M 134.511719 202.660156 " fill-opacity="1" fill-rule="evenodd"/></g><g clip-path="url(#f4f2766a43)"><path fill="#00285d" d="M 209.265625 127.910156 L 174.792969 162.378906 L 174.792969 110.695312 L 209.265625 110.695312 Z M 209.265625 127.910156 " fill-opacity="1" fill-rule="evenodd"/></g></svg>