<svg width="160" height="60" viewBox="0 0 160 60" fill="none" xmlns="http://www.w3.org/2000/svg">
<rect width="160" height="60" fill="white"/>
<path d="M67.0622 22.9219C68.0206 21.4843 69.3518 20.9518 70.8959 20.8453C71.8543 20.7921 72.7595 20.7921 73.6646 21.1116C75.475 21.6973 76.0607 22.8154 76.0607 24.4128C76.1139 28.0334 76.0607 31.7074 76.1139 35.3281C76.1139 35.7008 76.0074 35.8073 75.6347 35.8073C74.0373 35.8073 72.44 35.8073 70.8426 35.8073C70.3102 35.8073 70.3102 35.8073 70.3102 35.2216C70.3102 32.4528 70.3102 29.6308 70.3102 26.8621C70.3102 26.4361 70.2569 26.0101 70.2037 25.5842C70.0972 24.7855 69.6712 24.466 68.8193 24.4128C67.9141 24.4128 67.4882 24.679 67.3284 25.4777C67.2752 25.7439 67.2752 26.0101 67.2752 26.2764C67.2752 29.2048 67.2752 32.1333 67.2752 35.0618C67.2752 35.8073 67.3284 35.7008 66.6363 35.7008C65.1986 35.7008 63.761 35.7008 62.3234 35.7008C61.6312 35.7008 61.6312 35.7008 61.6312 35.0618C61.6312 32.1333 61.6312 29.2048 61.6312 26.2764C61.6312 26.1166 61.6312 25.9569 61.6312 25.7971C61.4715 24.3595 60.6195 24.1998 59.4481 24.466C59.0754 24.5725 58.9157 24.892 58.8092 25.2647C58.7027 25.5842 58.7027 25.9036 58.7027 26.1699C58.7027 29.0984 58.7027 32.0801 58.7027 35.0086C58.7027 35.7008 58.7027 35.7008 58.0105 35.7008C56.5197 35.7008 54.9755 35.7008 53.4847 35.7008C52.7925 35.7008 52.7925 35.7008 52.7925 35.0618C52.7925 30.5892 52.7925 26.1699 52.7925 21.6973C52.7925 21.0583 52.7925 21.0583 53.4314 21.0583C54.9223 21.0583 56.4132 21.0583 57.904 21.0583C58.4897 21.0583 58.4897 21.0583 58.4897 21.644C58.4897 21.8038 58.4897 22.0167 58.4897 22.1765C58.4897 22.3362 58.4897 22.4959 58.4897 22.6557C58.6495 22.6557 58.7027 22.5492 58.756 22.4427C59.7144 21.1648 61.0455 20.6856 62.5896 20.6324C63.2286 20.6324 63.8143 20.6324 64.4532 20.7388C65.4116 20.9518 66.157 21.431 66.7427 22.2297C66.796 22.5492 66.9025 22.7089 67.0622 22.9219Z" fill="#D3031B"/>
<path d="M35.754 35.8072C35.328 35.8072 34.8488 35.8072 34.3164 35.8072C32.9852 35.8072 31.7074 35.8072 30.3762 35.8072C30.0035 35.8072 29.8438 35.754 29.7373 35.328C29.5775 34.5294 29.3113 33.7839 29.0983 33.0385C28.9918 32.719 28.8854 32.5593 28.5126 32.5593C26.7023 32.5593 24.892 32.5593 23.0816 32.5593C22.7089 32.5593 22.6024 32.719 22.4959 33.0385C22.2829 33.8372 22.07 34.6358 21.8037 35.3813C21.7505 35.5943 21.6972 35.8072 21.3778 35.8072C19.6207 35.8072 17.8636 35.8072 16 35.8072C16.2662 35.2748 16.3727 34.7423 16.5325 34.2631C17.3844 31.7606 18.2363 29.2048 19.1415 26.7023C19.7272 24.9452 20.3661 23.1881 20.9518 21.431C21.4843 19.8869 22.0167 18.2895 22.5492 16.7454C22.8154 16 22.8154 16 23.5608 16C25.2114 16 26.862 16 28.4594 16C28.8321 16 29.0451 16.1065 29.2048 16.4792C30.11 19.1947 31.0152 21.857 31.9203 24.5725C32.5593 26.4361 33.1982 28.2464 33.8372 30.0568C34.4761 31.8671 35.1151 33.6774 35.7008 35.4878C35.8072 35.5943 35.8072 35.6475 35.754 35.8072ZM23.9868 28.1932C25.3179 28.1932 26.5426 28.1932 27.8737 28.1932C27.2348 25.9036 26.6491 23.6673 26.0101 21.4843C25.9569 21.4843 25.9036 21.4843 25.8504 21.4843C25.2114 23.7206 24.6257 25.9036 23.9868 28.1932Z" fill="#D3031B"/>
<path d="M45.9239 34.0501C45.5511 34.1566 45.4447 34.4228 45.2849 34.5826C43.6343 36.2864 41.6642 36.5527 39.4812 35.9137C37.9903 35.4345 37.0319 34.3164 36.393 32.932C35.3813 30.6424 35.2748 28.2464 35.8605 25.8504C36.7124 22.4959 39.9071 20.8453 43.1551 21.7505C43.8473 21.9634 44.4862 22.2829 45.0719 22.7621C45.1784 22.8686 45.2849 22.9751 45.5511 22.9751C45.5511 22.6556 45.5511 22.3362 45.5511 22.0167C45.5511 20.3661 45.5511 18.7155 45.5511 17.0116C45.5511 16.6389 45.6576 16.4792 46.0836 16.4792C47.5212 16.5324 48.9588 16.4792 50.3965 16.4792C50.9822 16.4792 51.0354 16.4792 51.0354 17.1181C51.0354 20.3128 51.0354 23.4543 51.0354 26.649C51.0354 29.5243 51.0354 32.3463 51.0354 35.2215C51.0354 35.8072 51.0354 35.8605 50.3965 35.8605C49.0653 35.8605 47.7342 35.8605 46.4031 35.8605C46.0303 35.8605 45.8706 35.754 45.9239 35.3813C45.9239 34.9021 45.9239 34.5293 45.9239 34.0501ZM40.9188 28.8853C40.8656 29.4178 40.972 30.0035 41.1318 30.5892C41.398 31.3346 41.8772 31.8671 42.6227 32.0268C43.5278 32.1865 44.3797 31.9736 44.859 31.1216C45.7109 29.684 45.7641 28.1399 45.0187 26.649C44.5927 25.7439 43.794 25.3711 42.6759 25.5309C41.9305 25.6374 41.2915 26.2763 41.0253 27.1282C40.972 27.7139 40.9188 28.2464 40.9188 28.8853Z" fill="#D3031B"/>
<path d="M111.096 35.8073C109.126 35.8073 107.316 35.8073 105.452 35.8073C105.186 35.8073 105.079 35.7008 104.973 35.4878C104.813 35.1151 104.92 34.7423 104.707 34.4229C104.494 34.3696 104.44 34.5826 104.387 34.6891C103.748 35.3813 102.949 35.8605 101.991 36.0202C100.5 36.2865 99.0626 36.18 97.6782 35.6475C96.5068 35.1683 95.8146 34.2631 95.6016 33.0385C95.4952 32.3463 95.4952 31.6009 95.5484 30.9087C95.7614 29.2048 96.9328 28.3529 98.4237 27.8737C99.7548 27.3945 101.139 27.2348 102.524 27.0218C103.003 26.9153 103.482 26.862 103.961 26.6491C105.133 26.1166 104.973 24.8387 104.334 24.4128C103.748 24.04 102.577 24.04 102.098 24.5193C101.778 24.7855 101.725 25.1049 101.725 25.4777C101.725 25.9036 101.565 26.0634 101.139 26.0634C99.7015 26.0101 98.3172 26.0634 96.8795 26.0634C96.3471 26.0634 96.3471 26.0101 96.4003 25.5309C96.5601 23.6673 97.6782 22.5492 99.3288 21.857C100.926 21.218 102.577 21.1116 104.281 21.218C105.026 21.2713 105.771 21.2713 106.517 21.431C107.316 21.5908 108.061 21.8037 108.753 22.1765C110.084 22.9751 110.564 24.253 110.564 25.6906C110.564 28.0334 110.564 30.3762 110.564 32.719C110.51 33.7307 110.564 34.7423 111.096 35.8073ZM104.866 30.2165C104.866 29.9503 104.866 29.6308 104.866 29.3646C104.866 29.2048 104.76 29.0451 104.6 29.0983C104.068 29.3646 103.429 29.3646 102.896 29.5243C101.778 29.9503 101.299 30.8022 101.618 31.8671C101.778 32.4528 102.257 32.8788 102.843 32.932C103.535 32.9853 104.174 32.8788 104.547 32.1866C104.866 31.6009 104.866 30.9087 104.866 30.2165Z" fill="#D3031B"/>
<path d="M125.1 26.0634C125.1 23.3479 125.1 20.6324 125.1 17.8636C125.1 16.7987 125.526 16.3727 126.537 16.3727C129.359 16.3727 132.234 16.3727 135.056 16.3727C135.642 16.3727 135.695 16.3727 135.695 17.0117C135.695 18.3961 135.429 19.7804 135.056 21.1116C134.364 23.8271 133.299 26.3829 132.021 28.8321C130.797 31.1217 129.359 33.3047 127.655 35.2748C127.283 35.7008 126.59 35.8605 125.952 35.6475C125.419 35.4878 125.1 35.0086 125.1 34.3696C125.1 31.6541 125.1 28.8854 125.1 26.0634Z" fill="#D3031B"/>
<path d="M112.374 26.0634C112.374 23.1349 112.374 20.1531 112.374 17.2247C112.374 16.426 112.374 16.4792 113.119 16.4792C114.557 16.4792 115.995 16.4792 117.432 16.4792C118.178 16.4792 118.178 16.4792 118.178 17.1714C118.178 21.0051 118.178 24.892 118.178 28.7256C118.178 30.8554 118.178 32.932 118.178 35.0618C118.178 35.754 118.178 35.754 117.539 35.754C116.048 35.754 114.557 35.754 113.066 35.754C112.267 35.754 112.374 35.8073 112.374 35.0086C112.374 32.0801 112.374 29.0984 112.374 26.0634Z" fill="#D3031B"/>
<path d="M89.6915 23.7738C90.224 22.9751 90.7032 22.3362 91.3421 21.7505C92.4603 20.7388 93.6849 20.5791 95.1225 20.8453C95.442 20.8986 95.5485 21.0583 95.5485 21.3778C95.5485 23.0284 95.5485 24.679 95.5485 26.3828C95.5485 26.7555 95.442 26.862 95.0693 26.7555C94.4836 26.5958 93.8979 26.4361 93.3122 26.3828C91.5551 26.3296 90.437 27.1815 90.011 28.9386C89.9045 29.4178 89.8513 29.9503 89.8513 30.4295C89.8513 32.0268 89.8513 33.6242 89.8513 35.2215C89.8513 35.754 89.8513 35.754 89.3188 35.754C88.0942 35.754 86.8163 35.754 85.5916 35.754C85.2189 35.754 85.1124 35.6475 85.1124 35.2748C85.1124 30.7489 85.1124 26.1698 85.1124 21.644C85.1124 21.2713 85.2189 21.1115 85.5916 21.1648C86.763 21.1648 87.9344 21.1648 89.1058 21.1648C89.4785 21.1648 89.585 21.2713 89.585 21.644C89.6383 22.3362 89.585 22.9751 89.6915 23.7738Z" fill="#D3031B"/>
<path d="M83.7281 28.4594C83.7281 30.6957 83.7281 32.932 83.7281 35.1683C83.7281 35.754 83.7281 35.754 83.1424 35.754C81.545 35.754 79.9477 35.754 78.3503 35.754C78.0309 35.754 77.8179 35.7007 77.8179 35.2748C77.8179 30.6957 77.8179 26.1166 77.8179 21.5907C77.8179 21.218 77.9244 21.1115 78.2971 21.1115C79.8944 21.1115 81.545 21.1115 83.1424 21.1115C83.5684 21.1115 83.6749 21.2713 83.6749 21.644C83.7281 23.9868 83.7281 26.2231 83.7281 28.4594Z" fill="#D3031B"/>
<path d="M140.967 26.1699C140.967 28.8854 140.967 31.6009 140.967 34.3696C140.967 35.4345 140.594 35.8073 139.529 35.8073C139.05 35.8073 138.571 35.8073 138.091 35.8073C137.452 35.8073 137.346 35.967 137.452 35.1683C137.506 34.3696 137.559 33.5177 137.612 32.719C137.878 30.5892 137.932 28.4594 137.985 26.3828C138.091 23.2414 138.198 20.0999 138.304 16.9584C138.304 16.5857 138.411 16.426 138.784 16.4792C138.997 16.4792 139.21 16.4792 139.423 16.4792C140.487 16.3727 140.967 17.0117 140.967 17.9701C140.913 19.8869 140.967 21.8037 140.967 23.7738C140.967 24.5193 140.967 25.3712 140.967 26.1699Z" fill="#D3031B"/>
<path d="M132.394 35.8072C132.714 35.2215 132.98 34.7956 133.246 34.2631C134.098 32.6125 134.684 30.9087 135.216 29.1516C135.642 27.7139 135.961 26.2763 136.228 24.8387C136.707 22.2829 137.08 19.7804 137.08 17.1714C137.08 17.0649 137.08 16.9051 137.08 16.7987C137.08 16.4792 137.293 16.4792 137.506 16.4792C137.772 16.4792 137.878 16.5857 137.878 16.8519C137.825 17.5973 137.825 18.2895 137.825 19.035C137.825 21.8037 137.559 24.5192 137.399 27.288C137.239 29.5243 136.973 31.8138 136.813 34.0501C136.76 34.5293 136.707 34.9553 136.707 35.4345C136.707 35.754 136.547 35.8605 136.174 35.8605C134.95 35.8072 133.725 35.8072 132.394 35.8072Z" fill="#D3031B"/>
<path d="M80.7995 20.1531C80.0008 20.1531 79.1489 20.1531 78.3502 20.1531C77.9775 20.1531 77.871 20.0466 77.9242 19.6739C77.9242 18.7155 77.9242 17.7571 77.9242 16.7987C77.9242 16.5325 78.0307 16.426 78.2969 16.426C80.0008 16.426 81.6514 16.426 83.3552 16.426C83.6747 16.426 83.7812 16.5325 83.7812 16.8519C83.7812 17.8103 83.7812 18.7688 83.7812 19.7272C83.7812 20.0466 83.6747 20.1531 83.3552 20.1531C82.4501 20.1531 81.6514 20.1531 80.7995 20.1531Z" fill="#D3031B"/>
<path d="M133.246 41.398C133.193 42.1967 133.193 43.0486 132.554 43.6875C132.181 44.0603 131.755 44.3265 131.223 44.22C131.01 44.1668 130.85 44.1135 130.85 43.8473C130.903 43.581 131.01 43.6343 131.223 43.6343C131.702 43.6875 132.075 43.5278 132.288 43.1018C132.394 42.8889 132.554 42.6759 132.447 42.4629C132.341 42.1967 132.075 42.4097 131.915 42.4097C131.063 42.4629 130.531 41.9837 130.531 41.1318C130.531 40.6526 130.584 40.2266 130.85 39.8006C131.116 39.3747 131.542 39.2149 132.021 39.2682C132.501 39.3214 132.82 39.5344 133.033 40.0136C133.193 40.4928 133.193 40.972 133.246 41.398ZM132.607 41.2383C132.66 40.8655 132.554 40.5461 132.447 40.2266C132.234 39.7474 131.595 39.6941 131.329 40.1201C131.063 40.5461 130.956 41.0253 131.169 41.5045C131.329 41.8772 131.649 41.9837 132.128 41.8772C132.554 41.824 132.714 41.611 132.607 41.2383Z" fill="#D82237"/>
<path d="M135.323 44.2732C135.003 44.3265 134.737 44.1668 134.417 44.0603C134.258 44.007 134.205 43.9005 134.258 43.7408C134.311 43.6343 134.364 43.4746 134.524 43.5278C134.684 43.5278 134.843 43.6343 134.95 43.6343C135.482 43.7408 136.015 43.4746 136.121 42.9954C136.228 42.4629 135.962 41.9837 135.376 41.8772C135.323 41.8772 135.269 41.8772 135.163 41.8772C135.003 41.824 134.737 41.9305 134.737 41.611C134.737 41.3448 135.003 41.3448 135.216 41.3448C135.536 41.3448 135.749 41.2383 135.908 40.9188C136.121 40.3331 135.802 39.9071 135.216 39.9071C135.056 39.9071 134.897 39.9604 134.79 40.0136C134.63 40.0669 134.471 40.1201 134.417 39.9071C134.364 39.7474 134.417 39.6409 134.577 39.5344C135.056 39.2682 135.855 39.3214 136.281 39.6409C136.601 39.9071 136.76 40.6526 136.494 41.1318C136.281 41.5045 136.281 41.6642 136.547 41.9837C136.973 42.4629 136.867 43.0486 136.654 43.5811C136.388 44.0603 135.908 44.22 135.323 44.2732Z" fill="#D82237"/>
<path d="M106.464 40.5461C106.57 40.1734 106.517 39.8007 106.517 39.4279C106.517 39.2682 106.517 39.1085 106.783 39.1085C106.996 39.1085 107.103 39.215 107.103 39.4279C107.103 40.8656 107.103 42.3032 107.103 43.7408C107.103 43.8473 107.103 44.007 106.943 44.0603C106.41 44.1668 105.825 44.433 105.239 44.1135C104.92 43.9538 104.653 43.7408 104.547 43.3681C104.334 42.6226 104.334 41.9305 104.653 41.2383C104.866 40.7058 105.346 40.4928 105.878 40.4928C106.038 40.4928 106.197 40.5993 106.464 40.5461ZM106.517 42.4097C106.517 42.1434 106.517 41.9305 106.517 41.6642C106.517 41.1318 106.304 40.972 105.825 41.0253C105.505 41.0785 105.239 41.2383 105.133 41.5577C104.973 42.037 104.92 42.5162 105.079 43.0486C105.186 43.4213 105.399 43.5811 105.665 43.6876C106.197 43.9005 106.517 43.6876 106.517 43.1019C106.517 42.8889 106.517 42.6227 106.517 42.4097Z" fill="#D82237"/>
<path d="M140.221 40.8123C140.221 41.0785 140.221 41.398 140.221 41.6642C140.221 42.037 140.168 42.4097 140.754 42.3032C140.914 42.3032 140.967 42.4097 140.967 42.5694C140.967 42.7824 140.86 42.8356 140.701 42.8356C140.221 42.7824 140.221 43.0486 140.221 43.4213C140.221 43.5811 140.221 43.7941 140.221 43.9538C140.221 44.0603 140.115 44.1135 140.008 44.1668C139.849 44.1668 139.742 44.1135 139.742 43.9538C139.742 43.8473 139.742 43.7941 139.742 43.6876C139.689 42.8889 139.689 42.8889 138.89 42.8889C138.677 42.8889 138.517 42.8889 138.304 42.8889C137.825 42.8889 137.772 42.7824 137.985 42.4097C138.517 41.4513 139.103 40.5461 139.742 39.5877C139.849 39.4279 140.008 39.3214 140.168 39.3747C140.328 39.4279 140.328 39.6409 140.328 39.7474C140.221 40.1201 140.221 40.4928 140.221 40.8123ZM139.689 40.7058C139.263 41.185 138.89 41.7175 138.624 42.3032C139.689 42.4629 139.689 42.4629 139.689 41.5045C139.689 41.185 139.689 40.972 139.689 40.7058Z" fill="#D82237"/>
<path d="M122.224 42.4097C122.224 41.9837 122.278 41.5578 122.544 41.1318C122.917 40.5461 123.502 40.3864 124.194 40.5993C124.62 40.7591 124.94 41.398 124.833 42.1435C124.78 42.4097 124.62 42.4097 124.461 42.4097C124.088 42.4097 123.662 42.4097 123.289 42.4097C122.863 42.4097 122.81 42.5162 122.917 42.9421C123.076 43.5278 123.609 43.7941 124.301 43.6876C124.461 43.6343 124.674 43.4213 124.78 43.7941C124.833 44.0603 124.62 44.1135 124.461 44.22C123.609 44.4863 122.65 44.22 122.384 43.1551C122.278 42.8889 122.224 42.6759 122.224 42.4097ZM123.609 41.9305C123.662 41.9305 123.768 41.9305 123.822 41.9305C123.981 41.8772 124.248 42.037 124.301 41.7707C124.354 41.5578 124.194 41.3448 124.035 41.185C123.768 40.9721 123.502 40.9721 123.236 41.185C123.023 41.3448 122.81 41.5045 122.917 41.7707C122.97 42.037 123.236 41.8772 123.449 41.9305C123.502 41.9305 123.556 41.9305 123.609 41.9305Z" fill="#D82237"/>
<path d="M102.204 44.2732C101.352 44.2732 100.713 43.7408 100.66 42.8889C100.607 42.1967 100.607 41.5045 101.086 40.9188C101.459 40.4928 102.151 40.3863 102.737 40.6526C103.163 40.9188 103.482 41.7175 103.269 42.1967C103.163 42.4097 103.003 42.4097 102.843 42.4097C102.417 42.4097 101.991 42.4097 101.565 42.4097C101.246 42.4097 101.193 42.5161 101.246 42.7824C101.406 43.4746 101.938 43.794 102.683 43.6343C102.843 43.581 103.003 43.4213 103.109 43.6875C103.216 43.9538 103.003 44.007 102.843 44.1135C102.63 44.2732 102.417 44.2732 102.204 44.2732ZM101.246 41.9304C101.672 41.9304 102.045 41.9304 102.417 41.9304C102.737 41.9304 102.737 41.7707 102.63 41.5577C102.524 41.2383 102.257 41.0785 101.938 41.0785C101.619 41.0253 101.406 41.2915 101.246 41.9304Z" fill="#D82237"/>
<path d="M115.196 42.4629C115.196 42.0902 115.196 41.7175 115.196 41.3448C115.196 40.972 115.249 40.7591 115.675 40.7058C116.101 40.5993 116.474 40.4928 116.9 40.5461C117.379 40.6526 117.699 40.8656 117.699 41.398C117.752 42.1967 117.699 43.0486 117.699 43.8473C117.699 44.007 117.645 44.1668 117.432 44.1668C117.219 44.1668 117.113 44.0603 117.113 43.8473C117.113 43.2083 117.113 42.5694 117.113 41.9305C117.113 41.185 116.687 40.9188 115.995 41.185C115.728 41.2915 115.728 41.4513 115.728 41.6642C115.728 42.3032 115.728 42.8889 115.728 43.5278C115.728 43.6343 115.728 43.794 115.728 43.9005C115.728 44.1135 115.622 44.1668 115.462 44.1668C115.249 44.1668 115.196 44.0603 115.196 43.9005C115.196 43.3681 115.196 42.9421 115.196 42.4629Z" fill="#D82237"/>
<path d="M93.6317 42.3032C93.6317 42.7291 93.6317 43.2084 93.6317 43.6343C93.6317 43.9538 93.5252 44.0603 93.2589 44.1135C92.9927 44.1668 92.7265 44.2733 92.407 44.2733C91.6616 44.2733 91.1824 43.8473 91.1291 43.1019C91.0759 42.4097 91.1291 41.6642 91.1291 40.9721C91.1291 40.7591 91.1824 40.5461 91.4486 40.5993C91.7148 40.5993 91.6616 40.8123 91.6616 40.9721C91.6616 41.5045 91.6616 42.0902 91.6616 42.6227C91.6616 42.8356 91.6616 43.0486 91.7148 43.2084C91.8213 43.5811 92.2473 43.7408 92.7265 43.6876C93.1525 43.6343 93.0992 43.3148 93.0992 43.0486C93.0992 42.4097 93.0992 41.7707 93.0992 41.1318C93.0992 40.9188 92.9927 40.5993 93.3654 40.5993C93.7382 40.5993 93.5784 40.9188 93.5784 41.0785C93.6317 41.5045 93.6317 41.8772 93.6317 42.3032Z" fill="#D82237"/>
<path d="M96.1341 41.0785C96.0809 41.0785 96.0276 41.0785 95.9744 41.0785C95.7614 41.0785 95.5484 41.1318 95.4419 41.398C95.3887 41.611 95.4952 41.7707 95.7082 41.8772C95.9211 42.037 96.1341 42.1434 96.4004 42.2499C96.8263 42.4629 96.9328 42.7824 96.9328 43.2083C96.8796 43.6876 96.5601 44.007 96.1341 44.1668C95.7082 44.3265 95.2822 44.22 94.9627 43.9538C94.8562 43.9005 94.8562 43.7408 94.9095 43.6343C94.9627 43.5278 95.0692 43.4746 95.1757 43.4746C95.3887 43.4746 95.5484 43.5811 95.7614 43.5811C96.0276 43.5811 96.2939 43.5278 96.4004 43.2083C96.4536 42.9421 96.2939 42.7291 96.0809 42.6227C95.8679 42.5162 95.7082 42.4097 95.4952 42.3032C95.1225 42.0902 94.9095 41.7175 94.9627 41.3448C95.016 40.8656 95.3354 40.5461 95.8147 40.4396C96.0809 40.3863 96.2939 40.3863 96.5601 40.4396C96.7198 40.4928 96.9328 40.5461 96.8796 40.7591C96.8263 41.0253 96.6666 40.972 96.5068 40.972C96.2939 41.0785 96.2406 41.0785 96.1341 41.0785Z" fill="#D82237"/>
<path d="M98.2106 42.4629C98.2106 42.1434 98.2106 41.824 98.2106 41.5577C98.2106 41.398 98.2106 41.2383 97.9976 41.1318C97.7314 41.0253 97.7847 40.7591 97.9444 40.6526C98.3171 40.4928 98.2106 40.2266 98.2106 40.0136C98.2106 39.8006 98.2639 39.6409 98.4768 39.6409C98.7431 39.6409 98.7963 39.8006 98.7431 40.0136C98.6366 40.5461 98.9028 40.7058 99.382 40.6526C99.5418 40.6526 99.7015 40.6526 99.7015 40.8655C99.7015 41.0785 99.595 41.1318 99.382 41.185C98.7963 41.2383 98.7963 41.2383 98.7963 41.8772C98.7963 42.3564 98.7963 42.8356 98.7963 43.2616C98.7963 43.7408 98.9028 43.794 99.3288 43.7408C99.4885 43.7408 99.595 43.6875 99.595 43.8473C99.6482 44.007 99.595 44.1668 99.4353 44.22C98.9028 44.4862 98.2639 44.1668 98.2106 43.5278C98.1574 43.1551 98.2106 42.7824 98.2106 42.4629Z" fill="#D82237"/>
<path d="M111.416 41.0785C111.256 41.0785 111.043 41.0253 110.883 41.2383C110.723 41.398 110.777 41.7707 110.99 41.9305C111.149 42.0369 111.362 42.1434 111.575 42.2499C112.001 42.4097 112.214 42.7291 112.214 43.1551C112.214 43.6343 112.001 44.007 111.522 44.22C111.096 44.433 110.723 44.2732 110.297 44.1135C110.138 44.0603 110.191 43.9005 110.191 43.7408C110.244 43.5811 110.351 43.5811 110.51 43.5811C110.67 43.6343 110.883 43.6876 111.043 43.6876C111.309 43.6876 111.575 43.6343 111.629 43.3681C111.682 43.1019 111.575 42.8889 111.362 42.7824C111.203 42.6759 110.99 42.6226 110.83 42.5162C110.244 42.1967 110.084 41.611 110.404 41.0253C110.617 40.6526 111.469 40.4396 111.895 40.6526C112.054 40.7058 112.108 40.8123 112.054 40.972C112.001 41.1318 111.948 41.185 111.788 41.185C111.629 41.0785 111.575 41.0785 111.416 41.0785Z" fill="#D82237"/>
<path d="M86.3904 39.3747C86.7631 39.3747 87.0826 39.3747 87.4553 39.3747C87.6683 39.3747 87.828 39.4279 87.828 39.6409C87.828 39.8539 87.6683 39.9071 87.5085 39.9604C87.2423 39.9604 86.9228 39.8539 86.7631 40.0669C86.6034 40.2799 86.7099 40.6526 86.7099 40.9188C86.7099 41.824 86.7099 42.7824 86.7099 43.6876C86.7099 43.9005 86.7099 44.1135 86.4436 44.1135C86.1242 44.1135 86.1774 43.9005 86.1774 43.6876C86.1774 42.6227 86.1774 41.611 86.1774 40.5461C86.1774 39.9604 86.1774 39.9604 85.5917 39.9604C85.5385 39.9604 85.4852 39.9604 85.3787 39.9604C85.1657 39.9604 84.9528 39.9604 84.9528 39.6409C84.9528 39.3747 85.1125 39.3214 85.3255 39.3214C85.6982 39.3747 86.0177 39.3747 86.3904 39.3747Z" fill="#D82237"/>
<path d="M120.627 41.0785C119.935 41.0785 119.615 41.3448 119.562 41.9837C119.562 42.1967 119.562 42.3564 119.562 42.5694C119.615 43.4213 120.041 43.7408 120.84 43.5811C121 43.5278 121.159 43.5278 121.213 43.6876C121.319 43.9005 121.159 44.007 121 44.0603C120.414 44.3265 119.669 44.1135 119.296 43.5811C118.87 42.9954 118.87 41.5577 119.296 40.972C119.722 40.4396 120.254 40.2799 120.893 40.4396C121.106 40.4928 121.213 40.5461 121.213 40.7591C121.213 41.0253 121 40.972 120.84 40.972C120.733 41.1318 120.627 41.0785 120.627 41.0785Z" fill="#D82237"/>
<path d="M144.96 18.5025C144.588 19.5142 143.682 19.8869 142.83 19.4609C142.085 19.0882 141.766 18.0233 142.192 17.2246C142.511 16.6389 142.99 16.426 143.629 16.4792C144.321 16.5324 144.801 16.8519 144.96 17.5441C144.854 17.5441 144.747 17.5441 144.588 17.5441C144.482 17.4027 144.487 17.4201 144.428 17.3311C144.108 16.8519 143.576 16.6922 143.043 16.9052C142.617 17.0649 142.298 17.7038 142.351 18.2363C142.458 18.7687 142.83 19.1415 143.363 19.1947C143.949 19.248 144.321 18.9285 144.588 18.5025C144.747 18.5025 144.854 18.5025 144.96 18.5025Z" fill="#D82237"/>
<path d="M128.667 40.1734C128.401 40.1201 128.241 40.1734 128.028 40.2799C127.922 40.3331 127.762 40.3331 127.709 40.1734C127.656 40.0136 127.656 39.8539 127.869 39.8006C128.135 39.6942 128.454 39.5344 128.72 39.4279C129.146 39.2682 129.253 39.3214 129.253 39.8006C129.253 40.8123 129.253 41.8772 129.253 42.8889C129.253 43.1551 129.253 43.4746 129.253 43.7408C129.253 43.9538 129.2 44.0603 128.987 44.1135C128.72 44.1135 128.72 43.9538 128.72 43.7408C128.72 42.7824 128.72 41.824 128.72 40.9188C128.72 40.7058 128.774 40.4396 128.667 40.1734Z" fill="#D82237"/>
<path d="M89.3188 41.1318C89.1059 41.2915 89.0526 41.5045 89.0526 41.7708C89.0526 42.4097 89.0526 43.1019 89.0526 43.7408C89.0526 43.9538 89.0526 44.1668 88.7864 44.1668C88.5202 44.1668 88.4669 43.9538 88.4669 43.7408C88.4669 42.9422 88.4669 42.0902 88.4669 41.2915C88.4669 40.5461 88.4669 40.4929 89.2123 40.8123C89.2123 40.9188 89.3188 40.9721 89.3188 41.1318Z" fill="#D82237"/>
<path d="M113.918 42.3564C113.918 42.8356 113.918 43.2616 113.918 43.7408C113.918 43.9538 113.865 44.1135 113.652 44.1135C113.386 44.1135 113.386 43.9006 113.386 43.7408C113.386 42.8356 113.386 41.9305 113.386 41.0253C113.386 40.8656 113.332 40.6526 113.599 40.6526C113.918 40.6526 113.865 40.8656 113.865 41.0786C113.918 41.4513 113.918 41.9305 113.918 42.3564Z" fill="#D3031B"/>
<path d="M89.3186 41.1318C89.2654 41.0253 89.1589 40.9188 89.2121 40.8123C89.3719 40.7058 89.5316 40.5993 89.7446 40.6526C89.8511 40.6526 90.0108 40.6526 90.0108 40.8123C90.0108 40.972 90.0108 41.185 89.7446 41.185C89.6381 41.1318 89.4784 41.1318 89.3186 41.1318Z" fill="#D3031B"/>
<path d="M144.587 17.5441C144.694 17.5441 144.8 17.5441 144.96 17.5441C145.013 17.8636 145.013 18.2474 144.96 18.5137C144.854 18.5137 144.747 18.5137 144.587 18.5137C144.641 18.2474 144.641 17.8636 144.587 17.5441Z" fill="#D3031B"/>
<path d="M113.386 39.4812C113.386 39.3214 113.386 39.1085 113.599 39.1085C113.865 39.1085 113.865 39.2682 113.865 39.4812C113.865 39.6942 113.812 39.8539 113.599 39.8539C113.333 39.8539 113.439 39.6409 113.386 39.4812Z" fill="#D3031B"/>
<path d="M144.002 18.7688C143.629 18.7688 143.576 18.3428 143.31 18.1831C143.097 18.2896 143.363 18.7688 143.043 18.7155C142.724 18.6623 142.884 18.3428 142.83 18.0766C142.83 17.9701 142.83 17.9168 142.83 17.8104C142.83 17.2247 143.17 17.099 143.735 17.2247C143.966 17.3278 144.108 17.4909 144.055 17.8104C144.002 17.9701 143.789 18.0233 143.842 18.2363C143.895 18.4493 144.108 18.5558 144.002 18.7688ZM143.735 17.7039C143.735 17.5441 143.629 17.5441 143.523 17.5441C143.342 17.5441 143.256 17.5441 143.256 17.7039C143.256 17.8104 143.31 17.9168 143.416 17.9168C143.576 17.9168 143.735 17.8636 143.735 17.7039Z" fill="#D82237"/>
</svg>
