<svg width="160" height="60" viewBox="0 0 160 60" fill="none" xmlns="http://www.w3.org/2000/svg">
<path d="M41.1728 27.3122C41.3057 27.2016 41.4616 27.1678 41.6414 27.3122C41.6727 27.3417 41.699 27.3771 41.7166 27.4161L44.5536 33.7054C44.6653 33.9855 44.6708 34.3036 44.4546 34.6319C44.2177 34.9569 43.9197 35.0532 43.6221 35.0511H38.7442C38.6497 35.0502 38.5562 35.0302 38.4695 34.9925C38.3828 34.9554 38.3037 34.9025 38.2364 34.8363C38.0269 34.6181 37.9617 34.3412 38.0647 34.0519L41.0973 27.4157C41.1153 27.3768 41.1414 27.3417 41.1728 27.3122ZM29.4357 41.0871C29.3623 41.2171 29.2744 41.3385 29.1736 41.4487C28.9506 41.6888 28.6989 41.8528 28.441 41.9496L26.2237 42.7474C26.0088 42.8246 25.8097 42.9402 25.636 43.0884C25.4634 43.2377 25.3203 43.418 25.214 43.62C25.1159 43.811 25.0491 44.0165 25.0163 44.2287C24.9884 44.4159 24.9982 44.5663 25.0314 44.7111C25.0647 44.8567 25.1222 44.9956 25.2014 45.1222C25.2808 45.2481 25.3811 45.3595 25.498 45.4517C25.74 45.6445 26.0386 45.7363 26.3255 45.7342L35.2642 45.7388C35.4069 45.7384 35.5485 45.7139 35.6831 45.6665C35.8176 45.6184 35.9431 45.5481 36.0543 45.4585C36.2784 45.2785 36.4341 45.0272 36.4955 44.7464C36.5587 44.4663 36.518 44.0942 36.3695 43.7223C36.2896 43.5316 36.1776 43.3561 36.0382 43.2034C35.731 42.8725 35.3055 42.6899 34.93 42.4464C34.7517 42.3386 34.6231 42.1649 34.5719 41.963C34.5203 41.7606 34.5503 41.5461 34.6557 41.3658L35.3011 40.3091C35.3715 40.193 35.469 40.0954 35.5766 40.0128C35.6843 39.9301 35.8063 39.8648 35.9366 39.8304C36.0672 39.7958 36.2039 39.82 36.3398 39.82H46.5695C46.7469 39.82 46.9252 39.8417 47.0909 39.9062C47.2579 39.9729 47.4099 40.0725 47.5377 40.1991C47.6654 40.3253 47.7739 40.4735 47.8414 40.64L49.6501 45.1004C49.6992 45.2209 49.7829 45.3267 49.8768 45.4173C50.0763 45.6093 50.3347 45.7146 50.5819 45.7194L60.905 45.7239C61.0982 45.7239 61.2918 45.6927 61.4724 45.6238C61.6537 45.5555 61.8202 45.453 61.963 45.3219C62.399 44.9256 62.5412 44.3264 62.4258 43.8062C62.3891 43.6431 62.3276 43.4866 62.2435 43.3421C62.1595 43.197 62.0537 43.0657 61.9297 42.953C61.8059 42.8413 61.6664 42.7438 61.5128 42.6785L60.2031 42.1215C59.9604 42.0192 59.7392 41.8699 59.5313 41.7079C59.3229 41.5458 59.133 41.3614 58.9648 41.1579C58.7965 40.9545 58.6344 40.7411 58.5307 40.4988L47.4616 14.6558C47.3896 14.4875 47.2512 14.3549 47.112 14.236C46.8198 13.9874 46.4565 13.853 46.1068 13.8492L36.2353 13.8629C36.0794 13.8624 35.9243 13.8864 35.7759 13.9339C35.6275 13.9824 35.4881 14.0549 35.3631 14.1484C35.2385 14.2416 35.1293 14.3556 35.0412 14.4839C34.9528 14.6127 34.8857 14.7548 34.8422 14.9048C34.7472 15.2054 34.7793 15.6312 34.9605 16.052C35.0567 16.2684 35.1933 16.4645 35.363 16.6299C35.5319 16.7953 35.7335 16.9258 35.9498 17.0215L37.2305 17.5885C37.3595 17.6456 37.4891 17.7019 37.6049 17.7826C37.7208 17.863 37.8258 17.9583 37.917 18.066C38.008 18.1736 38.093 18.2897 38.1453 18.4203L38.7726 19.9867C38.9143 20.4061 38.8908 20.8793 38.6597 21.3283L29.4357 41.0871ZM87.5195 32.489C87.6369 32.5809 87.7378 32.6934 87.8635 32.876C87.9886 33.0598 88.1385 33.3136 88.2828 33.5237C88.4263 33.7337 88.5641 33.8991 88.7306 34.0302C89.0712 34.2966 89.5201 34.4068 89.9359 34.3505C90.1478 34.323 90.3539 34.2529 90.5396 34.1472C90.7245 34.0406 90.8955 33.9028 91.02 33.7293L94.8527 28.4099C95.0966 28.0616 95.1937 27.6282 95.1535 27.2213C95.1329 27.0133 95.0761 26.8105 94.9859 26.6219C94.8952 26.4335 94.7725 26.2623 94.6233 26.1158C94.1269 25.6428 93.5067 25.5011 92.8904 25.6642C92.6913 25.7209 92.5035 25.8144 92.101 26.0682C91.6996 26.322 91.0838 26.7359 90.6707 26.9995C90.2573 27.2634 90.0473 27.3764 89.8279 27.4672C89.3817 27.646 88.9076 27.7527 88.4401 27.764H78.6268L78.6233 18.6391L88.4663 18.6354C89.1766 18.6301 89.9131 18.743 90.6259 19.0198C90.9692 19.1521 91.3041 19.3104 91.6111 19.5128L94.5929 21.4767C95.1125 21.8338 95.7473 21.8921 96.3483 21.4152C96.6032 21.1888 96.8856 20.8342 97.0844 20.5325C97.3561 20.0984 97.3979 19.6787 97.2527 19.2248C97.2041 19.0839 97.1316 18.9524 97.0466 18.8295L94.29 14.8436C94.151 14.6423 93.9845 14.4597 93.791 14.3102C93.3873 13.999 92.901 13.8342 92.4303 13.831L67.8135 13.8708C67.6013 13.871 67.3865 13.8489 67.1836 13.9106C66.9804 13.9721 66.7917 14.0824 66.6286 14.2215C66.4656 14.361 66.3294 14.529 66.2267 14.7174C66.0211 15.0975 65.9652 15.5407 66.07 15.96C66.1225 16.1676 66.213 16.3638 66.337 16.5384C66.461 16.7127 66.6141 16.8686 66.7957 16.9805L67.8135 17.6081C67.9337 17.6811 68.0411 17.7734 68.1312 17.8814C68.3106 18.101 68.4082 18.3761 68.4072 18.6597L68.4186 40.5207C68.4196 40.728 68.383 40.9339 68.3107 41.1282C68.1634 41.4992 67.9394 41.7805 67.4382 42.0527C67.201 42.186 66.8973 42.3317 66.6553 42.4741C66.413 42.6153 66.2321 42.753 66.0861 42.922C65.7837 43.2723 65.648 43.7385 65.6829 44.1728C65.7181 44.6271 65.9304 45.0493 66.274 45.3485C66.6268 45.6622 67.0868 45.7873 67.52 45.7737L92.1846 45.7769C92.4545 45.7769 92.725 45.7481 92.9838 45.6711C93.2431 45.5943 93.4887 45.4769 93.7113 45.3232C93.9335 45.1708 94.1375 44.9868 94.2952 44.7676L97.2478 40.6794C97.5733 40.2212 97.6535 39.6687 97.4406 39.1209C97.3717 38.9516 97.2757 38.7946 97.1565 38.656C97.0371 38.5182 96.8947 38.4 96.6938 38.2942C96.2905 38.0773 95.685 37.9578 95.1585 38.1012C94.8954 38.1669 94.6555 38.2989 94.4246 38.4422L91.1535 40.4737C90.5937 40.8215 89.9137 40.9215 89.2748 41.0491C88.6314 41.1793 87.9767 41.2447 87.3203 41.2444L78.6233 41.2258L78.6268 32.2811H87.1268C87.2754 32.2813 87.4023 32.3985 87.5195 32.489ZM125.8 14.355C125.687 14.4321 125.552 14.4706 125.416 14.4648C125.348 14.4616 125.281 14.4473 125.155 14.403C125.029 14.3589 124.843 14.2848 124.657 14.2133C124.469 14.1418 124.281 14.0729 123.254 13.8739C122.228 13.6749 120.364 13.3466 118.496 13.3643C116.628 13.3821 114.756 13.7464 112.993 14.4004C111.231 15.0541 109.578 15.997 108.186 17.0787C106.795 18.1601 105.666 19.3803 104.735 20.7352C103.804 22.0902 103.071 23.58 102.571 25.1438C102.071 26.7076 101.804 28.3457 101.769 29.9418C101.735 31.5382 101.932 33.092 102.363 34.5793C102.793 36.0667 103.457 37.487 104.329 38.7605C105.202 40.0341 106.283 41.1593 107.233 41.9771C108.182 42.7936 108.999 43.3025 109.844 43.7526C110.689 44.2038 111.562 44.5989 112.459 44.9286C113.356 45.2581 114.278 45.5246 115.584 45.7461C116.89 45.9676 118.581 46.1446 120.27 46.1205C121.962 46.097 123.645 45.873 125.284 45.4533C126.921 45.0341 128.506 44.4207 129.75 43.8386C130.994 43.2566 131.897 42.7041 132.557 42.2666C133.217 41.8288 133.636 41.5051 133.878 41.3018C134.121 41.0985 134.187 41.0158 134.242 40.9251C134.296 40.8343 134.339 40.7368 134.367 40.6358C134.395 40.5349 134.407 40.429 134.418 40.267C134.43 40.1039 134.439 39.8858 134.399 39.6767C134.36 39.461 134.264 39.2596 134.121 39.0934C133.969 38.9155 133.754 38.759 133.614 38.6387C133.333 38.3941 133.303 38.2563 133.24 38.0573C133.214 37.9565 133.206 37.8518 133.205 37.7473L133.191 33.5625C133.187 33.085 133.361 32.623 133.678 32.2663L134.595 31.235C134.886 30.9031 135.019 30.4677 134.998 30.0589C134.976 29.6296 134.789 29.2253 134.477 28.9298C134.152 28.6208 133.725 28.4711 133.32 28.4727L122.555 28.4741C122.375 28.4741 122.196 28.5155 122.029 28.5815C121.861 28.6481 121.707 28.7435 121.573 28.8634C121.439 28.9836 121.327 29.1263 121.242 29.2851C121.072 29.6056 121.02 29.9761 121.096 30.3309C121.135 30.5064 121.204 30.6752 121.3 30.8268C121.396 30.9796 121.519 31.1139 121.662 31.223C122.064 31.6135 122.568 31.8868 122.846 32.1222C123.125 32.3588 123.235 32.486 123.325 32.6287C123.51 32.9193 123.591 33.2567 123.585 33.5853L123.583 39.141C123.583 39.3753 123.549 39.6096 123.477 39.8335C123.406 40.057 123.299 40.2679 123.162 40.4583C123.024 40.6491 122.858 40.8179 122.669 40.9589C122.481 41.1001 122.272 41.2151 121.782 41.3427C121.293 41.4712 120.523 41.6112 119.751 41.61C118.979 41.6089 118.206 41.4653 117.477 41.2001C116.747 40.9351 116.067 40.5476 115.467 40.0541C114.871 39.5627 114.361 38.9654 113.978 38.3776C113.595 37.7885 113.338 37.2061 113.11 36.6151C112.881 36.0252 112.683 35.4241 112.515 34.8142C112.347 34.2055 112.213 33.5864 112.103 32.5541C111.995 31.5228 111.911 30.0776 112.032 28.6475C112.153 27.2172 112.475 25.8012 112.975 24.4497C113.475 23.098 114.152 21.811 114.787 20.8963C115.421 19.9816 116.014 19.4393 116.685 19.023C118.013 18.1925 119.677 17.8703 121.226 18.1984C121.993 18.3591 122.725 18.6755 123.495 19.13C124.264 19.5841 125.071 20.1763 125.86 20.7888C126.649 21.4012 127.42 22.0339 128.166 22.6942C128.328 22.8595 128.516 22.9962 128.723 23.0984C129.141 23.3028 129.617 23.3575 130.07 23.2534C130.524 23.1488 130.928 22.8909 131.213 22.5232C131.499 22.1554 131.649 21.7008 131.639 21.2354C131.596 20.4457 131.44 19.6662 131.178 18.92C131.047 18.5476 130.905 18.1761 130.707 17.8343L128.26 13.5975C128.185 13.4672 128.086 13.3519 127.969 13.2574C127.608 12.9771 127.149 12.9122 126.698 13.1299C126.562 13.1971 126.439 13.289 126.332 13.4446C126.225 13.6001 126.135 13.8199 126.076 13.96C126.016 14.1004 125.986 14.1618 125.946 14.216C125.905 14.2702 125.856 14.3172 125.8 14.355Z" fill="#FA110D"/>
</svg>
