<svg width="160" height="60" viewBox="0 0 160 60" fill="none" xmlns="http://www.w3.org/2000/svg">
<rect width="160" height="60" fill="white"/>
<g clip-path="url(#clip0_2_900)">
<path d="M82.4031 44.7275C80.2606 44.7275 78.0522 44.6945 75.8768 44.6286C59.6599 44.2001 45.6184 42.3872 32.8954 39.1241C31.0496 38.6626 29.2367 38.1023 27.325 37.5419C26.8965 32.3011 26.8635 27.4558 27.2261 22.8083C43.9044 17.6993 61.1431 15.0954 78.5137 15.0954C96.016 15.0954 114.342 17.7323 132.998 22.9072C133.394 27.6536 133.361 32.5318 132.933 37.7067C132.669 37.8056 132.438 37.8715 132.207 37.9704C126.373 39.9481 119.88 41.4643 112.299 42.585C102.872 44.0023 92.7858 44.7275 82.4031 44.7275Z" fill="white"/>
<path d="M137.646 19.0177C138.569 26.3681 138.47 33.7514 137.613 41.2336C136.328 41.728 135.075 42.2554 133.822 42.6839C127.065 44.9911 120.111 46.4744 113.057 47.5291C100.664 49.375 88.2042 49.9353 75.7119 49.6057C60.8464 49.2102 46.0798 47.661 31.6428 43.9364C28.6763 43.1783 25.7428 42.2224 22.6444 41.3324C21.8534 33.8503 21.6886 26.434 22.5785 19.0177C60.9783 6.49249 99.2132 7.81093 137.646 19.0177ZM62.3956 39.4866C64.2414 39.4866 65.9225 39.4866 67.7024 39.4866C65.428 33.3558 63.1867 27.3899 61.0112 21.4898C58.3744 21.4898 55.9352 21.4898 53.4631 21.4898C51.3207 27.5217 49.1782 33.5206 47.0028 39.5855C48.9145 39.5855 50.6944 39.5855 52.4743 39.5855C52.8039 38.5307 53.1006 37.5419 53.4302 36.5531C56.166 36.5531 58.7699 36.5531 61.4068 36.5531C61.7364 37.5419 62.066 38.5307 62.3956 39.4866ZM108.871 39.5525C110.651 39.5525 112.365 39.5525 114.211 39.5525C111.936 33.4218 109.695 27.4558 107.486 21.4898C104.916 21.4898 102.509 21.4898 100.004 21.4898C97.8618 27.4888 95.6864 33.5206 93.511 39.6185C95.3898 39.6185 97.1697 39.6185 99.0155 39.6185C99.3121 38.6296 99.6417 37.6078 99.9384 36.619C102.674 36.619 105.311 36.619 107.948 36.619C108.278 37.6738 108.574 38.6296 108.871 39.5525ZM88.2701 38.3C88.2701 35.2346 88.2701 32.4989 88.2701 29.6312C87.1165 29.6312 86.0617 29.6312 85.007 29.6312C83.9193 29.6312 82.8315 29.6312 81.7109 29.6312C81.7109 31.0156 81.7109 32.2022 81.7109 33.4547C82.2382 33.4877 82.6997 33.5206 83.1941 33.5866C83.1941 34.6084 83.1941 35.5642 83.1941 36.5201C82.0075 36.9816 80.9198 36.7838 79.898 36.2894C77.2281 35.0698 75.8438 31.9385 76.6019 28.9061C77.327 25.9725 79.3047 24.3904 82.2712 24.6541C83.8204 24.8189 85.3036 25.4452 86.8198 25.8737C87.2154 25.9725 87.5779 26.2033 88.0064 26.434C88.0064 25.0826 88.0064 23.896 88.0064 22.6764C87.6439 22.4787 87.3472 22.215 86.9847 22.0831C83.0293 20.5339 79.1069 20.3691 75.3494 22.5775C69.1197 26.2362 69.1856 34.905 75.4812 38.4648C78.5136 40.2118 81.7768 40.1788 85.0399 39.4207C86.1277 39.2559 87.2154 38.7285 88.2701 38.3Z" fill="black"/>
<path d="M57.4515 25.7418C58.3744 28.2798 59.3303 30.8178 60.2861 33.4877C58.3414 33.4877 56.5286 33.4877 54.5839 33.4877C55.4738 30.8508 56.3638 28.3128 57.2208 25.7418C57.2867 25.7748 57.3526 25.7748 57.4515 25.7418Z" fill="black"/>
<path d="M106.794 33.6525C104.784 33.6525 103.037 33.6525 101.059 33.6525C101.949 31.0156 102.839 28.4776 103.696 25.9396C103.795 25.9396 103.861 25.9396 103.96 25.9396C104.883 28.4117 105.805 30.9497 106.794 33.6525Z" fill="black"/>
<path d="M139.624 18.787C139.525 17.9959 138.964 17.3367 138.206 17.106C117.77 11.14 97.6641 8.10757 78.5137 8.10757C59.2973 8.10757 40.2787 11.14 21.9523 17.1389C21.2272 17.3697 20.6668 18.0289 20.6009 18.82C19.7769 25.8736 19.8098 33.3229 20.6668 41.5961C20.7657 42.3872 21.326 43.0794 22.0841 43.3101C23.073 43.6068 24.0289 43.8704 24.9847 44.1671C27.0942 44.7934 29.0719 45.3867 31.1485 45.914C44.3659 49.309 58.9347 51.1878 75.679 51.6493C77.9204 51.7152 80.1947 51.7482 82.4031 51.7482C93.1484 51.7482 103.564 51.023 113.354 49.5727C121.33 48.3861 128.252 46.771 134.482 44.6615C135.405 44.3649 136.295 44.0023 137.152 43.6397C137.547 43.4749 137.943 43.3101 138.371 43.1783C139.063 42.9146 139.558 42.2883 139.624 41.5302C140.514 33.4218 140.514 26.0055 139.624 18.787ZM138.866 41.3654C138.8 41.8269 138.503 42.2224 138.075 42.3872C137.679 42.552 137.25 42.7168 136.855 42.8816C135.998 43.2112 135.108 43.5738 134.218 43.8704C128.021 45.98 121.165 47.5951 113.222 48.7487C103.465 50.199 93.0825 50.9241 82.3701 50.9241C80.1617 50.9241 77.9204 50.8912 75.679 50.8253C58.9677 50.3638 44.4648 48.518 31.3133 45.123C29.2697 44.5956 27.2591 44.0023 25.1825 43.376C24.2266 43.0794 23.2708 42.8157 22.2819 42.519C21.7875 42.3872 21.4579 41.9587 21.392 41.4643C20.535 33.2899 20.502 25.9066 21.326 18.8859C21.392 18.3915 21.7216 17.9959 22.183 17.8311C40.4106 11.8651 59.3632 8.86568 78.5137 8.86568C97.5982 8.86568 117.606 11.8981 137.976 17.8311C138.47 17.963 138.8 18.3915 138.866 18.8859C139.756 26.0385 139.756 33.3888 138.866 41.3654Z" fill="black"/>
</g>
<defs>
<clipPath id="clip0_2_900">
<rect width="120" height="43.5714" fill="white" transform="translate(20 8.21429)"/>
</clipPath>
</defs>
</svg>
