<svg width="160" height="60" viewBox="0 0 160 60" fill="none" xmlns="http://www.w3.org/2000/svg">
<path d="M50.5084 27.7216L43.7216 15.9644H39.2534V32.2416H42.7002V21.7617L49.0875 32.2416H52.1757L58.2997 21.5824V32.2416H61.6942V15.9644H57.276L50.5084 27.7216ZM115.763 27.8307L104.387 15.9644H99.5143V32.2416H103.254V20.6091L114.404 32.2416H119.501V15.9644H115.763V27.8307ZM18.2733 15.7327L8 32.2416H12.3763L13.8641 29.4766H26.3131L27.9803 32.246H32.52L22.1059 15.7327H18.2733ZM15.974 26.01L20.0052 19.4833L24.1613 26.01H15.974ZM140.58 15.7327H136.749L126.474 32.2416H130.852L132.341 29.4766H144.787L146.46 32.2416H151L140.58 15.7327ZM134.452 26.01L138.486 19.4833L142.641 26.01H134.452ZM78.6953 15.7327L68.422 32.2416H72.804L74.2862 29.4766H86.7272L88.3944 32.246H92.9341L82.5212 15.7327H78.6953ZM76.3949 26.01L80.425 19.4833L84.5765 26.01H76.3949ZM148.403 15C147.761 15.0018 147.146 15.2533 146.693 15.6994C146.239 16.1455 145.985 16.7497 145.985 17.3797V17.392C145.979 17.7071 146.037 18.0203 146.156 18.3131C146.275 18.6059 146.452 18.8724 146.677 19.0971C146.902 19.3218 147.171 19.5001 147.468 19.6215C147.764 19.743 148.082 19.8051 148.403 19.8043C148.725 19.8035 149.043 19.7397 149.338 19.6168C149.634 19.4939 149.902 19.3142 150.126 19.0884C150.35 18.8625 150.526 18.5951 150.643 18.3017C150.761 18.0083 150.817 17.6948 150.809 17.3797V17.3675C150.809 16.7407 150.556 16.1396 150.105 15.6958C149.654 15.252 149.042 15.0018 148.403 15V15ZM148.39 19.2316C148.144 19.2331 147.9 19.1864 147.672 19.0941C147.445 19.0019 147.238 18.866 147.065 18.6944C146.892 18.5228 146.756 18.319 146.664 18.095C146.572 17.871 146.527 17.6312 146.531 17.3897V17.3775C146.524 17.1334 146.567 16.8904 146.657 16.6629C146.747 16.4353 146.883 16.2278 147.056 16.0524C147.229 15.8771 147.436 15.7375 147.665 15.642C147.895 15.5464 148.141 15.4967 148.39 15.4959C148.638 15.4951 148.885 15.5431 149.115 15.6372C149.344 15.7313 149.552 15.8695 149.727 16.0437C149.901 16.2178 150.038 16.4245 150.13 16.6515C150.222 16.8784 150.266 17.1211 150.261 17.3652V17.3775C150.265 17.6205 150.22 17.8619 150.127 18.0874C150.035 18.313 149.897 18.5181 149.723 18.6908C149.549 18.8635 149.341 19.0003 149.112 19.0932C148.883 19.1861 148.637 19.2331 148.39 19.2316Z" fill="#F42434"/>
<path d="M149.517 16.9627V16.9515C149.521 16.855 149.506 16.7584 149.472 16.6679C149.437 16.5773 149.384 16.4946 149.316 16.4248C149.151 16.2645 148.896 16.1687 148.521 16.1687H147.431V18.4694H148.082V17.77H148.368L148.844 18.4694H149.593L149.032 17.6687C149.179 17.6166 149.305 17.5202 149.392 17.3933C149.479 17.2664 149.523 17.1156 149.517 16.9627ZM148.865 17.005C148.865 17.172 148.737 17.2734 148.512 17.2734H148.086V16.7166H148.505C148.724 16.7166 148.864 16.8068 148.864 16.9916L148.865 17.005Z" fill="#F42434"/>
<path d="M80.4141 44.7396L80.9815 44.263C81.4083 44.8955 81.8452 45.2363 82.5704 45.2363C83.3535 45.2363 83.9323 44.6795 83.9323 43.6004V39.0348H84.7268V43.5893C84.7268 44.3877 84.4896 44.9913 84.0923 45.3811C83.8873 45.5704 83.646 45.718 83.3824 45.8153C83.1188 45.9126 82.8382 45.9577 82.5568 45.9479C81.5149 45.9479 80.851 45.4401 80.4141 44.7396ZM87.4574 42.9969V39.0359H88.2382V42.949C88.2382 44.4178 89.0326 45.2452 90.3616 45.2452C91.6407 45.2452 92.4544 44.4869 92.4544 42.9969V39.0359H93.2375V42.9334C93.2375 44.9189 92.0776 45.9501 90.3412 45.9501C88.6275 45.9557 87.4574 44.9245 87.4574 42.9969ZM95.6311 44.8566L96.1168 44.292C96.8409 44.9345 97.5355 45.2552 98.5001 45.2552C99.433 45.2552 100.048 44.7686 100.048 44.0971V44.0782C100.048 43.4445 99.7009 43.0849 98.2425 42.7831C96.6457 42.4423 95.9114 41.9368 95.9114 40.8165V40.7976C95.9114 39.7274 96.8738 38.939 98.1937 38.939C99.0842 38.9141 99.9528 39.2118 100.634 39.7753L100.18 40.3688C99.5352 39.8532 98.8894 39.6294 98.1756 39.6294C97.2676 39.6294 96.7002 40.116 96.7002 40.7296V40.7486C96.7002 41.3911 97.0565 41.7508 98.5841 42.0726C100.132 42.4067 100.846 42.9635 100.846 44.0002V44.0191C100.846 45.1873 99.8541 45.9468 98.4752 45.9468C97.3664 45.9479 96.4641 45.586 95.6311 44.8566ZM105.114 39.7463H102.783V39.0359H108.24V39.7463H105.909V45.8488H105.114V39.7463ZM114.568 39.0359H117.554C118.407 39.0359 119.091 39.2887 119.528 39.7174C119.703 39.8956 119.84 40.106 119.932 40.3365C120.024 40.5669 120.069 40.8129 120.064 41.0604V41.0793C120.064 42.2085 119.269 42.871 118.179 43.0659L120.311 45.8499H119.35L117.335 43.2029H115.351V45.8499H114.568V39.0359ZM117.484 42.5102C118.526 42.5102 119.27 41.9846 119.27 41.1094V41.0893C119.27 40.2519 118.615 39.7463 117.494 39.7463H115.351V42.5102H117.484ZM122.801 39.0359H123.585V45.8488H122.801V39.0359ZM126.302 42.4624V42.4423C126.302 40.5737 127.702 38.9189 129.784 38.9189C130.955 38.9189 131.68 39.253 132.374 39.8243L131.868 40.4078C131.296 39.8841 130.536 39.6039 129.755 39.6283C128.217 39.6283 127.116 40.9033 127.116 42.4223V42.4412C127.116 44.067 128.177 45.2742 129.864 45.2742C130.59 45.2717 131.295 45.0319 131.868 44.5926V42.9H129.755V42.2085H132.621V44.9245C131.853 45.5939 130.862 45.9643 129.834 45.9657C127.652 45.9657 126.302 44.4089 126.302 42.4624ZM135.379 39.0359H136.162V42.0626H140.17V39.0359H140.954V45.8488H140.17V42.7831H136.162V45.8488H135.379V39.0359ZM145.745 39.7463H143.413V39.0359H148.87V39.7463H146.539V45.8488H145.745V39.7463ZM149.722 44.8276H150.63V45.8488H149.722V44.8276Z" fill="#222222"/>
</svg>
