<svg width="160" height="60" viewBox="0 0 160 60" fill="none" xmlns="http://www.w3.org/2000/svg">
<rect width="160" height="60" fill="white"/>
<g clip-path="url(#clip0_2_903)">
<path fill-rule="evenodd" clip-rule="evenodd" d="M26.4153 39.0444H24.9326V38.097H28.9722V39.0444H27.5015V43.1593H26.4153V39.0444Z" fill="#D30C2F"/>
<path fill-rule="evenodd" clip-rule="evenodd" d="M31.9652 40.9314C31.9652 40.424 31.6996 40.2615 31.2833 40.2615C30.9107 40.2615 30.6133 40.4755 30.4468 40.6936V43.1633H29.4835V38.097H30.4468V39.9721C30.6807 39.6906 31.1366 39.4012 31.7392 39.4012C32.5439 39.4012 32.9324 39.8412 32.9324 40.5548V43.1593H31.9691V40.9314H31.9652Z" fill="#D30C2F"/>
<path fill-rule="evenodd" clip-rule="evenodd" d="M35.4499 39.4012C36.5441 39.4012 37.2893 40.2218 37.2893 41.423V41.637H34.5619C34.6214 42.1009 34.994 42.4894 35.6164 42.4894C35.9573 42.4894 36.3617 42.3546 36.5956 42.1246L37.0198 42.747C36.6551 43.08 36.0763 43.2545 35.5094 43.2545C34.3915 43.2545 33.551 42.5013 33.551 41.3239C33.551 40.2614 34.336 39.4012 35.4499 39.4012ZM34.5461 40.9829H36.3538C36.33 40.6341 36.0882 40.1703 35.4499 40.1703C34.8513 40.1703 34.5936 40.6182 34.5461 40.9829Z" fill="#D30C2F"/>
<path fill-rule="evenodd" clip-rule="evenodd" d="M42.4151 40.9314C42.4151 40.424 42.1495 40.2615 41.7333 40.2615C41.3606 40.2615 41.0633 40.4755 40.8968 40.6936V43.1633H39.9335V38.097H40.8968V39.9721C41.1307 39.6906 41.5866 39.4012 42.1892 39.4012C42.9939 39.4012 43.3824 39.8412 43.3824 40.5548V43.1593H42.4191V40.9314H42.4151Z" fill="#D30C2F"/>
<path fill-rule="evenodd" clip-rule="evenodd" d="M44.0009 41.3239C44.0009 40.2852 44.7303 39.4012 45.9354 39.4012C47.1485 39.4012 47.8779 40.2813 47.8779 41.3239C47.8779 42.3704 47.1485 43.2545 45.9354 43.2545C44.7303 43.2545 44.0009 42.3704 44.0009 41.3239ZM46.8789 41.3239C46.8789 40.753 46.538 40.2614 45.9354 40.2614C45.3368 40.2614 44.9999 40.757 44.9999 41.3239C44.9999 41.9026 45.3329 42.3942 45.9354 42.3942C46.538 42.3942 46.8789 41.9026 46.8789 41.3239Z" fill="#D30C2F"/>
<path fill-rule="evenodd" clip-rule="evenodd" d="M53.0631 40.8442C53.0631 40.5033 52.9124 40.2575 52.516 40.2575C52.1751 40.2575 51.8936 40.4834 51.7549 40.6816V43.1554H50.7836V40.8402C50.7836 40.4993 50.633 40.2535 50.2365 40.2535C49.9035 40.2535 49.6221 40.4795 49.4754 40.6856V43.1554H48.5121V39.4884H49.4754V39.9681C49.626 39.7461 50.1137 39.3972 50.6766 39.3972C51.2157 39.3972 51.5567 39.647 51.6954 40.0672C51.9095 39.7342 52.3931 39.3972 52.956 39.3972C53.63 39.3972 54.0343 39.754 54.0343 40.5072V43.1593H53.0631V40.8442V40.8442Z" fill="#D30C2F"/>
<path fill-rule="evenodd" clip-rule="evenodd" d="M56.5597 39.4012C57.6538 39.4012 58.3991 40.2218 58.3991 41.423V41.637H55.6717C55.7311 42.1009 56.1038 42.4894 56.7262 42.4894C57.0671 42.4894 57.4714 42.3546 57.7053 42.1246L58.1295 42.747C57.7648 43.08 57.186 43.2545 56.6191 43.2545C55.5012 43.2545 54.6608 42.5013 54.6608 41.3239C54.6608 40.2614 55.4417 39.4012 56.5597 39.4012ZM55.6558 40.9829H57.4635C57.4397 40.6341 57.1979 40.1703 56.5597 40.1703C55.9611 40.1703 55.6994 40.6182 55.6558 40.9829Z" fill="#D30C2F"/>
<path fill-rule="evenodd" clip-rule="evenodd" d="M60.8015 41.3239C60.8015 40.2852 61.5309 39.4012 62.7361 39.4012C63.9492 39.4012 64.6786 40.2813 64.6786 41.3239C64.6786 42.3704 63.9492 43.2545 62.7361 43.2545C61.5309 43.2545 60.8015 42.3704 60.8015 41.3239ZM63.6796 41.3239C63.6796 40.753 63.3387 40.2614 62.7361 40.2614C62.1375 40.2614 61.8005 40.757 61.8005 41.3239C61.8005 41.9026 62.1335 42.3942 62.7361 42.3942C63.3387 42.3942 63.6796 41.9026 63.6796 41.3239Z" fill="#D30C2F"/>
<path fill-rule="evenodd" clip-rule="evenodd" d="M65.5269 40.3367H64.9204V39.4924H65.5269V39.2941C65.5269 38.4973 66.0423 38.0176 66.7638 38.0176C67.0373 38.0176 67.2871 38.0771 67.4615 38.1683L67.2633 38.8501C67.1801 38.7986 67.0651 38.7748 66.9501 38.7748C66.6766 38.7748 66.4942 38.9572 66.4942 39.306V39.4884H67.2395V40.3328H66.4942V43.1593H65.523V40.3367H65.5269Z" fill="#D30C2F"/>
<path fill-rule="evenodd" clip-rule="evenodd" d="M69.84 42.0097C70.1056 42.2594 70.6527 42.5092 71.1086 42.5092C71.5248 42.5092 71.723 42.3664 71.723 42.1365C71.723 41.8788 71.4059 41.7877 70.9857 41.7044C70.3554 41.5815 69.5427 41.4309 69.5427 40.5587C69.5427 39.9443 70.0818 39.4051 71.0452 39.4051C71.6675 39.4051 72.1631 39.6192 72.5278 39.9046L72.1393 40.5667C71.9173 40.3328 71.501 40.1425 71.0531 40.1425C70.7042 40.1425 70.4743 40.2733 70.4743 40.4834C70.4743 40.7094 70.7637 40.7966 71.172 40.8798C71.8023 41.0027 72.6467 41.1692 72.6467 42.081C72.6467 42.751 72.0759 43.2584 71.061 43.2584C70.4228 43.2584 69.8083 43.0443 69.4198 42.6876L69.84 42.0097Z" fill="#D30C2F"/>
<path fill-rule="evenodd" clip-rule="evenodd" d="M75.731 42.6995C75.4812 42.9809 75.0412 43.2544 74.4386 43.2544C73.6339 43.2544 73.2533 42.8144 73.2533 42.1008V39.4963H74.2166V41.7203C74.2166 42.2277 74.4822 42.3942 74.8905 42.3942C75.2632 42.3942 75.5605 42.1881 75.727 41.978V39.4963H76.6903V43.1633H75.727V42.6995H75.731Z" fill="#D30C2F"/>
<path fill-rule="evenodd" clip-rule="evenodd" d="M77.6814 42.0097C77.9471 42.2594 78.4941 42.5092 78.95 42.5092C79.3663 42.5092 79.5645 42.3664 79.5645 42.1365C79.5645 41.8788 79.2473 41.7877 78.8271 41.7044C78.1968 41.5815 77.3841 41.4309 77.3841 40.5587C77.3841 39.9443 77.9233 39.4051 78.8866 39.4051C79.509 39.4051 80.0045 39.6192 80.3692 39.9046L79.9807 40.5667C79.7587 40.3328 79.3425 40.1425 78.8945 40.1425C78.5457 40.1425 78.3157 40.2733 78.3157 40.4834C78.3157 40.7094 78.6051 40.7966 79.0134 40.8798C79.6438 41.0027 80.4882 41.1692 80.4882 42.081C80.4882 42.751 79.9173 43.2584 78.9024 43.2584C78.2642 43.2584 77.6497 43.0443 77.2612 42.6876L77.6814 42.0097Z" fill="#D30C2F"/>
<path fill-rule="evenodd" clip-rule="evenodd" d="M81.3603 42.2515V40.3367H80.7538V39.4923H81.3603V38.4894H82.3316V39.4923H83.0769V40.3367H82.3316V41.9938C82.3316 42.2198 82.4545 42.3942 82.6646 42.3942C82.8073 42.3942 82.946 42.3427 82.9976 42.2872L83.2037 43.0166C83.061 43.1474 82.8033 43.2505 82.399 43.2505C81.725 43.2545 81.3603 42.9056 81.3603 42.2515Z" fill="#D30C2F"/>
<path fill-rule="evenodd" clip-rule="evenodd" d="M85.8835 42.7827C85.6337 43.08 85.2016 43.2544 84.7219 43.2544C84.1352 43.2544 83.4454 42.858 83.4454 42.0414C83.4454 41.1851 84.1352 40.8719 84.7219 40.8719C85.2095 40.8719 85.6417 41.0226 85.8835 41.3199V40.8124C85.8835 40.4398 85.5663 40.198 85.0787 40.198C84.6823 40.198 84.3176 40.3407 84.0084 40.6301L83.6436 39.9839C84.0916 39.5875 84.6704 39.4051 85.2452 39.4051C86.0817 39.4051 86.8468 39.7381 86.8468 40.7966V43.1672H85.8835V42.7827ZM85.8835 41.8273C85.7249 41.6132 85.4197 41.5102 85.1104 41.5102C84.7299 41.5102 84.4207 41.7084 84.4207 42.0652C84.4207 42.4061 84.7338 42.6043 85.1104 42.6043C85.4236 42.6043 85.7249 42.4973 85.8835 42.2872V41.8273Z" fill="#D30C2F"/>
<path fill-rule="evenodd" clip-rule="evenodd" d="M87.5841 38.3784C87.5841 38.0612 87.8497 37.7996 88.1629 37.7996C88.48 37.7996 88.7417 38.0573 88.7417 38.3784C88.7417 38.6955 88.484 38.9572 88.1629 38.9572C87.8497 38.9532 87.5841 38.6955 87.5841 38.3784ZM87.6832 39.4963H88.6465V43.1633H87.6832V39.4963Z" fill="#D30C2F"/>
<path fill-rule="evenodd" clip-rule="evenodd" d="M91.9726 40.9433C91.9726 40.4358 91.707 40.2614 91.2987 40.2614C90.9181 40.2614 90.6208 40.4755 90.4622 40.6935V43.1633H89.4989V39.4963H90.4622V39.976C90.6961 39.6945 91.1441 39.4051 91.7467 39.4051C92.5514 39.4051 92.9399 39.861 92.9399 40.5746V43.1633H91.9766V40.9433H91.9726Z" fill="#D30C2F"/>
<path fill-rule="evenodd" clip-rule="evenodd" d="M95.9964 42.7827C95.7466 43.08 95.3145 43.2544 94.8349 43.2544C94.2481 43.2544 93.5583 42.858 93.5583 42.0414C93.5583 41.1851 94.2481 40.8719 94.8349 40.8719C95.3225 40.8719 95.7546 41.0226 95.9964 41.3199V40.8124C95.9964 40.4398 95.6792 40.198 95.1916 40.198C94.7952 40.198 94.4305 40.3407 94.1213 40.6301L93.7566 39.9839C94.2045 39.5875 94.7833 39.4051 95.3581 39.4051C96.1946 39.4051 96.9597 39.7381 96.9597 40.7966V43.1672H95.9964V42.7827ZM95.9964 41.8273C95.8378 41.6132 95.5326 41.5102 95.2233 41.5102C94.8428 41.5102 94.5336 41.7084 94.5336 42.0652C94.5336 42.4061 94.8467 42.6043 95.2233 42.6043C95.5365 42.6043 95.8378 42.4973 95.9964 42.2872V41.8273Z" fill="#D30C2F"/>
<path fill-rule="evenodd" clip-rule="evenodd" d="M97.8041 38.097H98.7674V39.9641C99.0568 39.5915 99.4651 39.4012 99.8972 39.4012C100.833 39.4012 101.523 40.1306 101.523 41.3318C101.523 42.5528 100.825 43.2545 99.8972 43.2545C99.4572 43.2545 99.0528 43.0563 98.7674 42.6916V43.1633H97.8041V38.097ZM99.5959 42.3942C100.159 42.3942 100.532 41.9701 100.532 41.3318C100.532 40.6936 100.159 40.2615 99.5959 40.2615C99.2828 40.2615 98.926 40.4438 98.7674 40.6856V41.9859C98.926 42.2198 99.2828 42.3942 99.5959 42.3942Z" fill="#D30C2F"/>
<path fill-rule="evenodd" clip-rule="evenodd" d="M102.185 38.097H103.148V43.1633H102.185V38.097Z" fill="#D30C2F"/>
<path fill-rule="evenodd" clip-rule="evenodd" d="M105.669 39.4012C106.763 39.4012 107.509 40.2218 107.509 41.423V41.637H104.781C104.841 42.1009 105.213 42.4894 105.836 42.4894C106.177 42.4894 106.581 42.3546 106.815 42.1246L107.239 42.747C106.874 43.08 106.296 43.2545 105.729 43.2545C104.611 43.2545 103.77 42.5013 103.77 41.3239C103.77 40.2614 104.555 39.4012 105.669 39.4012ZM104.765 40.9829H106.573C106.549 40.6341 106.307 40.1703 105.669 40.1703C105.071 40.1703 104.813 40.6182 104.765 40.9829Z" fill="#D30C2F"/>
<path fill-rule="evenodd" clip-rule="evenodd" d="M111.858 39.4012C112.611 39.4012 113.067 39.7263 113.308 40.0632L112.678 40.6539C112.504 40.3962 112.238 40.2575 111.905 40.2575C111.318 40.2575 110.91 40.6816 110.91 41.3199C110.91 41.9581 111.318 42.3903 111.905 42.3903C112.238 42.3903 112.504 42.2396 112.678 41.9938L113.308 42.5805C113.067 42.9215 112.611 43.2505 111.858 43.2505C110.728 43.2505 109.915 42.4537 109.915 41.3199C109.915 40.202 110.728 39.4012 111.858 39.4012Z" fill="#D30C2F"/>
<path fill-rule="evenodd" clip-rule="evenodd" d="M113.507 41.3239C113.507 40.2852 114.236 39.4012 115.441 39.4012C116.654 39.4012 117.384 40.2813 117.384 41.3239C117.384 42.3704 116.654 43.2545 115.441 43.2545C114.236 43.2545 113.507 42.3704 113.507 41.3239ZM116.385 41.3239C116.385 40.753 116.044 40.2614 115.441 40.2614C114.839 40.2614 114.506 40.757 114.506 41.3239C114.506 41.9026 114.839 42.3942 115.441 42.3942C116.044 42.3942 116.385 41.9026 116.385 41.3239Z" fill="#D30C2F"/>
<path fill-rule="evenodd" clip-rule="evenodd" d="M122.569 40.8442C122.569 40.5033 122.418 40.2575 122.022 40.2575C121.681 40.2575 121.4 40.4834 121.261 40.6816V43.1554H120.29V40.8402C120.29 40.4993 120.139 40.2535 119.743 40.2535C119.41 40.2535 119.128 40.4795 118.981 40.6856V43.1554H118.018V39.4884H118.981V39.9681C119.132 39.7461 119.62 39.3972 120.183 39.3972C120.722 39.3972 121.063 39.647 121.201 40.0672C121.415 39.7342 121.899 39.3972 122.462 39.3972C123.136 39.3972 123.54 39.754 123.54 40.5072V43.1593H122.569V40.8442V40.8442Z" fill="#D30C2F"/>
<path fill-rule="evenodd" clip-rule="evenodd" d="M124.623 40.3367H124.016V39.4924H124.623V39.2941C124.623 38.4973 125.138 38.0176 125.86 38.0176C126.133 38.0176 126.383 38.0771 126.557 38.1683L126.359 38.8501C126.276 38.7986 126.161 38.7748 126.046 38.7748C125.772 38.7748 125.59 38.9572 125.59 39.306V39.4884H126.335V40.3328H125.59V43.1593H124.619V40.3367H124.623Z" fill="#D30C2F"/>
<path fill-rule="evenodd" clip-rule="evenodd" d="M126.569 41.3239C126.569 40.2852 127.298 39.4012 128.503 39.4012C129.716 39.4012 130.446 40.2813 130.446 41.3239C130.446 42.3704 129.716 43.2545 128.503 43.2545C127.298 43.2545 126.569 42.3704 126.569 41.3239ZM129.447 41.3239C129.447 40.753 129.106 40.2614 128.503 40.2614C127.901 40.2614 127.568 40.757 127.568 41.3239C127.568 41.9026 127.901 42.3942 128.503 42.3942C129.106 42.3942 129.447 41.9026 129.447 41.3239Z" fill="#D30C2F"/>
<path fill-rule="evenodd" clip-rule="evenodd" d="M131.08 39.4963H132.044V39.9958C132.301 39.6707 132.757 39.4091 133.213 39.4091V40.3526C133.146 40.3367 133.055 40.3209 132.947 40.3209C132.63 40.3209 132.202 40.5032 132.044 40.7371V43.1593H131.08V39.4963Z" fill="#D30C2F"/>
<path fill-rule="evenodd" clip-rule="evenodd" d="M134.089 42.2515V40.3367H133.483V39.4923H134.089V38.4894H135.06V39.4923H135.806V40.3367H135.06V41.9938C135.06 42.2198 135.183 42.3942 135.393 42.3942C135.536 42.3942 135.675 42.3427 135.726 42.2872L135.933 43.0166C135.79 43.1474 135.532 43.2505 135.128 43.2505C134.454 43.2545 134.089 42.9056 134.089 42.2515Z" fill="#D30C2F"/>
<path fill-rule="evenodd" clip-rule="evenodd" d="M96.3016 24.3369V26.6084H100.722V34.9414H103.12V26.6084H107.41V24.3369H96.3016Z" fill="#D30C2F"/>
<path fill-rule="evenodd" clip-rule="evenodd" d="M132.682 34.2952C133.455 35.0603 133.665 35.1912 134.422 35.1912C135.433 35.1912 135.936 34.3071 135.936 33.6768V24.3369H133.411V31.7858L126.846 24.9712C126.073 24.2061 125.835 24.0872 125.078 24.0872C124.067 24.0872 123.564 24.9712 123.564 25.6015V34.9414H126.089V27.4925L132.682 34.2952Z" fill="#D30C2F"/>
<path fill-rule="evenodd" clip-rule="evenodd" d="M115.108 23.9603C110.906 23.9603 108.543 25.0029 108.543 29.6411C108.543 34.2794 110.902 35.322 115.108 35.322C119.31 35.322 121.673 34.2794 121.673 29.6411C121.673 25.0029 119.314 23.9603 115.108 23.9603ZM115.108 32.9196C112.511 32.9196 111.195 32.7293 111.195 29.6372C111.195 26.545 112.511 26.3548 115.108 26.3548C117.705 26.3548 119.06 26.545 119.06 29.6372C119.06 32.7333 117.705 32.9196 115.108 32.9196Z" fill="#D30C2F"/>
<path fill-rule="evenodd" clip-rule="evenodd" d="M77.4872 34.9414H79.8935L79.8856 24.3369H77.4872V34.9414Z" fill="#D30C2F"/>
<path fill-rule="evenodd" clip-rule="evenodd" d="M65.6299 26.6084H70.4664C71.8895 26.6084 72.064 27.2546 72.064 27.8651C72.064 28.4796 71.8776 29.1297 70.4743 29.1297H65.6299V26.6084ZM72.2622 30.9137C73.7765 30.5371 74.6368 29.3874 74.6368 27.8136C74.6368 25.6689 73.2215 24.3369 70.9421 24.3369H63.3584V34.9414H65.6299V31.1555H69.6695L72.1789 34.9414H75.0966L72.2622 30.9137Z" fill="#D30C2F"/>
<path fill-rule="evenodd" clip-rule="evenodd" d="M89.7646 28.2814H87.6397C85.8161 28.2814 85.4435 27.9365 85.4435 27.2864C85.4435 26.4895 86.6645 26.1843 88.385 26.1843C89.8994 26.1843 91.3265 26.438 92.9836 27.215L94.2561 25.4271C92.4484 24.3369 90.609 23.9603 88.3573 23.9603C84.9044 23.9603 82.8905 25.2329 82.8905 27.4053C82.8905 29.768 84.8449 30.5728 87.3662 30.549H89.7091C92.0123 30.549 92.3176 30.8146 92.3176 31.6907C92.3176 32.5628 91.0411 33.098 88.9915 33.098C87.1878 33.098 85.3325 32.7412 83.7032 31.655L82.4148 33.4865C84.1432 34.8621 86.276 35.3378 88.9757 35.3378C92.7457 35.3378 94.9102 33.9662 94.9102 31.5757C94.9142 29.3795 93.1818 28.2814 89.7646 28.2814Z" fill="#D30C2F"/>
<path fill-rule="evenodd" clip-rule="evenodd" d="M46.9384 34.9414H49.8521L50.9899 33.0465H57.8045L58.9422 34.9414H61.8441L55.6598 24.7175C55.4061 24.3369 54.9026 24.0872 54.3991 24.0872C53.8957 24.0872 53.3882 24.3409 53.1385 24.7175L46.9384 34.9414ZM54.3952 27.104L56.6667 31.0287H52.1236L54.3952 27.1159" fill="#D30C2F"/>
<path fill-rule="evenodd" clip-rule="evenodd" d="M30.2289 26.3865V30.1724H35.7749V26.3865L32.9999 23.8652L30.2289 26.3865Z" fill="#D30C2F"/>
<path fill-rule="evenodd" clip-rule="evenodd" d="M41.0713 24.3766V33.6094C41.0713 34.3428 40.4766 34.9374 39.7433 34.9374H26.2647C25.5313 34.9374 24.9366 34.3428 24.9366 33.6094V24.3766C24.9366 23.9999 25.0992 23.6392 25.3806 23.3855L32.116 17.3677C32.6194 16.9158 33.3806 16.9158 33.884 17.3677L40.6273 23.3855C40.9127 23.6392 41.0713 23.9999 41.0713 24.3766ZM33 19.4489L26.9505 24.8761V32.9473H39.0574V24.8761L33 19.4489Z" fill="#D30C2F"/>
</g>
<defs>
<clipPath id="clip0_2_903">
<rect width="111" height="36.4714" fill="white" transform="translate(25 12)"/>
</clipPath>
</defs>
</svg>
