<svg width="160" height="60" viewBox="0 0 160 60" fill="none" xmlns="http://www.w3.org/2000/svg">
<path fill-rule="evenodd" clip-rule="evenodd" d="M37.6533 32.3485H26.8347V34.658H34.979C35.5868 34.658 33.885 40.4928 30.3599 40.4928H21.1216V30.282C21.1216 29.3095 23.188 26.7568 25.6192 26.5137C25.8623 26.5137 35.8299 26.5137 35.7084 26.5137C35.2221 26.6353 36.6808 26.2706 37.2886 25.5413C37.6533 25.0551 37.5317 24.5688 37.7748 24.2042H21C21.1216 23.3533 21.6078 18.6125 26.1054 18.6125H43.488V36.8461C42.5155 38.791 41.0569 40.4928 37.8964 40.3712" fill="#D92231"/>
<path fill-rule="evenodd" clip-rule="evenodd" d="M122.139 29.6694C122.139 32.2221 122.747 34.167 123.962 35.5042C125.178 36.8413 126.636 37.4491 128.46 37.4491C130.283 37.4491 131.742 36.8413 132.957 35.5042C134.173 34.167 134.659 32.2221 134.659 29.6694C134.659 27.1167 134.051 25.1718 132.957 23.8347C131.863 22.6192 130.283 21.8898 128.46 21.8898C126.636 21.8898 125.056 22.4976 123.962 23.8347C122.747 25.0503 122.139 26.9952 122.139 29.6694ZM117.52 29.791C117.52 27.4814 117.884 25.5365 118.492 23.9563C118.978 22.8623 119.708 21.7683 120.559 20.9174C121.409 20.0665 122.382 19.3371 123.476 18.8509C124.935 18.2431 126.515 18 128.338 18C131.62 18 134.294 18.9725 136.361 21.0389C138.306 23.1054 139.4 26.0227 139.4 29.6694C139.4 33.3161 138.427 36.1119 136.482 38.1784C134.416 40.2449 131.742 41.3389 128.46 41.3389C125.056 41.3389 122.382 40.3664 120.437 38.3C118.492 36.2335 117.52 33.3161 117.52 29.791ZM97.949 40.8527V18.3647H102.568V28.3323L111.806 18.3647H117.884L109.375 27.1167L118.371 40.8527H112.536L106.215 30.2772L102.568 34.0455V40.8527H97.949ZM75.4611 33.5593L79.8371 33.073C80.0802 34.5317 80.688 35.6257 81.4173 36.3551C82.2682 37.0844 83.3622 37.4491 84.6994 37.4491C86.158 37.4491 87.252 37.0844 87.9814 36.4766C88.7107 35.8688 89.0754 35.1395 89.0754 34.2886C89.0754 33.8024 88.9538 33.3161 88.5892 32.9515C88.2245 32.5868 87.7383 32.2221 87.0089 31.979C86.5227 31.7359 85.3071 31.4928 83.3622 31.0066C80.9311 30.3988 79.2293 29.6694 78.2569 28.8185C76.9197 27.603 76.1904 26.0227 76.1904 24.3209C76.1904 23.2269 76.5551 22.1329 77.1628 21.0389C77.7706 20.0665 78.7431 19.3371 79.9587 18.7293C81.1742 18.2431 82.6329 18 84.3347 18C87.1305 18 89.3185 18.6078 90.7772 19.8234C92.2359 21.0389 92.9652 22.7407 93.0868 24.8072L88.5892 25.0503C88.3461 23.8347 87.9814 23.1054 87.3736 22.4976C86.7658 22.0114 85.7934 21.7683 84.4562 21.7683C83.1191 21.7683 82.1467 22.0114 81.2958 22.6192C80.8095 22.9838 80.5664 23.47 80.5664 23.9563C80.5664 24.4425 80.8095 24.9287 81.2958 25.2934C81.9036 25.7796 83.2407 26.2659 85.4287 26.7521C87.6167 27.2383 89.3185 27.8461 90.291 28.3323C91.385 28.9401 92.2359 29.6694 92.8437 30.6419C93.4514 31.6143 93.6946 32.8299 93.6946 34.2886C93.6946 35.6257 93.3299 36.8413 92.6005 37.9353C91.8712 39.0293 90.8987 39.8802 89.5616 40.488C88.2245 41.0958 86.6443 41.3389 84.6994 41.3389C81.9036 41.3389 79.7155 40.7311 78.1353 39.394C76.6766 38.0569 75.8257 36.1119 75.4611 33.5593ZM66.8305 31.979L63.6701 23.5916L60.6311 31.979H66.8305ZM75.2179 40.8527H70.2341L68.2892 35.7473H59.294L57.4707 40.8527H52.6084L61.3605 18.3647H66.2227L75.2179 40.8527Z" fill="#D92231"/>
</svg>
