<svg width="160" height="60" viewBox="0 0 160 60" fill="none" xmlns="http://www.w3.org/2000/svg">
<rect width="160" height="60" fill="white"/>
<g clip-path="url(#clip0_2_906)">
<path d="M121.645 35.0918C121.645 33.994 122.508 33.2099 123.527 33.2099C124.546 33.2099 125.409 33.994 125.409 35.0918C125.409 36.1896 124.546 36.9737 123.527 36.9737C122.508 36.9737 121.645 36.1896 121.645 35.0918ZM123.527 36.66C124.389 36.66 125.017 36.0327 125.017 35.0918C125.017 34.2293 124.389 33.5235 123.527 33.5235C122.664 33.5235 122.037 34.1508 122.037 35.0918C121.959 36.0327 122.664 36.66 123.527 36.66ZM123.135 36.1896H122.821V34.0724H123.605C124.076 34.0724 124.389 34.2293 124.389 34.6997C124.389 35.0918 124.154 35.2486 123.841 35.327L124.468 36.268H124.076L123.527 35.327H123.135V36.1896V36.1896ZM123.527 35.0134C123.841 35.0134 124.076 35.0134 124.076 34.6997C124.076 34.4645 123.841 34.3861 123.605 34.3861H123.135V35.0134H123.527V35.0134Z" fill="#26C4F1"/>
<path d="M92.8679 32.4258C92.8679 32.5826 92.711 34.3077 93.9656 32.8178C94.2009 32.5826 98.5919 28.3484 98.7488 28.1915C99.3761 27.6426 100.003 27.9563 100.239 28.1915C100.944 28.8972 101.493 30.5439 101.572 30.9359C102.12 32.3474 102.591 33.3667 102.905 33.7588C103.218 34.1508 103.453 33.9156 103.453 33.9156C104.159 33.6019 106.512 32.2689 106.59 27.7211C106.668 23.8005 107.217 22.5459 107.217 22.5459C106.433 22.6243 104.316 23.0163 102.748 23.2516C101.101 23.4868 100.552 23.4084 100.317 23.33C99.9249 23.1732 98.9056 19.0173 98.9056 18.7037C98.9056 18.39 99.0624 18.4685 99.0624 18.4685C99.8465 18.39 102.591 18.7037 103.218 18.7821C106.433 19.1742 107.688 18.5469 107.688 18.5469C107.845 18.4685 108.158 17.8412 108.315 17.5275C108.55 17.057 108.785 16.8218 109.099 16.5866C109.491 16.2729 111.451 15.8025 111.844 15.8809C112.236 15.8809 112.471 16.0377 112.471 16.3513C112.471 20.1151 110.432 22.3106 110.432 22.3106C109.648 27.0154 109.805 31.4064 109.805 32.1121C109.805 32.1121 109.883 35.0918 113.255 29.995C113.725 29.2893 115.607 26.7017 116.156 26.2312C117.176 25.2903 117.646 27.0154 117.646 27.0154C117.881 27.6426 118.744 31.9553 118.744 32.1905C118.901 33.4451 119.998 32.5826 120.312 32.2689C120.939 31.5632 121.253 31.328 121.253 31.328C122.037 30.7791 121.723 33.1315 121.723 33.1315C121.723 33.1315 118.587 36.9737 117.097 36.4248C115.45 35.8759 115.294 33.6019 114.902 32.3474C114.51 31.0928 114.274 31.0928 114.039 31.4064C113.804 31.7201 111.373 35.0134 111.373 35.0134C110.275 36.4248 108.393 37.8362 107.452 37.2089C106.59 36.66 106.747 34.3077 106.668 33.7588C106.59 33.2099 105.727 34.2292 104.708 35.1702C103.689 36.1111 102.513 37.2873 101.336 37.5225C100.16 37.7578 99.6113 37.2089 99.2192 36.66C98.8272 36.1111 97.651 33.5235 97.4942 33.1315C97.2589 32.7394 97.1021 32.8178 96.9453 32.9747C96.7885 33.1315 94.5929 35.4838 93.1031 36.7384C91.6133 37.993 90.7507 37.993 90.1234 37.8362C89.4962 37.601 89.4177 37.0521 89.4177 36.0327C89.4177 35.0134 89.3393 32.3474 89.3393 32.0337C89.3393 31.7201 89.1825 31.6417 88.9473 31.7985C88.712 31.9553 85.8892 35.0918 85.8892 35.0918C83.5369 37.4441 82.1254 37.3657 81.7334 37.2089C81.1845 36.9737 81.5766 35.6407 81.5766 35.1702C81.5766 34.6997 81.3413 34.6997 81.0277 34.8565C80.714 35.0134 77.3423 37.1305 77.3423 37.1305C77.3423 37.1305 73.8138 39.5612 72.6376 37.5225C71.383 35.4054 74.049 31.8769 74.2058 31.7201C76.715 27.9563 80.6356 25.0551 82.1254 24.7414C83.5368 24.5062 83.4584 25.6039 83.4584 25.6039C83.38 27.2506 82.5175 28.2699 82.047 28.8188C81.655 29.3677 81.1845 29.2109 80.714 28.9756C80.322 28.7404 80.0867 28.7404 79.7731 28.9756C79.4594 29.2109 76.5582 32.3474 76.1661 33.1315C75.7741 33.8372 76.2445 34.3077 77.0287 34.1508C77.8128 33.994 79.5378 32.7394 80.6356 31.4848C81.7334 30.2302 83.2232 29.1325 83.6937 28.8188C84.1641 28.5836 84.3994 28.8188 84.4778 28.8972C84.7914 29.2109 84.7914 30.1518 84.713 30.4655C84.6346 30.7791 84.5562 31.7201 84.5562 31.7201C84.4778 32.5042 84.6346 32.7394 84.6346 32.7394C84.9483 33.1315 85.654 32.2689 85.654 32.2689C86.5949 31.328 87.9279 29.8382 88.8689 28.5836L90.2803 26.7801C90.2803 26.7801 91.1428 25.7608 91.8485 26.4665C91.8485 26.4665 92.0053 26.7801 92.319 26.7801C92.6326 26.8585 93.0247 27.0938 93.0247 27.4074C93.1031 27.7995 92.8679 32.4258 92.8679 32.4258Z" fill="#26C4F1"/>
<path d="M118.979 22.1539C117.881 23.4869 116.156 24.1926 115.45 23.5653C114.823 23.0164 114.902 21.1345 115.999 19.8015C117.097 18.4685 118.744 17.9196 119.449 18.5469C120.234 19.1742 120.155 20.664 118.979 22.1539Z" fill="#26C4F1"/>
<path d="M72.873 29.2109C73.5787 26.6233 73.3435 24.4277 73.3435 24.4277C73.3435 24.4277 73.1867 24.5846 72.3241 24.5061C71.4616 24.4277 71.0695 24.7414 71.0695 24.7414C71.0695 27.5642 69.3445 31.6416 68.7956 32.7394C67.149 36.1111 67.2274 29.8382 66.9137 28.1915C66.5217 26.3096 65.2671 26.3096 64.7182 26.6233C61.9738 28.2699 58.1316 31.5632 57.5827 32.1905C57.0338 32.8178 56.877 32.3473 56.877 32.0337C56.877 31.72 56.5634 26.3096 56.4849 25.996C56.1713 21.4481 55.8576 19.331 55.8576 19.0957C55.3088 15.5672 54.6815 14.5478 54.6815 14.5478C54.2894 13.5285 53.8189 13.2933 53.0348 12.9796C52.3291 12.666 51.7802 12.2739 51.7018 12.1955C51.4666 11.9602 51.4666 11.4898 51.545 11.1761C51.7018 9.84313 50.9961 9.99995 50.9961 9.99995C49.8199 10.392 48.5653 11.1761 48.4869 11.1761C46.213 12.5875 44.4095 14.5478 44.4095 14.5478C43.939 15.0183 45.4289 17.057 45.4289 17.057C45.4289 17.057 43.939 23.9573 43.939 24.0357C43.547 26.3096 43.3118 26.3096 43.0765 26.4664C42.5276 27.0153 40.881 27.0937 40.3321 27.0937C38.7639 27.1721 38.9991 28.662 38.9991 29.4461C38.9991 30.1518 38.9991 30.5439 39.0775 30.7791C39.4696 31.6416 40.7242 31.2496 41.273 31.0927C41.9003 31.0143 42.2924 31.1712 42.2924 31.1712C42.2924 31.1712 40.0185 39.1692 39.94 39.326C38.8423 42.3056 39.2343 42.4625 39.2343 42.4625C39.548 42.7761 41.9787 42.3056 43.3902 41.8352C43.7038 41.6783 44.0959 41.4431 44.3311 40.9726C45.1152 39.4828 45.6641 36.1111 45.7425 35.7975C46.3698 31.328 47.0755 29.7597 47.0755 29.7597C47.3892 29.1324 49.1142 29.5245 50.3688 28.8972C52.0939 28.1131 52.878 28.5052 52.878 28.5052C53.2701 28.662 53.1132 30.4654 53.1132 31.328C53.0348 36.2679 53.2701 39.7181 53.2701 39.7181C53.3485 40.5022 54.5246 40.3453 55.3088 39.6396C56.0145 38.9339 60.5624 32.9746 62.209 31.4848C62.9147 30.8575 62.9147 31.0927 62.9147 31.0927C62.9147 31.0927 63.1499 34.4645 64.0909 36.1895C65.4239 38.6203 66.3648 38.385 66.8353 38.2282C69.6581 37.3657 71.9321 32.7394 72.873 29.2109ZM51.3882 25.2119C50.8393 25.3687 48.5653 25.7607 48.1733 25.6039C47.8596 25.4471 48.8006 22.9379 49.3495 21.3697C50.4472 18.3116 51.1529 18.4684 51.545 19.6446C52.0939 21.2128 52.1723 24.5061 52.1723 24.663C52.2507 24.663 52.2507 24.9766 51.3882 25.2119Z" fill="#26C4F1"/>
<path d="M121.802 38.0714C57.9746 41.7567 38.1364 48.0297 38.1364 48.0297C38.1364 48.0297 37.3523 48.2649 36.8034 48.3433C36.0977 48.5002 35.3136 48.2649 35.0784 47.5592C34.8431 46.5399 35.5488 46.0694 36.4114 45.8342C37.1171 45.5989 37.9796 45.4421 37.9796 45.4421C37.9796 45.4421 66.992 39.4828 122.037 37.4441C122.037 37.4441 123.762 37.3657 123.684 37.7577C123.684 38.0714 121.802 38.0714 121.802 38.0714Z" fill="#26C4F1"/>
</g>
<defs>
<clipPath id="clip0_2_906">
<rect width="90.4089" height="40.8526" fill="white" transform="translate(35 10)"/>
</clipPath>
</defs>
</svg>
