<svg width="160" height="60" viewBox="0 0 160 60" fill="none" xmlns="http://www.w3.org/2000/svg">
<rect width="160" height="60" fill="white"/>
<path d="M100.746 41.6072C99.3045 41.6072 98.0338 41.6072 96.6654 41.6072C96.6654 33.8854 96.6654 26.1392 96.6654 18.2463C98.6692 18.2463 100.648 18.1975 102.628 18.2463C104.974 18.2952 107.368 18.1975 109.665 18.5884C113.306 19.1993 115.383 21.5696 115.677 24.8441C115.994 28.5584 114.43 31.0753 110.863 32.5659C110.692 32.6392 110.496 32.7125 110.203 32.8591C112.256 35.767 114.259 38.6016 116.385 41.5828C114.675 41.5828 113.184 41.5828 111.523 41.5828C109.714 38.9926 107.808 36.3046 105.902 33.5678C104.241 33.5678 102.579 33.5678 100.771 33.5678C100.746 36.2069 100.746 38.8704 100.746 41.6072ZM100.795 22.0828C100.795 24.6975 100.795 27.2144 100.795 29.7313C103.239 29.7313 105.658 29.9023 108.004 29.6824C110.325 29.4625 111.596 27.8497 111.523 25.7482C111.449 23.6711 110.081 22.2538 107.686 22.1072C105.414 21.9851 103.141 22.0828 100.795 22.0828Z" fill="#363234"/>
<path d="M44.6654 38.5527C49.1372 33.1279 53.6579 27.6787 58.3496 22.0095C53.8045 22.0095 49.5038 22.0095 45.1053 22.0095C45.1053 20.6655 45.1053 19.517 45.1053 18.2952C51.312 18.2952 57.4944 18.2952 63.7256 18.2952C63.8966 19.8591 63.9944 21.2276 62.797 22.596C58.7162 27.3366 54.7575 32.1994 50.7744 37.0133C50.579 37.2576 50.4079 37.5264 50.0902 37.9663C54.7087 37.9663 59.1805 37.9663 63.75 37.9663C63.75 39.237 63.75 40.361 63.75 41.5828C57.4211 41.5828 51.0921 41.5828 44.641 41.5828C44.6654 40.6298 44.6654 39.6768 44.6654 38.5527Z" fill="#383436"/>
<path d="M69.6146 18.3196C71.1541 18.3196 72.4248 18.3196 73.8909 18.3196C73.8909 18.7839 73.8909 19.2238 73.8909 19.6392C73.8909 23.7933 73.8421 27.9475 73.9154 32.1016C73.9398 34.3497 74.5751 36.3779 76.7011 37.5997C80.7819 39.9211 85.4492 37.4287 85.6203 32.7369C85.7669 28.4606 85.6691 24.1843 85.6936 19.908C85.6936 19.4193 85.6936 18.9305 85.6936 18.3441C87.062 18.3441 88.3815 18.3441 89.8233 18.3441C89.8233 19.0039 89.8233 19.6392 89.8233 20.2745C89.8233 24.2576 89.8721 28.2407 89.7988 32.2482C89.75 35.3272 88.8947 38.1373 86.3533 40.1411C82.859 42.9024 76.4567 42.829 72.9868 40.0189C71.3007 38.6505 70.1767 36.8178 70.0545 34.6918C69.7612 29.2426 69.7368 23.8178 69.6146 18.3196Z" fill="#373335"/>
<path d="M20.2049 41.6072C18.7631 41.6072 17.468 41.6072 15.9774 41.6072C19.4473 33.7388 22.844 25.9681 26.2406 18.173C27.5357 18.173 28.7819 18.173 30.1259 18.173C33.4981 25.8948 36.9192 33.6655 40.3646 41.5584C38.8496 41.5584 37.5056 41.5584 36.015 41.5584C35.2819 39.799 34.5 37.9418 33.6936 36.0602C30.0282 36.0602 26.3628 36.0602 22.624 36.0602C21.8176 37.8685 21.0357 39.7257 20.2049 41.6072ZM28.1222 23.0358C26.7293 26.2614 25.4586 29.2181 24.1635 32.2482C26.9004 32.2482 29.4661 32.2482 32.1297 32.2482C30.7857 29.1693 29.4906 26.2125 28.1222 23.0358Z" fill="#363234"/>
<path d="M143.607 18.5884C143.607 20.3234 143.607 21.8873 143.607 23.5734C137.449 23.5734 131.389 23.5734 125.231 23.5734C125.231 21.9117 125.231 20.299 125.231 18.5884C131.34 18.5884 137.4 18.5884 143.607 18.5884Z" fill="#4EA1D7"/>
<path d="M125.207 41.5828C125.207 39.8967 125.207 38.3328 125.207 36.6223C131.316 36.6223 137.376 36.6223 143.583 36.6223C143.583 38.2595 143.583 39.8723 143.583 41.5828C137.449 41.5828 131.414 41.5828 125.207 41.5828Z" fill="#4DA0D7"/>
<path d="M119.318 32.9569C120.271 31.1486 121.761 30.0978 123.398 29.2181C127.015 27.2877 130.851 27.1655 134.786 27.9963C137.278 28.5339 139.795 28.9493 142.361 29.4381C142.239 29.5847 142.068 29.8779 141.823 30.0978C139.404 32.1993 136.789 33.1279 133.515 32.2482C130.045 31.3196 126.477 30.8309 122.91 31.6373C121.712 31.8572 120.613 32.4681 119.318 32.9569Z" fill="#4FA1D7"/>
</svg>
