<svg width="160" height="60" viewBox="0 0 160 60" fill="none" xmlns="http://www.w3.org/2000/svg">
<path d="M144.903 16.6028C144.489 16.6028 144.083 16.4817 143.738 16.2546C143.394 16.0276 143.125 15.7048 142.966 15.3273C142.808 14.9497 142.766 14.5342 142.847 14.1334C142.928 13.7326 143.128 13.3644 143.421 13.0754C143.714 12.7864 144.088 12.5896 144.494 12.5099C144.901 12.4302 145.323 12.4711 145.706 12.6275C146.089 12.7839 146.416 13.0487 146.647 13.3885C146.877 13.7283 147 14.1278 147 14.5365C147 15.0845 146.779 15.6101 146.386 15.9976C145.993 16.3851 145.459 16.6028 144.903 16.6028ZM144.903 12.7654C144.548 12.7654 144.2 12.8693 143.905 13.0639C143.609 13.2585 143.379 13.5351 143.243 13.8587C143.107 14.1824 143.071 14.5385 143.141 14.8821C143.21 15.2256 143.381 15.5412 143.633 15.7889C143.884 16.0366 144.204 16.2053 144.553 16.2736C144.901 16.342 145.263 16.3069 145.591 16.1728C145.919 16.0388 146.2 15.8118 146.398 15.5205C146.595 15.2293 146.701 14.8868 146.701 14.5365C146.698 14.0681 146.508 13.6196 146.171 13.2892C145.835 12.9587 145.379 12.7732 144.903 12.7732V12.7654Z" fill="#CC0000"/>
<path fill-rule="evenodd" clip-rule="evenodd" d="M144.472 13.6731V14.3878H145.016C145.069 14.3907 145.122 14.3834 145.172 14.366C145.222 14.3487 145.268 14.3218 145.308 14.2868C145.347 14.2535 145.378 14.2116 145.399 14.1645C145.419 14.1173 145.429 14.0661 145.426 14.0149C145.426 13.7896 145.3 13.6731 145.04 13.6731H144.472ZM144.102 15.7239V13.3935H145.04C145.216 13.3848 145.39 13.44 145.528 13.5488C145.605 13.6095 145.667 13.6864 145.709 13.7738C145.751 13.8612 145.773 13.9569 145.773 14.0538C145.773 14.1979 145.729 14.3389 145.647 14.4577C145.563 14.574 145.445 14.6611 145.308 14.7063L145.859 15.7627H145.426L144.937 14.7451H144.472V15.7239H144.102Z" fill="#CC0000"/>
<path fill-rule="evenodd" clip-rule="evenodd" d="M138.676 20.3274C137.099 20.3274 136.311 21.2958 136.311 23.2327C136.289 23.8555 136.497 24.4651 136.895 24.9494C137.117 25.2042 137.395 25.4063 137.707 25.5408C138.02 25.6753 138.359 25.7387 138.7 25.7262C140.402 25.7262 141.261 24.8795 141.261 23.0928C141.261 21.3062 140.379 20.3429 138.676 20.3274ZM13 32.1349C13.3389 32.1349 138.455 32.0883 138.834 32.0339C139.555 32.0307 140.247 31.7523 140.765 31.2571C141.107 30.5283 141.267 29.729 141.23 28.9267V27.8547C139.994 28.8264 138.442 29.3208 136.863 29.2452C135.968 29.2841 135.074 29.1469 134.234 28.8414C133.393 28.536 132.623 28.0685 131.968 27.4663C131.394 26.9094 130.944 26.2419 130.644 25.5053C130.344 24.7688 130.202 23.9792 130.226 23.1861C130.151 21.4962 130.757 19.8457 131.913 18.5951C132.582 17.9344 133.384 17.4206 134.269 17.0872C135.153 16.7539 136.099 16.6086 137.044 16.6609C137.924 16.6342 138.798 16.8057 139.599 17.1625C140.401 17.5192 141.11 18.0518 141.671 18.7194V17.057H147V28.4684C147 30.7988 146.606 32.4068 145.802 33.3312C144.659 34.6518 142.593 35.7393 139.173 35.7393L13 35.5917C13 35.5917 13 32.1038 13 32.1349ZM120.074 29.0277V17.4377H125.055V19.7681H125.103C125.42 18.929 126.005 18.2137 126.769 17.7292C127.534 17.2448 128.437 17.0171 129.343 17.0803L130.053 17.1502V21.8111L128.918 21.679C128.429 21.6291 127.935 21.6869 127.471 21.8481C127.008 22.0093 126.586 22.2699 126.238 22.6112C125.72 23.329 125.477 24.2041 125.552 25.0815V29.0898L120.074 29.0277ZM118.986 23.8852H108.029C108.023 24.2167 108.09 24.5456 108.227 24.8489C108.363 25.1521 108.564 25.4224 108.818 25.6408C109.391 26.106 110.117 26.349 110.859 26.3244C111.286 26.3652 111.715 26.2844 112.097 26.0916C112.478 25.8988 112.796 25.6021 113.011 25.2368H118.529C118.277 25.9663 117.863 26.6314 117.318 27.1836C116.772 27.7359 116.109 28.1615 115.376 28.4295C113.833 29.0684 112.169 29.3756 110.497 29.3306C108.413 29.4272 106.355 28.8458 104.64 27.676C103.876 27.1324 103.26 26.411 102.848 25.5761C102.435 24.7412 102.239 23.8188 102.275 22.8909C102.245 21.9587 102.439 21.0328 102.842 20.1889C103.245 19.345 103.845 18.6072 104.593 18.0358C106.28 16.776 108.358 16.1309 110.473 16.2103C112.765 16.0862 115.015 16.8533 116.739 18.3465C117.505 19.0545 118.104 19.9195 118.494 20.8806C118.883 21.8417 119.054 22.8753 118.994 23.9085L118.986 23.8852ZM108.029 21.3994H113.248C113.244 21.104 113.171 20.8135 113.034 20.5507C112.897 20.2879 112.701 20.0599 112.459 19.8846C111.985 19.4723 111.374 19.2456 110.741 19.2476C108.928 19.2476 108.029 19.9623 108.029 21.3994ZM92.6116 26.1768C94.3457 26.1768 95.2206 25.2291 95.2206 23.3336C95.2476 22.6624 95.048 22.0013 94.6531 21.4538C94.4156 21.1478 94.1047 20.9046 93.7485 20.746C93.3922 20.5874 93.0016 20.5183 92.6116 20.5449C92.229 20.5257 91.8472 20.5951 91.4968 20.7475C91.1464 20.8999 90.8371 21.1312 90.5937 21.4227C90.1882 21.9395 89.979 22.5798 90.0025 23.2327C89.9784 23.9229 90.1771 24.6029 90.57 25.1747C90.7915 25.5032 91.0967 25.7687 91.4549 25.9446C91.8132 26.1204 92.212 26.2005 92.6116 26.1768ZM90.1602 12.637V18.4009C91.3903 17.3281 92.9966 16.7707 94.6373 16.8473C95.5759 16.8019 96.5136 16.9545 97.3876 17.2947C98.2616 17.635 99.0519 18.1551 99.7057 18.8204C100.83 19.994 101.439 21.5571 101.4 23.1705C101.502 24.8425 100.936 26.4873 99.8239 27.7537C98.6179 29.0199 96.805 29.6491 94.4009 29.6491C92.1307 29.6491 90.5385 28.9629 89.6242 27.5906H89.5375V29.3073H84.0198V12.637H90.1602ZM57.1411 29.1519V17.3833H62.4222V19.1389C62.9695 18.4882 63.6631 17.9722 64.448 17.6319C65.2506 17.2537 66.128 17.0548 67.0176 17.0493C69.3823 17.0493 70.9588 17.7691 71.747 19.2088C72.3671 18.502 73.14 17.9412 74.0089 17.5675C74.8778 17.1938 75.8206 17.0167 76.7681 17.0493C78.7912 17.0493 80.2494 17.505 81.1428 18.4164C82.0302 19.4717 82.4681 20.8249 82.3645 22.1917V29.183H76.571V23.155C76.6124 22.5872 76.5179 22.0178 76.2951 21.4926C76.1219 21.2204 75.8733 21.0026 75.5786 20.865C75.2839 20.7273 74.9555 20.6756 74.632 20.7158C73.2841 20.7158 72.6141 21.5858 72.6141 23.3181V29.1364H66.8521V23.155C66.9009 22.589 66.8146 22.0197 66.5999 21.4926C66.4272 21.2217 66.1799 21.0047 65.8868 20.8672C65.5936 20.7296 65.2668 20.6771 64.9446 20.7158C63.5967 20.7158 62.9188 21.5858 62.9188 23.3181V29.1364L57.1411 29.1519ZM38.3575 23.2715C38.3169 22.2971 38.5174 21.3276 38.9417 20.4466C39.366 19.5656 40.0014 18.7995 40.7931 18.2145C42.3696 17.0337 44.5004 16.4433 47.1857 16.4433C49.412 16.347 51.6142 16.9302 53.4915 18.1135C54.3052 18.6545 54.9663 19.39 55.413 20.2514C55.8596 21.1127 56.0772 22.0717 56.0454 23.0385C56.0968 24.0083 55.9085 24.9759 55.4966 25.8581C55.0847 26.7404 54.4615 27.5108 53.6807 28.1033C51.7781 29.3679 49.5089 29.987 47.2172 29.8666C44.9935 29.9694 42.7916 29.3944 40.9113 28.2198C40.092 27.6788 39.4271 26.9399 38.98 26.0737C38.5329 25.2074 38.3186 24.2426 38.3575 23.2715ZM47.2803 19.8069C46.8558 19.7881 46.4335 19.8759 46.053 20.062C45.6724 20.2482 45.3461 20.5266 45.1047 20.8712C44.7023 21.5113 44.502 22.2548 44.5293 23.0074C44.5293 25.3016 45.42 26.4487 47.2014 26.4487C48.9829 26.4487 49.8814 25.299 49.8814 23.0074C49.9014 22.2641 49.7044 21.5307 49.3139 20.8945C49.1103 20.5455 48.8123 20.259 48.4533 20.067C48.0942 19.875 47.6882 19.785 47.2803 19.8069ZM37.2776 29.0898H31.6732V12.2952H37.2776V29.0898ZM22.2539 29.5947H13V12H22.0647C27.1777 12 29.7342 13.4759 29.7342 16.4278C29.7297 17.2382 29.4956 18.0311 29.0583 18.7174C28.621 19.4037 27.9978 19.9559 27.2591 20.3119C28.1713 20.5057 28.9841 21.0122 29.5529 21.7412C30.1152 22.4826 30.4119 23.387 30.3963 24.3124C30.4173 27.8547 27.7032 29.6258 22.2539 29.6258V29.5947ZM21.4183 16.1093H19.227V19.0457H21.8124C23.2313 19.0457 23.9486 18.533 23.9486 17.492C23.9776 17.2297 23.9154 16.9655 23.7722 16.7425C23.6291 16.5195 23.4133 16.3511 23.1603 16.2647C22.5901 16.1319 22.0035 16.0796 21.4183 16.1093ZM21.2055 22.2539H19.227V25.5087H21.9386C23.7357 25.5087 24.6264 24.9727 24.6264 23.8929C24.6503 23.5869 24.5671 23.2821 24.3907 23.0291C24.2143 22.7761 23.9553 22.5903 23.6569 22.5025C22.8572 22.2979 22.0307 22.2141 21.2055 22.2539Z" fill="#CC0000"/>
<path d="M108.319 45.5638C108.208 46.6902 108.65 46.6513 108.973 46.6513C109.062 46.6622 109.152 46.6514 109.236 46.6196C109.319 46.5879 109.394 46.5363 109.452 46.4694C109.511 46.4025 109.551 46.3225 109.571 46.2363C109.591 46.1501 109.588 46.0605 109.564 45.9755C109.564 45.6337 109.138 45.4395 108.863 45.2531L108.074 44.7248C107.726 44.5359 107.435 44.2597 107.23 43.9241C107.025 43.5885 106.914 43.2055 106.908 42.8139C106.908 41.8739 107.696 41.3379 109.02 41.3379C109.295 41.2996 109.574 41.3258 109.837 41.4143C110.099 41.5029 110.336 41.6513 110.529 41.8475C110.722 42.0437 110.865 42.2821 110.947 42.5432C111.028 42.8043 111.046 43.0807 110.999 43.3499H109.58C109.58 42.6741 109.414 42.4177 108.926 42.4177C108.587 42.4177 108.327 42.5653 108.327 42.9071C108.327 43.2489 108.587 43.4276 108.863 43.6062L110.021 44.383C110.48 44.6539 110.824 45.0786 110.991 45.5793C111.109 46.6358 110.849 47.7311 108.886 47.7311C108.598 47.7611 108.307 47.7239 108.036 47.6225C107.766 47.521 107.523 47.3582 107.328 47.1471C107.133 46.9361 106.991 46.6828 106.914 46.4077C106.837 46.1327 106.827 45.8435 106.884 45.5638H108.319Z" fill="black"/>
<path d="M112.008 43.5867C111.945 42.1496 112.686 41.334 114.081 41.334C116.059 41.334 116.264 42.3438 116.264 44.0062V44.783H113.426V45.6608C113.426 46.4376 113.742 46.6085 114.167 46.6085C114.593 46.6085 114.845 46.2356 114.822 45.4744H116.256C116.311 46.826 115.744 47.6883 114.293 47.6883C112.654 47.6883 111.992 46.9115 112.023 45.1403L112.008 43.5867ZM114.845 43.7421V43.2216C114.845 42.608 114.672 42.4448 114.104 42.4448C113.395 42.4448 113.426 42.9808 113.426 43.5324V43.7732L114.845 43.7421Z" fill="black"/>
<path d="M117.691 40.738V39.4951H119.11V40.738H117.691ZM117.691 47.5351V41.5148H119.11V47.5817L117.691 47.5351Z" fill="black"/>
<path d="M122.673 47.588C121.83 47.6812 120.656 47.7589 120.656 46.6325V42.5154H120.072V41.5133H120.64V39.8276H122.074V41.5133H122.673V42.5309H122.074V46.2985C122.074 46.5626 122.5 46.5237 122.673 46.5082V47.588Z" fill="black"/>
<path d="M128.014 41.9731H126.17V40.8934C127.226 40.8934 128.109 40.606 128.416 39.4951H129.544V47.5662H128.014V41.9731Z" fill="black"/>
<path d="M131.779 41.3375C131.776 41.0729 131.831 40.8107 131.939 40.5684C132.047 40.3262 132.206 40.1095 132.406 39.933C132.606 39.7564 132.842 39.6241 133.099 39.5448C133.355 39.4655 133.625 39.4411 133.892 39.4732C135.413 39.4732 135.981 40.1879 135.981 41.5473C136.032 41.9035 135.956 42.2664 135.767 42.5738C135.577 42.8812 135.285 43.1142 134.94 43.233C135.878 43.4272 136.162 44.0952 136.162 45.2682C136.162 47.0549 135.311 47.7229 133.923 47.7229C132.189 47.7229 131.559 46.9461 131.559 45.2837C131.559 44.0875 131.874 43.5592 132.702 43.1941C132.079 42.8601 131.779 42.4795 131.779 41.3375ZM133.892 46.5577C134.633 46.5033 134.633 45.8897 134.633 45.2061C134.633 44.5225 134.633 43.7845 133.844 43.7845C133.056 43.7845 133.056 44.4526 133.056 45.3381C133.119 46.0139 133.143 46.5344 133.892 46.5577ZM134.554 41.5628C134.554 40.9491 134.294 40.654 133.9 40.654C133.316 40.654 133.19 41.12 133.19 41.6716C133.19 42.2231 133.261 42.7125 133.884 42.7125C134.507 42.7125 134.554 42.0444 134.554 41.5628Z" fill="black"/>
<path d="M137.232 41.3375C137.229 41.0729 137.284 40.8107 137.392 40.5684C137.5 40.3262 137.659 40.1095 137.859 39.933C138.059 39.7564 138.295 39.6241 138.552 39.5448C138.808 39.4655 139.078 39.4411 139.345 39.4732C140.866 39.4732 141.434 40.1879 141.434 41.5473C141.485 41.9035 141.41 42.2664 141.22 42.5738C141.03 42.8812 140.738 43.1142 140.393 43.233C141.331 43.4272 141.615 44.0952 141.615 45.2682C141.615 47.0549 140.764 47.7229 139.376 47.7229C137.642 47.7229 137.012 46.9461 137.012 45.2837C137.012 44.0875 137.327 43.5592 138.163 43.1941C137.54 42.8601 137.232 42.4795 137.232 41.3375ZM139.345 46.5577C140.086 46.5033 140.086 45.8897 140.086 45.2061C140.086 44.5225 140.086 43.7845 139.298 43.7845C138.509 43.7845 138.509 44.4526 138.509 45.3381C138.572 46.0139 138.596 46.5344 139.345 46.5577ZM140.015 41.5628C140.015 40.9491 139.747 40.654 139.361 40.654C138.769 40.654 138.651 41.12 138.651 41.6716C138.651 42.2231 138.714 42.7125 139.337 42.7125C139.96 42.7125 140.015 42.0444 140.015 41.5628Z" fill="black"/>
<path d="M143.916 42.6634C144.241 42.6842 144.567 42.6447 144.878 42.5469C145.05 42.4505 145.188 42.304 145.273 42.1274C145.357 41.9508 145.384 41.7527 145.351 41.5603C145.351 40.9466 145.122 40.6515 144.617 40.6515C144.526 40.6405 144.433 40.6488 144.345 40.6757C144.257 40.7027 144.175 40.7477 144.106 40.8079C144.037 40.8681 143.981 40.942 143.943 41.0248C143.905 41.1076 143.885 41.1975 143.884 41.2884V41.8633H142.458C142.371 40.364 143.049 39.4707 144.61 39.4707C146.17 39.4707 146.832 40.2475 146.832 41.5448C146.832 42.2517 146.564 43.0984 145.76 43.2149C146.486 43.3004 147.022 43.9374 146.998 45.1725C146.998 46.7261 146.296 47.7127 144.633 47.7127C142.521 47.7127 142.355 46.159 142.371 45.3822V44.9084H143.806C143.806 45.5764 143.695 46.5707 144.665 46.5707C145.508 46.5707 145.453 45.7939 145.453 45.0171C145.479 44.7218 145.419 44.4253 145.28 44.1626C144.996 43.8286 144.326 43.8441 143.9 43.8441L143.916 42.6634Z" fill="black"/>
</svg>
