<svg width="160" height="60" viewBox="0 0 160 60" fill="none" xmlns="http://www.w3.org/2000/svg">
<rect width="160" height="60" fill="white"/>
<g clip-path="url(#clip0_2_912)">
<path d="M59.2629 39.2405H60.3355V43.3592C60.3355 43.7453 60.5071 43.9598 60.8933 43.9598C61.2794 43.9598 61.451 43.7453 61.451 43.3592V39.2405H62.4807V43.3163C62.4807 44.2602 61.88 44.775 60.8933 44.775C59.9065 44.775 59.2629 44.2602 59.2629 43.3163V39.2405Z" fill="#172A54"/>
<path d="M63.3816 44.6892V40.6134H64.2826V40.9996C64.6687 40.6992 64.8832 40.5276 65.398 40.5276C65.87 40.4847 66.2561 40.9138 66.1703 41.3857V44.6463H65.2264V41.5144C65.2264 41.2999 65.0977 41.2141 64.8832 41.2141C64.6687 41.257 64.4542 41.3428 64.2826 41.4715V44.6463H63.3816V44.6892Z" fill="#172A54"/>
<path d="M68.058 39.2405H67.1141V44.6892H68.058V39.2405Z" fill="#172A54"/>
<path d="M71.7906 42.8013H69.817V43.402C69.817 43.8739 69.9887 44.0884 70.3319 44.0884C70.6751 44.0884 70.8467 43.8739 70.8467 43.402V43.3162H71.7906C71.7906 44.1742 71.3616 44.7749 70.3319 44.7749C69.3022 44.7749 68.8732 44.1742 68.8732 43.2733V42.072C68.8732 41.171 69.2593 40.5704 70.3319 40.5704C71.4045 40.5704 71.7906 41.2139 71.7906 42.072V42.8013V42.8013ZM70.8467 42.1149V41.9004C70.8467 41.4284 70.6751 41.2568 70.3319 41.2568C69.9887 41.2568 69.817 41.4713 69.817 41.9004V42.1149H70.8467Z" fill="#172A54"/>
<path d="M72.5629 41.8146C72.6058 40.9994 73.2065 40.5275 74.0645 40.5275C74.9226 40.5275 75.4374 40.8707 75.4374 41.643V44.2601C75.4374 44.3888 75.4803 44.5604 75.4803 44.6891H74.5794C74.5794 44.5604 74.5365 44.4746 74.5365 44.3459C74.2361 44.6033 73.85 44.732 73.421 44.732C72.8632 44.8178 72.4342 44.3459 72.4342 43.831C72.4342 42.93 73.0778 42.4581 74.4507 41.9862V41.7288C74.4507 41.3855 74.279 41.2139 73.9787 41.2139C73.5497 41.2139 73.4639 41.4284 73.421 41.7717L72.5629 41.8146ZM74.4936 42.6297C73.6355 43.0588 73.421 43.3591 73.421 43.7023C73.421 43.9597 73.5926 44.0884 73.85 44.0884C74.1074 44.0884 74.3649 43.9168 74.4936 43.7023V42.6297Z" fill="#172A54"/>
<path d="M78.0545 41.7289C77.9687 41.3857 77.7971 41.2141 77.4967 41.2141C77.2393 41.2141 77.0677 41.3428 77.0677 41.5573C77.0677 42.2008 78.8267 42.4583 78.8267 43.6596C78.8267 44.3889 78.269 44.775 77.4967 44.775C76.8103 44.8608 76.1667 44.346 76.0809 43.6596L76.8961 43.445C76.939 43.7883 77.1106 44.0886 77.4967 44.0886C77.7542 44.0886 77.9258 43.9599 77.9258 43.7454C77.9258 43.0589 76.1667 42.7586 76.1667 41.686C76.1667 41.0425 76.7245 40.6134 77.4109 40.6134C78.0545 40.5705 78.6551 41.0425 78.7838 41.686L78.0545 41.7289Z" fill="#172A54"/>
<path d="M79.599 44.6892V39.2405H80.5429V40.9995C80.8432 40.6992 81.2293 40.5276 81.6154 40.5276C82.0874 40.4847 82.4735 40.9137 82.3877 41.3856V44.6463H81.4438V41.5143C81.4438 41.2998 81.3151 41.214 81.1006 41.214C80.8861 41.2569 80.6716 41.3427 80.5 41.4714V44.6463H79.599V44.6892Z" fill="#172A54"/>
<path d="M87.3646 44.6892H86.3349V42.4153L85.0907 39.2405H86.1633L86.8926 41.2998L87.5791 39.2405H88.6517L87.4075 42.4153L87.3646 44.6892Z" fill="#172A54"/>
<path d="M88.8231 42.0291C88.8231 41.1281 89.2093 40.5275 90.2818 40.5275C91.3544 40.5275 91.7405 41.1281 91.7405 42.0291V43.2304C91.7405 44.1313 91.3544 44.732 90.2818 44.732C89.2093 44.732 88.8231 44.1313 88.8231 43.2304V42.0291ZM90.7967 41.9004C90.7967 41.4284 90.6251 41.2568 90.2818 41.2568C89.9386 41.2568 89.767 41.4713 89.767 41.9004V43.402C89.767 43.8739 89.9386 44.0884 90.2818 44.0884C90.6251 44.0884 90.7967 43.8739 90.7967 43.402V41.9004Z" fill="#172A54"/>
<path d="M95.173 40.6133V44.6891H94.272V44.303C93.8859 44.6033 93.6714 44.7749 93.1136 44.7749C92.6417 44.8178 92.2555 44.3888 92.3414 43.9168V40.6133H93.2852V43.7452C93.2852 43.9597 93.4139 44.0455 93.6285 44.0455C93.843 44.0026 94.0575 43.9168 94.2291 43.7881V40.6133H95.173V40.6133Z" fill="#172A54"/>
<path d="M96.0739 44.6891V40.6133H96.9748V41.0852H97.0177C97.2322 40.742 97.6613 40.5275 98.0903 40.5275H98.2619V41.4284C98.0474 41.3855 97.8758 41.3426 97.6613 41.3426C97.318 41.2997 97.0177 41.5571 97.0177 41.9004V44.6891H96.0739Z" fill="#172A54"/>
<path d="M101.737 39.2405H100.707V44.6892H101.737V39.2405Z" fill="#172A54"/>
<path d="M102.595 44.6892V40.6134H103.496V40.9996C103.882 40.6992 104.097 40.5276 104.655 40.5276C105.127 40.4847 105.513 40.9138 105.427 41.3857V44.6463H104.483V41.5144C104.483 41.2999 104.354 41.2141 104.14 41.2141C103.925 41.257 103.711 41.3428 103.539 41.4715V44.6463H102.595V44.6892Z" fill="#172A54"/>
<path d="M106.285 44.6892V40.6134H107.186V40.9996C107.572 40.6992 107.786 40.5276 108.344 40.5276C108.816 40.4847 109.202 40.9138 109.116 41.3857V44.6463H108.172V41.5144C108.172 41.2999 108.044 41.2141 107.829 41.2141C107.615 41.257 107.4 41.3428 107.229 41.4715V44.6463H106.285V44.6892Z" fill="#172A54"/>
<path d="M112.849 42.8013H110.876V43.402C110.876 43.8739 111.047 44.0884 111.39 44.0884C111.734 44.0884 111.905 43.8739 111.905 43.402V43.3162H112.849C112.849 44.1742 112.42 44.7749 111.39 44.7749C110.361 44.7749 109.932 44.1742 109.932 43.2733V42.072C109.932 41.171 110.318 40.5704 111.39 40.5704C112.463 40.5704 112.849 41.2139 112.849 42.072V42.8013V42.8013ZM111.905 42.1149V41.9004C111.905 41.4284 111.734 41.2568 111.39 41.2568C111.047 41.2568 110.876 41.4713 110.876 41.9004V42.1149H111.905Z" fill="#172A54"/>
<path d="M113.707 44.6891V40.6133H114.608V41.0852C114.823 40.742 115.252 40.5275 115.681 40.5275H115.852V41.4284C115.638 41.3855 115.466 41.3426 115.252 41.3426C114.908 41.2997 114.608 41.5571 114.608 41.9004V44.6891H113.707Z" fill="#172A54"/>
<path d="M120.143 41.0423V40.6133C120.143 40.1414 119.928 39.9697 119.628 39.9697C119.199 39.9697 119.07 40.1843 119.07 40.5704V43.3162C119.07 43.7023 119.199 43.9168 119.628 43.9168C120.057 43.9168 120.143 43.7023 120.143 43.3591V42.7155H121.172V43.3591C121.172 44.1314 120.657 44.732 119.628 44.732C118.598 44.732 118.04 44.0884 118.04 43.3591V40.5275C118.04 39.7552 118.555 39.1117 119.628 39.1117C120.486 39.0259 121.215 39.7552 121.172 40.6133V40.9994H120.143V41.0423Z" fill="#172A54"/>
<path d="M122.202 44.6892V39.2405H123.146V40.9995C123.446 40.6992 123.832 40.5276 124.218 40.5276C124.69 40.4847 125.076 40.9137 124.991 41.3856V44.6463H124.047V41.5143C124.047 41.2998 123.918 41.214 123.704 41.214C123.489 41.2569 123.274 41.3427 123.103 41.4714V44.6463H122.202V44.6892Z" fill="#172A54"/>
<path d="M128.552 42.8013H126.578V43.402C126.578 43.8739 126.75 44.0884 127.093 44.0884C127.436 44.0884 127.608 43.8739 127.608 43.402V43.3162H128.552C128.552 44.1742 128.123 44.7749 127.093 44.7749C126.063 44.7749 125.634 44.1313 125.634 43.2304V42.0291C125.634 41.1281 126.02 40.5275 127.093 40.5275C128.166 40.5275 128.552 41.171 128.552 42.0291V42.8013ZM127.651 42.1149V41.9004C127.651 41.4284 127.479 41.2568 127.136 41.2568C126.793 41.2568 126.621 41.4713 126.621 41.9004V42.1149H127.651Z" fill="#172A54"/>
<path d="M129.581 41.2998H129.023V40.6134H129.581V40.0985C129.581 39.455 129.967 39.1118 130.611 39.1118H131.083V39.7982H130.825C130.611 39.7982 130.482 39.884 130.482 40.0556V40.5705H131.04V41.2569H130.482V44.6463H129.538L129.581 41.2998Z" fill="#172A54"/>
<path d="M131.598 39.8412C131.598 39.1977 132.327 38.8545 132.799 39.3264C133.271 39.7554 132.928 40.5277 132.327 40.5277C131.898 40.5277 131.598 40.2274 131.598 39.8412ZM132.284 39.2835C131.769 39.2406 131.512 39.8412 131.855 40.2274C132.198 40.6135 132.799 40.3561 132.799 39.8412C132.842 39.5409 132.584 39.2835 132.284 39.2835ZM132.198 40.2274H132.027V39.4551H132.327C132.542 39.4551 132.67 39.498 132.67 39.6696C132.67 39.8412 132.584 39.8412 132.456 39.8841L132.67 40.2274H132.499L132.327 39.8841H132.241L132.198 40.2274ZM132.198 39.7554H132.327C132.413 39.7554 132.456 39.7125 132.456 39.6696C132.456 39.6267 132.413 39.5838 132.327 39.5838H132.198V39.7554Z" fill="#172A54"/>
<path d="M28.2439 29.9734C28.3297 29.4157 28.0723 28.9009 27.6003 28.6434C27.3429 28.9867 25.1978 32.2902 25.0691 32.5905C24.9832 32.8909 25.0262 33.2341 25.1549 33.4915C25.1549 33.5344 25.2407 33.6202 25.2407 33.706C25.3265 33.8776 25.541 33.8776 25.6268 33.7489C26.2703 33.1912 27.6432 31.0889 27.772 30.9173C28.0294 30.6599 28.1581 30.3167 28.2439 29.9734Z" fill="#172A54"/>
<path d="M39.0554 23.9669C36.4383 23.8811 33.3493 23.7953 30.1315 23.7524C30.0028 23.7524 29.917 23.6666 29.8741 23.5808C28.8444 20.5346 27.8148 17.5743 26.8709 15.1288C26.7851 14.9572 26.4848 14.9572 26.399 15.1288C25.4122 17.5743 24.3825 20.5346 23.3528 23.5808C23.3099 23.6666 23.2241 23.7524 23.0954 23.7524C19.8777 23.7953 16.8315 23.8382 14.1715 23.9669C13.9999 24.0098 13.9141 24.3101 14.0857 24.4388C16.188 26.155 18.5477 28.0427 21.1219 29.9733C21.2077 30.0592 21.2506 30.145 21.2077 30.2737C20.2638 33.3198 19.4486 36.1514 18.7193 38.7685C18.6764 38.983 18.9338 39.1546 19.1054 39.0259C21.0361 37.6959 23.0525 36.3659 25.1548 34.9501C24.8115 34.3066 24.5112 33.663 24.168 33.0195C23.9106 32.5046 23.6532 31.9469 23.4815 31.3892C23.3099 30.7456 23.6532 30.2308 23.9535 29.673C24.7257 28.4717 25.7554 27.1846 26.3132 25.8546C26.5706 25.2969 26.6564 24.6963 26.5706 24.0527C26.5277 23.8382 26.4419 23.5808 26.3132 23.4092C26.2702 23.3663 26.2273 23.3233 26.2273 23.2804C26.2273 23.2375 26.1844 23.2375 26.1844 23.1946C26.1844 23.1088 26.2273 23.0659 26.3132 23.0659C26.3561 23.0659 26.3561 23.0659 26.399 23.0659C27.729 23.9669 28.5441 25.8975 28.158 27.3133C28.0722 27.6137 27.9435 27.8711 27.8148 28.1285L27.729 28.4717C27.729 28.4717 29.3164 29.4585 29.6596 30.3595C30.0886 31.4321 29.1877 32.5904 28.8444 33.1053C28.8444 33.1053 28.3296 33.8775 27.6861 34.6498C29.9599 36.1943 32.1051 37.6101 34.1644 39.0259C34.3361 39.1546 34.5935 38.983 34.5506 38.7685C33.7783 36.1514 32.9632 33.2769 32.0193 30.2737C31.9764 30.1879 32.0193 30.0592 32.1051 29.9733C34.6793 28.0427 37.0819 26.155 39.1412 24.4388C39.3128 24.3101 39.227 24.0098 39.0554 23.9669Z" fill="#172A54"/>
<path d="M57.8042 34.3496L58.0616 33.8347C58.2761 33.4915 58.4477 33.1054 58.6194 32.7621C58.6623 32.6763 58.6623 32.5905 58.7052 32.5047C58.7052 29.6731 58.7052 26.8415 58.7052 24.0099C58.7052 23.9241 58.6623 23.8383 58.6194 23.7525C58.4477 23.4092 58.2332 23.0231 58.0616 22.6799L57.8042 22.165H62.9526L62.6952 22.6799C62.4807 23.0231 62.309 23.4092 62.1374 23.7525C62.0945 23.8383 62.0516 23.9241 62.0516 24.0099C62.0516 26.4983 62.0516 28.9867 62.0516 31.475V31.947V31.9899H66.5565C66.6423 31.9899 66.771 31.947 66.8568 31.9041C67.2 31.7325 67.5432 31.5608 67.8865 31.3463L68.4442 31.046L68.3584 31.475C68.3155 31.6467 68.3155 31.8183 68.2726 31.9899L67.8436 34.135C67.8436 34.1779 67.8436 34.1779 67.8436 34.2208V34.3496H57.8042V34.3496Z" fill="#172A54"/>
<path d="M110.918 34.3496L111.004 34.2208C111.047 34.0921 111.133 34.0063 111.176 33.8776C111.305 33.6202 111.433 33.4057 111.562 33.1912C111.776 32.8479 111.905 32.4189 111.862 31.9899C111.862 30.1879 111.862 28.386 111.862 26.627V24.5676H110.618C110.232 24.5676 109.846 24.5676 109.46 24.5676C109.374 24.5676 109.245 24.6105 109.159 24.6534C108.816 24.825 108.473 24.9967 108.087 25.2112L107.529 25.5115L108.173 22.2079H118.813L119.456 25.4686L119.113 25.297L118.813 25.1254C118.684 25.0825 118.555 24.9967 118.469 24.9109C118.212 24.7392 117.955 24.6105 117.697 24.5676C117.526 24.5247 117.354 24.5247 117.182 24.5247C117.054 24.5247 116.925 24.5247 116.796 24.5247C116.667 24.5247 116.539 24.5247 116.41 24.5247H115.166V25.8118C115.166 28.0428 115.166 30.2308 115.166 32.4618C115.166 32.5476 115.209 32.6334 115.252 32.7192C115.423 33.0196 115.595 33.3199 115.724 33.6202L115.938 34.0063L115.981 34.135L116.067 34.3067L110.918 34.3496Z" fill="#172A54"/>
<path d="M143.653 35.3792L143.396 35.3363C143.224 35.3363 143.01 35.2934 142.838 35.2934C141.68 35.1647 140.65 34.6499 139.835 33.7918C138.977 32.8479 138.376 31.7325 138.033 30.5312C137.99 30.4025 137.947 30.4025 137.862 30.4025C137.647 30.4025 137.433 30.4025 137.218 30.4025H136.446V31.046C136.446 31.5179 136.446 32.0328 136.446 32.5047C136.446 32.5905 136.489 32.6763 136.532 32.7621C136.703 33.0625 136.875 33.3628 137.003 33.6631L137.218 34.0921C137.218 34.135 137.261 34.1779 137.261 34.1779L137.347 34.3496H132.241L132.327 34.2208C132.37 34.135 132.413 34.0492 132.456 33.9634C132.542 33.7918 132.627 33.6202 132.756 33.4486C133.056 32.9338 133.228 32.3331 133.185 31.7754C133.185 30.145 133.185 28.5576 133.185 26.8415C133.185 25.9405 133.185 25.0396 133.185 24.0957C133.185 23.967 133.142 23.8383 133.099 23.7096C132.928 23.3663 132.713 23.0231 132.542 22.7228L132.284 22.2079H136.703C138.977 22.2079 141.809 22.2079 143.396 24.2673C144.297 25.4257 144.426 26.627 143.825 27.8283C143.439 28.6434 142.753 29.2441 141.68 29.7589L141.508 29.8447C141.465 29.8447 141.422 29.8876 141.38 29.8876C141.38 29.9305 141.38 29.9734 141.422 30.0163C141.422 30.0592 141.465 30.145 141.465 30.2308C141.465 30.2308 141.465 30.2308 141.465 30.2738C141.766 31.3463 142.323 32.3331 143.096 33.1912C143.696 33.9205 144.426 34.4783 145.284 34.8644C145.37 34.9073 145.455 34.9502 145.541 34.9502L145.927 35.1218L145.67 35.1647C145.327 35.2505 144.941 35.2934 144.597 35.3792C144.426 35.4221 144.254 35.4221 144.04 35.4221L143.782 35.465H143.653V35.3792ZM136.446 28.3431C137.261 28.3431 138.033 28.3002 138.805 28.2573C139.192 28.2144 139.578 28.1286 139.921 27.9141C140.436 27.6996 140.779 27.2276 140.908 26.7128C140.993 26.1979 140.865 25.6402 140.522 25.2541C140.092 24.7392 139.492 24.396 138.805 24.3531C138.248 24.3102 137.647 24.3102 137.089 24.3102H136.403L136.446 28.3431Z" fill="#172A54"/>
<path d="M81.9586 34.3924L82.216 33.8776C82.4306 33.5344 82.6022 33.1482 82.8167 32.7621C82.8596 32.6763 82.8596 32.5905 82.8596 32.5047C82.8596 29.6731 82.8596 26.8844 82.8596 24.0527C82.8596 23.924 82.8167 23.8382 82.7738 23.7095C82.6022 23.3663 82.4306 23.0231 82.216 22.6798L81.9586 22.165H89.3809C89.6383 22.165 89.8957 22.1221 90.1102 21.9934C90.1531 21.9505 90.196 21.9505 90.2818 21.9076L90.4535 21.8218L91.6548 24.5247H86.206V26.7986H88.7373C88.8231 26.7986 88.9089 26.7556 88.9948 26.7127C89.2522 26.584 89.5096 26.4553 89.767 26.2837L90.2389 26.0263V30.1879C90.2389 30.1879 89.8957 30.0163 89.8099 29.9305C89.5525 29.8018 89.338 29.6731 89.0806 29.5444C88.9518 29.4586 88.7802 29.4156 88.6086 29.4156H86.1631V31.8611H90.668C90.7538 31.8611 90.8396 31.8182 90.9254 31.8182L91.998 31.2605L92.5557 30.9602L92.4699 31.3892C92.427 31.5608 92.427 31.7324 92.3841 31.904L91.9551 34.0492C91.9551 34.0921 91.9551 34.0921 91.9551 34.135V34.2637H81.9586V34.3924Z" fill="#172A54"/>
<path d="M128.122 34.3067C128.08 34.2638 126.535 30.7028 126.363 30.2309H122.588L121.859 32.2044L121.773 32.4189C121.687 32.5905 121.644 32.7621 121.601 32.9767C121.558 33.0625 121.601 33.1483 121.644 33.2341C121.773 33.4915 121.901 33.706 122.03 33.9634L122.245 34.3925H117.826L117.954 34.2638L118.04 34.1351C118.126 34.0492 118.169 33.9634 118.255 33.8776C118.727 33.4486 119.07 32.8909 119.284 32.2473C119.413 31.7754 120.7 28.4718 121.773 25.8118C122.202 24.6963 122.588 23.7096 122.802 23.1947C122.802 23.1518 122.802 23.066 122.802 23.0231C122.76 22.8515 122.674 22.7228 122.588 22.5941L122.459 22.2938H127.822L127.522 22.7228C127.307 23.0231 127.093 23.3234 126.921 23.5809C126.921 23.6238 126.921 23.6667 126.921 23.7096C127.908 25.9834 128.895 28.2573 129.839 30.4025L130.353 31.6038L130.396 31.6896C130.439 31.7325 130.439 31.8183 130.482 31.8612C130.74 32.5047 131.083 33.1054 131.598 33.6202C131.683 33.7489 132.241 34.4783 132.241 34.4783H128.208L128.122 34.3067ZM125.505 28.3431C125.076 27.3563 124.733 26.5841 124.604 26.2838L124.347 25.6831L124.304 25.5973C124.09 26.1551 123.703 27.2276 123.274 28.3431H125.505Z" fill="#172A54"/>
<path d="M101.308 35.6367C99.6777 35.6796 98.0903 35.3364 96.6316 34.6499C96.5887 34.607 96.5029 34.607 96.46 34.5641C96.3313 34.4783 96.1597 34.3925 95.9881 34.3925H95.9451C95.8164 34.4354 95.6448 34.4354 95.5161 34.5212H95.4732C95.1729 34.607 94.9155 34.7786 94.658 34.9502C94.5722 34.9932 94.4864 35.079 94.4006 35.1219L94.229 35.2077C94.1432 35.2506 94.0574 35.3364 93.9716 35.3793L93.8858 35.4222V35.2506L93.8429 29.9735L93.9287 30.0593C94.0145 30.1451 94.1003 30.2309 94.1432 30.3167C94.229 30.4025 94.3148 30.5312 94.4006 30.617L94.5722 30.7457C94.7868 30.9173 95.0013 31.089 95.2158 31.2606C95.8164 31.6896 96.4171 32.0328 97.1035 32.3332C98.4335 32.9338 99.8922 33.2341 101.351 33.2341C102.853 33.2341 103.711 32.7622 103.925 31.8183C104.097 31.3035 103.882 30.7886 103.41 30.5312C103.196 30.4025 102.938 30.3167 102.681 30.2309C101.866 30.0164 101.051 29.8877 100.235 29.8448H100.193C99.8493 29.8019 99.5061 29.759 99.1629 29.7161C98.0903 29.5873 97.0606 29.3728 96.0739 28.9867C95.2158 28.6864 94.4864 28.0857 94.0145 27.3135C93.7142 26.7557 93.5426 26.1551 93.4997 25.5115C93.4139 24.5677 93.6713 23.6238 94.1861 22.8515C94.8297 21.9077 95.8164 21.307 97.1893 20.9638C98.0045 20.7493 98.8626 20.6635 99.7206 20.6635C99.9781 20.6635 100.235 20.6635 100.493 20.7064H100.75C101.308 20.7493 101.866 20.7493 102.381 20.8351C103.024 20.9638 103.711 21.0925 104.354 21.307C104.526 21.3499 104.697 21.3928 104.826 21.3928C104.998 21.3928 105.126 21.307 105.255 21.2212L105.427 21.0925C105.727 20.8351 106.027 20.5777 106.371 20.3202L106.456 20.2773V25.8119L106.414 25.769C106.328 25.7261 106.285 25.6832 106.242 25.6402L105.942 25.3399L105.727 25.1254C104.483 23.8812 102.509 23.1519 100.45 23.1519C99.8922 23.1519 99.3345 23.1948 98.7768 23.2806C98.3477 23.3235 97.9187 23.4951 97.5326 23.7525C97.2322 24.0099 97.0606 24.3961 97.1035 24.7822C97.1464 25.1683 97.4468 25.5115 97.79 25.6402C98.1332 25.8119 98.4764 25.8977 98.8197 25.9835C99.4632 26.0693 100.15 26.1551 100.793 26.2409H100.836C101.351 26.3267 101.866 26.3696 102.381 26.4554C103.41 26.5841 104.44 26.8844 105.427 27.3135C106.199 27.6567 106.843 28.3002 107.229 29.0725C107.658 29.9735 107.744 31.0032 107.572 31.9899C107.4 32.9338 106.885 33.7919 106.113 34.3925C105.212 35.079 104.097 35.4651 102.981 35.5938C102.466 35.5938 101.866 35.6367 101.308 35.6367Z" fill="#172A54"/>
<path d="M57.5468 30.7028C57.5468 28.8579 56.2168 27.2276 54.2861 26.3695C54.9726 25.8118 55.3587 24.9966 55.4016 24.0957C55.4016 23.5379 55.23 23.0231 54.9297 22.5512C54.6293 22.1221 54.2432 21.736 53.8142 21.4357C53.2993 21.0924 52.6987 20.8779 52.098 20.7063C51.3258 20.5347 50.5535 20.4918 49.7384 20.5347H42.0158C41.9729 20.5347 41.93 20.5347 41.8871 20.5776L42.1016 20.9637C42.4019 21.4786 42.6593 21.9505 42.9168 22.4653C42.9597 22.5512 42.9597 22.637 42.9597 22.7228V22.7657C42.9597 26.3266 42.9597 29.8876 42.9597 33.4915C42.9597 33.5773 42.9597 33.6631 42.9168 33.7489C42.6593 34.2208 42.4019 34.7357 42.1445 35.2076L41.8871 35.5937C41.93 35.5937 41.9729 35.6366 42.0158 35.6366H49.438C50.339 35.6795 51.24 35.6795 52.141 35.5937C53.2564 35.465 54.2861 35.1218 55.23 34.5212C56.0451 34.0063 56.7316 33.277 57.1606 32.4189C57.418 31.9041 57.5468 31.3034 57.5468 30.7028ZM51.24 28.386C52.0551 28.4289 52.8274 28.7721 53.3422 29.3728C54.0716 30.1879 54.0716 31.3892 53.3422 32.2044C52.7416 32.8479 51.9264 33.2341 51.0684 33.2341C50.5535 33.2341 49.9958 33.2341 49.3522 33.2341H46.821V28.4289H46.8639H46.9068H48.4513C49.3951 28.386 50.339 28.386 51.24 28.386ZM46.821 22.9802H50.0816C50.5106 22.9802 50.9397 23.066 51.2829 23.3234C51.7548 23.5808 52.0551 24.0957 51.9693 24.6534C51.9264 25.2541 51.4974 25.726 50.8968 25.8547C50.5964 25.9405 50.339 25.9834 50.0387 25.9834C49.6097 25.9834 49.1806 25.9834 48.7516 25.9834H46.7781L46.821 22.9802Z" fill="#172A54"/>
<path d="M76.081 22.1649L76.1669 22.3365C76.1669 22.3794 76.2098 22.3794 76.2098 22.4223L76.4243 22.8085C76.5959 23.1517 76.7675 23.4949 76.9391 23.7952C76.982 23.8381 76.982 23.9239 76.982 23.9669V24.353C76.982 26.3694 76.982 28.5575 76.982 30.574C76.982 31.1317 76.6817 31.6465 76.1669 31.904C75.7807 32.1185 75.3088 32.2472 74.8369 32.2472C74.6652 32.2472 74.4936 32.2472 74.322 32.2043C73.1636 32.0327 72.563 31.3891 72.6059 30.2736C72.6488 28.6004 72.6488 26.7127 72.6059 25.0823C72.5201 24.3101 72.7346 23.5378 73.1636 22.8943C73.2494 22.7656 73.3352 22.6369 73.3781 22.5081C73.421 22.4652 73.421 22.3794 73.464 22.3365L73.5498 22.2078H68.4014V22.2936L68.6159 22.6798C68.8304 23.0659 69.0449 23.4949 69.2594 23.881C69.2594 23.9239 69.2594 23.9669 69.2594 24.0098V25.8117C69.2594 27.3562 69.2594 28.9436 69.2594 30.4452C69.2594 30.574 69.2594 30.8743 69.2594 30.9601C69.2594 32.9765 71.7049 34.6498 74.751 34.6498C77.7972 34.6498 80.2427 33.0194 80.2427 30.9601C80.2427 30.9172 80.2427 30.6169 80.2427 30.4881C80.2427 29.7159 80.2427 28.9007 80.2427 28.0856C80.2427 27.013 80.2427 25.8546 80.2427 24.8249C80.1998 24.2672 80.3285 23.7094 80.6288 23.1946C80.7146 23.023 80.8004 22.8943 80.8862 22.7227C80.9291 22.6369 80.972 22.5939 80.972 22.5081C80.972 22.4652 81.0149 22.4223 81.0149 22.3794L81.1007 22.2078L76.081 22.1649Z" fill="#172A54"/>
<path d="M144.383 23.495C144.34 22.3366 145.756 21.7359 146.571 22.5511C147.386 23.3663 146.829 24.7392 145.67 24.7392C144.941 24.7392 144.383 24.1814 144.383 23.495ZM145.67 22.5082C145.155 22.5082 144.726 22.9372 144.769 23.495C144.726 24.0098 145.155 24.4817 145.67 24.4817C146.185 24.4817 146.614 24.0527 146.571 23.495C146.614 22.9801 146.185 22.5082 145.67 22.5082ZM145.456 24.1814H145.155V22.8085H145.67C146.013 22.8085 146.228 22.8943 146.228 23.2375C146.271 23.4521 146.099 23.6237 145.885 23.6237L146.228 24.2243H145.885L145.541 23.6666H145.413V24.1814H145.456ZM145.456 23.3663H145.713C145.885 23.3663 145.928 23.3234 145.928 23.1946C145.928 23.0659 145.885 23.0659 145.67 23.0659H145.456V23.3663Z" fill="#172A54"/>
</g>
<defs>
<clipPath id="clip0_2_912">
<rect width="133" height="30.0323" fill="white" transform="translate(14 15.0001)"/>
</clipPath>
</defs>
</svg>
