<svg width="160" height="60" viewBox="0 0 160 60" fill="none" xmlns="http://www.w3.org/2000/svg">
<path fill-rule="evenodd" clip-rule="evenodd" d="M132.598 32.7289H127.341V39.7158H123.009V22.0608H127.341V28.672H132.598V22.0608H137V39.7158H132.598V32.7289V32.7289ZM121.518 25.4415L118.109 27.7705C117.47 27.0943 116.689 25.8172 114.771 25.8172C113.564 25.8172 111.362 26.9441 111.362 30.4751C111.362 34.1564 112.854 35.8092 115.126 35.734C116.902 35.6589 117.257 35.2833 118.322 33.932L121.447 36.4102C120.311 37.9879 118.89 40.0904 114.984 40.0174C110.794 39.9422 107.101 36.4102 107.101 30.4751C107.172 25.5918 110.368 21.61 114.771 21.61C117.541 21.6851 119.813 22.9623 121.518 25.4415ZM92.7554 36.7117L95.241 34.0051C96.2353 35.0589 98.1528 36.0346 99.5021 36.0346C100.922 36.0346 101.846 35.8833 101.846 34.533C101.846 33.7807 101.562 33.4061 100.851 33.1797C99.5021 32.8051 97.7977 32.2792 96.2353 31.602C94.3888 30.6243 93.2525 29.5736 93.2525 26.7938C93.2525 22.1359 98.1528 21.3846 99.6442 21.4597C101.207 21.4597 103.55 22.1348 105.326 24.1643C104.402 24.9908 104.26 25.2913 102.769 27.0943C101.775 25.8923 100.709 25.2161 99.4311 25.2161C98.3658 25.2161 97.3006 25.742 97.3716 26.8689C97.4426 27.6954 97.6557 28.1461 98.3658 28.2964C99.147 28.5218 99.9282 28.8223 102.272 29.4233C104.544 30.0243 105.894 31.8263 105.823 34.2315C105.752 37.8387 103.337 39.7909 100.07 39.7909C97.1585 39.7909 94.8149 39.0386 92.7554 36.7117V36.7117ZM76.3501 30.4751C76.3501 28.672 76.5632 27.0943 77.2023 25.8923C77.7705 24.6151 78.4097 23.6384 79.2619 23.0374C80.1141 22.4364 80.9663 21.9856 81.7475 21.7603C82.5287 21.5349 83.3099 21.3846 84.0201 21.3846C84.7303 21.3846 85.5115 21.5349 86.3637 21.7603C87.2619 22.0137 88.1058 22.4473 88.8494 23.0374C89.7016 23.6384 90.4118 24.6151 90.9089 25.8923C91.477 27.0943 91.7611 28.672 91.7611 30.4751C91.7611 32.4284 91.477 34.0051 90.9089 35.2081C90.4118 36.4864 89.7016 37.462 88.8494 38.063C87.9971 38.664 87.1449 39.1148 86.2927 39.3412C85.5115 39.5656 84.7303 39.7158 84.0201 39.7158C83.3809 39.7158 82.5997 39.5645 81.7475 39.3412C80.9663 39.1148 80.1141 38.6651 79.2619 38.063C78.4097 37.462 77.7705 36.4853 77.2023 35.2081C76.5632 34.0051 76.3501 32.4274 76.3501 30.4751ZM80.3982 30.6994C80.3982 31.602 80.5402 32.4274 80.7533 33.0284C80.9663 33.7045 81.2504 34.2304 81.6765 34.532C81.9606 34.9828 82.3867 35.2061 82.8128 35.3574C83.1679 35.5087 83.594 35.5838 84.0201 35.5838C84.4462 35.5838 84.8723 35.5087 85.2984 35.3574C85.7464 35.208 86.1421 34.9206 86.4347 34.532C86.7898 34.2304 87.0739 33.7045 87.358 33.0284C87.541 32.267 87.6364 31.485 87.6421 30.6994C87.6421 29.7238 87.499 28.9725 87.358 28.3715C87.1255 27.8003 86.8144 27.2686 86.4347 26.7938C86.0796 26.4933 85.7246 26.1928 85.2984 26.0425C84.8723 25.8923 84.4462 25.8923 84.0201 25.8923C83.594 25.8923 83.1679 25.8923 82.8128 26.0425C82.3867 26.2021 81.9988 26.4585 81.6765 26.7938C81.2504 27.2446 80.9663 27.6954 80.7533 28.3715C80.5402 28.9725 80.3982 29.7238 80.3982 30.6994ZM61.3652 39.0386V21.6851H69.2483C71.7349 21.6851 74.4326 23.4882 74.4326 26.3431C74.4326 28.1461 74.0785 29.3482 72.4441 30.2497C74.2196 31.0761 75.2138 31.5269 75.1428 34.9076C75.1428 38.2133 72.4441 39.1899 68.254 39.1899L61.3652 39.0386V39.0386ZM65.5553 32.0528V35.8092H68.6801C70.0295 35.8092 70.8107 35.133 70.8107 33.932C70.8107 32.73 69.8874 32.0528 68.8222 32.0528H65.5553V32.0528ZM65.4133 25.2913V28.7471H68.325C69.3193 28.7471 70.2425 28.071 70.2425 27.0192C70.2425 25.9674 69.4613 25.2913 68.325 25.2913H65.4133V25.2913Z" fill="#EB0B1C"/>
<path fill-rule="evenodd" clip-rule="evenodd" d="M40.7898 37.2945V34.789H31.3509V38.799L29.9299 37.7956C28.8548 36.8115 27.9518 35.6545 27.2584 34.3726C26.6737 33.0363 26.3385 31.6989 26.3385 30.1133C26.3385 28.61 26.6737 27.2737 27.2584 25.9374C27.9265 24.6847 28.8441 23.4319 29.9299 22.5133L31.3509 21.5111V26.0198H40.7898V21.4274L42.1261 22.3451C43.3359 23.2962 44.3319 24.4913 45.0493 25.8528C45.634 27.1055 45.9669 28.5253 45.9669 30.1121C45.9669 31.6989 45.634 33.2034 45.0493 34.4561C44.3323 35.8175 43.3362 37.0123 42.1261 37.9626L40.7898 38.7977V37.2945ZM42.4602 24.9341V35.3736C42.7931 34.8725 43.2119 34.3726 43.4613 33.788C44.0459 32.7023 44.2976 31.4495 44.2976 30.1133C44.2976 28.8605 44.0459 27.6078 43.4613 26.522C43.2119 25.9363 42.7931 25.4352 42.4602 24.9341ZM31.352 27.6901V33.1187H40.6228V27.6901H31.352ZM29.5981 35.0396V25.267C29.3464 25.7681 29.0135 26.1857 28.7617 26.6868C28.3453 27.689 28.0124 28.9417 28.0124 30.1109C28.0124 31.3648 28.3453 32.6176 28.7617 33.6186C29.0135 34.1197 29.3464 34.5396 29.5981 35.0396ZM36.195 17C39.8699 17 43.1284 18.5033 45.4658 20.8418C47.8043 23.2638 49.3077 26.5209 49.3077 30.1121C49.3077 33.7868 47.8032 37.0451 45.4658 39.4671C43.1272 41.8056 39.8699 43.3077 36.195 43.3077C32.5201 43.3077 29.2617 41.8056 26.9243 39.4671C24.5022 37.0451 23 33.788 23 30.1121C23 26.5209 24.5022 23.2638 26.9243 20.8418C28.1399 19.6218 29.5848 18.6542 31.1759 17.9949C32.767 17.3356 34.4727 16.9974 36.195 17ZM44.2976 22.011C42.2085 19.9231 39.37 18.6703 36.1962 18.6703C33.0224 18.6703 30.1827 19.9231 28.0124 22.011C26.0067 24.1824 24.6704 26.9385 24.6704 30.1121C24.6704 33.2869 26.0067 36.1253 28.0124 38.2979C30.1827 40.3846 33.0213 41.6374 36.1962 41.6374C39.3711 41.6374 42.2096 40.3846 44.2976 38.2979C46.3868 36.1253 47.6396 33.2869 47.6396 30.1121C47.6396 26.9385 46.3868 24.1824 44.2976 22.011Z" fill="black"/>
<rect x="30.5771" y="21.3846" width="1" height="0.5" fill="white"/>
<rect x="40.5771" y="21.3846" width="1" height="0.5" fill="white"/>
<rect x="40.5771" y="38.375" width="1" height="0.548077" fill="white"/>
<rect x="30.5771" y="38.375" width="1" height="0.548077" fill="white"/>
</svg>
