<svg width="160" height="60" viewBox="0 0 160 60" fill="none" xmlns="http://www.w3.org/2000/svg">
<rect width="160" height="60" fill="white"/>
<g clip-path="url(#clip0_2_918)">
<path d="M36.8091 37.2868H28.8264C26.2953 37.2868 24.1536 36.4431 22.4662 34.8206C20.9086 33.1332 20 31.0564 20 28.5253C20 26.0591 20.8437 23.9823 22.4662 22.4896C24.1536 20.9969 26.2304 20.2181 28.8264 20.2181H36.7442V23.2035H28.8264C27.2039 23.2035 25.7761 23.7227 24.6728 24.7611C23.6344 25.7995 23.0503 27.1624 23.0503 28.7849C23.0503 30.4074 23.5695 31.7703 24.6728 32.7438C25.7761 33.7822 27.139 34.2365 28.8264 34.2365H36.7442V37.2868H36.8091Z" fill="#231F20"/>
<path d="M62.3147 37.2868H58.3558L55.3705 32.6789H47.1282L49.0103 29.8882H53.6182L50.6328 25.1505L42.6501 37.2219H38.6912L48.2315 22.4896C48.4911 22.1002 48.8156 21.7757 49.2699 21.4512C49.7891 21.0618 50.2434 20.932 50.6328 20.932C51.0871 20.932 51.5414 21.1267 51.9957 21.4512C52.3851 21.7108 52.7096 22.1651 53.0341 22.4896L62.3147 37.2868Z" fill="#231F20"/>
<path d="M81.59 26.8379C81.59 28.6551 80.8761 30.018 79.5132 31.1862C78.2152 32.2246 76.5927 32.6789 74.5808 32.6789H68.8048V29.8882H75.1C76.1384 29.8882 76.9821 29.5637 77.6311 29.0445C78.345 28.5253 78.6695 27.7465 78.6695 26.8379C78.6695 25.9293 78.345 25.1505 77.6311 24.6313C76.9172 24.1121 76.1384 23.7876 75.1 23.7876H66.9876V37.2868H63.9373V20.932H74.5159C76.4629 20.932 78.1503 21.4512 79.4483 22.4896C80.941 23.5929 81.59 25.0207 81.59 26.8379Z" fill="#231F20"/>
<path d="M87.8204 21.0618H84.7701V37.2868H87.8204V21.0618Z" fill="#231F20"/>
<path d="M105.603 23.7876H99.6322V37.2868H96.6468V23.7876H90.676V20.932H105.603V23.7876Z" fill="#231F20"/>
<path d="M125.527 37.2868H121.568L118.583 32.6789H110.276L112.158 29.8882H116.766L113.715 25.1505L105.863 37.2219H101.904L111.509 22.4896C111.768 22.1002 112.093 21.7757 112.547 21.4512C113.066 21.0618 113.521 20.932 113.91 20.932C114.364 20.932 114.819 21.1267 115.273 21.4512C115.662 21.7108 115.987 22.1651 116.311 22.4896L125.527 37.2868Z" fill="#231F20"/>
<path d="M139.935 37.2868H126.76V20.932H129.811V34.4312H139.935V37.2868Z" fill="#231F20"/>
<path d="M87.2364 12.1705C87.2364 12.1705 86.9768 13.5334 88.5344 15.0261C88.5344 15.0261 89.8973 16.7135 88.2748 18.5956C88.2748 18.5956 87.7556 19.3744 86.7821 19.6989C86.7821 19.6989 88.0801 18.4658 87.496 16.7135C87.496 16.7135 87.3662 16.2592 86.9119 15.5453C86.847 15.6102 85.4192 13.9228 87.2364 12.1705Z" fill="#2286C8"/>
<path d="M86.847 18.4658C86.847 18.4658 87.2364 17.2327 86.198 16.0645C86.198 16.0645 84.3808 14.3771 85.7437 12.9493C85.7437 12.9493 88.2748 10.7427 85.7437 8.53613C85.7437 8.53613 86.0033 10.0288 84.9 11.0023C84.9 11.0023 82.953 12.9493 84.3808 14.9612C84.3808 14.9612 84.9 15.8698 85.8086 16.5188C85.6788 16.5837 86.5225 17.1029 86.847 18.4658Z" fill="#00AEEF"/>
<path d="M83.8616 15.3506C83.8616 15.3506 84.0563 16.389 85.0298 17.038C85.0298 17.038 87.3013 18.5956 86.3927 19.8936C86.3927 19.8936 85.8735 20.283 85.4841 20.6075C85.4841 20.6075 85.4841 19.7638 84.7702 19.3095C84.7702 19.3095 82.8881 18.2062 83.3424 16.6486C83.3424 16.6486 83.5371 15.8698 83.8616 15.3506Z" fill="#2286C8"/>
<path d="M21.4279 40.6616H24.2186V41.1159H21.9471V42.8033H24.1537V43.2576H21.9471V45.0099H24.2186V45.4642H21.4279V40.6616Z" fill="#010101"/>
<path d="M27.7231 42.9331L26.0357 40.5967H26.6198L27.9827 42.4788L29.3456 40.5967H29.9297L28.3072 42.9331L30.0595 45.3993H29.4105L27.9178 43.3874L26.49 45.3993H25.9059L27.7231 42.9331Z" fill="#010101"/>
<path d="M32.5906 41.051H31.4224V40.5967H34.278V41.051H33.1098V45.3993H32.5906V41.051Z" fill="#010101"/>
<path d="M36.0952 40.6616H37.3932C38.1071 40.6616 38.4316 40.7265 38.6912 40.8563C39.2753 41.1159 39.5998 41.6351 39.5998 42.2192C39.5998 42.9331 39.0806 43.5821 38.1071 43.7119L39.5998 45.4642H38.9508L37.0687 43.2576C37.7177 43.2576 37.9773 43.2576 38.172 43.1927C38.7561 43.0629 39.0157 42.6086 39.0157 42.1543C39.0157 41.7649 38.7561 41.3755 38.4316 41.2457C38.1071 41.1159 37.8475 41.051 37.3932 41.051H36.5495V45.3993H36.0303V40.6616H36.0952Z" fill="#010101"/>
<path d="M43.2991 40.6616H43.8832L46.0898 45.4642H45.5057L44.7918 43.8417H42.4554L41.7415 45.4642H41.2223L43.2991 40.6616ZM42.5852 43.3225H44.5971L43.6236 41.1159L42.5852 43.3225Z" fill="#010101"/>
<path d="M50.1135 40.5967C51.6062 40.5967 52.8393 41.6351 52.8393 43.0629C52.8393 44.4907 51.6062 45.5291 50.1135 45.5291C48.6208 45.5291 47.3877 44.4258 47.3877 43.0629C47.3228 41.5702 48.6857 40.5967 50.1135 40.5967ZM50.1135 45.0748C51.2817 45.0748 52.3201 44.1662 52.3201 43.0629C52.3201 41.9596 51.3466 40.9861 50.1135 40.9861C48.9453 40.9861 47.9069 41.8947 47.9069 43.0629C47.842 44.1013 48.8804 45.0748 50.1135 45.0748Z" fill="#010101"/>
<path d="M54.7864 40.6616H56.0844C56.7983 40.6616 57.1228 40.7265 57.3824 40.8563C57.9665 41.1159 58.291 41.6351 58.291 42.2192C58.291 42.9331 57.7718 43.5821 56.7983 43.7119L58.291 45.4642H57.642L55.8897 43.3225C56.5387 43.3225 56.7983 43.3225 56.993 43.2576C57.5771 43.1278 57.8367 42.6735 57.8367 42.2192C57.8367 41.8298 57.5771 41.4404 57.2526 41.3106C56.993 41.1808 56.6685 41.1159 56.2142 41.1159H55.3056V45.4642H54.7864V40.6616Z" fill="#010101"/>
<path d="M60.3029 40.6616H61.7956C62.4446 40.6616 63.0287 40.7914 63.483 41.051C64.3916 41.5702 64.6512 42.4788 64.6512 43.0629C64.6512 43.5172 64.4565 44.4907 63.483 45.0099C63.0287 45.2695 62.4446 45.3993 61.7956 45.3993H60.3029V40.6616V40.6616ZM60.8221 44.945H61.536C62.0552 44.945 62.7042 44.945 63.2883 44.5556C63.5479 44.296 64.132 43.8417 64.132 42.998C64.132 42.349 63.8075 41.7649 63.2883 41.4404C62.834 41.1808 62.3797 41.051 61.6009 41.051H60.887V44.945H60.8221Z" fill="#010101"/>
<path d="M67.2471 40.6616H66.7279V45.4642H67.2471V40.6616Z" fill="#010101"/>
<path d="M69.5836 40.6616H70.2326L73.0882 44.6205V40.6616H73.6074V45.4642H73.0882L70.0379 41.2457V45.4642H69.5187L69.5836 40.6616Z" fill="#010101"/>
<path d="M77.696 40.6616H78.2801L80.4867 45.4642H79.9026L79.1887 43.8417H76.7874L76.0735 45.4642H75.5543L77.696 40.6616ZM76.9172 43.3225H78.9291L77.9556 41.1159L76.9172 43.3225Z" fill="#010101"/>
<path d="M82.2391 40.6616H83.5371C84.251 40.6616 84.5755 40.7265 84.7702 40.8563C85.3543 41.1159 85.6788 41.6351 85.6788 42.2192C85.6788 42.9331 85.1596 43.5821 84.1861 43.7119L85.6788 45.4642H85.0298L83.2775 43.3225C83.9265 43.3225 84.1861 43.3225 84.3808 43.2576C84.9649 43.1278 85.2245 42.6735 85.2245 42.2192C85.2245 41.8298 84.9649 41.4404 84.6404 41.3106C84.3808 41.1808 84.0563 41.1159 83.602 41.1159H82.6934V45.4642H82.1742V40.6616H82.2391Z" fill="#010101"/>
<path d="M88.9238 43.8417L87.1066 40.6616H87.6907L89.1834 43.3225L90.6761 40.6616H91.2602L89.443 43.8417V45.4642H88.9238V43.8417V43.8417Z" fill="#010101"/>
<path d="M101.06 44.1662C100.541 45.0748 99.5024 45.4642 98.6587 45.4642C97.2309 45.4642 95.9978 44.4258 95.9978 42.998C95.9978 41.5702 97.2309 40.5318 98.6587 40.5318C99.9567 40.5318 100.8 41.3755 100.995 41.8298H100.411C99.8269 41.051 98.9832 40.9861 98.5938 40.9861C97.3607 40.9861 96.4521 41.9596 96.4521 42.998C96.4521 44.1013 97.5554 45.0099 98.5938 45.0099C98.8534 45.0099 99.6971 44.945 100.411 44.1662H101.06Z" fill="#010101"/>
<path d="M105.603 40.5967C107.096 40.5967 108.329 41.6351 108.329 43.0629C108.329 44.4907 107.096 45.5291 105.603 45.5291C104.11 45.5291 102.877 44.4258 102.877 43.0629C102.812 41.5702 104.24 40.5967 105.603 40.5967ZM105.603 45.0748C106.771 45.0748 107.81 44.1662 107.81 43.0629C107.81 41.9596 106.836 40.9861 105.603 40.9861C104.435 40.9861 103.396 41.8947 103.396 43.0629C103.396 44.1013 104.435 45.0748 105.603 45.0748Z" fill="#010101"/>
<path d="M112.872 40.5967C114.3 40.5967 115.598 41.6351 115.598 43.0629C115.598 44.4907 114.364 45.5291 112.872 45.5291C111.379 45.5291 110.146 44.4258 110.146 43.0629C110.146 41.5702 111.509 40.5967 112.872 40.5967ZM112.872 45.0748C114.04 45.0748 115.078 44.1662 115.078 43.0629C115.078 41.9596 114.105 40.9861 112.872 40.9861C111.704 40.9861 110.665 41.8947 110.665 43.0629C110.6 44.1013 111.639 45.0748 112.872 45.0748Z" fill="#010101"/>
<path d="M117.674 40.6616H118.194V43.3874L120.53 40.6616H121.244L119.232 42.998L121.244 45.4642H120.595L118.907 43.3874L118.258 44.1662V45.4642H117.739V40.6616H117.674Z" fill="#010101"/>
<path d="M123.515 40.6616H122.996V45.4642H123.515V40.6616Z" fill="#010101"/>
<path d="M125.852 40.6616H126.566L129.421 44.6205V40.6616H129.94V45.4642H129.421L126.371 41.2457V45.4642H125.787L125.852 40.6616Z" fill="#010101"/>
<path d="M137.404 43.1927C137.339 44.6205 135.911 45.4642 134.678 45.4642C133.185 45.4642 131.887 44.296 131.887 42.998C131.887 41.7649 132.991 40.5318 134.613 40.5318C135.976 40.5318 136.82 41.3755 137.079 41.8947H136.495C136.171 41.3755 135.522 40.9861 134.678 40.9861C133.38 40.9861 132.472 41.9596 132.472 42.998C132.472 44.0364 133.38 45.0099 134.678 45.0099C135.781 45.0099 136.56 44.296 136.755 43.5821H133.899V43.1278H137.404V43.1927V43.1927Z" fill="#010101"/>
<path d="M138.248 40.6616H137.988V40.5967H138.637V40.6616H138.377V41.5702H138.248V40.6616ZM138.767 40.5967H138.962L139.351 41.4404L139.74 40.5967H139.935V41.6351H139.805V40.7265L139.416 41.6351H139.286L138.897 40.7265V41.6351H138.767V40.5967Z" fill="#010101"/>
</g>
<defs>
<clipPath id="clip0_2_918">
<rect width="120" height="36.9281" fill="white" transform="translate(20 8.53613)"/>
</clipPath>
</defs>
</svg>
