<svg width="160" height="60" viewBox="0 0 160 60" fill="none" xmlns="http://www.w3.org/2000/svg">
<mask id="mask0_162_1442" style="mask-type:alpha" maskUnits="userSpaceOnUse" x="16" y="14" width="82" height="32">
<path d="M16 14H97.5785V45.9802H16V14Z" fill="white"/>
</mask>
<g mask="url(#mask0_162_1442)">
<path fill-rule="evenodd" clip-rule="evenodd" d="M75.8318 45.9766C73.7284 45.9766 72.3359 44.2665 72.7255 42.1524L74.77 31.0923C75.1595 28.9796 77.1824 27.2681 79.2886 27.2681L96.8496 27.2607C97.3188 27.2607 97.6421 27.644 97.5698 28.1165L96.9712 31.4119C96.8961 31.8838 96.4628 32.2676 95.9876 32.2676L82.4212 32.2662C81.4418 32.2662 80.4987 33.0637 80.3187 34.0474L79.3899 39.0662C79.2076 40.0498 79.8568 40.8478 80.8376 40.8478L94.5841 40.8432C95.0575 40.8432 95.3747 41.2265 95.2992 41.6971L94.6605 45.1218C94.5878 45.5942 94.1489 45.9766 93.6751 45.9766H75.8318Z" fill="black"/>
<path fill-rule="evenodd" clip-rule="evenodd" d="M37.3351 39.055C37.1551 40.0372 36.2121 40.8362 35.2326 40.8362H24.022C23.0412 40.8362 22.3919 40.0372 22.5761 39.055L23.5035 34.0352C23.6831 33.0511 24.6261 32.255 25.6069 32.255L38.5752 32.2522L37.3351 39.055ZM45.5988 27.2611L47.8864 14.8585C47.9605 14.3865 47.6387 14.0028 47.1694 14.0028L42.8014 14C42.3303 14 41.8901 14.3838 41.8174 14.8557L39.5067 27.2583H22.4734C20.3681 27.2583 18.3439 28.9697 17.9544 31.0811L16.0798 41.2037C15.5581 43.9824 17.0924 45.9654 19.7599 45.9654H38.3404C40.4443 45.9654 42.468 44.2526 42.8594 42.1426L44.6861 32.2522H47.8661L48.7995 27.2583L45.5988 27.2611Z" fill="black"/>
</g>
<path fill-rule="evenodd" clip-rule="evenodd" d="M64.2974 39.8073C64.2247 40.2778 63.7541 40.8357 63.283 40.8357H52.4463C51.9738 40.8357 51.6837 40.2778 51.7578 39.8073C51.8301 39.3348 52.2708 38.9511 52.7433 38.9511H63.5786C64.0492 38.9511 64.3725 39.3348 64.2974 39.8073ZM69.2898 27.2666H51.4839L50.5436 32.2573L64.7998 32.2647L64.8113 32.2573C65.281 32.2573 65.6038 32.6396 65.5301 33.113C65.4564 33.5826 65.0157 33.9659 64.5451 33.9659L50.5436 33.9604C48.436 33.9604 46.4132 35.6704 46.0218 37.7832L45.2482 42.0881C45.1989 42.3601 45.1786 42.6256 45.1846 42.8787C45.1989 44.6423 46.4988 45.9751 48.3545 45.9751H65.8317C67.9379 45.9751 69.9589 44.265 70.3503 42.1509L72.3957 31.0908C72.7857 28.978 71.3951 27.2666 69.2898 27.2666Z" fill="black"/>
<mask id="mask1_162_1442" style="mask-type:alpha" maskUnits="userSpaceOnUse" x="97" y="27" width="47" height="20">
<path d="M97.3301 27.2778H143.99V46.0006H97.3301V27.2778Z" fill="white"/>
</mask>
<g mask="url(#mask1_162_1442)">
<path fill-rule="evenodd" clip-rule="evenodd" d="M117.705 39.0757C117.523 40.0593 116.579 40.8573 115.6 40.8573H105.506C104.525 40.8573 103.877 40.0593 104.06 39.0757L104.987 34.0568C105.169 33.0732 106.112 32.2757 107.092 32.2757H117.187C118.167 32.2757 118.816 33.0732 118.632 34.0568L117.705 39.0757ZM122.166 27.2776H103.956C101.852 27.2776 99.828 28.989 99.4385 31.1018L97.3958 42.1619C97.0017 44.276 98.3941 45.986 100.5 45.986H118.709C120.812 45.986 122.835 44.276 123.231 42.1619L125.272 31.1018C125.662 28.989 124.269 27.2776 122.166 27.2776Z" fill="black"/>
<path fill-rule="evenodd" clip-rule="evenodd" d="M125.055 45.1442C124.979 45.6194 125.3 45.9999 125.771 45.9999L130.136 46.0013C130.657 46.0013 131.038 45.6162 131.119 45.1488C131.21 44.6764 133.167 34.0693 133.167 34.0693V34.0679C133.343 33.0857 134.304 32.2942 135.283 32.2909H142.401C142.875 32.2909 143.314 31.909 143.384 31.4385L143.982 28.1412C144.056 27.6679 143.731 27.2869 143.265 27.2869L137.597 27.2956C136.629 27.2956 135.681 27.6591 134.892 28.2548C134.607 28.4769 133.926 27.2915 133.926 27.2915L129.183 27.2901C128.712 27.2901 128.287 27.6752 128.199 28.1444L125.055 45.1396V45.1442Z" fill="black"/>
</g>
</svg>
