<svg width="160" height="60" viewBox="0 0 160 60" fill="none" xmlns="http://www.w3.org/2000/svg">
<path d="M34.8994 33.0174L34.9177 27.3083V21.9652C44.5975 20.9222 45.3111 33.9323 34.8994 33.0174ZM41.7612 16H25V27.3449V39.0558H41.9076C57.1684 37.0064 54.7713 17.5554 41.7612 16Z" fill="white"/>
<path d="M84.8393 28.6892V39.101H93.0553V25.3224C93.0553 25.3224 91.9574 19.7597 86.0836 19.5767C83.0461 19.4852 79.6975 21.7359 79.6975 21.7359V20.6197H72.0488V39.1193H80.2099V28.3416C80.2099 28.3416 80.2648 26.2922 82.6252 26.2922C84.9857 26.2556 84.8393 28.6892 84.8393 28.6892Z" fill="white"/>
<path d="M123.169 43.8878C123.169 43.8878 124.834 42.9912 126.902 38.5081C127.78 36.6051 134.77 21.1431 134.77 21.1431H126.518C126.518 21.1431 125.035 27.3462 124.157 27.3462C123.389 27.3462 121.211 21.1614 121.211 21.1614H112.922L119.729 36.5136C119.729 36.5136 121.028 39.8622 118.302 39.4414C117.753 39.3499 116.948 39.2401 114.916 38.5081L113.471 43.2291C113.489 43.2291 120.955 46.4313 123.169 43.8878Z" fill="white"/>
<path d="M107.614 30.5487C107.431 35.2331 101.777 32.9092 101.777 32.9092V27.3465C101.777 27.3648 107.834 24.5835 107.614 30.5487ZM106.425 20.5944C103.882 20.5944 101.777 21.6375 101.777 21.6375V16.5322H94.1104V28.8287L94.1287 39.094H101.887L102.345 38.6366C102.345 38.6366 103.077 39.5515 107.084 39.5515C107.084 39.5515 114.751 40.2651 115.172 29.6521C115.519 20.7042 106.425 20.5944 106.425 20.5944Z" fill="white"/>
<path d="M62.7839 32.8139V34.9365C62.7839 34.9365 61.1736 36.1259 59.6732 34.8999C59.6732 34.8999 58.0629 33.0334 60.3868 31.3683C60.3868 31.3683 60.9358 30.9474 62.8022 30.7828V32.8139H62.7839ZM70.9266 25.6958C70.9266 25.6958 70.7253 19.5293 58.1361 19.877C57.0931 19.9319 56.6174 20.0782 54.6228 20.6272L53.5981 20.9749L52.4087 26.629C54.3118 25.3847 56.654 25.092 58.1544 25.0554C58.6668 25.0554 59.5085 25.0554 59.5085 25.0554C62.0885 25.3482 62.4728 26.4278 62.4728 26.4278C62.4728 26.4278 62.9303 27.8001 61.6128 27.7086C61.6128 27.7086 59.2889 27.3427 56.1416 28.2942C48.2916 30.673 51.6585 39.8038 58.191 39.383C58.1727 39.383 58.5753 39.3647 59.9842 39.2549C60.826 39.1817 63.2962 38.5229 63.2962 38.5229L63.3328 39.0536H70.9449L70.9815 32.8322V32.7956L70.9266 25.6958Z" fill="white"/>
<path d="M34.8994 33.0174L34.9177 27.3083V21.9652C44.5975 20.9222 45.3111 33.9323 34.8994 33.0174ZM41.7612 16H25V27.3449V39.0558H41.9076C57.1684 37.0064 54.7713 17.5554 41.7612 16Z" fill="#0093D0"/>
<path d="M84.8393 28.6892V39.101H93.0553V25.3224C93.0553 25.3224 91.9574 19.7597 86.0836 19.5767C83.0461 19.4852 79.6975 21.7359 79.6975 21.7359V20.6197H72.0488V39.1193H80.2099V28.3416C80.2099 28.3416 80.2648 26.2922 82.6252 26.2922C84.9857 26.2556 84.8393 28.6892 84.8393 28.6892Z" fill="#0093D0"/>
<path d="M123.169 43.8878C123.169 43.8878 124.834 42.9912 126.902 38.5081C127.78 36.6051 134.77 21.1431 134.77 21.1431H126.518C126.518 21.1431 125.035 27.3462 124.157 27.3462C123.389 27.3462 121.211 21.1614 121.211 21.1614H112.922L119.729 36.5136C119.729 36.5136 121.028 39.8622 118.302 39.4414C117.753 39.3499 116.948 39.2401 114.916 38.5081L113.471 43.2291C113.489 43.2291 120.955 46.4313 123.169 43.8878Z" fill="#0093D0"/>
<path d="M107.614 30.5487C107.431 35.2331 101.777 32.9092 101.777 32.9092V27.3465C101.777 27.3648 107.834 24.5835 107.614 30.5487ZM106.425 20.5944C103.882 20.5944 101.777 21.6375 101.777 21.6375V16.5322H94.1104V28.8287L94.1287 39.094H101.887L102.345 38.6366C102.345 38.6366 103.077 39.5515 107.084 39.5515C107.084 39.5515 114.751 40.2651 115.172 29.6521C115.519 20.7042 106.425 20.5944 106.425 20.5944Z" fill="#0093D0"/>
<path d="M62.7839 32.8139V34.9365C62.7839 34.9365 61.1736 36.1259 59.6732 34.8999C59.6732 34.8999 58.0629 33.0334 60.3868 31.3683C60.3868 31.3683 60.9358 30.9474 62.8022 30.7828V32.8139H62.7839ZM70.9266 25.6958C70.9266 25.6958 70.7253 19.5293 58.1361 19.877C57.0931 19.9319 56.6174 20.0782 54.6228 20.6272L53.5981 20.9749L52.4087 26.629C54.3118 25.3847 56.654 25.092 58.1544 25.0554C58.6668 25.0554 59.5085 25.0554 59.5085 25.0554C62.0885 25.3482 62.4728 26.4278 62.4728 26.4278C62.4728 26.4278 62.9303 27.8001 61.6128 27.7086C61.6128 27.7086 59.2889 27.3427 56.1416 28.2942C48.2916 30.673 51.6585 39.8038 58.191 39.383C58.1727 39.383 58.5753 39.3647 59.9842 39.2549C60.826 39.1817 63.2962 38.5229 63.2962 38.5229L63.3328 39.0536H70.9449L70.9815 32.8322V32.7956L70.9266 25.6958Z" fill="#0093D0"/>
</svg>
