<svg width="160" height="60" viewBox="0 0 160 60" fill="none" xmlns="http://www.w3.org/2000/svg">
<path d="M97.6449 7.00571C97.4405 6.9841 97.1641 7.0285 96.8597 7.06063C93.5442 7.56599 90.227 8.57145 87.4764 10.018C83.1549 12.2883 82.0179 15.6021 82.0355 17.5587C82.0179 19.5193 83.1549 22.8132 87.4764 25.0806C90.2281 26.5266 93.5448 27.5291 96.8603 28.038C97.4691 28.1099 97.9651 28.1993 97.9739 27.7459V24.3685C97.9651 24.2504 97.9931 23.8497 97.4995 23.8023C94.1927 23.436 90.879 22.8173 88.4801 21.7756C86.7695 21.0407 84.2444 19.6006 84.2444 17.5587C84.2444 15.518 86.7695 14.055 88.4801 13.323C90.879 12.2813 94.1927 11.662 97.4995 11.2957C97.9931 11.2472 97.9651 10.85 97.9744 10.7302V7.33405C97.9692 7.11088 97.8494 7.02733 97.6443 7.00571H97.6449ZM67.5021 7.2248C66.5493 7.21487 65.6671 7.42344 64.9835 7.9919C63.3255 9.36717 62.3545 13.0484 62.3545 17.5768C62.3545 22.1139 63.3255 25.7794 64.9835 27.1617C67.1703 28.9815 71.4714 27.1056 73.2171 26.2123C76.7715 24.3988 80.8828 21.0652 80.8121 17.5768C80.8828 14.0872 76.7715 10.7378 73.2171 8.92257C72.0165 8.31322 69.599 7.24642 67.5027 7.2248H67.5021ZM67.7399 11.3325C68.8996 11.2694 70.7721 11.537 73.6547 12.8661C77.4031 14.5207 78.5844 16.1781 78.5844 17.5581C78.5844 18.9252 77.4031 20.5727 73.6547 22.2319C69.0428 24.3492 66.9962 23.8047 66.3705 23.4372C65.9382 23.1509 65.0133 22.6099 64.581 19.8769C64.484 19.2488 64.4349 18.3976 64.4349 17.5587C64.4349 16.7221 64.484 15.8755 64.581 15.2393C65.0133 12.5191 65.9382 11.9582 66.3705 11.6614C66.6054 11.5242 67.0435 11.3705 67.7393 11.3325H67.7399ZM94.7781 15.532C94.2415 15.5347 93.7277 15.7492 93.3483 16.1287C92.9689 16.5082 92.7546 17.0221 92.752 17.5587C92.752 18.6687 93.6675 19.5667 94.7787 19.5667C95.8987 19.5667 96.8048 18.6687 96.8054 17.5581C96.8042 17.0209 96.5901 16.5061 96.2102 16.1264C95.8302 15.7466 95.3153 15.5329 94.7781 15.532Z" fill="#EF3120"/>
<path d="M98.6517 33.729C95.8825 33.729 93.625 36.0502 93.625 38.8837C93.625 41.7026 95.8825 44.0173 98.6517 44.0173H100.168C102.938 44.0173 105.195 41.7026 105.195 38.8837C105.195 36.0502 102.938 33.729 100.168 33.729H98.6517ZM100.009 34.7678C102.214 34.7678 103.987 36.6058 103.987 38.8837C103.987 41.1493 102.214 42.9967 100.009 42.9967H98.8106C96.6057 42.9967 94.8332 41.1493 94.8332 38.8837C94.8332 36.6058 96.6057 34.7678 98.8106 34.7678H100.009Z" fill="#393536"/>
<path d="M98.6383 33.73C95.8813 33.73 93.6396 36.0494 93.6396 38.8864C93.6396 41.7018 95.8813 44.0171 98.6383 44.0171H100.182C102.938 44.0171 105.181 41.7018 105.181 38.8864C105.181 36.0488 102.938 33.73 100.182 33.73H98.6383ZM99.9978 34.7699C102.203 34.7699 104.004 36.6073 104.004 38.8864C104.004 41.1503 102.203 42.9994 99.9978 42.9994H98.8218C96.6163 42.9994 94.8157 41.1503 94.8157 38.8864C94.8157 36.6079 96.6163 34.7699 98.8218 34.7699H99.9978Z" stroke="#393536" stroke-width="0.638661"/>
<path d="M111.783 33.729C109.013 33.729 106.756 36.0502 106.756 38.8837C106.756 41.7026 109.013 44.0173 111.783 44.0173H113.29C116.068 44.0173 118.326 41.7026 118.326 38.8837C118.326 36.0502 116.068 33.729 113.29 33.729H111.783ZM113.14 34.7678C115.345 34.7678 117.118 36.6058 117.118 38.8837C117.118 41.1493 115.345 42.9967 113.14 42.9967H111.941C109.737 42.9967 107.964 41.1493 107.964 38.8837C107.964 36.6058 109.737 34.7678 111.941 34.7678H113.14Z" fill="#393536"/>
<path d="M111.798 33.73C109.005 33.73 106.763 36.0494 106.763 38.8864C106.763 41.7018 109.005 44.0171 111.798 44.0171H113.305C116.062 44.0171 118.34 41.7018 118.34 38.8864C118.34 36.0488 116.062 33.73 113.305 33.73H111.798ZM113.158 34.7699C115.363 34.7699 117.128 36.6073 117.128 38.8864C117.128 41.1503 115.363 42.9994 113.158 42.9994H111.945C109.74 42.9994 107.976 41.1503 107.976 38.8864C107.976 36.6079 109.74 34.7699 111.945 34.7699H113.158Z" stroke="#393536" stroke-width="0.638661"/>
<path d="M65.9639 34.0608H75.6685V35.1778H65.9645L65.9639 34.0608ZM65.9639 38.3093H75.6662V39.4281H65.9639V38.3093ZM65.9639 42.5619H75.6662V43.6796H65.9639V42.5619Z" fill="#393536" stroke="#393536" stroke-width="0.638661"/>
<path d="M47.6096 43.6793C50.3707 43.6793 52.6194 41.5088 52.6194 38.874C52.6194 36.2221 50.3701 34.0593 47.6102 34.0593H42.0186V43.6793H47.6096ZM43.298 35.1775H47.5132C49.6206 35.1775 51.3224 36.8613 51.3224 38.874C51.3224 40.8744 49.6206 42.561 47.5132 42.561H43.298V35.1775Z" fill="#393536"/>
<path d="M47.6238 43.6797C50.3802 43.6797 52.6225 41.5075 52.6225 38.8715C52.6225 36.222 50.3802 34.0609 47.6238 34.0609H42V43.6797H47.6238ZM43.2859 35.1774H47.5128C49.6078 35.1774 51.3354 36.8611 51.3354 38.8715C51.3354 40.8748 49.6078 42.5615 47.5128 42.5615H43.2859V35.1774Z" stroke="#393536" stroke-width="0.638661"/>
<path d="M77.3218 34.061L82.6512 43.6798H84.0475L78.6819 34.061H77.3218ZM63.1712 43.6798H64.5313L59.2019 34.061H58.0989L52.7695 43.6798H54.1296L58.6504 35.542L63.1712 43.6798ZM92.1338 34.061L87.613 42.1941L83.0923 34.0604H81.7322L87.0621 43.6792H88.1646L93.4939 34.0604L92.1338 34.061Z" fill="#393536" stroke="#393536" stroke-width="0.638661"/>
<path d="M70.1154 48.3768C69.6375 48.3768 69.204 48.5497 68.9101 48.8693C68.4328 49.318 68.4358 49.7977 68.4358 50.8049C68.4358 51.8121 68.4328 52.2771 68.9107 52.7217C69.2046 53.0413 69.6375 53.2148 70.1154 53.2148C70.9608 53.2148 71.5935 52.6873 71.7402 51.7905H71.2658C71.1185 52.3747 70.7037 52.7585 70.1154 52.7579C69.8029 52.7641 69.5008 52.646 69.2753 52.4296C68.9814 52.1246 68.947 51.801 68.947 50.8049C68.947 49.8123 68.982 49.4705 69.2759 49.1614C69.5012 48.9452 69.8031 48.8271 70.1154 48.8331C70.7037 48.8331 71.1191 49.2199 71.229 49.8006H71.7402C71.5935 48.9073 70.9608 48.3768 70.1154 48.3762V48.3768ZM85.7074 48.3768C85.2295 48.3768 84.8147 48.5497 84.484 48.8693C84.0429 49.318 84.0458 49.7977 84.0458 50.8049C84.0458 51.8121 84.0429 52.2771 84.484 52.7217C84.6452 52.8806 84.8364 53.006 85.0464 53.0906C85.2563 53.1752 85.481 53.2175 85.7074 53.2148C86.1847 53.2148 86.6182 53.0413 86.912 52.7217C86.9155 52.7182 86.9272 52.7252 86.9301 52.7217C87.38 52.2742 87.3683 51.8127 87.3683 50.8049C87.3683 49.7982 87.38 49.3198 86.9301 48.8693C86.9266 48.8658 86.9155 48.8728 86.912 48.8693C86.6182 48.5497 86.1847 48.3762 85.7068 48.3762L85.7074 48.3768ZM100.148 48.3768C99.6705 48.3768 99.2375 48.5497 98.9437 48.8693C98.4658 49.318 98.4506 49.7977 98.4506 50.8049C98.4506 51.8121 98.4658 52.2771 98.9437 52.7217C99.2375 53.0413 99.6705 53.2148 100.148 53.2148C100.994 53.2148 101.626 52.6873 101.81 51.7905H101.281C101.133 52.3747 100.737 52.7585 100.148 52.7579C99.8361 52.7639 99.5342 52.6458 99.3088 52.4296C99.0144 52.1246 98.9799 51.801 98.9799 50.8049C98.9799 49.8123 99.015 49.4705 99.3088 49.1614C99.5342 48.9452 99.8361 48.8271 100.148 48.8331C100.737 48.8331 101.134 49.2199 101.244 49.8006H101.81C101.626 48.9073 100.994 48.3768 100.148 48.3762V48.3768ZM105.26 48.3768C104.305 48.3768 103.745 48.919 103.745 49.7275C103.745 50.1096 103.854 50.3906 104.074 50.6039C104.294 50.7879 104.601 50.91 104.968 50.969L105.516 51.0602C105.884 51.1116 105.989 51.1507 106.137 51.2793C106.284 51.4195 106.356 51.6321 106.356 51.8816C106.356 52.4331 105.959 52.7579 105.26 52.7579C104.709 52.7579 104.331 52.6405 103.964 52.2473L103.599 52.5938C104.04 53.0425 104.525 53.2148 105.224 53.2148C106.217 53.2148 106.867 52.6978 106.867 51.8635C106.867 51.4703 106.723 51.1531 106.466 50.9322C106.282 50.7599 106.067 50.6518 105.589 50.5858L105.078 50.5128C104.857 50.4719 104.586 50.3854 104.439 50.2569C104.292 50.1318 104.22 49.9443 104.22 49.7094C104.22 49.1836 104.6 48.8331 105.224 48.8331C105.738 48.8331 106.062 48.9733 106.356 49.2345L106.648 48.9061C106.244 48.5381 105.849 48.3768 105.26 48.3768ZM53.4648 48.4311V53.178H56.4041V52.7217H53.976V51.0053H56.039V50.5496H53.976V48.8693H56.4041V48.4311H53.4648ZM58.5769 48.4311V53.178H61.5161V52.7217H59.0881V48.4311H58.5769ZM63.5066 48.4311V53.178H66.4453V52.7217H64.0172V51.0053H66.1169V50.5496H64.0178V48.8693H66.4459V48.4311H63.5066ZM73.4928 48.4311V48.8693H74.8623V53.178H75.3735V48.8693H76.7429V48.4311H73.4928ZM78.7328 48.4311V53.178H79.244V51.0602H80.3944L81.4717 53.178H82.0734L80.9418 51.024C81.2468 50.9597 81.5056 50.816 81.6902 50.6039C81.7363 50.5501 81.7825 50.4841 81.8187 50.421C81.9286 50.2329 81.9823 50.0074 81.9823 49.7457C81.9823 49.3303 81.8403 49.006 81.5809 48.7782C81.5194 48.7224 81.452 48.6734 81.38 48.6321C81.1527 48.5012 80.8758 48.4311 80.5585 48.4311H78.7328ZM89.669 48.4311V53.178H90.1802V49.3624L92.6813 53.178H93.1563V48.4311H92.6813V52.2286L90.1434 48.4311H89.669ZM95.6755 48.4311V53.178H96.1867V48.4311H95.6755ZM85.7068 48.8331C85.9551 48.8331 86.1701 48.909 86.3459 49.0341C86.3506 49.0364 86.3599 49.0311 86.364 49.0341C86.4184 49.0732 86.4674 49.1305 86.5101 49.1801C86.593 49.2572 86.6614 49.3285 86.7111 49.4173C86.8489 49.6843 86.8571 50.06 86.8571 50.8049C86.8571 51.5503 86.8489 51.9079 86.7111 52.1743C86.6574 52.2691 86.5897 52.3552 86.5101 52.4296C86.3266 52.6394 86.038 52.7585 85.7074 52.7585C85.6276 52.7612 85.5479 52.7549 85.4696 52.7398C85.4 52.7258 85.3352 52.6931 85.2686 52.6668C85.2639 52.6651 85.2557 52.6691 85.2511 52.6668C85.1845 52.6399 85.126 52.5955 85.0682 52.5576C85.0641 52.5546 85.0542 52.5605 85.0501 52.5576C84.9882 52.5161 84.9315 52.4816 84.8853 52.4296C84.5915 52.1211 84.557 51.801 84.557 50.8049C84.557 49.8123 84.5915 49.4886 84.8853 49.1801C85.0694 48.9698 85.4129 48.8331 85.7068 48.8331ZM79.244 48.8693H80.5223C80.7975 48.8693 81.0277 48.9423 81.1977 49.0884C81.2812 49.162 81.3525 49.2532 81.3987 49.3624C81.4454 49.4717 81.4711 49.6008 81.4711 49.7457C81.4717 49.8131 81.4658 49.8804 81.4536 49.9466C81.4524 49.9525 81.4536 49.9595 81.4536 49.9647C81.4413 50.022 81.4197 50.0798 81.3987 50.1289C81.3753 50.1832 81.3402 50.23 81.3069 50.275C81.1731 50.4502 80.9739 50.5688 80.7227 50.6039C80.6563 50.615 80.5891 50.621 80.5217 50.622H79.244V48.8693Z" fill="#393536"/>
</svg>
