<svg width="160" height="60" viewBox="0 0 160 60" fill="none" xmlns="http://www.w3.org/2000/svg">
<path fill-rule="evenodd" clip-rule="evenodd" d="M57.9813 6.42897C57.5915 6.66467 57.1497 7.15227 56.9993 7.51255C56.7945 8.00266 56.7411 12.3279 56.7874 24.7094L56.8493 41.2513H78.5178C100.072 41.2513 100.19 41.2488 100.836 40.7788C102.344 39.6813 102.29 40.3259 102.29 23.5681C102.29 6.6001 102.349 7.22506 100.68 6.39862C99.9313 6.02761 98.4273 5.99955 79.2823 6.00001C59.5412 6.00046 58.6607 6.01826 57.9813 6.42897ZM100.698 7.50023L101.255 8.08891L101.325 22.6166C101.363 30.6069 101.328 37.5974 101.248 38.1512C101.15 38.8213 100.882 39.3744 100.448 39.8054L99.7951 40.4527H94.2554H88.7157V38.6274V36.802H94.047C98.685 36.802 99.433 36.7529 99.799 36.4244C100.198 36.0666 100.22 35.3271 100.22 22.2777C100.22 8.8129 100.21 8.49871 99.7597 8.05241C99.3071 7.60359 98.9928 7.59606 80.9442 7.59606C64.7034 7.59606 62.5298 7.63691 62.0774 7.95133C61.5832 8.2945 61.566 8.43642 61.566 12.1597V16.0131L60.7381 16.8813C59.7531 17.9149 58.1147 20.3232 58.1147 20.7378C58.1147 20.8991 58.0066 21.0974 57.8745 21.1784C57.7093 21.2797 57.6555 19.262 57.7019 14.707L57.7696 8.08846L58.3273 7.5L58.8853 6.91155H79.5124H100.14L100.698 7.50023ZM94.928 9.09994C94.928 9.1741 94.5656 9.65462 94.1227 10.1678C93.608 10.764 93.3174 11.3372 93.3174 11.7556C93.3174 12.1157 93.1598 12.7128 92.967 13.0822C92.6458 13.698 92.6531 13.8261 93.0539 14.6112C93.2944 15.0824 93.5626 15.7956 93.6498 16.1963C93.737 16.597 94.1118 17.3403 94.4832 17.8485C95.1718 18.7915 95.3591 19.9333 94.9342 20.5998C94.7446 20.8969 94.6291 20.8882 94.0168 20.5295C93.6317 20.3038 93.2131 20.1824 93.0868 20.2598C92.6375 20.5352 92.8683 21.052 93.605 21.42C94.8987 22.0667 95.8165 23.1144 96.1826 24.3632C96.3713 25.0071 96.8291 25.9821 97.2 26.5297C97.5709 27.0773 97.8206 27.6644 97.7548 27.8344C97.6889 28.0046 97.9059 28.3927 98.2372 28.6971C98.9944 29.393 98.9896 29.5418 98.1811 30.4622C97.8189 30.8746 97.348 31.5499 97.1347 31.9632C96.3177 33.5451 94.928 33.4294 94.928 31.7795C94.928 31.3005 94.7496 30.7023 94.5253 30.428C94.1661 29.989 94.0743 29.971 93.6754 30.261C93.2495 30.5704 93.2467 30.6147 93.6179 31.1762C94.1125 31.9248 94.1215 32.8941 93.6356 33.0789C93.431 33.1569 92.9955 33.1271 92.6679 33.0127C91.9348 32.7572 90.5568 31.0131 90.555 30.3384C90.5525 29.3547 90.0571 28.1032 89.3577 27.3133C88.4951 26.339 87.4036 25.7647 85.7555 25.4183C84.1362 25.0779 83.2692 24.4408 82.9393 23.349C82.5707 22.129 82.8111 21.4287 84.0485 20.1167C85.0374 19.0681 85.0873 18.9592 84.7364 18.6115C84.3858 18.2635 84.2664 18.3279 83.0858 19.4986C81.8192 20.7547 81.8132 20.767 81.8132 22.1598C81.8132 23.4355 81.9361 23.7864 83.2039 26.1304C86.8592 32.8889 87.5653 34.8735 87.5653 38.3891V40.4527H76.4988H65.4323L65.5319 35.49C65.6232 30.9387 65.6817 30.3632 66.2387 28.5477C66.9536 26.2174 68.2973 23.2555 69.4511 21.4666C71.1691 18.8032 74.625 15.7395 77.5908 14.2505C78.8972 13.5945 81.7157 12.844 82.8732 12.844C84.0848 12.844 84.7116 12.2597 83.7551 12.0217C82.1938 11.6329 77.5721 13.1053 74.1055 15.0956C71.8157 16.4103 68.4825 19.6453 67.2564 21.7427C66.082 23.7515 64.624 27.5138 64.0877 29.9185C63.7412 31.473 63.6457 32.812 63.6418 36.1745L63.6367 40.4527H60.5306H57.4245V38.8891C57.4245 38.0289 57.4891 36.7125 57.568 35.9635L57.7116 34.6017L59.8656 33.135C61.9935 31.6862 62.394 31.2752 62.1149 30.8276C61.935 30.5387 61.3867 30.6555 59.4377 31.3982C58.5836 31.7236 57.8846 31.9198 57.8846 31.8342C57.8846 31.7487 58.0549 30.8547 58.2629 29.848C58.7072 27.6966 58.8404 27.5501 61.6058 26.1724C62.7035 25.6257 63.6728 25.0637 63.76 24.9236C64.1381 24.3171 63.4287 24.2311 61.5966 24.6614C60.5674 24.9031 59.7253 25.0489 59.7253 24.9855C59.7253 24.9218 59.9485 24.2626 60.2216 23.5204C60.9022 21.6688 61.5979 21.0068 63.5217 20.38C65.6713 19.6796 66.3977 19.2944 66.3977 18.8556C66.3977 18.4785 66.0648 18.4874 63.8721 18.9234L63.0721 19.0824L64.4977 17.4916L65.9233 15.901L67.936 15.8385C69.043 15.8041 70.0298 15.7263 70.1289 15.6656C70.5337 15.4175 70.2578 15.0691 69.3888 14.7305C68.8826 14.5334 68.4684 14.2993 68.4684 14.2103C68.4684 13.9468 70.9941 12.6904 72.9919 11.9598C77.8712 10.1758 83.8239 9.67105 87.2933 10.7471L88.9769 11.2694L90.0497 10.5646C90.6399 10.1771 91.6941 9.70254 92.3924 9.50996C93.091 9.31762 93.766 9.12435 93.8926 9.08055C94.2828 8.9457 94.928 8.95779 94.928 9.09994ZM48.1307 46.7461C47.876 47.4044 47.9837 47.526 48.821 47.526C49.3934 47.526 49.615 47.6146 49.5349 47.8113C47.7481 52.2086 47.0079 53.6529 46.4723 53.7861C46.1571 53.8646 45.8055 53.8715 45.6912 53.8014C45.5087 53.6894 45 54.3495 45 54.6984C45 54.9318 53.0041 54.833 54.1693 54.5852C56.8511 54.015 58.3448 52.3201 58.3448 49.8477C58.3448 48.2439 57.8478 47.4667 56.4073 46.8178C55.1016 46.2298 48.3532 46.1714 48.1307 46.7461ZM59.7333 46.8265C59.3866 47.469 59.4237 47.526 60.1855 47.526C60.7073 47.526 60.8757 47.6305 60.8757 47.9545C60.8757 48.7591 58.5436 53.6846 58.1455 53.7204C57.9389 53.7389 57.5853 53.7647 57.3598 53.7775C56.9753 53.7994 56.5156 54.2735 56.5076 54.6564C56.5057 54.7504 58.7352 54.8275 61.4622 54.8275H66.4202L66.8641 53.8578C67.6445 52.1524 67.2992 51.804 66.0337 53.0204C65.3278 53.699 65.2263 53.7245 63.0889 53.762C61.8715 53.7832 60.8755 53.7818 60.8755 53.7588C60.8757 53.7357 61.1481 53.0936 61.4813 52.332L62.0869 50.9472L63.1494 51.0056C64.1525 51.0609 64.2094 51.0992 64.1687 51.6908C64.1364 52.1568 64.2308 52.3176 64.5368 52.3176C64.823 52.3176 65.1339 51.8837 65.5586 50.8916C65.8943 50.1073 66.1685 49.3884 66.1683 49.2944C66.1669 48.9692 65.6205 49.1248 65.1175 49.5933C64.7301 49.9542 64.3725 50.0469 63.5746 49.9926L62.536 49.9218L63.0288 48.7173L63.5217 47.5128L65.5924 47.5765L67.6631 47.6401L67.5969 48.2676C67.5453 48.7566 67.6279 48.8951 67.9712 48.8951C68.2798 48.8951 68.5582 48.5576 68.9003 47.769C69.169 47.1496 69.3888 46.5848 69.3888 46.5141C69.3888 46.4431 67.2699 46.3852 64.6801 46.3852C60.2605 46.3852 59.957 46.4123 59.7333 46.8265ZM70.2325 46.5374C69.8874 46.8794 70.1002 47.4973 70.5873 47.5671C70.9398 47.6178 71.3712 48.1165 71.9938 49.1926C72.4878 50.0464 72.8543 50.7741 72.8085 50.8097C72.3766 51.1439 69.2056 53.4097 68.9797 53.5452C68.8179 53.6422 68.3598 53.7624 67.9616 53.8124C67.298 53.8957 66.8703 54.2238 66.8613 54.6564C66.8595 54.7504 67.9848 54.8275 69.3618 54.8275C71.6721 54.8275 71.8753 54.7922 71.9862 54.3714C72.1334 53.8131 71.8449 53.607 71.2002 53.8099C70.4062 54.0597 70.7822 53.5543 72.1309 52.5581L73.3777 51.6372L73.9069 52.4908C74.5783 53.5735 74.576 53.6867 73.8834 53.6867C73.3964 53.6867 72.84 54.2299 72.84 54.7059C72.84 54.781 74.0049 54.8134 75.4284 54.778C77.961 54.7148 78.0185 54.7016 78.0946 54.1681C78.1581 53.7218 78.0898 53.6442 77.7175 53.741C77.4672 53.8058 77.1589 53.7946 77.0323 53.7156C76.7581 53.5452 75.1408 50.8452 75.1408 50.5578C75.1408 50.1518 78.9954 47.526 79.5916 47.526C80.1028 47.526 80.6628 46.9971 80.6628 46.5143C80.6628 46.4434 79.6829 46.3852 78.4851 46.3852C76.594 46.3852 76.2772 46.4413 76.0773 46.8116C75.7943 47.336 75.9641 47.526 76.7148 47.526C77.2127 47.526 77.1048 47.665 75.9286 48.5391C75.179 49.0963 74.5047 49.4812 74.4299 49.3948C74.3553 49.3081 74.062 48.8524 73.7783 48.3817L73.2627 47.526H73.8197C74.1906 47.526 74.4644 47.3355 74.6388 46.9556L74.9009 46.3852H72.6433C71.4018 46.3852 70.3167 46.4536 70.2325 46.5374ZM80.9145 46.8986C80.8062 47.181 80.5551 47.7971 80.3568 48.2676C80.0034 49.1057 80.0064 49.1232 80.502 49.118C80.8404 49.1146 81.1287 48.8693 81.3729 48.3764C81.7049 47.7065 81.8445 47.634 82.9259 47.5712C83.5828 47.5331 84.1141 47.6004 84.1141 47.722C84.1141 48.0476 81.8206 53.3084 81.568 53.5621C81.449 53.6816 81.0797 53.7843 80.7475 53.7902C80.3849 53.7964 80.0064 54.0059 79.8 54.3141L79.4563 54.8275H82.3523C84.9449 54.8275 85.2723 54.7828 85.4785 54.4011C85.77 53.861 85.6041 53.6972 84.8947 53.8247C84.5676 53.8836 84.2864 53.803 84.2201 53.6317C84.1576 53.4701 84.6635 52.0559 85.3443 50.4891L86.5822 47.6401H87.8216H89.0608L89.0024 48.3817C88.9564 48.9678 89.0319 49.1232 89.3627 49.1232C89.651 49.1232 89.9379 48.7488 90.284 47.921C90.5603 47.2598 90.7865 46.6437 90.7865 46.552C90.7865 46.4603 88.6097 46.3852 85.949 46.3852C81.1442 46.3852 81.1103 46.3886 80.9145 46.8986ZM91.1562 46.7461C90.9075 47.3889 91.0044 47.526 91.7068 47.526C92.0864 47.526 92.397 47.6369 92.397 47.7725C92.397 48.2395 90.0244 53.5 89.7729 53.5906C89.6344 53.6406 89.2686 53.7175 88.9601 53.7617C88.6515 53.8058 88.2507 54.0636 88.0692 54.3347L87.7392 54.8275H92.8041H97.8691L98.2644 53.8578C98.4818 53.3243 98.7112 52.7598 98.7743 52.6028C98.9956 52.0509 98.0983 52.3233 97.4589 53.0021C97.0443 53.4423 96.5799 53.6908 96.1587 53.6983C95.7981 53.7047 94.8042 53.7305 93.9499 53.7553C93.0362 53.782 92.3977 53.7067 92.3991 53.5726C92.4005 53.4471 92.6575 52.7993 92.9702 52.1333C93.5383 50.9228 93.5396 50.9219 94.5209 50.9924C95.4061 51.0558 95.5105 51.1259 95.5772 51.7036C95.7001 52.7658 96.3225 52.3411 97.0185 50.7204C97.5504 49.4822 97.5981 49.2245 97.3061 49.1595C97.1137 49.1166 96.8047 49.2964 96.6193 49.5588C96.3538 49.9348 96.0383 50.0359 95.1295 50.0359C93.8537 50.0359 93.8631 50.0681 94.6134 48.2874L94.9342 47.526H97.0304H99.127L98.9857 48.2261C98.8603 48.8487 98.8999 48.9181 99.3446 48.8535C99.698 48.8022 99.9997 48.4298 100.373 47.5831L100.901 46.3852H96.0984C91.9314 46.3852 91.2775 46.4329 91.1562 46.7461ZM101.772 46.5193C101.677 46.6129 101.6 46.8776 101.6 47.1078C101.6 47.4204 101.775 47.526 102.291 47.526C102.67 47.526 102.981 47.6369 102.981 47.7725C102.981 47.908 102.45 49.2464 101.8 50.7467C100.747 53.1799 100.073 54.1494 99.6946 53.7743C99.4811 53.5623 98.6093 54.1398 98.6093 54.4932C98.6093 54.7682 99.0989 54.8275 101.37 54.8275C103.671 54.8275 104.131 54.7705 104.131 54.4853C104.131 53.9333 104.042 53.8153 103.57 53.7439C102.908 53.6438 102.901 53.5883 103.415 52.4372C103.88 51.3956 103.903 51.3792 104.857 51.4485C105.792 51.5165 105.862 51.5781 106.836 53.1733L107.846 54.8275H109.44C110.317 54.8275 111.034 54.7333 111.034 54.6181C111.034 54.5028 111.098 54.2418 111.177 54.038C111.292 53.7419 111.202 53.6887 110.731 53.7736C110.235 53.8628 109.994 53.686 109.207 52.6519C108.693 51.977 108.273 51.3689 108.273 51.3007C108.273 51.2325 108.516 51.1768 108.814 51.1768C109.555 51.1768 110.852 50.2705 111.232 49.4872C111.646 48.6338 111.345 47.6068 110.498 46.9789C109.91 46.5431 109.489 46.4924 105.897 46.4242C103.723 46.3829 101.866 46.4258 101.772 46.5193ZM55.2702 48.0654C55.8091 48.525 55.9002 48.7734 55.8854 49.7416C55.8592 51.4615 54.8462 52.9848 53.4176 53.4519C52.5886 53.7229 49.372 53.9361 49.3707 53.72C49.3702 53.639 49.9652 52.212 50.6927 50.5493L52.0157 47.526H53.3267C54.3736 47.526 54.7654 47.6349 55.2702 48.0654ZM108.619 48.0657C108.891 48.4773 108.92 48.7488 108.743 49.2106C108.445 49.9873 107.685 50.2641 105.848 50.2641C104.194 50.2641 104.261 50.4453 105.15 48.3817C105.517 47.5295 105.523 47.526 106.89 47.526C108.079 47.526 108.31 47.5981 108.619 48.0657ZM112.385 53.3882C112.17 53.6506 112.161 53.7193 112.357 53.6029C112.551 53.4875 112.644 53.589 112.644 53.9148C112.644 54.1807 112.541 54.3347 112.414 54.2571C112.288 54.1795 112.184 54.2229 112.184 54.3534C112.184 54.4839 112.444 54.6555 112.762 54.7347C113.421 54.8985 114.038 54.5033 113.998 53.944C113.976 53.6305 113.955 53.6351 113.866 53.9719C113.808 54.1916 113.654 54.3712 113.523 54.3712C113.392 54.3712 113.349 54.2076 113.426 54.0077C113.522 53.7594 113.406 53.6029 113.06 53.513C112.577 53.3878 112.575 53.3738 113.002 53.208C113.349 53.0731 113.366 53.0307 113.075 53.0181C112.869 53.0094 112.559 53.1758 112.385 53.3882ZM113.22 54.3712C113.298 54.4967 113.194 54.5993 112.989 54.5993C112.785 54.5993 112.681 54.4967 112.759 54.3712C112.838 54.2457 112.941 54.143 112.989 54.143C113.038 54.143 113.141 54.2457 113.22 54.3712Z" fill="black"/>
</svg>
