<svg width="24" height="24" viewBox="0 0 24 24" fill="none" xmlns="http://www.w3.org/2000/svg">
<path d="M5.3335 20H11.6668V20.6667H5.3335V20Z" fill="#2F8BFF"/>
<path d="M12.3335 20H18.6668V20.6667H12.3335V20Z" fill="#2F8BFF"/>
<path d="M5.66699 17.9992H18.3337V9.33252H5.66699V17.9992ZM6.33366 9.99919H17.667V17.3325H6.33366V9.99919Z" fill="#2F8BFF"/>
<path d="M16.6667 11.6671H15.3333C15.1493 11.6671 15 11.8163 15 12.0004V15.3337C15 15.5178 15.1493 15.6671 15.3333 15.6671H16.6667C16.8507 15.6671 17 15.5178 17 15.3337V12.0004C17 11.8163 16.8507 11.6671 16.6667 11.6671ZM16.3333 15.0004H15.6667V12.3337H16.3333V15.0004Z" fill="#2F8BFF"/>
<path d="M13.3337 6.66594C13.3337 5.92962 12.7367 5.33261 12.0003 5.33261C11.264 5.33261 10.667 5.92962 10.667 6.66594C10.667 7.40227 11.264 7.99928 12.0003 7.99928C12.7367 7.99928 13.3337 7.40227 13.3337 6.66594ZM12.0003 7.33261C11.6322 7.33261 11.3337 7.03411 11.3337 6.66594C11.3337 6.29778 11.6322 5.99928 12.0003 5.99928C12.0579 6.00009 12.1152 6.00855 12.1707 6.02434L11.7646 6.43027L12.236 6.90162L12.6419 6.4957C12.6579 6.55104 12.6662 6.60833 12.667 6.66594C12.667 7.03411 12.3685 7.33261 12.0003 7.33261Z" fill="#2F8BFF"/>
<path d="M14 6.33252H14.6667V6.99919H14V6.33252Z" fill="#2F8BFF"/>
<path d="M15.3335 6.33252H16.0002V6.99919H15.3335V6.33252Z" fill="#2F8BFF"/>
<path d="M5.3335 5.99963H8.66683V6.6663H5.3335V5.99963Z" fill="#2F8BFF"/>
<path d="M16.667 6.33252H17.3337V6.99919H16.667V6.33252Z" fill="#2F8BFF"/>
<path d="M18 6.33252H18.6667V6.99919H18V6.33252Z" fill="#2F8BFF"/>
<path d="M7.66667 14.666H7V16.666H8.33333V15.9993H7.66667V14.666Z" fill="#2F8BFF"/>
<path d="M5.66667 4.66668H4.33333C4.14925 4.66668 4 4.81593 4 5.00001V22H20V5.00001C20 4.81593 19.8507 4.66668 19.6667 4.66668H12.3333V4.33334C12.3325 4.0866 12.2397 3.84897 12.0734 3.66668C12.3397 3.37468 12.408 2.95281 12.2477 2.59164C12.0874 2.23048 11.7285 1.99822 11.3333 2.00001H6.66667C6.27148 1.99822 5.9126 2.23048 5.75228 2.59164C5.59196 2.95281 5.66032 3.37468 5.9266 3.66668C5.76025 3.84897 5.66748 4.0866 5.66667 4.33334V4.66668ZM4.66667 5.33334H9.33333V8.00001H4.66667V5.33334ZM19.3333 21.3333H4.66667V19.3333H19.3333V21.3333ZM4.66667 18.6667V8.66668H19.3333V18.6667H4.66667ZM19.3333 5.33334V8.00001H10V5.33334H19.3333ZM6.33333 4.66668V4.33334C6.33333 4.14926 6.48258 4.00001 6.66667 4.00001H11.3333C11.5174 4.00001 11.6667 4.14926 11.6667 4.33334V4.66668H6.33333ZM6.66667 2.66668H11.3333C11.5174 2.66668 11.6667 2.81593 11.6667 3.00001C11.6667 3.18409 11.5174 3.33334 11.3333 3.33334H6.66667C6.48258 3.33334 6.33333 3.18409 6.33333 3.00001C6.33333 2.81593 6.48258 2.66668 6.66667 2.66668Z" fill="#2F8BFF"/>
</svg>
