<svg width="160" height="60" viewBox="0 0 160 60" fill="none" xmlns="http://www.w3.org/2000/svg">
<path fill-rule="evenodd" clip-rule="evenodd" d="M14.7581 30.4713C21.9822 30.4713 28.9805 36.3282 28.9805 43.4454C28.0763 43.6271 26.9358 43.7618 25.9695 43.7618C18.3671 43.7519 12.0196 37.7422 11.7322 30.4713H14.7581ZM25.9695 15.6897C26.9898 15.6897 28.0763 15.8236 28.9818 16.0009C28.9818 23.1251 21.9809 28.9877 14.7557 28.9877L11.7342 28.9834C12.2295 21.6804 18.3697 15.6897 25.9695 15.6897ZM30.4779 16.4023C36.1253 18.2233 40.2059 23.4926 40.2215 29.7175C40.237 35.841 36.2381 41.0976 30.4779 43.0394V16.4023ZM10 45.4462H41.9496V14H10V45.4462Z" fill="#002964"/>
<path fill-rule="evenodd" clip-rule="evenodd" d="M52.6432 32.4846V30.5027H59.2914V27.9754H52.6421V24.2965H59.715V21.7761H49.9209V32.3701C49.9209 35.0479 51.08 36.8801 53.8004 37.2562C53.8551 37.2698 53.9086 37.2795 53.9581 37.2803H54.0081C54.2865 37.3107 54.5714 37.3316 54.8692 37.3316H59.9043V34.8137H54.8917C54.0267 34.8137 52.6432 34.3939 52.6432 32.4846Z" fill="#002964"/>
<path fill-rule="evenodd" clip-rule="evenodd" d="M61.8398 29.1269V37.3359H64.5622V21.7727H61.8398V29.1269Z" fill="#002964"/>
<path fill-rule="evenodd" clip-rule="evenodd" d="M69.1311 30.4836C69.245 29.1153 70.658 28.0165 72.3669 28.0165C73.9622 28.0165 75.2613 29.1379 75.2613 30.4836H69.1311ZM72.3669 25.7288C68.9258 25.7288 66.3506 28.0613 66.3506 31.6945V31.7845C66.3506 35.3281 68.8348 37.6159 72.4355 37.6159C74.1673 37.6159 75.7854 37.1451 77.2666 35.5974L75.626 34.0273C74.7599 34.8794 73.9169 35.3281 72.5265 35.3281C70.4984 35.3281 69.1536 34.1618 69.0627 32.3674H77.9961C78.0416 31.919 78.0416 31.4257 78.0416 31.4257C78.0416 28.2632 75.7854 25.7288 72.3669 25.7288Z" fill="#002964"/>
<path fill-rule="evenodd" clip-rule="evenodd" d="M85.6923 28.1275C86.923 28.1275 87.8346 28.576 88.6093 29.361L90.2958 27.634C88.974 26.2432 87.4016 25.6826 85.6923 25.6826C82.2283 25.6826 79.4482 28.217 79.4482 31.6712C79.4482 35.1253 82.2283 37.6597 85.6923 37.6597C87.4016 37.6597 88.974 37.0989 90.2958 35.7083L88.6093 33.9811C87.8346 34.7662 86.923 35.2149 85.6923 35.2149C83.6868 35.2149 82.1599 33.7119 82.1599 31.6712C82.1599 29.6302 83.6868 28.1275 85.6923 28.1275Z" fill="#002964"/>
<path fill-rule="evenodd" clip-rule="evenodd" d="M94.7135 32.489H94.71V28.5155H97.1864V26.0814H94.7138V21.7727H91.9912V32.6471L91.9986 32.6467C92.0765 35.1746 93.2444 36.8973 95.8705 37.2606C95.9252 37.2741 95.9787 37.2838 96.0284 37.2847H96.0782C96.3566 37.315 96.6415 37.3359 96.9393 37.3359H97.2275L97.2373 34.8181H96.962C96.097 34.8181 94.7135 34.3982 94.7135 32.489Z" fill="#002964"/>
<path fill-rule="evenodd" clip-rule="evenodd" d="M102.177 27.7586V26.085H99.4766V37.3386H102.177V31.4213C102.177 29.568 103.379 28.4068 105.262 28.4068C105.693 28.4068 106.079 28.4511 106.397 28.5187V25.9283C106.283 25.9064 105.875 25.8621 105.581 25.8621C103.946 25.8621 102.721 26.5989 102.177 27.7586Z" fill="#002964"/>
<path fill-rule="evenodd" clip-rule="evenodd" d="M113.053 35.2391C111.034 35.2391 109.515 33.6978 109.515 31.7109C109.515 29.7229 111.034 28.1827 113.053 28.1827C115.05 28.1827 116.592 29.7229 116.592 31.7109C116.592 33.6978 115.05 35.2391 113.053 35.2391ZM113.053 25.749C109.582 25.749 106.813 28.3385 106.813 31.7109C106.813 35.0813 109.582 37.6725 113.053 37.6725C116.501 37.6725 119.293 35.0813 119.293 31.7109C119.293 28.3385 116.501 25.749 113.053 25.749Z" fill="#002964"/>
<path fill-rule="evenodd" clip-rule="evenodd" d="M120.967 28.8586V37.3359H123.691V21.7727H120.967V28.8586Z" fill="#002964"/>
<path fill-rule="evenodd" clip-rule="evenodd" d="M133.508 32.6258C133.508 34.4118 132.442 35.1718 131.012 35.1718C129.583 35.1718 128.517 34.4118 128.517 32.6491V26.084H125.771V32.8722C125.771 36.0877 128.154 37.6283 130.99 37.6283C133.849 37.6283 136.253 36.0658 136.253 32.8049V26.084H133.508V32.6258Z" fill="#002964"/>
<path fill-rule="evenodd" clip-rule="evenodd" d="M146.554 33.7386L144.837 31.3759L148.784 26.084H145.812L143.338 29.4555L140.843 26.084H137.894L141.841 31.3979L137.508 37.3376H140.435L143.338 33.3627L146.243 37.3376H149.169L146.554 33.7386Z" fill="#002964"/>
</svg>
