<svg width="160" height="60" viewBox="0 0 160 60" fill="none" xmlns="http://www.w3.org/2000/svg">
<rect width="160" height="60" fill="white"/>
<path fill-rule="evenodd" clip-rule="evenodd" d="M93.3774 4.82843C92.5491 5.65722 92.5487 6.83124 93.3766 7.65962C94.352 8.63459 96.0323 7.47503 96.0323 5.82736C96.0323 5.37187 94.8372 4.17969 94.3805 4.17969C94.186 4.17969 93.7346 4.47164 93.3774 4.82843ZM105.737 6.92952C102.733 8.50988 100.773 11.4071 99.5729 16.038C99.2153 17.4172 98.9213 19.3552 98.9188 20.3442C98.9168 21.3605 98.4939 23.0412 97.9472 24.2078C96.5989 27.0844 93.7206 30.6085 92.7192 30.6085C91.392 30.6085 91.6831 27.8025 93.7867 20.3277C94.8232 16.645 95.6127 13.2245 95.5417 12.7257C95.3637 11.4728 93.2593 11.2833 91.8487 12.3929C90.9369 13.1097 90.7139 13.8258 90.0718 18.0907C89.0349 24.9787 88.8003 25.7204 86.6711 28.8303C83.3997 33.6082 82.884 33.7733 83.835 29.7392C84.7604 25.8141 84.6568 22.4825 83.5406 20.2691C81.8268 16.8705 79.2529 16.6946 76.112 19.7615C74.9041 20.9413 74.4503 21.1672 74.0638 20.7807C73.3935 20.1105 71.8764 20.1559 70.4587 20.8889C69.3322 21.4716 69.2574 21.7107 68.3605 27.5993C67.8493 30.9579 67.1134 34.4489 66.7256 35.3574C65.832 37.4515 62.108 41.5475 59.715 43.0689C58.2833 43.979 57.3884 44.2358 55.6474 44.2358C53.6768 44.2358 53.2577 44.0777 52.0634 42.8834C51.0418 41.8618 50.6412 41.026 50.4273 39.4692C49.9962 36.3349 51.1 31.7197 52.9091 29.093C54.9599 26.1152 55.6573 25.7435 58.7644 25.974C60.5396 26.1057 61.5514 25.9954 62.0023 25.6213C62.5978 25.127 62.5908 25.0279 61.9222 24.5394C61.5175 24.2433 60.2105 24.0013 59.0179 24.0013C56.1434 24.0013 55.5632 23.2105 55.5632 19.2908C55.5632 14.3449 58.0297 10.9194 61.9061 10.4825C64.5465 10.1848 65.4769 10.8356 65.4608 12.9693C65.4537 13.9265 65.175 15.0708 64.8413 15.5115C63.873 16.792 64.0695 17.807 65.2861 17.807C66.9573 17.807 68.3646 16.0912 68.3646 14.055C68.3646 9.97007 62.4458 7.55266 56.9932 9.41053C53.3221 10.6614 50.1717 14.7714 50.2039 18.2679C50.2171 19.7033 51.6501 22.6328 52.6424 23.2522C53.9163 24.048 53.6929 24.6141 51.7616 25.485C49.3252 26.5835 46.0145 29.973 44.6572 32.7579C42.2104 37.7777 43.5678 44.2185 47.5668 46.5616C52.5895 49.5055 58.7916 46.7544 65.379 38.661L66.7236 37.0092L66.4085 42.1711C65.7135 53.5603 66.5187 57.6968 68.9159 55.0481C69.5044 54.3973 69.5618 53.5314 69.3475 48.5442C69.1005 42.8042 69.8071 36.2593 70.8927 34.2313C71.2578 33.5491 71.4097 33.6631 72.2352 35.2356C72.7956 36.3035 73.7578 37.3317 74.6526 37.8194L76.1392 38.6292L78.2767 37.6278C80.6945 36.4955 84.9958 32.4424 86.7847 29.6108C87.4421 28.5706 88.095 27.7191 88.2358 27.7187C88.3766 27.7183 88.588 28.5731 88.7062 29.6187C89.0902 33.0284 90.6689 33.4818 93.6265 31.0314C94.9636 29.9234 98.0698 25.7683 98.6434 24.3201C98.7788 23.9773 99.2244 24.2503 99.926 25.1072C102.682 28.4723 107.843 27.7451 112.568 23.3257C114.934 21.1119 116.971 17.4833 116.496 16.3266C116.234 15.6907 116.012 15.9991 115.362 17.9C113.866 22.2727 109.504 26.0351 105.904 26.057C103.095 26.0743 102.34 23.7647 103.236 17.8954C104.179 11.7268 106.225 7.48329 108.257 7.48329C109.647 7.48329 109.889 8.41614 109.06 10.5862C108.675 11.5942 108.477 12.6092 108.621 12.8417C109.355 14.029 111.311 12.4498 111.311 10.6704C111.311 9.06571 110.563 7.70669 109.251 6.932C107.831 6.09289 107.326 6.09289 105.737 6.92952ZM79.767 21.3295C80.3266 22.1835 80.4112 23.0693 80.2308 26.1817C79.8438 32.8677 77.7473 37.0022 74.8839 36.7268C72.1217 36.4612 71.3185 31.7598 73.0558 26.0235C74.4825 21.3109 78.0979 18.7824 79.767 21.3295ZM61.5332 24.7987C61.6641 25.0101 61.5716 25.3062 61.3275 25.4569C60.6995 25.8455 58.7825 25.298 59.0807 24.8152C59.3966 24.3036 61.2198 24.2916 61.5332 24.7987ZM103.885 31.2713C101.217 31.9882 96.8409 34.2871 93.287 36.8383C91.8904 37.8409 88.2668 40.4458 85.2345 42.627C77.3116 48.3257 75.9084 48.889 74.1117 47.0922C73.6384 46.619 73.1404 46.3423 73.005 46.4778C72.5718 46.9109 74.0766 49.5398 75.1668 50.2542C77.1584 51.5591 79.5577 50.4524 88.197 44.2433C96.3556 38.3794 101.428 35.8592 106.196 35.2988C109.567 34.9024 111.29 35.4028 113.024 37.2814C114.411 38.7837 114.564 38.853 114.806 38.0907C115.211 36.8127 114.322 34.1272 113.037 32.7521C111.089 30.6671 107.996 30.1666 103.885 31.2713Z" fill="#028E9C"/>
</svg>
