<svg width="160" height="60" viewBox="0 0 160 60" fill="none" xmlns="http://www.w3.org/2000/svg">
<path fill-rule="evenodd" clip-rule="evenodd" d="M19 32.9861V17.5123H29.9251V20.4271H23.5833V23.5011H29.0874V26.5751H23.5902V32.9861H19ZM29.2812 32.9861L35.2007 17.2839H39.424L45.1843 33.2077H40.961L39.9363 30.286H34.5776L33.2899 33.0969L29.3089 33.0553L29.2812 32.9861ZM35.3877 27.1497L37.167 22.3656L38.7663 27.212L35.3877 27.1358V27.1497ZM53.0354 16.7646C54.4921 16.7794 55.9177 17.1882 57.161 17.9476C58.4043 18.707 59.4189 19.7886 60.0972 21.0779L56.6355 22.7464C56.3732 22.0125 55.9016 21.3715 55.279 20.9027C54.6564 20.4339 53.9101 20.1579 53.1323 20.1086C50.9168 20.1086 49.1167 22.4072 49.1167 25.225C49.1167 28.0428 51.0969 29.649 53.3124 29.649C54.9256 29.649 56.144 29.109 56.774 27.3435H53.2431V24.1588L60.6373 24.2142H61.1219C61.1465 24.5528 61.1534 24.8925 61.1427 25.2319C61.0775 26.8213 60.5466 28.3564 59.6161 29.6465C58.6855 30.9366 57.3963 31.9247 55.9086 32.488C54.421 33.0513 52.8007 33.1649 51.249 32.8147C49.6973 32.4646 48.2828 31.666 47.1813 30.5184C46.0798 29.3708 45.3399 27.9248 45.0536 26.3601C44.7673 24.7954 44.9472 23.181 45.5709 21.7177C46.1947 20.2544 47.2348 19.0068 48.5619 18.1298C49.8891 17.2529 51.4447 16.7854 53.0354 16.7854V16.7646ZM71.0777 16.6538C72.7374 16.6675 74.3558 17.1722 75.729 18.1043C77.1022 19.0365 78.1687 20.3543 78.794 21.8917C79.4194 23.429 79.5756 25.1171 79.2429 26.7431C78.9103 28.3691 78.1037 29.8603 76.9248 31.0285C75.746 32.1968 74.2476 32.9899 72.6187 33.3079C70.9897 33.6258 69.3031 33.4544 67.7715 32.8152C66.2398 32.176 64.9317 31.0976 64.012 29.7161C63.0923 28.3345 62.6022 26.7116 62.6035 25.0519C62.6181 22.8159 63.5181 20.6768 65.1063 19.1029C66.6945 17.5289 68.8417 16.6483 71.0777 16.6538ZM71.0777 20.524C71.9972 20.4769 72.9096 20.7066 73.6973 21.1834C74.4849 21.6601 75.1115 22.362 75.4961 23.1985C75.8807 24.035 76.0058 24.9675 75.8551 25.8758C75.7043 26.784 75.2848 27.6262 74.6506 28.2936C74.0163 28.961 73.1966 29.4229 72.2972 29.6197C71.3978 29.8165 70.4601 29.7391 69.6051 29.3976C68.7502 29.056 68.0172 28.466 67.501 27.7037C66.9847 26.9414 66.7089 26.0418 66.7091 25.1211C66.683 23.9334 67.1276 22.7835 67.946 21.9223C68.7644 21.0611 69.8902 20.5584 71.0777 20.524ZM81.539 17.2077V32.9792H85.4091V26.6166H86.0253L89.7432 33.0415H94.3541L90.3455 26.3743C95.2403 25.405 94.5965 17.6577 89.757 17.3739L81.539 17.2354V17.2077ZM85.3053 20.074V24.228H87.6523C90.3594 24.228 90.4978 20.074 87.6523 20.1086L85.3053 20.0394V20.074Z" fill="#1D1D1B"/>
<path fill-rule="evenodd" clip-rule="evenodd" d="M121.433 10C118.546 10.0105 115.699 10.6758 113.106 11.9458C110.513 13.2158 108.242 15.0573 106.464 17.3319H131.665L127.047 22.4206C125.87 23.4918 124.326 24.0715 122.734 24.0406H102.996C102.692 25.0759 102.472 26.134 102.338 27.2046H122.194L116.953 32.6049C115.869 33.4764 114.488 33.8912 113.104 33.7611H102.608C103.48 38.1248 105.827 42.0555 109.255 44.8933C112.683 47.7311 116.983 49.3032 121.433 49.3456C132.032 49.3456 140.68 40.5114 140.68 29.6763C140.68 18.8412 132.032 10 121.433 10Z" fill="#E30613"/>
</svg>
