<svg width="160" height="60" viewBox="0 0 160 60" fill="none" xmlns="http://www.w3.org/2000/svg">
<path d="M6 34.0655V25.1499H12.2581V27.1148H8.30691V28.9323H11.9391V30.8971H8.30691V34.0655H6Z" fill="black"/>
<path d="M18.9846 34.0655H16.6777V25.1499H18.9846V34.0655Z" fill="black"/>
<path d="M23.4212 31.2647C24.3047 31.8787 25.3599 32.2226 26.4398 32.2717C27.1269 32.2717 27.765 32.1243 27.765 31.5103C27.765 31.0928 27.4705 30.9209 27.0042 30.7981L25.6544 30.3805C24.1574 29.9384 23.3721 29.2262 23.3721 27.8016C23.3721 26.1069 24.8691 25.0017 26.7834 25.0017C27.7405 24.9771 28.6976 25.2227 29.532 25.6648V27.8016C28.7467 27.2367 27.8141 26.942 26.8324 26.9174C26.1453 26.9174 25.6544 27.1139 25.6544 27.6051C25.6544 27.9736 25.8999 28.1455 26.3662 28.2683L27.7159 28.6858C29.3357 29.2262 30.0719 29.963 30.0719 31.2893C30.0719 33.205 28.354 34.1875 26.4398 34.1875C25.3845 34.1875 24.3537 33.9419 23.4212 33.4261V31.2647Z" fill="black"/>
<path d="M42.4929 25.1785V34.0941H40.186V30.5327H36.7747V34.0941H34.4678V25.203H36.7747V28.5924H40.186V25.203H42.4929V25.1785Z" fill="black"/>
<path d="M53.7605 25.1785V27.1433H49.7111V28.5433H53.4169V30.5082H49.7111V32.1046H53.7605V34.0695H47.4287V25.1785H53.7605Z" fill="black"/>
<path d="M58.541 25.1785H62.3204C64.3083 25.1785 65.8053 26.2591 65.8053 28.2486C65.8544 29.5257 65.0691 30.6555 63.8666 31.0485L66.2226 34.0695H63.5475L61.4369 31.3187H60.8479V34.0695H58.541V25.1785ZM60.8479 29.3538H62.1732C63.0076 29.3538 63.5475 28.9117 63.5475 28.2486C63.5475 27.5609 63.0076 27.1433 62.1732 27.1433H60.8479V29.3538Z" fill="black"/>
<path d="M80.0687 33.3287C79.3815 33.9181 78.498 34.2374 77.6145 34.2129C75.7248 34.2129 74.1787 32.9848 74.1787 30.9463C74.2033 29.7674 74.7923 28.6621 75.7739 27.999L74.915 26.8937V25.1499H80.8786V27.1148H77.7127L80.1178 30.1849L80.6822 29.3498H83.0873L81.3694 31.8059L83.1364 34.041H80.7068L80.0687 33.3287ZM78.8416 31.8305L76.9765 29.5217C76.5102 29.841 76.2157 30.3814 76.2157 30.9463C76.2157 31.6831 76.8047 32.2971 77.5409 32.3217C77.5655 32.3217 77.59 32.3217 77.59 32.3217C78.0563 32.3217 78.498 32.1498 78.8416 31.8305Z" fill="black"/>
<path d="M93.8363 34.0655H91.5049V25.1499H95.2843C97.2722 25.1499 98.7692 26.2306 98.7692 28.22C98.7692 30.2094 97.2722 31.2901 95.2843 31.2901H93.8118L93.8363 34.0655ZM93.8363 29.3498H95.1616C95.996 29.3498 96.5359 28.9077 96.5359 28.2446C96.5359 27.5814 95.996 27.1393 95.1616 27.1393H93.8363V29.3498Z" fill="black"/>
<path d="M107.555 32.4239H103.997L103.359 34.0695H101.076L104.708 25.1785H106.917L110.525 34.0941H108.193L107.555 32.4239ZM104.757 30.4591H106.819L105.764 27.8556L104.757 30.4591Z" fill="black"/>
<path d="M115.406 34.0655V30.6024L112.044 25.1499H114.645L116.633 28.5884L118.621 25.1499H121.075L117.713 30.6024V34.0409L115.406 34.0655Z" fill="black"/>
<path d="M126.698 28.9608L129.52 25.1785H132.22L128.931 29.4521L132.342 34.0941H129.594L126.673 30.1152V34.0941H124.366V25.203H126.673L126.698 28.9608Z" fill="black"/>
<path d="M142.156 25.1785V27.1433H138.107V28.5433H141.812V30.5082H138.107V32.1046H142.156V34.0695H135.824V25.1785H142.156Z" fill="black"/>
<path d="M146.918 25.1785H149.225V32.1292H153.25V34.0941H146.918V25.1785Z" fill="black"/>
</svg>
