<svg width="160" height="60" viewBox="0 0 160 60" fill="none" xmlns="http://www.w3.org/2000/svg">
<rect width="160" height="60" fill="white"/>
<path fill-rule="evenodd" clip-rule="evenodd" d="M73.367 11.0203C73.1948 11.0722 73.0779 11.236 73.0779 11.4256C73.0779 11.5839 73.4892 13.8487 74.0073 16.5434C74.306 18.0971 74.3022 18.0862 74.5829 18.2306C74.7315 18.307 74.8036 18.3163 75.4466 18.3415C76.4614 18.3813 79.1783 18.3797 79.3196 18.3392C79.4986 18.2878 79.5922 18.1768 79.6762 17.9161C79.7181 17.7858 79.7615 17.6792 79.7726 17.6792C79.7837 17.6792 79.875 17.7726 79.9755 17.8868C80.1968 18.1382 80.3188 18.2116 80.901 18.4434C81.8114 18.8059 83.8902 19.5819 84.0121 19.6048C84.1729 19.635 84.4186 19.5312 84.5156 19.3922C84.5997 19.2716 84.9363 18.6899 86.2583 16.3804C87.1768 14.7759 87.267 14.6041 87.267 14.4594C87.267 14.1471 87.5192 14.2644 83.4773 12.697C81.2819 11.8456 81.2323 11.8316 81.0431 12.007C80.9916 12.0547 80.9282 12.1448 80.9021 12.2072C80.876 12.2697 80.6968 13.0932 80.5039 14.0373C80.1574 15.7335 79.8863 16.974 79.8806 16.8901C79.8789 16.8664 80.0738 15.7502 80.3136 14.4096C80.778 11.8133 80.8291 11.4286 80.7296 11.2767C80.6069 11.0894 80.5959 11.0884 78.3587 11.0538C74.428 10.9929 73.479 10.9866 73.367 11.0203ZM72.3147 11.9521C72.1271 12.0139 70.771 12.5133 68.1715 13.4778C67.4478 13.7463 66.7963 14.0053 66.7237 14.0534C66.5708 14.1546 66.5308 14.268 66.5851 14.4473C66.6456 14.6475 69.1604 19.0864 69.3222 19.2787C69.3696 19.3351 69.4778 19.429 69.5626 19.4873C69.7119 19.59 69.7221 19.592 69.8968 19.5524C69.9959 19.53 70.9044 19.2375 71.9157 18.9025C73.6279 18.3353 73.7631 18.2846 73.8816 18.1667C73.9648 18.0839 74.0177 17.9926 74.0345 17.903C74.0544 17.7971 73.9514 17.1627 73.5813 15.112C73.318 13.6523 73.0732 12.3613 73.0373 12.243C72.9293 11.8866 72.7423 11.8113 72.3147 11.9521ZM87.6969 14.6139C87.6387 14.6684 87.4111 15.0174 87.1911 15.3895C85.5733 18.1259 84.823 19.4079 84.782 19.5059C84.7137 19.6694 84.7234 19.856 84.8072 19.9916C84.8802 20.1098 87.3765 22.2563 87.8969 22.6485L88.1752 22.8582L88.3889 22.7579C88.5363 22.6887 89.1735 22.2006 90.4414 21.1856C92.6872 19.3876 92.6766 19.3964 92.7802 19.2523C92.8806 19.1125 92.8915 18.8949 92.8063 18.7307C92.7745 18.6697 92.2423 18.1741 91.6189 17.6251C90.9974 17.0779 90.0333 16.2253 89.4764 15.7306C88.22 14.6144 88.1421 14.5531 87.951 14.5316C87.8232 14.5172 87.7879 14.5286 87.6969 14.6139ZM65.735 14.6054C65.6748 14.6326 65.3391 14.9014 64.9891 15.2027C63.538 16.4521 61.5932 18.163 61.3281 18.4235C60.9136 18.8309 60.907 18.9426 61.2759 19.3081C61.7136 19.7416 65.0764 22.591 65.2663 22.6892C65.3248 22.7195 65.451 22.7443 65.5466 22.7443C65.7498 22.7443 65.6263 22.8362 67.1282 21.5676C69.0528 19.942 68.9376 20.0462 69.0346 19.8414L69.1234 19.6538L69.0203 19.4115C68.9226 19.182 66.5723 15.0928 66.3891 14.8337C66.3417 14.7665 66.2642 14.6824 66.217 14.6468C66.1054 14.5627 65.8735 14.5427 65.735 14.6054ZM79.8666 17.0266C79.8555 17.0542 79.8473 17.046 79.8456 17.0056C79.8441 16.969 79.8523 16.9485 79.8638 16.9601C79.8753 16.9716 79.8766 17.0015 79.8666 17.0266ZM79.8319 17.2C79.8208 17.2277 79.8126 17.2194 79.8109 17.179C79.8094 17.1425 79.8176 17.122 79.8291 17.1335C79.8407 17.145 79.8419 17.175 79.8319 17.2ZM76.9114 18.6042C75.9304 18.6391 74.7951 18.7797 73.8412 18.9846C70.7358 19.6514 68.2472 21.1152 66.2239 23.4653C64.606 25.3444 63.6795 27.0472 63.191 29.0392C62.9992 29.8215 62.6702 31.7108 62.6702 32.0303C62.6702 32.2136 62.7617 32.3744 62.9071 32.4468C63.0296 32.5077 63.4975 32.5105 75.2028 32.5191C83.1538 32.525 87.3711 32.5163 87.3711 32.494C87.3711 32.4722 88.0291 32.4565 89.1917 32.4503L91.0123 32.4408L91.1084 32.3442C91.2031 32.2492 91.2045 32.2413 91.2007 31.8412C91.1943 31.1539 91.0704 30.2864 90.8575 29.4364C90.0972 26.4014 88.2792 23.6818 85.5785 21.5396C83.5361 19.9195 80.9181 18.8461 78.5419 18.6545C78.0156 18.6121 77.3058 18.5902 76.9114 18.6042ZM78.5068 19.3612C80.9115 19.6488 83.2934 20.696 85.463 22.4198C86.058 22.8925 87.2226 24.0524 87.6698 24.6177C89.1435 26.4803 90.0208 28.5582 90.3871 31.0533C90.4263 31.3203 90.4584 31.5739 90.4585 31.6168L90.4587 31.6949H86.9201C84.9739 31.6949 83.3815 31.6826 83.3815 31.6677C83.3815 31.6527 83.4158 31.5473 83.4577 31.4335C83.5763 31.1114 83.5692 30.5899 83.4411 30.2172C83.2677 29.7123 82.747 28.8889 82.2149 28.2779C82.0328 28.0689 81.8704 27.8417 81.8059 27.7055C81.7057 27.494 81.6991 27.4557 81.7019 27.0982C81.7045 26.7589 81.7174 26.6819 81.8178 26.4043C81.9741 25.972 81.9998 25.5563 81.8883 25.2615C81.7915 25.0054 81.5625 24.7677 81.2706 24.6204C81.0348 24.5013 80.9152 24.487 80.8341 24.5681C80.7579 24.6443 80.7659 24.7202 80.8657 24.8671C81.1082 25.2239 81.0679 25.502 80.6879 26.0964C80.0026 27.1682 79.9646 27.4587 80.348 28.6955C80.4132 28.9061 80.4767 29.1515 80.4889 29.2408C80.5098 29.3932 80.5037 29.4104 80.3887 29.5255C80.2846 29.6296 80.2425 29.648 80.1095 29.648C79.9665 29.648 79.9405 29.634 79.8099 29.4856C79.5073 29.1418 79.364 28.6666 79.4277 28.2177C79.464 27.9617 79.5193 27.8286 79.6694 27.6359C79.7717 27.5045 79.8776 27.3128 79.8776 27.2588C79.8776 27.2404 79.8073 27.1985 79.7215 27.1657L79.5653 27.1061L79.4208 27.2062C79.1852 27.3694 78.7713 27.773 78.6818 27.9266C78.6361 28.0053 78.5737 28.1777 78.5433 28.31C78.4919 28.5332 78.2542 29.0392 78.1133 29.2254C78.0588 29.2974 78.0426 29.3013 77.9584 29.263C77.8988 29.2358 77.8701 29.2 77.88 29.1652C77.8885 29.135 77.9433 28.9102 78.0018 28.6656C78.0603 28.4211 78.2241 27.8669 78.3657 27.434C78.7391 26.294 78.7893 25.9895 78.6804 25.5277C78.5708 25.0627 78.3316 24.719 77.8293 24.3042C77.4528 23.9934 77.3014 23.7975 77.2191 23.5146C77.1619 23.3176 77.1173 23.2793 76.9842 23.3127C76.8662 23.3424 76.8246 23.4935 76.8246 23.8936C76.8246 24.1813 76.847 24.32 76.9675 24.7817C77.233 25.7983 77.2655 26.0786 77.1455 26.3164C76.9645 26.6752 76.3247 26.6479 75.9418 26.265C75.6729 25.9962 75.6232 25.6356 75.7527 24.8945C75.8653 24.2499 75.8679 23.5917 75.7591 23.2458C75.6177 22.7965 75.3053 22.4102 74.8183 22.0828C74.6783 21.9886 74.5535 21.9119 74.5407 21.9122C74.3981 21.9155 74.4408 22.2103 74.6201 22.46C74.7838 22.6877 74.8472 22.8804 74.8472 23.1496C74.8472 23.4694 74.8007 23.6243 74.5001 24.3054C74.0406 25.3464 74.0355 25.3656 74.0213 26.0985L74.0091 26.7294L73.7777 26.4845C73.3184 25.9986 73.2399 25.8196 73.1988 25.1642L73.1753 24.7915L73.0832 24.8135C72.8452 24.8705 72.665 25.0431 72.5723 25.3028C72.5082 25.4825 72.5115 25.8655 72.579 26.0648C72.6099 26.1562 72.7201 26.3753 72.8239 26.5519C72.9277 26.7284 73.0969 27.0522 73.1999 27.2713C73.4422 27.787 73.4396 27.7889 72.7817 27.5825C72.2925 27.429 72.1905 27.4108 72.0421 27.4506C71.9691 27.4701 71.9627 27.4865 71.9817 27.6056C71.9935 27.6788 72.0706 27.8444 72.1531 27.9735C72.5754 28.6343 72.5286 28.8435 71.7476 29.7868C71.1599 30.4968 71.0207 30.7495 71.0229 31.1025C71.024 31.2871 71.0458 31.3912 71.1144 31.5413C71.164 31.6494 71.2045 31.7439 71.2045 31.7511C71.2045 31.7583 69.455 31.7643 67.3169 31.7643H63.4292L63.4513 31.5995C63.7191 29.601 64.1569 28.0945 64.9029 26.605C66.2284 23.9584 68.2759 22.0517 71.2912 20.656C73.028 19.8521 74.4947 19.4648 76.443 19.2955C76.7642 19.2676 78.0724 19.3093 78.5068 19.3612ZM60.4287 19.3758C60.3693 19.412 60.2892 19.4861 60.2506 19.5405C60.117 19.7288 57.2825 24.6359 57.1981 24.8251L57.1133 25.0152L57.2985 25.1808C57.4004 25.2719 57.5774 25.3918 57.6919 25.4471C57.8064 25.5025 58.6416 25.8321 59.5479 26.1795C60.4542 26.5269 61.4899 26.9265 61.8495 27.0674C62.271 27.2326 62.5519 27.3237 62.6404 27.3237C62.8087 27.3237 62.9549 27.2518 63.0451 27.1247C63.0825 27.0719 63.5282 26.3227 64.0356 25.4597C64.543 24.5967 64.9951 23.8318 65.0404 23.7598C65.2228 23.4698 65.2424 23.2237 65.099 23.0224C65.0588 22.9658 64.8822 22.7984 64.7066 22.6504C64.5311 22.5024 63.6069 21.7169 62.6529 20.9049C61.6988 20.093 60.8796 19.4019 60.8325 19.3692C60.7202 19.2914 60.5629 19.2939 60.4287 19.3758ZM93.1238 19.4229C93.0155 19.4847 92.3526 20.0344 91.6507 20.6446C90.9488 21.2548 90.0344 22.0477 89.6187 22.4068C89.2031 22.7659 88.8378 23.1083 88.8071 23.1678C88.7692 23.2411 88.7559 23.333 88.766 23.4525C88.7787 23.6039 88.8449 23.7369 89.2335 24.3922C89.4825 24.8119 89.925 25.5691 90.2168 26.0747C90.5087 26.5804 90.778 27.0355 90.8153 27.0863C90.925 27.235 91.0818 27.3014 91.2772 27.2816C91.4743 27.2617 96.2641 25.4271 96.4659 25.2943C96.626 25.1888 96.6875 25.0241 96.6366 24.8367C96.598 24.6945 96.4659 24.4566 94.8202 21.5647C93.8705 19.8958 93.7215 19.6526 93.5499 19.4919C93.443 19.3917 93.3477 19.3099 93.3382 19.3102C93.3286 19.3104 93.2322 19.3611 93.1238 19.4229ZM75.0032 24.7091C74.8784 25.3963 74.8709 25.4834 74.9115 25.7754C74.9864 26.3129 75.3191 26.8072 75.7844 27.0718C76.2266 27.3233 76.868 27.3949 77.1889 27.2285C77.5806 27.0254 77.699 26.7102 77.7563 25.7179C77.7726 25.4364 77.7937 25.1982 77.8032 25.1887C77.8128 25.1791 77.8657 25.2692 77.9209 25.3888C78.0073 25.5762 78.021 25.6474 78.0196 25.9013C78.0181 26.1803 78 26.2494 77.6847 27.1849C77.2817 28.3802 77.1571 28.8507 77.1565 29.1797C77.1558 29.5715 77.3382 29.8936 77.6399 30.0333C77.8306 30.1216 77.9934 30.1149 78.2033 30.0103C78.4262 29.8992 78.5841 29.726 78.7684 29.3901C78.8476 29.2458 78.9173 29.1277 78.9231 29.1277C78.9289 29.1277 78.9905 29.2741 79.0598 29.4531C79.3287 30.1471 79.6871 30.4447 80.2035 30.4028C80.4806 30.3803 80.7209 30.2642 80.9382 30.048C81.1501 29.8373 81.2306 29.6299 81.2306 29.2949C81.2306 29.1038 81.1962 28.953 81.0518 28.5118C80.885 28.0017 80.8729 27.9413 80.8697 27.6012C80.8678 27.4008 80.8801 27.1433 80.8969 27.0288L80.9275 26.8206L81.0089 27.148C81.1227 27.6062 81.2562 27.8644 81.7921 28.6627C82.2985 29.417 82.571 29.9276 82.6933 30.3508C82.7645 30.5973 82.7677 30.6432 82.7309 30.8956C82.7088 31.0473 82.6549 31.2615 82.6111 31.3717C82.5446 31.5393 82.5059 31.5865 82.3754 31.6595L82.2193 31.7469L77.334 31.7563C74.0989 31.7625 72.4044 31.7537 72.3175 31.7303C71.9943 31.6433 71.812 31.4169 71.8141 31.1054C71.8157 30.8732 71.8267 30.8508 72.4658 29.7802L72.9565 28.9584L73.1299 28.962C73.3684 28.9669 73.4679 28.9051 73.7874 28.5539C73.9392 28.3871 74.0695 28.2689 74.0769 28.2912C74.0937 28.3416 74.0016 28.7703 73.8901 29.1609C73.7827 29.5375 73.7821 29.7852 73.8882 30.013C73.9821 30.2147 74.2608 30.4807 74.511 30.6075C75.3541 31.0348 76.3043 30.3176 76.3043 29.2538C76.3043 28.6914 76.133 28.3424 75.5327 27.6817C74.8988 26.9839 74.7171 26.7064 74.6036 26.2626C74.4592 25.6979 74.56 25.1631 74.9249 24.5579C74.985 24.4583 75.0397 24.3823 75.0466 24.3892C75.0534 24.396 75.0339 24.54 75.0032 24.7091ZM57.0416 25.7129C56.9892 25.7413 56.9157 25.8246 56.8782 25.8981C56.8314 25.9898 56.6575 26.8985 56.3236 28.7959C56.0561 30.3162 55.8185 31.6897 55.7956 31.8481C55.7472 32.183 55.7816 32.3176 55.9336 32.3883C56.0428 32.439 61.0503 32.678 61.5275 32.6552C62.0175 32.6318 62.1739 32.5108 62.2528 32.0938C62.3246 31.7149 62.809 28.2471 62.809 28.1126C62.809 27.9402 62.7387 27.781 62.6084 27.6586C62.5281 27.5831 61.9086 27.3363 59.9762 26.6098C57.3219 25.612 57.2616 25.5935 57.0416 25.7129ZM96.4952 25.7263C96.4475 25.7413 95.9011 25.9447 95.2809 26.1782C92.9938 27.0396 91.6172 27.574 91.478 27.6547C91.3238 27.7441 91.2215 27.9124 91.2227 28.0748C91.223 28.1291 91.3766 29.0818 91.5639 30.1918C91.7917 31.5426 91.9236 32.2394 91.9626 32.2989C92.101 32.5102 91.957 32.499 94.7167 32.514C97.4122 32.5287 98.0191 32.5103 98.1184 32.4107C98.1678 32.3612 98.1771 32.286 98.1741 31.9624C98.1709 31.6181 98.1122 31.259 97.6622 28.8345C97.3256 27.0211 97.13 26.0463 97.0832 25.9496C96.9779 25.7322 96.7508 25.646 96.4952 25.7263ZM75.0365 28.191C75.47 28.7108 75.5586 28.8878 75.5577 29.2317C75.5569 29.5241 75.5095 29.6426 75.3154 29.8366C75.1033 30.0488 74.7762 30.035 74.5454 29.8042C74.3988 29.6576 74.3982 29.5908 74.535 28.5955C74.5922 28.1789 74.639 27.8224 74.639 27.8034C74.639 27.731 74.7141 27.8043 75.0365 28.191ZM60.043 33.657C58.0704 33.8722 56.6519 34.5089 55.3728 35.7531C54.6209 36.4844 54.042 37.2883 53.561 38.2691C52.9633 39.4876 52.6788 40.7175 52.6788 42.0828C52.6788 43.8843 53.237 45.3964 54.3701 46.6646C55.5904 48.0304 57.0964 48.7903 58.9382 48.9695C59.8529 49.0585 61.2557 48.9469 62.1857 48.7112C63.5877 48.3558 64.7468 47.6787 65.7596 46.6235C67.0532 45.2757 67.821 43.7288 68.1068 41.8944C68.1953 41.3262 68.1939 39.6912 68.1045 39.1242C67.8885 37.7557 67.3505 36.664 66.4343 35.7359C65.2668 34.5531 63.7038 33.8054 62.0507 33.6391C61.571 33.5909 60.5673 33.5998 60.043 33.657ZM109.079 33.6398C106.813 33.8023 105.011 34.762 103.55 36.5837C102.534 37.8518 101.971 39.0991 101.711 40.6629C101.631 41.1407 101.621 42.6008 101.693 43.0913C101.904 44.5123 102.374 45.5986 103.2 46.572C104.114 47.6484 105.596 48.5417 106.942 48.8268C107.576 48.9611 107.874 48.9882 108.689 48.9856C110.783 48.9789 112.369 48.4997 113.794 47.4435C115.128 46.4539 116.311 44.7232 116.787 43.0621C117.021 42.2449 117.101 41.7182 117.126 40.819C117.169 39.3129 116.98 38.3034 116.461 37.263C116.159 36.6587 115.853 36.2401 115.333 35.717C113.705 34.0811 111.791 33.4453 109.079 33.6398ZM42.6961 33.919C42.6342 33.9588 42.5834 34.0034 42.5834 34.018C42.5834 34.1086 42.7502 34.2288 43.0142 34.3284C43.3218 34.4445 43.4603 34.5597 43.5114 34.7418C43.5257 34.7928 43.5374 37.7851 43.5374 41.3914C43.5374 47.5945 43.5341 47.9543 43.4761 48.0604C43.403 48.1943 43.2841 48.2609 42.9995 48.3273C42.8829 48.3544 42.7316 48.4194 42.6632 48.4715L42.5388 48.5664L42.6565 48.664L42.7742 48.7616L44.6037 48.7626L46.4331 48.7635L46.5453 48.6634C46.6437 48.5753 46.6515 48.5561 46.6094 48.5053C46.5396 48.4212 46.4475 48.3788 46.2188 48.3255C45.7893 48.2253 45.6607 48.1028 45.6012 47.7372C45.5646 47.5125 45.5492 41.7462 45.5848 41.6075L45.6095 41.5114L47.9594 41.5208L50.3094 41.5302L50.4967 41.6882C50.7978 41.9422 50.9022 42.0055 50.9793 41.9811C51.1251 41.9348 51.1524 41.8007 51.1524 41.1312C51.1524 40.3928 51.1267 40.2986 50.926 40.2986C50.7955 40.2986 50.7215 40.3572 50.6241 40.5374C50.4975 40.7718 50.5646 40.7658 47.9347 40.777L45.5669 40.787V37.6807V34.5743H48.1095C50.8895 34.5743 50.9154 34.576 51.2035 34.7757C51.3789 34.8973 51.5243 35.1042 51.6013 35.3418C51.6454 35.4778 51.6933 35.5499 51.7783 35.6077C51.9196 35.7038 51.9729 35.6967 52.0681 35.5692C52.137 35.4768 52.1411 35.4296 52.1411 34.7291C52.1411 34.063 52.1348 33.9807 52.0792 33.9251C52.0204 33.8663 51.7805 33.8627 47.413 33.8549L42.8089 33.8465L42.6961 33.919ZM69.4179 33.8928C69.1285 33.9797 69.2885 34.1959 69.6906 34.2613C70.0444 34.3189 70.193 34.4453 70.2731 34.7569C70.3425 35.0268 70.3424 47.6651 70.2731 47.8954C70.2081 48.1108 70.038 48.2622 69.8013 48.3151C69.6295 48.3536 69.3658 48.518 69.3658 48.5866C69.3658 48.6011 69.44 48.6475 69.5306 48.6899C69.6951 48.7667 69.6986 48.7668 71.4854 48.7565C73.3721 48.7456 73.3901 48.744 73.3901 48.5905C73.3901 48.5224 73.0775 48.37 72.859 48.3317C72.697 48.3033 72.4708 48.1079 72.4225 47.9546C72.3363 47.6803 72.3147 46.9719 72.3147 44.4209V41.7557L73.26 41.7482C74.4472 41.7388 74.4475 41.7388 74.5806 41.816C74.6577 41.8607 74.9307 42.2309 75.4839 43.0408C76.4623 44.4731 77.8427 46.4677 78.3021 47.1128C78.8849 47.9311 79.3202 48.3405 79.9296 48.6436C80.3215 48.8385 80.6635 48.9252 81.2495 48.9781C82.4162 49.0835 83.5991 48.7895 84.4491 48.183C84.6803 48.018 84.7345 47.9343 84.7345 47.7419C84.7345 47.6518 84.7175 47.6222 84.6564 47.6058C84.4874 47.5606 84.3396 47.5897 84.0612 47.7232C83.2452 48.1145 82.4837 48.1139 81.6609 47.7211C81.3414 47.5687 80.9155 47.2608 80.671 47.0057C80.1291 46.4401 79.0453 44.9977 78.1097 43.5965C77.1573 42.1703 76.505 41.1208 76.5537 41.093C76.7733 40.9676 77.3936 40.4613 77.6746 40.178C78.5691 39.2762 78.9802 38.3513 78.9855 37.2283C78.9905 36.1547 78.7348 35.4678 78.0944 34.8345C77.6235 34.3689 77.0918 34.0969 76.4011 33.9686C75.9584 33.8863 74.4532 33.8464 71.881 33.8489C70.1776 33.8506 69.5195 33.8623 69.4179 33.8928ZM84.9665 33.9011C84.8166 33.9479 84.8007 33.9626 84.8104 34.0456C84.8224 34.1482 84.8096 34.1439 85.4526 34.2611C86.0587 34.3716 86.3682 34.5955 86.5364 35.0451C86.6204 35.2697 86.7309 35.8012 86.7775 36.2049C86.8244 36.6117 86.8568 43.3317 86.8239 45.832C86.7973 47.8594 86.7962 47.8802 86.7193 48.0258C86.6311 48.1928 86.4828 48.2827 86.1952 48.3437C86.0922 48.3655 85.9462 48.4288 85.8707 48.4843L85.7334 48.5853L85.9093 48.6744L86.0852 48.7635L87.2572 48.7627C88.3279 48.762 88.4416 48.7564 88.5724 48.697C88.6511 48.6612 88.7251 48.6164 88.7369 48.5974C88.7486 48.5785 88.6982 48.5087 88.6248 48.4424C88.5299 48.3566 88.4443 48.3148 88.3275 48.2973C88.2098 48.2797 88.1252 48.238 88.0273 48.1496C87.7708 47.9179 87.7862 48.3109 87.796 42.228L87.8047 36.7865L89.0537 38.1346C90.3567 39.5411 94.3312 43.7836 95.9721 45.5194C98.5129 48.2071 99.189 48.9066 99.2648 48.9257C99.3213 48.9398 99.3691 48.9232 99.4211 48.8712L99.496 48.7963L99.5134 41.7981C99.5262 36.6257 99.5411 34.7767 99.5707 34.7112C99.673 34.484 99.9594 34.265 100.157 34.2629C100.196 34.2625 100.313 34.2085 100.417 34.143L100.606 34.0239L100.415 33.9352L100.225 33.8465L99.0003 33.8462C97.84 33.8458 97.7688 33.8495 97.6386 33.9159C97.5631 33.9545 97.5018 33.9974 97.5025 34.0113C97.5047 34.0558 97.7548 34.2289 97.8465 34.2494C98.1204 34.3105 98.2021 34.3419 98.2988 34.4233C98.5136 34.604 98.5221 34.6453 98.5439 35.6151C98.5674 36.6602 98.5839 45.2943 98.5624 45.2943C98.5543 45.2943 98.2068 44.9238 97.7903 44.4711C97.3737 44.0183 96.4162 42.9919 95.6625 42.19C94.9089 41.3881 93.6371 40.0295 92.8365 39.171C89.1775 35.2472 88.0559 34.072 87.8605 33.9571L87.7007 33.8632L86.4171 33.8561C85.358 33.8503 85.1042 33.8582 84.9665 33.9011ZM74.3787 34.6253C75.6337 34.8524 76.4226 35.4901 76.8473 36.6207C77.0154 37.0681 77.1369 37.7149 77.1369 38.1622C77.1369 38.6742 77.0657 38.9962 76.8593 39.4182C76.4646 40.2252 75.7577 40.7299 74.7778 40.9044C74.4019 40.9713 73.0439 41.0169 72.6172 40.9769L72.3493 40.9518V37.765V34.5782L72.5141 34.5628C72.8726 34.5294 74.0704 34.5695 74.3787 34.6253ZM60.7795 34.7814C62.7054 35.1931 64.6861 36.5471 65.811 38.2207C66.37 39.0523 66.8192 40.2567 66.9399 41.2473C66.9964 41.7113 66.962 42.6415 66.8721 43.0805C66.6646 44.0935 66.1856 45.0685 65.5154 45.842C64.0841 47.4936 61.6562 48.2856 59.6078 47.769C58.5472 47.5016 57.5399 46.9057 56.5692 45.9715C55.2434 44.6955 54.4539 43.186 54.1828 41.4087C54.095 40.8333 54.0942 39.5628 54.1814 39.1537C54.4145 38.0605 54.9457 37.1206 55.7892 36.309C56.6613 35.4698 57.657 34.9509 58.8194 34.7298C59.2141 34.6548 60.3237 34.6839 60.7795 34.7814ZM109.771 34.7946C110.34 34.9215 110.843 35.1016 111.43 35.3888C113.473 36.3878 114.899 37.9408 115.576 39.9047C115.859 40.7245 115.967 41.4897 115.918 42.3281C115.859 43.3377 115.52 44.3276 114.927 45.2237C114.557 45.7821 113.844 46.4959 113.286 46.865C112.582 47.3312 111.775 47.6616 110.924 47.8329C110.359 47.9465 109.308 47.947 108.787 47.8338C107.853 47.6308 107.007 47.2098 106.149 46.5218C104.667 45.3326 103.725 43.8809 103.298 42.1299C103.085 41.2563 102.972 40.0218 103.045 39.3664C103.161 38.3244 103.621 37.3928 104.439 36.5387C105.35 35.5889 106.49 34.9671 107.753 34.732C108.196 34.6494 109.27 34.6827 109.771 34.7946Z" fill="black"/>
</svg>
