<svg width="160" height="60" viewBox="0 0 160 60" fill="none" xmlns="http://www.w3.org/2000/svg">
<path fill-rule="evenodd" clip-rule="evenodd" d="M111.55 30.4596V38.3327H114.351V22.611H111.551V30.4596H111.55ZM55.6049 31.6834H59.6761V34.6266C58.7004 35.3456 57.3338 35.8165 55.8318 35.8165C52.5767 35.8165 50.4141 33.4366 50.4141 30.2029V30.156C50.4141 27.1472 52.644 24.6101 55.5799 24.6101C57.6065 24.6101 58.8128 25.2606 60.0412 26.2941L61.8166 24.2026C60.1808 22.836 58.4699 22.0723 55.6965 22.0723C50.8916 22.0723 47.4775 25.8008 47.4775 30.2036V30.2483C47.4775 34.8292 50.7563 38.3335 55.7395 38.3335C58.5629 38.3335 60.8151 37.2099 62.3879 35.8843V29.279H55.6056V31.6842" fill="#2D2E2C"/>
<mask id="mask0_162_1046" style="mask-type:alpha" maskUnits="userSpaceOnUse" x="7" y="22" width="143" height="17">
<path d="M7 38.33V22.6083H149.52V38.33H7Z" fill="white"/>
</mask>
<g mask="url(#mask0_162_1046)">
<path fill-rule="evenodd" clip-rule="evenodd" d="M140.505 35.8588V31.6363H149.518V29.1648H140.505V25.0786H149.518V22.6085H137.705V38.3303H149.521V35.8588H140.505ZM6.96973 38.3303H9.76881V31.9291H18.8261V29.4157H9.76881V25.1233H18.8318V22.6085H6.96973V38.3303Z" fill="#2D2E2C"/>
</g>
<path fill-rule="evenodd" clip-rule="evenodd" d="M25.4947 30.4039V25.1256H29.5709C31.6419 25.1256 32.8711 26.0458 32.8711 27.7312V27.7759C32.8711 29.3697 31.5968 30.4032 29.5938 30.4032H25.4947V30.4039ZM31.9154 32.3814C34.1453 31.7525 35.7167 30.2027 35.7167 27.6194V27.574C35.7167 26.2023 35.2385 25.0362 34.3966 24.1816C33.3729 23.1957 31.8001 22.6116 29.7992 22.6116H22.6963V38.3333H25.4954V32.8523H29.001L32.9169 38.3333H36.2178L31.9154 32.3814ZM40.3291 30.1977V38.3326H43.1282V22.6108H40.3291V30.1977ZM67.3993 30.4595V38.3326H70.1998V22.6108H67.3993V30.4595ZM87.3444 30.5164C87.3444 33.5923 85.1581 35.8142 81.8157 35.8142H78.673V25.1256H81.8157C85.1581 25.1256 87.3444 27.3944 87.3444 30.4696V30.5157V30.5164ZM81.8157 22.6116H75.871V38.3333H81.8157C86.8211 38.3333 90.2845 34.8954 90.2845 30.4703V30.4263C90.2845 26.0018 86.8211 22.6116 81.8157 22.6116ZM122.83 30.4039V25.1256H126.906C128.976 25.1256 130.206 26.0458 130.206 27.7312V27.7759C130.206 29.3697 128.93 30.4032 126.928 30.4032H122.83V30.4039ZM129.25 32.3814C131.48 31.7525 133.05 30.2027 133.05 27.6194V27.574C133.05 26.2023 132.571 25.0362 131.731 24.1816C130.706 23.1957 129.135 22.6116 127.134 22.6116H120.032V38.3333H122.83V32.8523H126.335L130.251 38.3333H133.552L129.25 32.3814H129.25ZM91.4106 38.3326H108.28L99.8472 22L91.4106 38.3326Z" fill="#2D2E2C"/>
<path fill-rule="evenodd" clip-rule="evenodd" d="M95.6582 35.8102L99.8296 27.5361L104.033 35.8102H95.6582Z" fill="#DC3E54"/>
<path fill-rule="evenodd" clip-rule="evenodd" d="M151.386 37.1032C151.544 37.1032 151.639 37.0282 151.639 36.9071V36.9013C151.639 36.7737 151.544 36.7051 151.386 36.7051H151.07V37.104H151.386V37.1032ZM150.826 36.4881H151.396C151.565 36.4881 151.696 36.5378 151.784 36.6251C151.819 36.659 151.846 36.7 151.864 36.7453C151.882 36.7907 151.891 36.8394 151.889 36.8883V36.8941C151.889 37.0975 151.767 37.2237 151.592 37.2734L151.935 37.7494H151.646L151.335 37.3131H151.07V37.7494H150.826V36.4881ZM152.412 37.1537V37.1472C152.412 36.5522 151.942 36.0691 151.322 36.0691C150.698 36.0691 150.227 36.558 150.227 37.1537V37.1609C150.227 37.7566 150.695 38.2384 151.315 38.2384C151.94 38.2384 152.412 37.7494 152.412 37.1537ZM150.098 37.1609V37.1537C150.098 36.4982 150.638 35.9493 151.322 35.9493C152.008 35.9493 152.54 36.4909 152.54 37.1472V37.1537C152.54 37.8093 152 38.3581 151.315 38.3581C150.63 38.3581 150.098 37.8165 150.098 37.1609Z" fill="#2D2E2C"/>
</svg>
