<svg width="160" height="60" viewBox="0 0 160 60" fill="none" xmlns="http://www.w3.org/2000/svg">
<path fill-rule="evenodd" clip-rule="evenodd" d="M20.1549 20.576C22.7714 21.4989 25.7738 23.6932 26.492 26.4867H20.72C19.1288 24.94 16.5637 24.4413 14.4863 25.3144C12.4334 26.0877 10.9969 28.1577 10.9716 30.3013C10.8943 32.471 12.2803 34.4413 14.2558 35.3888C16.1027 36.3371 18.7705 36.0118 20.3617 34.7159C21.0539 34.1183 21.5156 33.394 21.9008 32.6705L15.4871 32.6214V28.5313H27.2884C27.571 31.6233 27.0579 34.442 25.2102 36.7107C22.6451 39.8786 18.8992 41.3248 14.7689 40.652C10.9464 40.1272 7.22651 36.7361 6.32831 33.0948C5.63612 30.3765 6.04654 27.2846 7.48303 25.0405C9.38124 22.0728 12.4855 20.2277 15.9236 20.0029C17.435 19.9768 18.8463 20.1264 20.1549 20.576ZM56.0458 20.2514C59.15 20.9496 62.5881 23.3441 63.5115 26.5112H57.7395C56.2005 24.9906 53.8145 24.4666 51.7363 25.2146C49.7868 25.8384 48.1443 27.8078 48.0164 29.8034C47.7859 31.8734 48.7094 33.6687 50.4285 34.9154C52.1475 36.2128 55.0465 36.2374 56.8421 35.065C57.7916 34.5165 58.4325 33.5682 58.8943 32.6705L52.5066 32.6214V28.5313H63.3584C63.9741 24.7658 67.4635 21.0501 71.3364 20.2768C73.8511 19.7282 76.6728 20.0773 78.8275 21.1744C80.9057 22.247 83.189 24.2418 83.7281 26.5112H77.9553C76.4162 24.9906 74.0303 24.4666 71.9521 25.2146C70.0026 25.8384 68.3609 27.8078 68.2322 29.8034C68.0017 31.8734 68.9252 33.6687 70.6435 34.9154C72.2859 36.1384 75.0303 36.2627 76.7754 35.2392C77.8267 34.7159 78.6475 33.6434 79.1093 32.6705L72.7216 32.6214V28.5313H84.4977C84.7534 31.3747 84.3698 34.093 82.7526 36.2627C80.1361 39.9024 75.8006 41.5496 71.3364 40.5277C68.027 39.8786 64.8202 36.9117 63.7941 33.7937C62.768 37.0107 59.4325 39.9285 56.0465 40.5776C51.4545 41.5243 47.093 39.6799 44.5791 35.8645C42.4496 32.8462 42.4757 27.9835 44.5539 24.9407C47.0409 21.0992 51.4537 19.3039 56.0458 20.2514ZM39.9603 40.4517C39.4985 39.4282 39.0108 38.381 38.4977 37.4081H31.7249L30.2624 40.4755H23.9513L35.1117 20.2269L46.2453 40.4517H39.9603ZM137.422 40.4755H131.163L129.726 37.4081H122.902L121.465 40.4517L116.564 40.4755L104.327 31.5235L104.277 31.4729L104.25 40.4755H98.9154V20.7755L111.639 30.052L111.665 20.6005H117.129L117.155 36.7852V36.8105L126.288 20.2269L137.422 40.4264V40.4755ZM97.992 25.3888H90.6154V28.381L97.3487 28.4308V32.5953H90.6154V35.5384L97.992 35.5637V40.4755H85.2396V20.6005H97.992V25.3888ZM139.962 31.8964C140.064 33.4431 141.064 35.039 142.63 35.563C143.963 36.1606 145.632 35.8115 146.76 35.0144C148.941 33.3932 148.274 30.5 148.402 28.0564V20.6005H153.558L153.661 31.1246C153.584 34.6147 152.198 38.0073 148.889 39.7528C147.726 40.4087 146.43 40.8086 145.091 40.9243C144.117 40.9734 143.064 40.9734 142.167 40.7486C139.165 40.1763 135.959 37.7066 135.266 34.6891C134.959 33.2927 134.805 31.8465 134.779 30.3512L134.754 20.6005H139.935L139.962 31.8964Z" fill="black"/>
<path fill-rule="evenodd" clip-rule="evenodd" d="M33.2637 34.1414L35.2392 30.1519L37.0348 34.1414H33.2637ZM124.44 34.1414L126.441 30.1519L128.237 34.1176L124.44 34.1414Z" fill="white"/>
</svg>
