<svg width="160" height="60" viewBox="0 0 160 60" fill="none" xmlns="http://www.w3.org/2000/svg">
<path d="M23.0218 27.6862L18.1295 24.8694V31.6995V31.874L15.9079 33.1453L11.8143 29.107L13.2621 34.6908L11.0405 35.9621L5 32.4972V38.0809C5 40.4739 6.69734 41.471 8.79406 40.2745L23.0218 32.0734C25.0936 30.852 25.0936 28.9076 23.0218 27.6862Z" fill="#C80F23"/>
<path d="M15.6084 29.2331V23.45L8.79406 19.5114C6.7223 18.3149 5 19.2871 5 21.7051V29.632L10.0171 32.5235L8.51949 26.192L10.8908 24.821L15.6084 29.2331Z" fill="#C80F23"/>
<path d="M43.3645 36.2356H37.0743C34.6282 36.2356 32.6562 34.5655 32.6562 32.5214V27.2867C32.6562 25.2676 34.6781 23.5725 37.0743 23.5725H43.3645C45.7358 23.5725 47.7327 25.2426 47.7826 27.2867V27.536H45.2116V27.2867C45.2116 26.4392 44.3629 25.7661 43.3395 25.7661H37.0494C36.026 25.7661 35.1773 26.4392 35.1773 27.2867V32.5214C35.1773 33.369 36.026 34.042 37.0494 34.042H43.3395C44.3629 34.042 45.2116 33.369 45.2116 32.5214V31.0009H38.9214V28.7823H47.7826V32.5214C47.7826 34.5406 45.7607 36.2356 43.3645 36.2356Z" fill="black"/>
<path d="M65.0815 36.2356H62.5105V32.7458H52.4763V36.2356H49.9053V27.2867C49.9053 25.2676 51.9271 23.5725 54.3234 23.5725H60.6135C62.9848 23.5725 64.9817 25.2426 65.0316 27.2867V36.2356H65.0815ZM52.4763 30.5522H62.5105V27.2867C62.5105 26.4392 61.6619 25.7661 60.6385 25.7661H54.3483C53.3249 25.7661 52.4763 26.4392 52.4763 27.2867V30.5522Z" fill="black"/>
<path d="M82.8272 36.2329H79.7321L76.9115 32.7431H69.9723V36.2329H67.4014V23.5449H78.1346C80.5308 23.5449 82.5526 25.24 82.5526 27.2591V29.004C82.5526 30.4997 81.4544 31.8457 79.782 32.444L82.8272 36.2329ZM69.9723 30.5495H78.1346C79.158 30.5495 80.0066 29.8765 80.0066 29.0289V27.284C80.0066 26.4365 79.158 25.7635 78.1346 25.7635H69.9723V30.5495Z" fill="black"/>
<path d="M99.6757 36.2356H84.5244V23.5725H87.0704V34.042H99.6757V36.2356Z" fill="black"/>
<path d="M116.302 36.2356H113.731V32.7458H103.721V36.2356H101.15V27.2867C101.15 25.2676 103.172 23.5725 105.568 23.5725H111.859C114.23 23.5725 116.227 25.2426 116.302 27.2867V36.2356ZM103.721 30.5522H113.756V27.2867C113.756 26.4392 112.907 25.7661 111.884 25.7661H105.593C104.57 25.7661 103.721 26.4392 103.721 27.2867V30.5522Z" fill="black"/>
<path d="M133.624 36.2356H131.203L121.019 27.1371V36.2356H118.473V23.5725H120.894L131.053 32.5464V23.5725H133.624V36.2356Z" fill="black"/>
<path d="M146.652 36.2329H135.919V23.5449H146.652C149.023 23.5449 151.02 25.2151 151.07 27.2591V32.4938C151.095 34.5379 149.073 36.2329 146.652 36.2329ZM138.49 34.0393H146.652C147.676 34.0393 148.524 33.3663 148.524 32.5188V27.284C148.524 26.4365 147.676 25.7635 146.652 25.7635H138.49V34.0393Z" fill="black"/>
<path d="M152.144 24.3697C152.144 24.1454 152.193 23.921 152.318 23.7216C152.443 23.5222 152.593 23.3477 152.793 23.248C152.992 23.1233 153.217 23.0735 153.442 23.0735C153.666 23.0735 153.891 23.1233 154.091 23.248C154.29 23.3726 154.465 23.5222 154.565 23.7216C154.69 23.921 154.74 24.1454 154.74 24.3697C154.74 24.5941 154.69 24.8184 154.565 25.0178C154.465 25.2172 154.29 25.3917 154.091 25.4914C153.891 25.6161 153.666 25.6659 153.417 25.6659C153.167 25.6659 152.942 25.6161 152.743 25.4914C152.543 25.3668 152.368 25.2172 152.268 25.0178C152.193 24.7935 152.144 24.5941 152.144 24.3697ZM152.318 24.3697C152.318 24.5691 152.368 24.7685 152.468 24.943C152.568 25.1175 152.718 25.2422 152.892 25.3668C153.067 25.4665 153.267 25.5164 153.466 25.5164C153.666 25.5164 153.866 25.4665 154.041 25.3668C154.215 25.2671 154.34 25.1175 154.465 24.968C154.565 24.7935 154.615 24.5941 154.615 24.3946C154.615 24.1952 154.565 23.9958 154.465 23.8213C154.365 23.6468 154.215 23.5222 154.041 23.3975C153.866 23.2978 153.691 23.248 153.466 23.248C153.267 23.248 153.067 23.2978 152.892 23.3975C152.718 23.4972 152.568 23.6468 152.468 23.7964C152.368 23.9709 152.318 24.1454 152.318 24.3697ZM153.991 24.0457C153.991 24.1454 153.966 24.2201 153.916 24.2949C153.866 24.3697 153.791 24.4196 153.716 24.4445L154.14 25.1425H153.841L153.491 24.5193H153.242V25.1425H152.992V23.597H153.442C153.641 23.597 153.766 23.6219 153.866 23.7216C153.941 23.7715 153.991 23.8961 153.991 24.0457ZM153.242 24.2949H153.442C153.541 24.2949 153.616 24.27 153.666 24.2201C153.716 24.1703 153.741 24.1204 153.741 24.0457C153.741 23.9709 153.716 23.8961 153.666 23.8712C153.616 23.8213 153.541 23.8213 153.417 23.8213H153.242V24.2949Z" fill="black"/>
</svg>
