<svg width="160" height="60" viewBox="0 0 160 60" fill="none" xmlns="http://www.w3.org/2000/svg">
<path d="M27.4896 49.9705C16.7367 49.9705 8 41.2777 8 30.4853C8 19.7348 16.7367 11 27.4896 11C38.2425 11 46.9792 19.7348 46.9792 30.4853C47.0212 41.2777 38.2425 49.9705 27.4896 49.9705ZM27.4896 11.9239C17.2408 11.9239 8.92408 20.2387 8.92408 30.4853C8.92408 40.7318 17.2408 49.0467 27.4896 49.0467C37.7384 49.0467 46.0551 40.7318 46.0551 30.4853C46.0971 20.2807 37.7804 11.9239 27.4896 11.9239ZM44.0389 36.0285C44.0389 36.0285 43.9969 36.0705 43.9549 36.0285C43.9129 36.0285 43.9129 35.9865 43.9129 35.9445C43.9129 35.9025 44.585 33.9708 44.543 31.7871C44.543 29.3934 43.5769 27.9656 42.3168 27.9656C41.5607 27.9656 41.0147 28.5115 41.0147 29.3094C41.0147 30.7792 42.7788 30.8632 42.7788 34.0548C42.7788 35.3566 42.5268 36.5744 42.0648 37.9602C40.0486 44.7213 33.7061 47.8288 27.4896 47.8288C24.6334 47.8288 22.5752 47.2409 21.9871 46.947C21.9451 46.947 21.9451 46.9049 21.9451 46.821C21.9451 46.779 21.9871 46.779 22.0291 46.779C22.2812 46.863 24.0033 47.4089 26.1875 47.4089C28.5817 47.4089 29.9678 46.443 29.9678 45.2672C29.9678 44.5113 29.3797 43.9234 28.6237 43.9234C27.1536 43.9234 27.0696 45.7711 23.9193 45.7711C22.5752 45.7711 21.3991 45.5192 19.971 45.0572C13.2504 42.9995 10.1002 36.7004 10.1002 30.4433C10.1002 27.3777 10.9402 24.942 10.9822 24.942C10.9822 24.942 11.0243 24.9 11.0663 24.942C11.1083 24.942 11.1083 24.984 11.1083 25.026C11.0243 25.278 10.4782 26.9997 10.4782 29.1834C10.4782 31.5771 11.4443 32.9629 12.7044 32.9629C13.4184 32.9629 14.0065 32.417 14.0065 31.6611C14.0065 30.1913 12.2423 30.0233 12.2423 26.9158C12.2423 25.5719 12.4944 24.3961 12.9564 22.9683C15.0146 16.2913 21.3151 13.1417 27.5316 13.0997C30.4298 13.0577 32.95 13.9396 33.034 14.0236C33.034 14.0236 33.076 14.0656 33.034 14.1076C33.034 14.1496 32.992 14.1496 32.95 14.1496C32.908 14.1496 31.2699 13.4776 28.7917 13.4776C26.4815 13.4776 25.0114 14.4435 25.0114 15.7033C25.0114 16.4172 25.5574 17.0052 26.3555 17.0052C27.8256 17.0052 27.9096 15.2414 31.0599 15.2414C32.404 15.2414 33.5801 15.4934 35.0082 15.9553C41.7707 18.013 44.837 24.3961 44.879 30.5273C44.921 33.6348 44.0389 36.0285 44.0389 36.0285ZM34.7562 31.4091C32.908 31.4091 31.5219 32.7529 31.5219 34.3907C31.5219 35.7345 32.32 36.8264 33.4121 36.8264C33.7901 36.8264 34.1681 36.6164 34.1681 36.1125C34.1681 35.3986 33.2441 35.2306 33.3281 34.1807C33.3701 33.5088 34.0421 33.0049 34.6722 33.0049C35.9743 33.0049 36.5623 34.2647 36.5623 35.5665C36.5203 37.5823 35.0502 38.9681 33.3281 38.9681C31.0599 38.9681 29.5898 36.8264 29.5898 34.4747C29.5898 31.0312 31.8579 29.6874 33.034 29.3514C33.034 29.3514 36.1423 29.8973 36.0583 28.5535C36.0163 27.9656 35.1342 27.7136 34.4621 27.7136C33.7481 27.6717 33.034 27.9236 33.034 27.9236C32.656 27.7136 32.404 27.3777 32.236 26.9158C34.4622 25.236 36.0163 23.6402 36.0163 21.7925C36.0163 20.8266 35.3862 19.9447 34.1261 19.9447C31.8999 19.9447 30.2198 22.7583 30.2198 25.278C30.2198 25.6979 30.2198 26.1599 30.3458 26.5378C28.9597 27.5457 27.9096 28.2176 26.0195 29.3514C26.0195 29.0994 26.0615 28.5115 26.2295 27.7136C26.8595 26.9997 27.7836 25.9499 27.7836 25.152C27.7836 24.7741 27.5736 24.4381 27.1116 24.4381C26.0195 24.4381 25.2214 26.0759 25.0114 27.2097C24.5073 27.7976 23.5413 28.5535 22.7432 28.5535C22.1131 28.5535 21.8611 27.9656 21.8191 27.7556C23.8773 27.0417 26.3975 24.2281 26.3975 21.7085C26.3975 21.1626 26.1875 19.9867 24.5494 19.9867C22.1132 19.9867 20.055 23.5982 20.055 26.4118C19.1729 26.4118 18.8789 25.488 18.8789 24.7741C18.8789 24.0602 19.1309 23.3883 19.1309 23.1363C19.1309 22.9263 19.0049 22.6324 18.7109 22.6324C17.9128 22.6324 17.4088 23.7242 17.4088 24.942C17.4508 26.6638 18.5849 27.7556 20.097 27.8816C20.307 28.8895 21.2311 29.8973 22.3652 29.8973C23.0792 29.8973 23.9193 29.6874 24.5073 29.1414C24.4653 29.5194 24.3813 29.8554 24.3393 30.1493C21.9451 31.4091 20.223 32.249 18.6689 33.6768C17.4088 34.8107 16.7367 36.3224 16.7367 37.4983C16.7367 39.136 17.7448 40.6478 19.887 40.6478C22.3652 40.6478 24.2553 38.6321 25.1794 35.9025C25.5994 34.6007 25.7674 32.711 25.8935 30.9892C28.3717 29.6034 29.5478 28.7635 30.8499 27.8396C31.0179 28.0916 31.1859 28.3436 31.3959 28.4695C30.2618 29.0575 27.5736 30.7372 27.5736 34.6847C27.5736 37.4983 29.4637 40.6058 33.202 40.6058C36.2683 40.6058 38.3685 38.0862 38.3685 35.6505C38.3685 33.4668 37.1084 31.4091 34.7562 31.4091ZM19.887 38.9681C19.0889 39.0101 18.5429 38.5061 18.5429 37.6243C18.5429 35.3146 21.7771 33.0889 24.1713 31.9131C23.7513 35.1046 22.6592 38.8421 19.887 38.9681ZM21.6931 26.2019C21.6931 24.4381 23.4573 21.0366 24.5494 21.3725C25.7675 21.8345 23.4573 25.236 21.6931 26.2019ZM31.9 25.404C31.9 23.1783 33.4121 21.0366 34.2101 21.4565C35.1342 21.9185 33.4961 23.9762 31.9 25.404Z" fill="#003B6B"/>
<path d="M55.5947 30.4877C55.5947 28.388 57.2329 26.7502 59.459 26.7502C60.7191 26.7502 61.6012 27.1282 62.3573 27.8001L61.1812 29.1859C60.6771 28.766 60.1731 28.514 59.459 28.514C58.4089 28.514 57.6529 29.3959 57.6529 30.4877C57.6529 31.6216 58.451 32.4614 59.585 32.4614C60.0471 32.4614 60.4251 32.3775 60.7191 32.1675V31.3276H59.291V29.8578H62.5673V33.0914C61.8112 33.7213 60.7611 34.1832 59.459 34.1832C57.2329 34.1832 55.5947 32.6714 55.5947 30.4877Z" fill="#003B6B"/>
<path d="M64.707 26.912H70.4195V28.5918H66.6392V29.6836H70.0835V31.2374H66.6392V32.3712H70.5035V34.051H64.707V26.912Z" fill="#003B6B"/>
<path d="M78.8163 26.8795H80.7064L83.7307 34.0605H81.5885L81.0844 32.8007H78.3122L77.8082 34.0605H75.708L78.8163 26.8795ZM80.5804 31.2469L79.7823 29.2312L78.9843 31.2469H80.5804Z" fill="#003B6B"/>
<path d="M85.4951 26.912H88.5614C90.3675 26.912 91.5436 27.8359 91.5436 29.4316V29.4736C91.5436 31.1534 90.2415 32.0353 88.4774 32.0353H87.5113V34.093H85.5371V26.912H85.4951ZM88.3934 30.4395C89.1074 30.4395 89.5274 30.0615 89.5274 29.5156V29.4736C89.5274 28.8437 89.1074 28.5498 88.3934 28.5498H87.4693V30.4395H88.3934Z" fill="#003B6B"/>
<path d="M93.3936 26.912H96.4598C98.2659 26.912 99.442 27.8359 99.442 29.4316V29.4736C99.442 31.1534 98.1399 32.0353 96.3758 32.0353H95.4097V34.093H93.4356V26.912H93.3936ZM96.2918 30.4395C97.0058 30.4395 97.4259 30.0615 97.4259 29.5156V29.4736C97.4259 28.8437 97.0058 28.5498 96.2918 28.5498H95.3677V30.4395H96.2918Z" fill="#003B6B"/>
<path d="M101.249 26.912H103.223V32.3292H106.709V34.051H101.249V26.912Z" fill="#003B6B"/>
<path d="M110.574 26.912H108.6V34.051H110.574V26.912Z" fill="#003B6B"/>
<path d="M115.399 26.8795H117.289L120.314 34.0605H118.171L117.667 32.8007H114.895L114.391 34.0605H112.291L115.399 26.8795ZM117.121 31.2469L116.323 29.2312L115.525 31.2469H117.121Z" fill="#003B6B"/>
<path d="M122.04 26.912H123.888L126.828 30.6915V26.912H128.803V34.051H127.038L124.014 30.1455V34.051H122.04V26.912Z" fill="#003B6B"/>
<path d="M130.819 30.4877C130.819 28.388 132.415 26.7502 134.6 26.7502C136.07 26.7502 136.994 27.3802 137.624 28.22L136.154 29.3539C135.734 28.8499 135.272 28.514 134.6 28.514C133.592 28.514 132.877 29.3539 132.877 30.4037V30.4457C132.877 31.4956 133.592 32.3355 134.6 32.3355C135.356 32.3355 135.776 31.9995 136.196 31.4536L137.666 32.5034C136.994 33.4273 136.07 34.0992 134.516 34.0992C132.457 34.1832 130.819 32.6294 130.819 30.4877Z" fill="#003B6B"/>
<path d="M139.558 26.9275H145.27V28.6073H141.49V29.6991H144.934V31.2529H141.49V32.3867H145.354V34.0665H139.558V26.9275Z" fill="#003B6B"/>
<path d="M146.817 33.0121L147.909 31.7103C148.624 32.2562 149.38 32.5502 150.22 32.5502C150.766 32.5502 151.018 32.3822 151.018 32.0463V32.0043C151.018 31.7103 150.766 31.5423 149.8 31.3324C148.288 30.9964 147.111 30.5765 147.111 29.1067C147.111 27.7629 148.161 26.839 149.884 26.839C151.102 26.839 152.026 27.1749 152.824 27.8049L151.816 29.1907C151.144 28.7287 150.43 28.4768 149.8 28.4768C149.338 28.4768 149.086 28.6867 149.086 28.9387V28.9807C149.086 29.3166 149.338 29.4426 150.304 29.6946C151.942 30.0725 152.95 30.5765 152.95 31.9203C152.95 33.3901 151.816 34.2299 150.052 34.2299C148.918 34.188 147.699 33.768 146.817 33.0121Z" fill="#003B6B"/>
</svg>
