<svg width="160" height="60" viewBox="0 0 160 60" fill="none" xmlns="http://www.w3.org/2000/svg">
<path fill-rule="evenodd" clip-rule="evenodd" d="M149.726 18.3746C149.027 18.55 147.646 18.7159 146.657 18.743C145.667 18.7702 144.857 18.9649 144.857 19.1758C144.857 19.3868 144.742 19.8568 144.6 20.2203C144.42 20.684 144.59 20.8812 145.17 20.8812C146.234 20.8812 147.398 22.1533 147.398 23.3163C147.398 24.0495 147.149 24.2233 146.103 24.2233C138.953 24.2233 133.948 31.2844 136.763 37.4001C138.188 40.4975 140.401 41.7153 144.006 41.3852C145.95 41.2077 146.968 39.6807 145.143 39.6807C143.016 39.6807 141.471 36.8474 141.471 32.9484C141.471 30.037 142.107 28.6195 144.242 26.7692C146.987 24.3908 147.157 24.7192 147.398 32.8544C147.656 41.5858 147.748 41.7696 151.908 41.7696C153.386 41.7696 154.594 41.597 154.594 41.3861C154.594 41.1751 154.71 40.7051 154.851 40.3416C155.03 39.8813 154.863 39.6807 154.301 39.6807C152.569 39.6807 152.478 39.1105 152.478 28.3174C152.478 16.8434 152.695 17.6288 149.726 18.3746ZM93.4209 18.8947C89.9292 19.4436 89.8225 19.4896 89.8225 20.4504C89.8225 21.0153 90.1006 21.2989 90.6544 21.2989C91.1116 21.2989 91.6585 21.6281 91.8698 22.03C92.0806 22.4319 92.3507 26.1045 92.4697 30.1911C92.7313 39.1924 92.6847 39.3047 88.5838 39.5976C87.122 39.702 85.7617 39.6005 85.5272 39.3691C85.0467 38.8949 84.6839 30.6653 85.0391 28.2966C85.2736 26.7324 85.277 26.7299 87.3366 26.7299C88.4712 26.7299 89.3991 26.5574 89.3991 26.3464C89.3991 26.1354 89.5244 25.64 89.6781 25.2456C89.9292 24.5997 89.7179 24.5575 87.5614 24.8236L85.1657 25.119V22.5823C85.1657 21.187 85.0048 20.0456 84.8088 20.0456C84.6124 20.0456 83.6611 20.9706 82.6954 22.101C80.8107 24.3069 78.2897 25.5426 77.4218 24.6862C76.4287 23.7061 74.5994 24.1903 72.6732 25.9424C71.1216 27.3541 70.7355 27.54 70.5179 26.981C70.3723 26.6063 70.352 25.9266 70.473 25.4704C70.7385 24.469 70.592 24.4673 66.5385 25.4307C64.3989 25.9391 63.3206 26.4007 63.2321 26.8469C63.1373 27.3244 63.4908 27.5458 64.5022 27.6415L65.9034 27.7743L66.0228 33.2011C66.127 37.9399 66.0495 38.6948 65.4128 39.1543C63.3841 40.6182 62.3469 39.2446 60.016 32.008C57.5119 24.2333 57.3734 24.0905 52.568 24.314C50.5889 24.4063 48.3981 24.7543 47.6996 25.0873C46.5523 25.6341 46.4168 25.9103 46.2991 27.9473C46.2115 29.468 46.3491 30.3148 46.7225 30.5483C47.7237 31.175 48.3143 30.9247 48.5886 29.7587C49.0691 27.7146 49.9501 26.7299 51.298 26.7299C52.582 26.7299 53.6273 27.7973 53.9105 29.3974C54.021 30.0211 53.5663 30.3449 51.7214 30.9565C45.7225 32.9451 43.461 35.6042 45.1032 38.7383C46.2792 40.9821 51.5165 42.486 54.3673 41.3986C56.0733 40.7481 55.8862 39.6807 54.0663 39.6807C51.3696 39.6807 49.9501 36.857 51.6248 34.8242C52.0274 34.3358 52.8585 33.6235 53.4719 33.2413L54.587 32.5457L55.7571 36.3102C57.5267 42.0019 57.0792 41.7696 66.2777 41.7696C73.2515 41.7696 74.0977 41.6931 74.7289 41.0046C75.6235 40.0292 75.2539 39.6807 73.326 39.6807C71.0429 39.6807 70.7711 39.1702 70.7783 34.8973C70.785 31.0338 70.8739 30.6929 72.1283 29.7236C72.7384 29.252 73.0521 29.2842 74.1676 29.9325L75.4859 30.6987L77.1657 28.9232C79.9479 25.9834 80.0855 26.2048 80.0855 33.6135V40.0793L81.2341 40.82C82.2323 41.4638 83.463 41.5624 90.6535 41.5732C95.2024 41.5799 99.1628 41.4157 99.4536 41.2085C100.174 40.6959 100.123 39.6807 99.3778 39.6807C99.0455 39.6807 98.474 39.3854 98.1078 39.0244C97.5401 38.4642 97.4427 36.9017 97.4427 28.3713C97.4427 19.1061 97.3885 18.3792 96.7019 18.4351C96.2942 18.4686 94.818 18.6754 93.4209 18.8947ZM6 20.4634C6 20.6932 6.33868 20.8812 6.75229 20.8812C7.16632 20.8812 7.92834 21.174 8.44567 21.5316C9.36602 22.1675 9.38677 22.3693 9.38677 30.756V39.3302L7.7264 39.974C6.63544 40.3968 6.14267 40.815 6.28999 41.1935C6.63333 42.0766 17.8537 42.0328 17.8537 41.1484C17.8537 40.807 17.1869 40.2527 16.372 39.9164L14.8903 39.3056V34.8977V30.4898H18.7004H22.5105V34.8977V39.3056L21.0288 39.9164C20.2138 40.2527 19.5471 40.807 19.5471 41.1484C19.5471 42.0328 30.7674 42.0766 31.1108 41.1935C31.2581 40.815 30.7653 40.3968 29.6743 39.974L28.014 39.3302V30.756C28.014 22.3693 28.0347 22.1675 28.9551 21.5316C29.4724 21.174 30.2344 20.8812 30.6485 20.8812C31.0621 20.8812 31.4008 20.6932 31.4008 20.4634C31.4008 20.204 29.0723 20.0456 25.2622 20.0456C21.4521 20.0456 19.1237 20.204 19.1237 20.4634C19.1237 20.6932 19.5174 20.8812 19.9984 20.8812C22.1481 20.8812 22.5105 21.5095 22.5105 25.2377C22.5105 29.2152 22.4885 29.2399 18.9832 29.2307C14.8979 29.2202 14.8903 29.2127 14.8903 25.2339C14.8903 21.5099 15.2531 20.8812 17.4024 20.8812C17.8833 20.8812 18.277 20.6932 18.277 20.4634C18.277 20.204 15.9486 20.0456 12.1385 20.0456C8.3284 20.0456 6 20.204 6 20.4634ZM34.0395 24.5024C32.9891 24.8692 31.7873 25.7101 31.1675 26.5123C29.2438 29.0009 29.0368 34.2928 30.7365 37.5363C32.7419 41.3635 38.6099 42.8432 43.1329 40.6625C44.8403 39.8395 45.3475 38.5557 43.8895 38.7479C39.4333 39.334 36.7358 38.4266 35.409 35.8949C33.9785 33.1652 34.2537 28.8242 35.9915 26.7065C37.4677 24.908 39.8677 26.6163 39.8677 29.465C39.8677 30.4 39.7017 30.4898 37.9774 30.4898C36.5207 30.4898 35.9835 30.6812 35.6342 31.3254C35.1927 32.1396 35.3125 32.1609 40.3232 32.1609H45.4656L45.173 30.5943C44.1579 25.1541 39.4888 22.5994 34.0395 24.5024ZM128.559 24.4627C127.86 24.8211 126.895 25.4779 126.415 25.922C125.254 26.9948 124.96 26.9413 124.96 25.6575C124.96 24.7823 124.807 24.6327 124.13 24.8445C123.674 24.9874 122.103 25.3454 120.638 25.6404C118.777 26.0147 117.934 26.3853 117.838 26.8707C117.735 27.3929 118.014 27.5655 118.957 27.5655C119.712 27.5655 120.315 27.8291 120.47 28.2264C120.804 29.0861 120.804 37.7423 120.47 38.6021C120.071 39.6268 117.897 39.4422 117.182 38.323C116.852 37.8062 115.766 34.8501 114.769 31.7544C112.496 24.6979 112.078 24.2233 108.121 24.2233C106.522 24.2233 104.322 24.5229 103.233 24.8892L101.253 25.5552V27.9778C101.253 29.8014 101.418 30.4631 101.923 30.654C103.073 31.0897 103.37 30.9394 103.37 29.9196C103.37 28.3855 104.918 26.7299 106.353 26.7299C107.297 26.7299 107.738 27.0282 108.258 28.0208C109.158 29.7383 108.887 30.2304 106.695 30.8646C104.234 31.576 101.515 33.1623 100.437 34.5146C99.3837 35.836 99.3029 37.8797 100.251 39.2153C101.717 41.2812 106.642 42.4271 109.481 41.3623C111.035 40.779 110.897 39.6807 109.268 39.6807C107.475 39.6807 106.497 39.075 105.995 37.6529C105.443 36.0909 106.072 34.8062 108.025 33.5078L109.492 32.5319L109.787 33.4953C109.949 34.025 110.377 35.4926 110.738 36.7564C111.1 38.0201 111.778 39.6653 112.245 40.4118L113.094 41.7696H120.276C126.639 41.7696 127.505 41.6873 127.867 41.0485C128.203 40.4553 128.038 40.251 126.936 39.8996L125.595 39.4719L125.476 34.3671C125.368 29.7057 125.432 29.1885 126.217 28.4139C127.196 27.4481 128.866 27.2993 129.554 28.1169C129.833 28.449 130.064 31.2289 130.135 35.1145L130.252 41.5607L133.36 41.6844C135.288 41.7608 136.695 41.6221 137.064 41.3196C137.886 40.6474 137.811 40.0985 136.899 40.0985C135.314 40.0985 135.12 39.3043 135.12 32.783C135.12 26.9509 135.053 26.3982 134.233 25.5297C132.58 23.7788 130.612 23.4087 128.559 24.4627Z" fill="black"/>
</svg>
