<svg width="160" height="60" viewBox="0 0 160 60" fill="none" xmlns="http://www.w3.org/2000/svg">
<rect width="160" height="60" fill="white"/>
<path fill-rule="evenodd" clip-rule="evenodd" d="M19.0609 19.9801C19.0609 20.3251 17.7319 37.4058 17.5513 39.3826L17.5 39.9446H20.6681H23.8363L23.8934 39.4314C23.9393 39.0209 24.5345 31.3729 24.5345 31.1955C24.5345 31.1691 26.5579 31.1476 29.0308 31.1476H33.527V31.4775C33.527 31.6589 33.3952 33.5173 33.234 35.6072C33.0727 37.6971 32.9407 39.5499 32.9407 39.7247L32.9405 40.0423H36.0161C38.8463 40.0423 39.0985 40.0286 39.1796 39.8713C39.228 39.7772 39.2974 39.1724 39.3337 38.5273C39.3701 37.8822 39.5065 36.0568 39.637 34.4709C39.7675 32.885 39.9438 30.6198 40.0288 29.4371C40.1138 28.2544 40.3131 25.7114 40.4717 23.7859C40.6303 21.8605 40.7601 20.2 40.7601 20.0961C40.7601 19.9131 40.6588 19.907 37.6051 19.907H34.4501L34.2228 22.8638C34.0978 24.49 33.9719 26.0515 33.9431 26.3337L33.8906 26.8469H29.3943H24.898L24.9506 26.0405C24.9797 25.5969 25.0826 24.2171 25.1794 22.9741C25.3457 20.8386 25.3462 20.7 25.188 20.4586C24.8044 19.8731 24.7398 19.8611 21.7778 19.8257C19.1558 19.7943 19.0609 19.7997 19.0609 19.9801ZM43.2364 19.9245C43.1506 20.0347 42.9099 22.6377 42.9103 23.4503L42.9104 23.7191H45.9894C48.387 23.7191 49.0685 23.692 49.0692 23.5969C49.0697 23.5297 49.1143 22.8614 49.1683 22.1118C49.2795 20.5698 49.2161 20.209 48.7967 19.9967C48.4118 19.8019 43.3826 19.7366 43.2364 19.9245ZM57.0345 25.0539C54.766 25.3236 53.7471 25.5677 52.636 26.1078C51.0847 26.8618 50.4182 27.7495 50.3566 29.1439C50.3081 30.2436 50.5539 30.8698 51.3517 31.6789C52.1085 32.4462 52.9355 32.9316 54.7864 33.6943C59.896 35.8001 60.3425 36.0378 60.0545 36.4991C59.8021 36.9031 59.607 36.925 56.6435 36.8829C54.2397 36.8488 53.5427 36.8038 52.0566 36.5865C51.0927 36.4455 50.2901 36.3443 50.273 36.3614C50.2559 36.3786 50.1923 37.0867 50.1316 37.9353C50.0473 39.1135 50.0484 39.4949 50.1362 39.5491C50.4778 39.7602 57.7212 40.1843 59.4292 40.0932C63.5352 39.874 65.7567 39.0208 66.5606 37.3544C66.7468 36.9682 66.7976 36.7012 66.8026 36.0819C66.8082 35.3887 66.7723 35.2238 66.4921 34.6544C65.8715 33.3932 65.5327 33.1785 60.6999 30.9849C57.5184 29.5407 56.7599 29.1104 56.8084 28.7772C56.9342 27.9138 60.3357 27.8053 64.8801 28.5198C65.5933 28.6319 66.2347 28.7015 66.3054 28.6743C66.3952 28.6399 66.4712 28.1931 66.5577 27.1916C66.6257 26.4032 66.6652 25.742 66.6454 25.7222C66.5972 25.674 63.7561 25.3265 61.8836 25.1398C60.5486 25.0066 57.836 24.9585 57.0345 25.0539ZM113.384 25.0544C109.721 25.4128 107.632 26.3699 106.886 28.0318C106.652 28.5536 106.625 28.7206 106.655 29.4219C106.701 30.4475 106.957 30.9833 107.808 31.8326C108.615 32.6379 109.266 32.9762 112.585 34.3163C115.594 35.531 116.061 35.7549 116.28 36.0888C116.437 36.3286 116.433 36.3465 116.159 36.6342L115.876 36.9315L113.042 36.8888C110.644 36.8527 109.93 36.8061 108.408 36.5862C107.419 36.4432 106.596 36.3389 106.581 36.3545C106.565 36.3701 106.502 37.0582 106.442 37.8836C106.35 39.1185 106.354 39.4077 106.462 39.5153C106.664 39.7177 111.689 40.0682 114.508 40.0765C117.735 40.086 119.57 39.7921 121.088 39.0227C121.983 38.5691 122.51 38.0872 122.835 37.4251C123.071 36.9451 123.11 36.7477 123.11 36.0348C123.11 34.9847 122.878 34.4673 122.034 33.6338C121.311 32.9192 120.514 32.4962 117.001 30.9609C115.63 30.362 114.244 29.7261 113.922 29.5478C113.355 29.2347 113.061 28.8958 113.151 28.6604C113.438 27.9128 117.006 27.8481 121.155 28.5153C122.915 28.7985 122.716 28.9474 122.865 27.2366C122.936 26.4295 122.973 25.7493 122.949 25.7249C122.894 25.6706 120.228 25.3431 118.184 25.1395C116.849 25.0065 114.33 24.962 113.384 25.0544ZM75.8991 25.1933C74.0329 25.4497 72.7186 25.9198 71.3832 26.8083C69.4496 28.0948 68.2873 29.6942 67.8761 31.6338C67.7027 32.4517 67.7026 34.0464 67.8759 34.8619C68.385 37.258 70.2515 38.9607 73.1623 39.6841C75.0553 40.1545 75.4381 40.1892 78.6848 40.1841C81.5923 40.1794 81.845 40.1644 83.2226 39.9153C84.0249 39.7702 84.7798 39.5869 84.9002 39.5081C85.0205 39.4293 85.1433 39.2423 85.1732 39.0926C85.3214 38.3477 85.5485 36.6102 85.5034 36.5652C85.4752 36.5369 84.6442 36.6278 83.6568 36.7671C80.8755 37.1594 79.411 37.2548 78.1953 37.1229C76.2232 36.909 75.0676 36.4415 74.2357 35.5211C73.8615 35.1071 73.5044 34.3709 73.5044 34.0137C73.5044 33.9079 74.6289 33.8844 79.6992 33.8844C85.3422 33.8844 85.9058 33.8701 86.0281 33.7228C86.1287 33.6016 86.1622 33.1926 86.1622 32.0856C86.1622 30.8325 86.1296 30.5068 85.9454 29.9258C85.2388 27.6956 83.37 26.1088 80.5818 25.3718C79.6839 25.1344 77.0567 25.0343 75.8991 25.1933ZM131.858 25.2367C129.678 25.5784 127.455 26.6542 126.173 27.9866C124.743 29.474 124.037 31.3039 124.039 33.5138C124.041 34.642 124.184 35.3031 124.617 36.177C125.403 37.7635 127.008 39.0034 129.028 39.5857C130.789 40.0931 131.689 40.1889 134.692 40.1889C136.465 40.1889 137.833 40.1414 138.455 40.0583C139.715 39.8898 141.25 39.5835 141.354 39.4799C141.398 39.4354 141.536 38.737 141.66 37.9276L141.885 36.4562L141.196 36.5893C138.44 37.1223 134.813 37.3004 133.324 36.9759C132.322 36.7576 131.105 36.146 130.615 35.6141C130.281 35.252 129.805 34.2904 129.805 33.9785C129.805 33.9192 132.116 33.8844 136.055 33.8844C140.493 33.8844 142.324 33.8533 142.371 33.777C142.408 33.7179 142.46 33.1093 142.488 32.4246C142.551 30.8788 142.375 29.9753 141.794 28.8506C140.861 27.0442 138.745 25.6794 136.187 25.2333C135.164 25.055 133.006 25.0567 131.858 25.2367ZM92.76 25.4373C91.1194 25.5706 88.2346 25.8698 88.1907 25.9112C88.1667 25.9339 87.2863 39.51 87.2863 39.8586C87.2863 40.0343 87.4126 40.0423 90.1697 40.0423C92.4072 40.0423 93.0549 40.015 93.061 39.9201C93.0653 39.853 93.2303 37.2688 93.4275 34.1777L93.7863 28.5574L95.1058 28.4343C97.4834 28.2126 98.7804 28.4267 99.2165 29.1128C99.4132 29.4221 99.4202 29.5229 99.3684 31.2942C99.3385 32.3157 99.228 34.3829 99.1227 35.8882C99.0175 37.3935 98.9122 38.9446 98.8887 39.3352L98.846 40.0452L101.741 40.0194L104.636 39.9935L104.701 38.9183C104.737 38.3269 104.888 35.9777 105.036 33.6979C105.333 29.1359 105.317 28.6139 104.855 27.6041C104.417 26.647 103.417 25.8837 102.218 25.5897C100.96 25.2815 95.7169 25.197 92.76 25.4373ZM42.7149 25.4051C42.7148 25.4185 42.4728 28.572 42.1773 32.4125C41.8816 36.2532 41.6398 39.519 41.6398 39.67V39.9446H44.7109H47.7821L47.8428 39.3337C47.9367 38.3876 48.8727 25.9526 48.8728 25.6495V25.3807H45.7939C44.1005 25.3807 42.7149 25.3918 42.7149 25.4051ZM78.4229 28.0164C79.1887 28.1418 79.9413 28.5007 80.3751 28.9474C80.7717 29.3559 81.1284 30.191 81.1284 30.7115V31.0499H77.463C75.1798 31.0499 73.7976 31.0144 73.7976 30.9558C73.7976 30.5866 74.2725 29.6996 74.7415 29.1931C75.6777 28.182 76.9502 27.7751 78.4229 28.0164ZM135.436 28.1829C136.51 28.5434 137.165 29.2754 137.389 30.3629C137.45 30.6602 137.481 30.9362 137.459 30.9766C137.396 31.0883 130.098 31.0678 130.098 30.9558C130.098 30.5904 130.573 29.7 131.032 29.2041C132.081 28.0709 133.869 27.6565 135.436 28.1829Z" fill="black"/>
</svg>
