<svg width="160" height="60" viewBox="0 0 160 60" fill="none" xmlns="http://www.w3.org/2000/svg">
<path d="M13.4316 15C9.05427 15.062 6.35666 16.8372 7.13262 21.2808L11.3776 41.4048C11.9481 44.1286 13.6461 45.4381 16.9919 45.3783" fill="black"/>
<path d="M12.3342 17.6915C10.6476 17.6787 9.94924 18.6123 10.2802 19.8706L16.7161 38.0719C17.3368 39.4541 18.0375 40.11 19.5917 40.1228" fill="black"/>
<path d="M142.013 45.3783C145.345 45.436 147.043 44.1286 147.627 41.4048L151.872 21.2808C152.632 16.8372 149.937 15.062 145.573 15H13.4316C9.05427 15.062 6.35666 16.8372 7.13262 21.2808L11.3776 41.4048C11.9481 44.1286 13.6461 45.4381 16.9919 45.3783H142.013V45.3783Z" fill="black"/>
<path d="M46.5677 43.4554C46.3053 44.1796 45.632 44.671 44.3768 44.609C42.6354 44.671 41.9279 43.6733 41.912 42.8145C41.9279 41.8596 42.6879 40.9773 44.3768 41.02C45.632 40.9752 46.3395 41.4623 46.5677 42.1736H45.8831C45.6662 41.7442 45.292 41.3512 44.3768 41.4046C43.0987 41.3533 42.7495 42.2014 42.7336 42.8145C42.743 43.1304 42.8372 43.4389 43.0074 43.7118C43.2745 44.0386 43.7355 44.2929 44.3768 44.3527C45.2828 44.295 45.7119 43.8806 45.8831 43.4554H46.5677ZM49.3064 42.8145C49.3566 41.9557 50.0915 40.9773 51.7712 41.02C53.508 40.9752 54.2863 41.8981 54.236 42.8145C54.2863 43.6605 53.5354 44.671 51.7712 44.609C50.1098 44.671 49.3589 43.7502 49.3064 42.8145ZM60.6719 44.609L59.5765 43.0709H57.9333V44.609H57.2486V41.02H59.4395C59.9279 41.0286 60.3981 41.0649 60.8089 41.2764C60.9835 41.3395 61.138 41.4432 61.2578 41.5778C61.3776 41.7124 61.4587 41.8733 61.4936 42.0455C61.4388 42.4578 61.0189 42.8402 60.2611 42.9427L61.4936 44.609H60.6719ZM64.9169 44.609V41.02H66.9709C67.4319 41.0286 67.9477 41.0649 68.3403 41.2764C68.507 41.3507 68.6545 41.4579 68.7727 41.5907C68.8909 41.7234 68.9769 41.8786 69.0249 42.0455C69.0063 42.2054 68.9468 42.3588 68.8515 42.4927C68.7561 42.6265 68.6278 42.7369 68.4772 42.8145C68.0459 43.1008 67.5461 43.1585 66.9709 43.1991H65.6016V44.609H64.9169ZM71.7636 42.8145C71.7203 41.9557 72.4551 40.9773 74.2284 41.02C75.8694 40.9752 76.6476 41.8981 76.6933 42.8145C76.6476 43.6605 75.8968 44.671 74.2284 44.609C72.4711 44.671 71.7203 43.7502 71.7636 42.8145ZM83.403 44.609L82.3076 43.0709H80.6643V44.609H79.8427V41.02H82.1706C82.6408 41.0286 83.1132 41.0649 83.54 41.2764C83.9165 41.4323 84.1516 41.7293 84.0877 42.0455C84.1516 42.4578 83.734 42.8402 82.9922 42.9427L84.2246 44.609H83.403ZM90.9344 44.609L90.2497 43.5836H88.0588L87.5111 44.609H86.9633L88.8804 41.02H89.702L91.6191 44.609H90.9344ZM95.1794 44.609V41.4046H93.5362V41.02H97.6442V41.4046H96.001V44.609H95.1794ZM100.931 41.02H101.615V44.609H100.931V41.02ZM104.765 42.8145C104.813 41.9557 105.548 40.9773 107.23 41.02C108.964 40.9752 109.742 41.8981 109.694 42.8145C109.742 43.6605 108.989 44.671 107.23 44.609C105.566 44.671 104.813 43.7502 104.765 42.8145ZM116.678 44.609L113.665 41.5328V44.609H112.981V41.02H113.939L116.815 43.9681V41.02H117.363V44.609H116.678ZM139.409 40.1228C140.95 40.11 141.648 39.4563 142.285 38.0719L148.721 19.8706C149.038 18.6123 148.337 17.6787 146.667 17.6915H12.3342C10.6476 17.6787 9.94924 18.6123 10.2802 19.8706L16.7161 38.0719C17.3368 39.4541 18.0375 40.11 19.5917 40.1228H139.409Z" fill="white"/>
<path d="M53.5525 42.8057C53.5149 42.4359 53.3731 42.0821 53.1417 41.7803C52.9779 41.637 52.783 41.5285 52.5704 41.4621C52.3577 41.3958 52.1322 41.3731 51.9093 41.3958C50.5126 41.3402 50.1451 42.2033 50.1292 42.8057C50.1451 43.4637 50.5651 44.2969 51.7724 44.3439C53.1166 44.2969 53.5 43.4167 53.5525 42.8057ZM59.3038 42.6776C59.7534 42.6882 60.0843 42.6733 60.3992 42.5494C60.5932 42.3657 60.6891 42.1926 60.6731 42.0367C60.6891 41.8124 60.5567 41.6372 60.2623 41.524C60.0067 41.4129 59.7534 41.4065 59.4407 41.3958H57.9344V42.6776H59.3038V42.6776ZM66.9721 42.8057C67.2848 42.778 67.5997 42.7587 67.9306 42.5494C68.0972 42.4639 68.2113 42.2823 68.2045 42.0367C68.2113 41.885 68.0813 41.6692 67.7937 41.524C67.5338 41.4233 67.2528 41.3794 66.9721 41.3958H65.6027V42.8057H66.9721V42.8057ZM75.8728 42.8057C75.8736 42.4285 75.7276 42.064 75.462 41.7803C75.3026 41.631 75.1083 41.5185 74.8943 41.4518C74.6804 41.385 74.4528 41.3659 74.2296 41.3958C72.874 41.3402 72.5088 42.2033 72.4495 42.8057C72.5065 43.4637 72.9264 44.2969 74.2296 44.3439C75.478 44.2969 75.8637 43.4167 75.8728 42.8057ZM82.0349 42.6776C82.4662 42.6882 82.7994 42.6733 83.1303 42.5494C83.3061 42.3657 83.4019 42.1926 83.4042 42.0367C83.4019 41.8124 83.2696 41.6372 82.9934 41.524C82.7195 41.4129 82.4685 41.4065 82.1718 41.3958H80.6655V42.6776H82.0349V42.6776ZM89.1554 41.524L88.3338 43.1903H90.114L89.1554 41.524ZM109.011 42.8057C108.971 42.4364 108.83 42.083 108.6 41.7803C108.436 41.6371 108.241 41.5287 108.029 41.4623C107.816 41.396 107.591 41.3733 107.368 41.3958C105.969 41.3402 105.601 42.2033 105.588 42.8057C105.601 43.4637 106.021 44.2969 107.231 44.3439C108.573 44.2969 108.956 43.4167 109.011 42.8057ZM23.29 21.6563H27.9458V26.1425H34.3817V21.6563H38.9006V34.7305H34.3817V29.347H27.9458V34.7305H23.29V21.6563ZM51.6354 21.1436C56.5765 21.2012 59.9086 24.1173 59.8515 28.1934C59.9086 32.2673 56.5765 35.1834 51.6354 35.2432C46.61 35.1855 43.2802 32.2673 43.2825 28.1934C43.2802 24.1173 46.61 21.2012 51.6354 21.1436V21.1436ZM64.3703 21.6563H73.2711C77.5343 21.6605 78.8009 23.502 78.7484 24.8607C78.8009 26.2109 77.7488 27.2214 76.5575 27.8088C77.9999 28.1742 79.1296 28.9881 79.1592 31.0133C79.1296 33.6239 77.4795 34.6792 74.6404 34.7305H64.3703V21.6563V21.6563ZM88.6077 21.6563H93.5373L99.6994 34.7305H95.0436L94.0851 32.2951H88.06L86.9645 34.7305H82.4457L88.6077 21.6563ZM104.081 21.6563H113.393C116.316 21.6605 118.795 22.8099 118.733 25.3734C118.795 26.7151 118.017 28.1742 116.405 28.7061C117.718 29.1077 118.434 29.6803 118.459 32.0387C118.519 32.6625 118.786 34.2605 119.692 34.7305H114.899C114.342 34.2135 114.091 33.9315 114.077 32.8078C114.077 31.5324 113.559 29.7913 111.613 29.7315H108.737V34.7305H104.081V21.6563ZM128.456 24.6044H123.663V21.6563H137.904V24.6044H133.111V34.7305H128.456V24.6044Z" fill="black"/>
<path d="M69.0252 31.7864H73.1332C74.1556 31.7394 74.676 31.451 74.6395 30.3764C74.676 29.6373 74.1008 29.3937 72.8593 29.3531H69.0252V31.7864ZM69.0252 26.5311H72.5854C73.7083 26.5802 74.3747 26.4777 74.3656 25.6338C74.3724 24.9438 73.6832 24.5849 72.5854 24.6084H69.0252V26.5311ZM112.981 27.0438C113.339 27.0296 113.679 26.89 113.933 26.6526C114.186 26.4153 114.335 26.0974 114.35 25.762C114.33 25.4397 114.175 25.1378 113.919 24.9218C113.663 24.7058 113.326 24.5932 112.981 24.6084H108.736V27.0438H112.981ZM92.9886 29.7355L91.0716 24.9929L89.0175 29.7355H92.9886ZM51.6345 32.2991C52.9696 32.3589 55.0853 31.5728 55.0579 28.1974C55.0853 24.822 52.9696 24.038 51.6345 24.0957C50.215 24.038 48.0993 24.8242 48.0742 28.1974C48.0993 31.5728 50.215 32.3589 51.6345 32.2991Z" fill="white"/>
</svg>
