<svg width="160" height="60" viewBox="0 0 160 60" fill="none" xmlns="http://www.w3.org/2000/svg">
<path d="M56.6338 30.28C56.6338 35.1613 59.1626 37.6425 64.1309 37.6425C69.0991 37.6425 71.61 35.1662 71.61 30.28C71.61 25.3937 69.1016 22.8978 64.1309 22.8978C59.1601 22.8978 56.6338 25.3814 56.6338 30.28ZM60.2903 30.28C60.2903 27.0601 61.3514 25.7668 64.1257 25.7668C66.9001 25.7668 67.9612 27.0159 67.9612 30.28C67.9612 33.4999 66.8822 34.803 64.1257 34.803C61.3693 34.803 60.2903 33.544 60.2903 30.28Z" fill="#1D1D1B"/>
<path d="M27.172 17H9.04559C8.50527 17 7.9869 17.2052 7.60364 17.5707C7.22038 17.9363 7.00338 18.4325 7 18.9511V36.3512C7.00606 36.868 7.22425 37.3618 7.60721 37.7252C7.99018 38.0886 8.50703 38.2924 9.04559 38.2924H27.172C27.7076 38.2905 28.2206 38.0852 28.5991 37.7215C28.9775 37.3578 29.1907 36.8652 29.1921 36.3512V18.9511C29.1927 18.4355 28.9805 17.9407 28.6019 17.5751C28.2233 17.2094 27.7092 17.0026 27.172 17ZM18.1101 25.9676C17.4527 25.9676 16.81 25.7804 16.2633 25.4299C15.7167 25.0793 15.2906 24.581 15.039 23.9981C14.7875 23.4151 14.7216 22.7736 14.8499 22.1547C14.9781 21.5358 15.2947 20.9673 15.7596 20.5211C16.2245 20.075 16.8168 19.7711 17.4616 19.648C18.1064 19.5249 18.7748 19.5881 19.3822 19.8296C19.9896 20.071 20.5087 20.48 20.874 21.0046C21.2392 21.5293 21.4342 22.1461 21.4342 22.7771C21.4342 23.6233 21.084 24.4348 20.4606 25.0331C19.8372 25.6314 18.9917 25.9676 18.1101 25.9676Z" fill="#1D1D1B"/>
<path d="M101.897 30.28C101.897 35.1613 104.426 37.6425 109.412 37.6425C114.399 37.6425 116.874 35.1662 116.874 30.28C116.874 25.3937 114.365 22.8978 109.412 22.8978C104.46 22.8978 101.897 25.3814 101.897 30.28ZM105.554 30.28C105.554 27.0601 106.633 25.7668 109.389 25.7668C112.202 25.7668 113.225 27.0159 113.225 30.28C113.225 33.4999 112.161 34.803 109.389 34.803C106.618 34.803 105.554 33.544 105.554 30.28Z" fill="#1D1D1B"/>
<path d="M143.691 19.8506V33.2258C143.691 35.9475 145.41 37.3979 148.626 37.3979H151.797C152.59 37.3979 152.96 36.7058 152.96 36.0334C152.96 35.3609 152.59 34.6762 151.797 34.6762H149.961C148.294 34.6762 147.417 34.5805 147.417 32.6834V26.202H151.529C152.337 26.202 152.689 25.5099 152.689 24.8374C152.689 24.165 152.334 23.4778 151.526 23.4778H147.414V19.8506C147.414 18.9327 146.742 18.3781 145.612 18.3781C144.719 18.3781 143.691 18.7634 143.691 19.8506Z" fill="#1D1D1B"/>
<path d="M74.3906 19.8506V33.2258C74.3906 35.9475 76.0936 37.3979 79.3282 37.3979H82.4758C83.2864 37.3979 83.6392 36.7058 83.6392 36.0334C83.6392 35.3609 83.2864 34.6762 82.4758 34.6762H80.6399C78.9727 34.6762 78.0829 34.5805 78.0829 32.6834V26.202H82.2124C83.0025 26.202 83.3733 25.5099 83.3733 24.8374C83.3733 24.165 83.0153 23.4778 82.2252 23.4778H78.0957V19.8506C78.0957 18.9327 77.4232 18.3781 76.3058 18.3781C75.4288 18.3781 74.4008 18.7634 74.4008 19.8506" fill="#1D1D1B"/>
<path d="M132.742 23.1948C128.479 23.1948 126.661 24.8219 126.661 28.643V35.8877C126.661 36.7884 127.352 37.3308 128.512 37.3308C129.673 37.3308 130.366 36.7884 130.366 35.8877V28.9056C130.366 26.8588 130.737 26.2208 133.046 26.2208H134.153C136.454 26.2208 136.83 26.8588 136.83 28.9056V35.8877C136.83 36.7884 137.521 37.3308 138.702 37.3308C139.883 37.3308 140.553 36.7884 140.553 35.8877V28.6332C140.553 24.8121 138.735 23.1849 134.455 23.1849H132.754" fill="#1D1D1B"/>
<path d="M119.653 24.7331V35.8162C119.653 36.9549 120.63 37.3574 121.522 37.3574C122.415 37.3574 123.41 36.9549 123.41 35.8162V24.7331C123.41 23.6042 122.433 23.1943 121.522 23.1943C120.612 23.1943 119.653 23.6042 119.653 24.7331Z" fill="#1D1D1B"/>
<path d="M119.417 19.3266C119.422 19.7256 119.55 20.1142 119.785 20.4436C120.019 20.7729 120.35 21.0283 120.736 21.1775C121.121 21.3267 121.544 21.3632 121.951 21.2822C122.358 21.2012 122.731 21.0065 123.023 20.7224C123.316 20.4384 123.513 20.0779 123.592 19.6861C123.671 19.2944 123.628 18.8889 123.467 18.5209C123.307 18.1528 123.036 17.8386 122.69 17.6178C122.344 17.3969 121.937 17.2793 121.521 17.2798C120.96 17.2862 120.425 17.5048 120.031 17.888C119.637 18.2713 119.416 18.7882 119.417 19.3266Z" fill="#1D1D1B"/>
<path d="M87.9333 23.6134C86.5014 23.9177 85.6934 24.7938 85.6934 26.313V41.6393C85.6934 42.724 86.6522 43.1118 87.5446 43.1118C88.437 43.1118 89.4163 42.7265 89.4163 41.6393V37.1899C90.2952 37.3758 91.1936 37.4639 92.0935 37.4525C94.3692 37.4525 95.548 37.0843 96.8444 36.3505C98.7647 35.2584 99.8897 33.192 99.8897 30.4458C99.8897 25.6503 97.3327 23.2183 92.2929 23.2183C90.8338 23.21 89.3776 23.3424 87.9461 23.6134H87.9333ZM89.4291 34.4265V26.3768C90.2877 26.2055 91.1629 26.1232 92.0398 26.1314C94.988 26.1314 96.1668 27.1817 96.1668 30.1636C96.1668 33.4963 95.1721 34.6523 91.9887 34.6523C91.1294 34.6623 90.2718 34.58 89.4317 34.4068" fill="#1D1D1B"/>
<path d="M50.1502 19.4405V25.9343H42.1826V19.4405C42.1826 18.5153 41.5076 17.968 40.3799 17.968C39.5029 17.968 38.4775 18.3533 38.4775 19.4405V35.8712C38.4775 36.7891 39.15 37.3437 40.2802 37.3437C41.1547 37.3437 42.1826 36.9609 42.1826 35.8712V29.1787H50.1502V35.8712C50.1502 36.7891 50.8406 37.3437 51.9707 37.3437C52.8452 37.3437 53.8731 36.9609 53.8731 35.8712V19.4405C53.8731 18.5153 53.1981 17.968 52.0832 17.968C51.2062 17.968 50.1629 18.3533 50.1629 19.4405" fill="#1D1D1B"/>
</svg>
