<svg width="160" height="60" viewBox="0 0 160 60" fill="none" xmlns="http://www.w3.org/2000/svg">
<rect width="160" height="60" fill="white"/>
<g clip-path="url(#clip0_2_947)">
<path fill-rule="evenodd" clip-rule="evenodd" d="M19.2949 24.4945C21.4855 30.0865 23.8492 35.7362 26.0399 41.3282C26.0975 41.5588 26.0687 41.6453 25.9534 41.6165C23.2439 40.55 20.6208 38.4746 19.3525 35.5921C17.7671 32.5943 17.7383 29.7118 18.0266 27.2617C18.113 26.5987 18.6031 25.561 19.0066 24.5522C19.1219 24.4081 19.1796 24.3216 19.2949 24.4945ZM23.9933 28.3571C23.1574 26.224 22.062 24.1775 21.2261 22.0444C20.3326 20.2861 17.9977 20.6032 17.133 22.0156C15.4612 24.581 14.6541 28.7606 15.1153 31.9313C15.6341 36.5145 18.1707 39.5411 20.6208 41.7318C24.1086 44.8737 28.6341 45.4214 31.6607 45.3349C32.3525 45.2772 33.6208 45.1619 34.5144 44.7007C34.3414 44.6431 34.2261 44.6431 34.0532 44.6431C33.909 44.6143 33.7649 44.6143 33.592 44.5854C32.929 44.4701 30.2771 44.1819 29.5565 42.5389C27.9423 38.5034 26.7317 35.4768 25.1751 31.4413L36.215 31.4125C37.1086 33.6032 38.0598 35.9092 38.8957 38.0134C39.847 40.3482 42.2394 39.8582 43.3636 38.2151C45.0354 35.6497 46.0443 31.989 45.5831 28.8183C45.2949 24.2351 42.96 20.7473 40.3946 18.4413C37.0221 15.0688 31.776 14.1752 28.6341 14.4923C27.3946 14.6364 26.847 14.867 26.2416 15.1553C26.6164 15.1553 27.1064 15.1841 27.4523 15.2418C28.317 15.2706 30.2771 16.3947 30.6807 17.4901C32.266 21.5256 33.5343 24.3216 35.1197 28.3571H23.9933V28.3571ZM41.1729 35.765C38.9822 30.2018 36.4456 24.1486 34.2838 18.5566C34.2261 18.326 34.3126 18.1819 34.4567 18.2107C37.1663 19.2772 39.9046 21.0067 41.4323 24.3792C43.0753 27.377 43.0465 30.2595 42.5853 32.652C42.4988 33.3149 41.98 34.7562 41.49 35.6786C41.3459 35.8515 41.2882 35.9668 41.1729 35.765ZM57.1707 37.1486V31.816H56.0177V37.1486H50.2527V23.1686H56.0177V27.7229H57.1419V23.1686H62.9357V37.1486H57.1707ZM70.7472 37.1486V36.0821C69.9401 36.8892 68.9312 37.4369 67.5188 37.3792C66.1929 37.3504 65.1552 36.7163 64.6651 35.8227C64.3769 35.3615 64.1175 34.5832 64.1175 33.2573V26.397H69.623V34.0932H70.7472V26.397H76.1951V37.1486H70.7472ZM87.1197 36.7451C85.7649 37.4081 84.2949 37.4945 83.113 37.4945C78.2128 37.4945 77.031 35.2174 77.031 31.7872C77.031 27.9247 78.7028 26.0511 83.3148 26.0511C86.082 26.0511 87.725 26.7429 88.6186 28.2129C88.9933 28.8183 89.2816 29.6253 89.2816 31.5566V32.3637H82.5654V34.8426H83.7184V33.4591H89.2816C89.3392 34.8138 88.388 36.1109 87.1197 36.7451ZM83.8048 28.4147H82.6518V30.4613H83.8048V28.4147ZM101.1 36.4857C100.379 37.1775 99.572 37.3792 98.6496 37.3792C97.2372 37.3792 96.286 36.8316 95.6807 36.1398V37.1486H90.2328V23.1398H95.6807V27.2041C96.3436 26.5411 97.2372 26.1375 98.592 26.1375C99.8891 26.1375 100.783 26.6276 101.388 27.4923C102.137 28.5012 102.282 29.9424 102.282 31.9602C102.224 33.7473 102.08 35.4768 101.1 36.4857ZM96.776 29.4812H95.6518V34.1508H96.776V29.4812ZM108.652 37.4657C105.596 37.4657 102.8 36.7163 102.8 33.7473H108.162V34.8715H109.286V33.632C107.902 33.3149 106 32.9402 105.02 32.5367C103.694 32.0178 103.031 31.0666 103.06 29.6253C103.117 27.3194 104.703 25.9934 108.565 25.9934C111.967 25.9934 114.244 26.8293 114.244 29.683H109.315V28.6165H108.219V29.9136C109.2 30.1442 111.188 30.4036 112.572 30.8648C113.667 31.2684 114.503 32.1908 114.503 33.632C114.474 36.2262 112.774 37.4657 108.652 37.4657ZM127.215 32.2484C127.215 32.5655 127.215 32.7673 127.186 33.0267C127.042 35.5633 125.687 37.4657 121.277 37.4657C116.579 37.4945 115.166 35.5633 115.166 31.7872C115.166 28.04 116.521 26.0222 121.277 26.0222C125.313 26.0222 127.071 27.6653 127.215 30.3171V31.0954H121.854V28.5588H120.729V34.8715H121.854V32.2484H127.215V32.2484ZM134.681 37.1486V29.5965H133.528V37.1775H128.109V23.1686H133.528V27.377C133.845 27.0599 134.825 26.1952 136.612 26.1952C137.938 26.1952 138.803 26.6564 139.408 27.4635C139.898 28.1553 140.157 28.9912 140.157 30.3171V37.1775L134.681 37.1486ZM141.253 35.448C141.253 34.4679 142.06 33.7473 142.982 33.7473C143.905 33.7473 144.712 34.4679 144.712 35.448C144.712 36.4568 143.905 37.1486 142.982 37.1486C142.031 37.1486 141.253 36.428 141.253 35.448ZM142.982 36.8604C143.76 36.8604 144.366 36.2551 144.366 35.448C144.366 34.6409 143.76 34.0355 142.982 34.0355C142.204 34.0355 141.599 34.6409 141.599 35.448C141.57 36.2551 142.204 36.8604 142.982 36.8604ZM142.607 36.428H142.319V34.4679H143.069C143.53 34.4679 143.76 34.6409 143.76 35.0156C143.76 35.3615 143.53 35.5056 143.242 35.5633L143.789 36.428H143.472L142.953 35.5921H142.607V36.428V36.428ZM142.982 35.3038C143.242 35.3038 143.443 35.275 143.443 34.9868C143.443 34.7562 143.213 34.6985 143.011 34.6985H142.607V35.3038H142.982Z" fill="#80B539"/>
</g>
<defs>
<clipPath id="clip0_2_947">
<rect width="130" height="31.1308" fill="white" transform="translate(15 14.4347)"/>
</clipPath>
</defs>
</svg>
