<svg width="160" height="60" viewBox="0 0 160 60" fill="none" xmlns="http://www.w3.org/2000/svg">
<path d="M34.7324 34.5198L43.5079 8H51.6755L42.9001 34.5198H34.7324Z" fill="#005D9C"/>
<path d="M131.061 17.0298C130.948 16.9343 130.781 16.9416 130.676 17.0434C130.571 17.1466 130.564 17.312 130.659 17.4244C132.808 19.9514 133.898 22.5957 133.898 25.2774C133.898 38.4553 107.84 49.177 75.8108 49.177C53.6764 49.177 33.1286 43.8558 23.4688 35.6203C23.3564 35.5255 23.1877 35.5307 23.0838 35.6339C22.9786 35.7384 22.9714 35.9032 23.068 36.0156C31.3311 45.7319 53.544 52.2588 78.3462 52.2588C102.057 52.2588 123.289 46.3858 132.442 37.2993C135.466 34.2954 137 31.0969 137 27.7983C137 24.0128 135.003 20.3872 131.061 17.0298Z" fill="#005D9C"/>
<path d="M111.548 27.0131C111.003 28.1233 112.22 28.4005 112.22 28.4005C113.251 28.4005 113.49 27.7987 113.542 26.3674C113.585 25.2357 113.48 24.1955 113.48 24.1955C113.48 24.1955 113.333 23.6867 113.081 24.2407C112.829 24.7958 111.548 27.0131 111.548 27.0131ZM94.5002 26.1827C94.078 27.4306 94.078 28.4241 94.8571 28.4241C95.8859 28.4241 96.2638 27.4767 96.2638 27.4767L99.9593 16.3184H107.498L104.199 26.2748C103.843 27.3603 103.758 28.4007 104.452 28.4243C105.314 28.4526 106.112 27.6852 106.112 27.6852C109.365 24.4729 112.575 16.3185 112.575 16.3185H121.712C120.935 18.7889 120.955 22.0933 120.955 22.0933C120.955 24.7273 121.48 24.7512 121.502 27.2698C121.551 33.0906 118.562 35.262 113.102 35.262C107.643 35.262 106.447 32.7208 106.447 32.7208C104.978 35.6073 99.6019 35.262 99.6019 35.262C95.3614 35.262 94.8359 33.02 94.8359 33.02C92.7569 35.5617 89.2085 35.262 89.2085 35.262C83.6432 35.262 85.6613 30.0862 85.6613 30.0862L92.5881 9.10986H100.127L94.5002 26.1827Z" fill="#005D9C"/>
<path d="M105.431 15.4601C107.899 14.9864 109.899 13.1577 109.899 11.3791C109.899 9.59774 107.899 8.53667 105.431 9.01275C102.965 9.4871 100.965 11.3143 100.965 13.0957C100.965 14.8774 102.965 15.9355 105.431 15.4601Z" fill="#005D9C"/>
<path d="M81.1056 16.3146C80.7178 18.1913 80.4502 18.1371 80.4502 18.1371C79.9522 18.3546 79.7352 17.5403 79.7352 17.5403C79.334 16.2682 77.1996 16.3146 77.1996 16.3146C77.1635 16.3146 72.131 15.8864 69.5156 19.6415C67.5846 22.4124 66.8794 24.8881 66.7016 25.4157C66.4088 26.2949 66.2546 26.615 65.6533 26.6169C65.2691 26.6188 65.2325 26.0171 65.401 25.2321L66.9538 20.5196C66.9538 20.5196 68.7175 16.3146 63.847 16.3146C63.847 16.3146 60.1925 16.0602 58.0517 18.0694C58.0517 18.0694 57.3394 18.7162 57.1263 18.2089C57.1263 18.2089 56.9596 18.0694 57.5264 16.3148H50.7448L44.7188 34.5177H52.2564L55.2599 25.44C55.2599 25.44 55.9527 22.7832 57.6322 22.7832C57.6322 22.7832 58.3871 22.9675 58.1774 23.708L56.5389 28.6982C56.5389 28.6982 54.1047 35.2582 59.9837 35.2582C59.9837 35.2582 62.7129 35.5354 65.7778 32.6697C65.7778 32.6697 66.6783 35.3556 70.3328 35.3556C70.3328 35.3556 73.2291 35.607 74.7387 34.0122C74.7387 34.0122 75.025 33.7811 75.2903 33.9033C75.4634 33.9789 75.3072 34.2934 75.1817 34.4492C73.9819 35.937 72.2527 36.7327 70.8489 36.7327C69.713 36.7327 66.6448 36.8246 65.3098 35.5082L62.6186 41.1118L63.3963 41.3922C65.6494 42.2693 67.7866 42.7075 70.3719 42.7075C76.2027 42.7075 81.1353 39.4843 83.2175 33.039L88.8561 16.315L81.1056 16.3146ZM77.539 25.9486C76.6411 27.5443 75.2257 28.3646 74.3786 27.776C73.5316 27.1856 73.5721 25.4151 74.4714 23.8169C75.3693 22.2231 76.7849 21.4042 77.6318 21.9928C78.4788 22.5809 78.4384 24.3529 77.539 25.9486Z" fill="#005D9C"/>
<path d="M44.3242 42.0854L46.0534 37.2119H47.2055L46.5416 39.081H47.3389L48.0042 37.2119H49.157L47.4264 42.0854H46.2763L46.9952 40.0574H46.1959L45.4765 42.0854H44.3242Z" fill="#005D9C"/>
<path d="M51.1927 38.6296C51.2998 38.3285 51.3991 37.9719 51.0201 37.9719C50.6542 37.9719 50.4817 38.3281 50.3745 38.6296L49.6647 40.631C49.5654 40.9091 49.464 41.3264 49.8372 41.3264C50.2105 41.3264 50.3836 40.9091 50.4829 40.631L51.1927 38.6296ZM51.6684 40.5324C51.2802 41.6323 50.6909 42.2039 49.5242 42.2039C48.3615 42.2039 48.1578 41.6323 48.5485 40.5324L49.2516 38.55C49.5808 37.6149 50.3286 37.095 51.3376 37.095C52.3466 37.095 52.7048 37.6147 52.3721 38.55L51.6684 40.5324Z" fill="#005D9C"/>
<path d="M51.7236 42.0854L53.4515 37.2119H55.0762L54.65 40.0892H54.6631L56.3002 37.2119H57.9105L56.182 42.0854H55.0814L56.557 38.2632H56.5419L54.3749 42.0854H53.5155L54.0815 38.2632H54.067L52.8169 42.0854H51.7236Z" fill="#005D9C"/>
<path d="M56.8311 42.0854L58.5614 37.2119H61.2017L60.8553 38.1853H59.3694L59.0503 39.081H60.49L60.1457 40.0574H58.7047L58.3309 41.1101H59.8947L59.551 42.0854H56.8311Z" fill="#005D9C"/>
<path d="M84.7876 38.0921H84.7757L83.6645 40.2768H84.3338L84.7876 38.0921ZM81.6035 42.0854L84.4057 37.2119H85.7951L85.1337 42.0854H83.9664L84.1383 41.1367H83.2385L82.7627 42.0854H81.6035Z" fill="#005D9C"/>
<path d="M87.5717 39.3086C87.7927 39.3015 88.0313 39.3306 88.2665 39.1865C88.4286 39.0553 88.5254 38.8595 88.5846 38.6907C88.6528 38.5033 88.7334 38.2161 88.5701 38.1269C88.4709 38.0881 88.3157 38.0881 88.1306 38.0881H88.0068L87.5717 39.3086ZM85.4375 42.0854L87.1661 37.2119H88.5335C88.9794 37.2119 89.6071 37.2479 89.8005 37.6131C89.9626 37.9123 89.8853 38.2772 89.7444 38.6721C89.5579 39.1978 89.2242 39.7902 88.6145 40.0299C88.1458 40.2255 87.7003 40.1675 87.2629 40.188L86.5905 42.0854H85.4375Z" fill="#005D9C"/>
<path d="M91.1088 39.3086C91.3284 39.3015 91.5661 39.3306 91.8001 39.1865C91.9636 39.0553 92.059 38.8595 92.1176 38.6907C92.1857 38.5033 92.2691 38.2161 92.1018 38.1269C92.0064 38.0881 91.8485 38.0881 91.6652 38.0881H91.5408L91.1088 39.3086ZM88.9697 42.0854L90.7005 37.2119H92.0684C92.5141 37.2119 93.1428 37.2479 93.3323 37.6131C93.496 37.9123 93.4192 38.2772 93.2783 38.6721C93.0919 39.1978 92.7582 39.7902 92.1492 40.0299C91.6792 40.2255 91.2349 40.1675 90.7969 40.188L90.1239 42.0854H88.9697Z" fill="#005D9C"/>
<path d="M92.4092 42.0854L94.1397 37.2119H95.291L93.9096 41.1101H95.3159L94.9716 42.0854H92.4092Z" fill="#005D9C"/>
<path d="M95.3086 42.0854L97.0384 37.2119H98.1918L96.4626 42.0854H95.3086Z" fill="#005D9C"/>
<path d="M100.065 38.0921H100.052L98.9438 40.2768H99.611L100.065 38.0921ZM96.8838 42.0854L99.6868 37.2119H101.073L100.41 42.0854H99.2453L99.4179 41.1367H98.513L98.0406 42.0854H96.8838Z" fill="#005D9C"/>
<path d="M102.749 39.3566L102.73 39.3679L101.871 42.0854H100.777L102.508 37.2119H103.692L103.619 39.9351H103.637L104.49 37.2119H105.585L103.857 42.0854H102.678L102.749 39.3566Z" fill="#005D9C"/>
<path d="M107.517 38.9155L107.628 38.6041C107.774 38.1872 107.699 37.9724 107.485 37.9724C107.127 37.9661 106.97 38.1613 106.86 38.4791L105.997 40.8914C105.9 41.1633 105.954 41.3265 106.255 41.3265C106.648 41.3265 106.823 40.9249 106.929 40.6252L107.087 40.182H108.238L108.026 40.781C107.728 41.6204 107.035 42.2044 105.857 42.2044C104.797 42.2044 104.584 41.6451 104.937 40.6495L105.646 38.6496C106.023 37.5893 106.691 37.0955 107.743 37.0955C108.727 37.0955 109.167 37.5116 108.814 38.5055L108.67 38.9159L107.517 38.9155Z" fill="#005D9C"/>
<path d="M108.013 42.0854L109.741 37.2119H112.381L112.034 38.1853H110.551L110.231 39.081H111.671L111.325 40.0574H109.884L109.512 41.1101H111.075L110.73 42.0854H108.013Z" fill="#005D9C"/>
<path d="M112.65 40.4561L112.528 40.7988C112.427 41.079 112.432 41.3269 112.798 41.3269C113.067 41.3269 113.27 41.0876 113.359 40.839C113.503 40.4314 113.218 40.2731 112.981 40.0915C112.698 39.8889 112.465 39.7021 112.337 39.4555C112.214 39.2071 112.196 38.9075 112.347 38.4795C112.673 37.5627 113.397 37.0955 114.287 37.0955C115.288 37.0955 115.565 37.7589 115.188 38.6743H114.125C114.214 38.3868 114.366 37.999 113.994 37.9728C113.765 37.9532 113.584 38.0832 113.478 38.2978C113.343 38.5905 113.442 38.7392 113.615 38.8956C113.949 39.1701 114.262 39.3369 114.444 39.5859C114.625 39.8309 114.667 40.1562 114.458 40.7478C114.125 41.6832 113.417 42.204 112.462 42.204C111.406 42.204 111.169 41.62 111.398 40.9762L111.579 40.4557L112.65 40.4561Z" fill="#005D9C"/>
<path d="M124.249 17.9284H124.459V17.4592H124.625C124.737 17.4592 124.815 17.4728 124.859 17.4989C124.935 17.5429 124.972 17.6338 124.972 17.7707V17.8666L124.976 17.9035C124.977 17.9085 124.979 17.9139 124.979 17.9164C124.983 17.9208 124.983 17.9248 124.983 17.9282H125.18L125.173 17.9139C125.168 17.9035 125.165 17.8834 125.164 17.8522C125.161 17.821 125.161 17.7916 125.161 17.764V17.6771C125.161 17.617 125.139 17.5552 125.096 17.4908C125.051 17.43 124.983 17.3903 124.889 17.376C124.964 17.3641 125.02 17.3448 125.062 17.3174C125.142 17.268 125.179 17.1876 125.179 17.0837C125.179 16.9346 125.118 16.8323 124.993 16.782C124.925 16.7537 124.815 16.7391 124.667 16.7391H124.249V17.9284ZM124.849 17.2881C124.807 17.3044 124.74 17.3134 124.65 17.3134H124.459V16.8831H124.638C124.757 16.8831 124.841 16.8988 124.895 16.9277C124.946 16.9556 124.972 17.0159 124.972 17.1009C124.972 17.1934 124.932 17.2535 124.849 17.2881ZM125.46 16.5733C125.247 16.3637 124.99 16.2581 124.686 16.2581C124.387 16.2581 124.131 16.3641 123.919 16.5733C123.705 16.7847 123.602 17.0393 123.602 17.3371C123.602 17.6388 123.705 17.8953 123.919 18.1047C124.129 18.3176 124.386 18.4235 124.686 18.4235C124.99 18.4235 125.247 18.3176 125.46 18.1047C125.673 17.8938 125.779 17.6361 125.779 17.3371C125.779 17.0387 125.673 16.7843 125.46 16.5733ZM125.352 16.6773C125.535 16.8603 125.626 17.0791 125.626 17.3373C125.626 17.5973 125.535 17.8195 125.352 18.0012C125.17 18.1836 124.948 18.2751 124.687 18.2751C124.428 18.2751 124.206 18.1836 124.024 18.0012C123.845 17.8195 123.752 17.5976 123.752 17.3373C123.752 17.0789 123.845 16.8603 124.025 16.6773C124.208 16.4962 124.431 16.4033 124.687 16.4033C124.948 16.4035 125.168 16.4962 125.352 16.6773Z" fill="#005D9C"/>
</svg>
