<svg width="48" height="36" viewBox="0 0 48 36" fill="none" xmlns="http://www.w3.org/2000/svg">
<g clip-path="url(#clip0_6465_56654)">
<rect width="48" height="36" rx="6" fill="white"/>
<path d="M12.7477 4.47949H35.4191C36.0205 4.47949 36.5972 4.71837 37.0224 5.14359C37.4476 5.5688 37.6865 6.14551 37.6865 6.74685V29.4186C37.6865 30.0199 37.4476 30.5966 37.0224 31.0218C36.5972 31.4469 36.0206 31.6858 35.4193 31.6858H12.7473C12.1461 31.6858 11.5695 31.447 11.1444 31.0219C10.7193 30.5967 10.4805 30.0202 10.4805 29.4189V6.74669C10.4805 6.44895 10.5391 6.15414 10.653 5.87907C10.767 5.604 10.934 5.35407 11.1445 5.14354C11.355 4.93301 11.605 4.76601 11.88 4.65207C12.1551 4.53813 12.4499 4.47949 12.7477 4.47949Z" fill="#FDB913"/>
<path d="M35.4188 4.47985C36.0201 4.48003 36.5966 4.71899 37.0217 5.14417C37.4468 5.56936 37.6856 6.14596 37.6857 6.7472V29.419C37.6856 30.0202 37.4468 30.5968 37.0217 31.022C36.5966 31.4471 36.02 31.686 35.4188 31.6862H12.747C12.4493 31.6862 12.1544 31.6276 11.8793 31.5137C11.6042 31.3998 11.3543 31.2328 11.1437 31.0223C10.9332 30.8117 10.7662 30.5618 10.6523 30.2867C10.5384 30.0116 10.4798 29.7167 10.4798 29.419V6.7472C10.4798 6.44945 10.5384 6.15459 10.6523 5.87949C10.7662 5.60439 10.9332 5.35442 11.1437 5.14387C11.3543 4.93331 11.6042 4.7663 11.8793 4.65237C12.1544 4.53843 12.4493 4.47981 12.747 4.47985H35.4188M35.4188 4H12.747C12.0187 4.00079 11.3204 4.29048 10.8054 4.80552C10.2904 5.32055 10.0007 6.01886 10 6.7472V29.419C10.0008 30.1473 10.2905 30.8455 10.8055 31.3605C11.3205 31.8755 12.0187 32.1652 12.747 32.166H35.4188C36.1471 32.1652 36.8453 31.8755 37.3602 31.3605C37.8752 30.8455 38.1648 30.1472 38.1655 29.419V6.7472C38.1648 6.0189 37.8752 5.32062 37.3603 4.80558C36.8453 4.29055 36.1471 4.00083 35.4188 4" fill="white"/>
<path d="M25.6702 18.3766L25.668 13.5056L26.9394 13.2038V13.8424C26.9394 13.8424 27.2688 13.0026 28.0331 12.8077C28.1472 12.7709 28.2687 12.7628 28.3867 12.784V14.0268C28.1578 14.0298 27.9316 14.0769 27.7205 14.1655C27.2507 14.351 27.0143 14.7559 27.0143 15.3739L27.0151 18.0636L25.6702 18.3766Z" fill="#231F20"/>
<path d="M18.9664 19.9608C18.9664 19.9608 18.7597 19.6508 18.7597 18.5549V16.1295L18.1055 16.2851V15.286L18.7612 15.1312V14.042L20.1131 13.7227V14.8118L21.0684 14.5849V15.5829L20.1131 15.8096C20.1131 15.8096 20.1116 17.7968 20.1131 18.2793C20.1131 19.4023 20.4111 19.6179 20.4111 19.6179L18.9664 19.9608Z" fill="#231F20"/>
<path d="M21.2109 17.0628C21.2109 16.1969 21.3343 15.5651 21.599 15.0803C21.914 14.5049 22.4305 14.1299 23.183 13.9586C24.6662 13.6213 25.2015 14.4992 25.1808 15.6765C25.1729 16.0975 25.1748 16.3026 25.1748 16.3026L22.5618 16.9167V16.9589C22.5618 17.7814 22.7342 18.1717 23.2554 18.0612C23.7057 17.9661 23.8309 17.6841 23.8665 17.3353C23.8723 17.2791 23.8751 17.1361 23.8751 17.1361L25.0992 16.8427C25.0992 16.8427 25.1021 16.9429 25.1003 17.0554C25.0896 17.5228 24.9537 18.6823 23.2523 19.0845C21.6407 19.4671 21.2109 18.4828 21.2109 17.0628ZM23.2373 14.866C22.8043 14.9642 22.5773 15.389 22.5674 16.0926L23.8819 15.7796C23.8841 15.7477 23.8844 15.6776 23.8841 15.5677C23.8819 15.0365 23.7177 14.7561 23.2373 14.866Z" fill="#231F20"/>
<path d="M32.9613 14.2143C32.9107 12.7308 33.2955 11.5534 34.9507 11.1784C36.0055 10.9388 36.4062 11.2132 36.609 11.4784C36.8041 11.7315 36.8794 12.0728 36.8794 12.5509L36.8806 12.6387L35.5857 12.9464C35.5857 12.9464 35.5847 12.7718 35.5847 12.7662C35.5857 12.1992 35.4281 11.9836 35.0163 12.0867C34.5266 12.2097 34.3287 12.6745 34.3287 13.5987C34.3287 13.9268 34.3302 13.9856 34.3302 14.0299C34.3302 14.969 34.4585 15.399 35.0229 15.2808C35.5124 15.1796 35.5795 14.7497 35.5874 14.3728C35.5884 14.3137 35.5908 14.1243 35.5908 14.1243L36.8838 13.8188C36.8838 13.8188 36.8851 13.9143 36.8851 14.0205C36.8818 15.252 36.2328 16.0281 35.0168 16.3111C33.3414 16.7039 33.0133 15.7358 32.9613 14.2143Z" fill="#231F20"/>
<path d="M28.4863 16.2914C28.4863 15.1629 29.1474 14.8061 30.1423 14.3944C31.037 14.0243 31.0564 13.8406 31.0601 13.519C31.0651 13.2482 30.9395 13.0166 30.4941 13.1303C30.3456 13.1602 30.2115 13.2394 30.1137 13.3551C30.0158 13.4707 29.9599 13.6161 29.955 13.7675C29.9477 13.8507 29.9449 13.9341 29.9466 14.0176L28.6921 14.3138C28.6836 14.0638 28.7128 13.8139 28.7787 13.5726C28.9793 12.8979 29.5743 12.4439 30.6016 12.2061C31.9363 11.8986 32.3812 12.4843 32.3828 13.3953V15.5528C32.3828 16.5962 32.5764 16.7491 32.5764 16.7491L31.3449 17.0405C31.277 16.8982 31.2217 16.7501 31.1799 16.5981C31.1799 16.5981 30.9101 17.2776 29.9802 17.4961C29.0035 17.7264 28.4863 17.1211 28.4863 16.2914ZM31.0515 14.7505C30.844 14.896 30.6248 15.0244 30.3963 15.1342C29.9858 15.3347 29.8003 15.5822 29.8003 15.9633C29.8003 16.2933 30.0047 16.51 30.3763 16.4182C30.7749 16.3177 31.0515 15.9458 31.0515 15.4291V14.7505Z" fill="#231F20"/>
<path d="M11.898 23.375C11.7574 23.3748 11.6195 23.3368 11.4988 23.2648C11.378 23.1929 11.2789 23.0897 11.2119 22.9662C11.1448 22.8426 11.1123 22.7033 11.1178 22.5628C11.1232 22.4224 11.1665 22.286 11.2429 22.1681L11.2517 22.1567L11.2664 22.1529L13.1053 21.7188V23.1153L13.0767 23.1219C12.6595 23.2223 12.1609 23.3366 12.0583 23.3584C12.0056 23.3695 11.9518 23.3751 11.898 23.375Z" fill="#231F20"/>
<path d="M11.898 25.162C11.691 25.162 11.4926 25.0799 11.3462 24.9337C11.1998 24.7875 11.1174 24.5891 11.1172 24.3822C11.1168 24.2314 11.1605 24.0838 11.2429 23.9576L11.2517 23.9445L11.2664 23.9408L13.1053 23.5068V24.9034L13.0767 24.9108C12.6595 25.0109 12.1609 25.1264 12.0583 25.1469C12.0055 25.1572 11.9518 25.1622 11.898 25.162Z" fill="#231F20"/>
<path d="M11.898 26.9518C11.691 26.9517 11.4925 26.8695 11.3461 26.7231C11.1997 26.5768 11.1174 26.3784 11.1172 26.1714C11.1166 26.0206 11.1603 25.873 11.2429 25.7468L11.2517 25.7328L13.1053 25.2959V26.6925L13.0767 26.6999C12.6361 26.8059 12.1469 26.9165 12.0583 26.936C12.0055 26.9466 11.9518 26.9519 11.898 26.9518Z" fill="#231F20"/>
<path d="M11.6821 21.6635L11.6816 13.8493L13.1063 13.5127V21.3267L11.6821 21.6635Z" fill="#231F20"/>
<path d="M15.2306 20.9991C15.2306 20.766 15.138 20.5424 14.9731 20.3776C14.8083 20.2127 14.5847 20.1201 14.3516 20.1201C14.1185 20.1201 13.8949 20.2127 13.7301 20.3776C13.5653 20.5424 13.4727 20.766 13.4727 20.9991L13.4741 28.3025C13.4749 28.9332 13.7257 29.5379 14.1715 29.984C14.6173 30.4301 15.2218 30.6813 15.8525 30.6825C16.5179 30.6825 18.3406 30.6793 18.3406 30.6793L18.3414 27.6324C18.3419 25.9677 18.3422 24.2733 18.3422 24.2347C18.3425 24.0453 18.2959 23.8588 18.2067 23.6916C18.1176 23.5245 17.9885 23.382 17.831 23.2768L15.6135 21.7707C15.6135 21.7707 15.613 25.0405 15.613 25.1908C15.613 25.241 15.5931 25.2891 15.5576 25.3245C15.5221 25.36 15.474 25.3799 15.4239 25.3799C15.3737 25.3799 15.3256 25.36 15.2902 25.3245C15.2547 25.2891 15.2348 25.241 15.2348 25.1908C15.2348 25.1541 15.2306 21.4508 15.2306 20.9991Z" fill="#231F20"/>
<path d="M16.4161 15.5501C16.1466 15.6126 15.8938 15.7326 15.675 15.9018C15.4561 16.071 15.2764 16.2854 15.148 16.5305V15.9813L13.8652 16.2848L13.8667 19.7919C14.0917 19.703 14.3369 19.6779 14.5753 19.7196C14.8137 19.7613 15.0359 19.868 15.2173 20.0281V17.7636C15.2173 17.2212 15.4872 16.7879 15.8729 16.7029C16.163 16.6392 16.4052 16.743 16.4052 17.2597L16.4062 20.5635L17.7573 20.2467V16.7517C17.7573 15.9044 17.431 15.312 16.4161 15.5501Z" fill="#231F20"/>
<path d="M36.0488 10.5492C35.8836 10.5494 35.722 10.5005 35.5846 10.4088C35.4471 10.3171 35.3399 10.1867 35.2766 10.0341C35.2133 9.88147 35.1967 9.71351 35.2289 9.55144C35.2611 9.38937 35.3406 9.24049 35.4574 9.12364C35.5742 9.00678 35.7231 8.9272 35.8851 8.89496C36.0472 8.86272 36.2151 8.87927 36.3678 8.94253C36.5204 9.00578 36.6509 9.11289 36.7426 9.2503C36.8344 9.38771 36.8833 9.54925 36.8832 9.71448C36.883 9.93575 36.795 10.1479 36.6386 10.3044C36.4822 10.4609 36.2701 10.5489 36.0488 10.5492ZM36.0488 8.98396C35.9043 8.98393 35.7631 9.02673 35.643 9.10696C35.5229 9.18719 35.4292 9.30123 35.3739 9.43467C35.3186 9.56812 35.3041 9.71496 35.3323 9.85665C35.3604 9.99833 35.43 10.1285 35.5321 10.2306C35.6342 10.3328 35.7643 10.4024 35.906 10.4306C36.0477 10.4588 36.1945 10.4444 36.328 10.3891C36.4614 10.3339 36.5755 10.2403 36.6558 10.1202C36.7361 10.0001 36.7789 9.85893 36.779 9.71448C36.7788 9.52084 36.7019 9.33517 36.565 9.19821C36.4281 9.06126 36.2424 8.9842 36.0488 8.98396Z" fill="#231F20"/>
<path d="M35.7441 9.21667H36.1041C36.1393 9.2129 36.1748 9.21712 36.2082 9.229C36.2415 9.24088 36.2717 9.26012 36.2966 9.2853C36.3215 9.31048 36.3403 9.34094 36.3518 9.37441C36.3633 9.40789 36.367 9.44352 36.3628 9.47866C36.3628 9.61086 36.3042 9.71252 36.193 9.72981V9.73175C36.2941 9.74209 36.3473 9.79785 36.3525 9.94121C36.3544 10.0059 36.3554 10.086 36.3585 10.1484C36.3585 10.166 36.3629 10.1832 36.3714 10.1986C36.3798 10.214 36.392 10.227 36.4068 10.2365H36.2229C36.2053 10.2095 36.1958 10.1781 36.1954 10.146C36.1897 10.0851 36.1912 10.0275 36.1884 9.95349C36.1857 9.8423 36.1516 9.79365 36.0399 9.79365H35.9067V10.2365H35.7441V9.21667ZM36.037 9.67082C36.0591 9.67285 36.0814 9.66994 36.1022 9.66231C36.1231 9.65468 36.142 9.64252 36.1575 9.6267C36.1731 9.61088 36.185 9.5918 36.1923 9.57084C36.1996 9.54988 36.2021 9.52755 36.1997 9.50548C36.1997 9.39671 36.1527 9.3395 36.0456 9.3395H35.9067V9.67082H36.037Z" fill="#231F20"/>
</g>
<defs>
<clipPath id="clip0_6465_56654">
<rect width="48" height="36" fill="white"/>
</clipPath>
</defs>
</svg>
