<svg width="160" height="60" viewBox="0 0 160 60" fill="none" xmlns="http://www.w3.org/2000/svg">
<path d="M8.0001 38.5746L19.2726 27.5948V41.9601C19.2726 42.2647 19.8699 42.5115 20.6064 42.5115C21.3431 42.5115 21.9449 42.2648 21.9449 41.9601V13L33.2325 23.9847V46.7869C33.2325 47.4223 32.7329 47.9377 32.1133 47.9475L32.1121 47.9483H9.13696C8.50898 47.9483 8 47.4283 8 46.787V38.5746H8.0001Z" fill="black"/>
<path d="M71.1474 27.8071H61.0579C61.0135 27.8071 60.9775 27.8438 60.9775 27.8893V42.2617C60.9775 42.3069 61.0135 42.3437 61.0579 42.3437H70.0675C70.0973 42.3437 70.1248 42.3266 70.1388 42.2995L71.2185 40.1479C71.2462 40.0932 71.2075 40.0283 71.1474 40.0283H63.6132V36.1768H67.0349C67.0657 36.1768 67.0937 36.1586 67.1071 36.1303L68.1971 33.9582C68.2228 33.9038 68.1838 33.8407 68.1248 33.8407H63.6132V30.1223H70.0529C70.0829 30.1223 70.1104 30.1053 70.1242 30.0782L71.2184 27.9266C71.2461 27.8721 71.2074 27.8071 71.1474 27.8071Z" fill="black"/>
<path d="M103.248 36.5381H103.247L94.1595 27.5765C94.0599 27.4682 93.8818 27.5401 93.8818 27.6887V42.2623C93.8818 42.3075 93.9178 42.3443 93.9621 42.3443H96.4168C96.4612 42.3443 96.4971 42.3075 96.4971 42.2623L96.4984 33.6241L105.586 42.5999C105.685 42.7084 105.863 42.6364 105.863 42.4878V30.029C105.863 30.0061 105.854 29.9843 105.838 29.9688L103.383 27.5466C103.332 27.4981 103.248 27.5352 103.248 27.6066V36.5381H103.248Z" fill="black"/>
<path d="M112.865 42.2961C112.852 42.3253 112.823 42.3441 112.792 42.3441H109.761C109.703 42.3441 109.664 42.2822 109.688 42.2278L117.128 27.6198C117.185 27.493 117.362 27.4925 117.42 27.6191L124.862 42.2274C124.887 42.2818 124.848 42.3441 124.789 42.3441H121.835C121.803 42.3441 121.775 42.3252 121.762 42.2959C121.762 42.2959 117.317 33.2374 117.306 33.2374L112.865 42.2961Z" fill="black"/>
<path d="M148.158 42.2133L143.029 37.3017C144.604 36.4123 145.658 34.6856 145.601 32.72C145.52 29.9644 143.217 27.8071 140.497 27.8071H134.904C134.84 27.8071 134.801 27.8804 134.837 27.9349L137.458 30.4703C137.473 30.4933 137.498 30.5071 137.525 30.5071H140.536C141.782 30.5071 142.856 31.4939 142.917 32.7549C142.982 34.0842 141.949 35.1889 140.658 35.2194H137.318C137.252 35.2194 137.214 35.2951 137.252 35.3498L144.39 42.3109C144.405 42.3316 144.429 42.3439 144.455 42.3439H148.092C148.158 42.3436 148.196 42.2677 148.158 42.2133Z" fill="black"/>
<path d="M131.425 27.6064V42.2621C131.425 42.3075 131.389 42.3441 131.344 42.3441H128.795C128.751 42.3441 128.715 42.3075 128.715 42.2621V30.0896C128.715 30.0667 128.725 30.0448 128.741 30.0293L131.29 27.5459C131.342 27.498 131.425 27.5353 131.425 27.6064Z" fill="black"/>
<path d="M85.6271 36.5382L76.5385 27.5766C76.4389 27.4681 76.2607 27.54 76.2607 27.6888V42.2624C76.2607 42.3077 76.2967 42.3444 76.3409 42.3444H78.7957C78.8401 42.3444 78.8759 42.3077 78.8759 42.2624L78.8774 33.6241L87.9647 42.6001C88.0643 42.7085 88.2423 42.6364 88.2423 42.4878V30.0289C88.2423 30.0062 88.233 29.9845 88.2167 29.9689L85.7621 27.5466C85.7107 27.4981 85.6272 27.5351 85.6272 27.6065V36.5382H85.6271Z" fill="black"/>
<path d="M44.2939 38.7315C44.2939 40.7125 45.8994 42.3118 47.8379 42.3282L47.8376 42.3326H47.8673H51.7686H51.7983L51.798 42.3282C53.7364 42.3119 55.342 40.7125 55.342 38.7315V27.6042C55.342 27.533 55.2332 27.4986 55.1818 27.5469L52.6689 29.9812C52.6522 29.9966 52.6321 30.0183 52.6321 30.0412V38.1595C52.6321 39.1551 51.8629 39.9888 50.8871 39.9888H48.749C47.7731 39.9888 47.0039 39.2091 47.0039 38.1595V36.2465C47.0039 36.1753 46.8931 36.1367 46.8416 36.1849L44.3348 38.611C44.3181 38.6264 44.2941 38.6475 44.2941 38.6705V38.7315H44.2939Z" fill="black"/>
<path d="M151 29.2125C151 30.01 150.388 30.6354 149.591 30.6354C148.802 30.6354 148.173 30.01 148.173 29.2125C148.173 28.4331 148.802 27.8071 149.591 27.8071C150.388 27.807 151 28.433 151 29.2125ZM148.525 29.2125C148.525 29.8385 148.979 30.3353 149.599 30.3353C150.203 30.3353 150.648 29.8385 150.648 29.2214C150.648 28.5955 150.203 28.0904 149.591 28.0904C148.979 28.0903 148.525 28.5955 148.525 29.2125ZM149.373 29.95H149.054V28.5447C149.179 28.519 149.356 28.5013 149.582 28.5013C149.843 28.5013 149.959 28.5447 150.061 28.6048C150.136 28.6642 150.194 28.7755 150.194 28.9132C150.194 29.0675 150.077 29.1874 149.91 29.2386V29.2558C150.043 29.3074 150.119 29.41 150.161 29.5984C150.203 29.8129 150.228 29.8986 150.262 29.9502H149.918C149.876 29.8987 149.851 29.7703 149.809 29.607C149.784 29.4527 149.7 29.3842 149.524 29.3842H149.373V29.95ZM149.381 29.1532H149.532C149.708 29.1532 149.851 29.0932 149.851 28.9472C149.851 28.8189 149.759 28.7329 149.557 28.7329C149.473 28.7329 149.414 28.7413 149.381 28.7497V29.1532Z" fill="black"/>
</svg>
