<svg width="160" height="60" viewBox="0 0 160 60" fill="none" xmlns="http://www.w3.org/2000/svg">
<path fill-rule="evenodd" clip-rule="evenodd" d="M147.939 28.9662C148.148 28.9662 148.353 29.0263 148.527 29.1389C148.701 29.2515 148.837 29.4116 148.918 29.599C148.999 29.7865 149.02 29.9929 148.98 30.1923C148.94 30.3917 148.841 30.5751 148.693 30.7196C148.546 30.864 148.358 30.963 148.153 31.004C147.948 31.0451 147.735 31.0263 147.541 30.9502C147.347 30.8741 147.18 30.744 147.062 30.5762C146.944 30.4084 146.88 30.2106 146.878 30.0074C146.878 29.8724 146.905 29.7387 146.958 29.614C147.012 29.4894 147.09 29.3761 147.189 29.2808C147.287 29.1855 147.404 29.1101 147.533 29.0588C147.662 29.0074 147.8 28.9813 147.939 28.9818V28.9662ZM147.939 29.1932C147.773 29.1932 147.611 29.241 147.473 29.3304C147.335 29.4199 147.227 29.5471 147.163 29.6958C147.1 29.8446 147.083 30.0083 147.116 30.1663C147.148 30.3242 147.228 30.4693 147.345 30.5832C147.463 30.6971 147.612 30.7746 147.775 30.806C147.938 30.8375 148.107 30.8213 148.26 30.7597C148.413 30.6981 148.544 30.5937 148.637 30.4598C148.729 30.3259 148.778 30.1685 148.778 30.0074C148.78 29.8995 148.759 29.7924 148.718 29.6922C148.676 29.5921 148.615 29.5009 148.537 29.4241C148.459 29.3472 148.365 29.2862 148.263 29.2445C148.16 29.2029 148.05 29.1814 147.939 29.1815V29.1932ZM147.798 29.5847H147.935C148.088 29.5847 148.157 29.6512 148.157 29.7608C148.157 29.8704 148.048 29.937 147.915 29.937H147.798V29.5847ZM147.798 30.1288H147.911C147.938 30.1249 147.966 30.1267 147.992 30.1341C148.019 30.1416 148.044 30.1544 148.065 30.1718C148.086 30.1893 148.103 30.2109 148.114 30.2352C148.126 30.2595 148.132 30.286 148.133 30.3128C148.143 30.413 148.17 30.5109 148.213 30.6025H148.447C148.413 30.5086 148.389 30.4115 148.375 30.3128C148.342 30.1523 148.294 30.0544 148.185 30.0153C148.247 29.9932 148.301 29.9541 148.341 29.9026C148.38 29.8511 148.403 29.7896 148.407 29.7256C148.409 29.678 148.401 29.6305 148.382 29.5864C148.363 29.5424 148.334 29.503 148.298 29.4711C148.199 29.3953 148.073 29.3602 147.947 29.3733C147.819 29.374 147.692 29.3871 147.568 29.4124V30.5868H147.79L147.798 30.1288ZM20.3347 23.9906L18.8619 21.8298C18.6036 21.4383 18.531 21.6575 18.3051 21.9394L18.184 22.1194L16.9735 23.9554C16.7435 24.3273 16.7475 24.2138 15.9203 24.2216H11.9902C11.163 24.2216 10.812 24.3038 11.0985 23.928L15.4926 17.3084L15.6419 17.0931L15.7953 16.866C16.0253 16.498 16.0212 16.6076 16.8524 16.5998H20.7745C21.6017 16.5998 21.9527 16.5176 21.6662 16.8934L21.5129 17.1439L21.3878 17.3123L19.6891 19.8607C19.4712 20.2013 19.7254 20.1073 19.915 19.986L26.7948 16.7642C27.2588 16.5293 27.2669 16.6116 27.9569 16.6037H29.8453C30.1439 16.6037 30.7854 16.5293 30.3174 16.7877L23.7322 19.8803L23.599 19.939C23.3045 20.0721 23.3085 20.0447 23.4941 20.2522L25.443 22.6284C25.6085 22.8476 25.5722 22.8123 25.8829 22.8123H27.2427C27.2427 22.8123 27.5655 22.7536 27.3799 22.9807L26.932 23.9867C26.7423 24.1903 26.7867 24.202 26.4881 24.1981H20.7785C20.4799 24.206 20.5243 24.1942 20.3347 23.9906ZM89.0514 23.102L88.7367 23.744C88.5632 24.0415 88.7892 24.0885 88.1315 24.0885H82.7366C82.3331 24.0455 82.3331 23.8889 82.3331 23.8889C82.3089 23.6462 82.208 23.5326 81.8691 23.8889C81.3122 24.1981 81.6189 24.2373 79.6498 24.0846C77.2288 23.8928 75.9376 23.012 75.9376 21.4031C75.9376 19.5671 79.2342 18.3692 82.3936 18.5141C84.2618 18.6002 84.2982 18.6472 84.8469 18.8194C84.8873 18.7229 84.9565 18.6404 85.0457 18.5825C85.1349 18.5245 85.24 18.4939 85.3473 18.4945H88.9304C88.9304 18.4945 89.8625 18.3966 89.6486 18.7529L89.5034 19.0308L87.4253 22.0255C87.268 22.3426 86.8846 22.8084 87.3406 22.8084H88.4986C89.2048 22.8045 89.233 22.7693 89.0555 23.102H89.0514ZM44.7184 23.9084C44.6216 24.1668 44.2867 24.0885 44.2867 24.0885H40.1266C37.5199 24.0494 37.6168 22.9141 38.4762 21.7397L41.5832 17.1361C41.5832 17.1361 41.6074 16.7995 42.253 16.7916H46.054C46.054 16.7916 46.9861 16.6898 46.7682 17.05L43.1649 22.3974C43.1649 22.3974 42.7816 22.875 43.3102 22.8163H44.6014C44.6014 22.8163 45.5335 22.7184 45.3197 23.0746L44.7184 23.9084ZM56.3151 18.6785C56.8679 18.6785 56.9002 18.6589 56.5936 18.9251L50.3352 24.0141C50.1679 24.0753 49.9892 24.102 49.8107 24.0924H46.8247C46.2477 24.0494 46.2477 24.2255 46.2477 23.7323V19.0347C46.2961 18.5376 46.2477 18.7176 46.8247 18.6746H50.0528C50.6298 18.7176 50.6298 18.5415 50.6298 19.0347V21.4579C50.6298 21.955 50.6298 22.1312 51.231 21.5205L54.229 18.9368C54.4994 18.6472 54.6325 18.6902 55.0118 18.6863H56.3232L56.3151 18.6785ZM60.7537 23.9084C60.6609 24.1668 60.3219 24.0885 60.3219 24.0885H56.7469C54.1403 24.0494 54.2371 22.9141 55.0966 21.7397L56.985 19.0191C56.985 19.0191 57.0092 18.6824 57.6548 18.6746H61.4558C61.4558 18.6746 62.3879 18.5767 62.174 18.9329L59.7974 22.3974C59.7974 22.3974 59.4141 22.875 59.9386 22.8163H60.6447C60.6447 22.8163 61.5768 22.7184 61.363 23.0746L60.7537 23.9084ZM60.9111 18.0835C62.7954 18.0404 64.3005 17.3005 64.2682 16.4041C64.2359 15.5076 62.6865 14.8382 60.8021 14.8852C58.9178 14.9322 57.4127 15.6681 57.445 16.5607C57.4772 17.4532 59.0388 18.1265 60.9232 18.0835H60.9111ZM97.0085 19.8059L95.2533 22.3896C95.2533 22.3896 94.87 22.8671 95.3986 22.8084H97.1659C97.1659 22.8084 98.098 22.7106 97.8841 23.0668L97.287 23.9006C97.1901 24.159 96.8552 24.0807 96.8552 24.0807H92.227C89.6204 24.0415 89.7172 22.9063 90.5767 21.7319L91.884 19.8137H90.8148C90.8148 19.8137 89.8827 19.9116 90.0965 19.5554L90.6937 18.7215C90.7865 18.4632 91.1255 18.5415 91.1255 18.5415H92.7395L93.8168 16.9756C93.8168 16.9756 93.841 16.639 94.4866 16.6311H98.2877C98.2877 16.6311 99.2197 16.5333 99.0059 16.8895L97.8801 18.5454H99.0059C99.0059 18.5454 99.938 18.4475 99.7241 18.8037L99.1269 19.6376C99.0301 19.8959 98.6952 19.8176 98.6952 19.8176L97.0085 19.8059ZM69.4169 18.655C69.7397 18.655 69.6832 18.6276 69.6227 18.8468C70.115 18.561 71.3578 18.2909 72.9153 18.2909C74.6504 18.2909 75.9255 19.3479 75.1507 20.8746L74.1016 22.3817C74.1016 22.3817 73.7183 22.8593 74.2469 22.8006H74.9651C74.9651 22.8006 75.8972 22.7027 75.6833 23.059L75.0862 23.8928C74.9893 24.1511 74.6544 24.0729 74.6544 24.0729H70.7929C68.4243 24.1903 68.8197 23.0511 69.3927 22.1782L70.1997 20.9764C70.4983 20.5458 70.6032 19.9155 70.1553 19.8803C69.7075 19.845 69.4008 20.1895 69.1022 20.6201L66.9031 23.8067C66.6731 24.1785 66.7699 24.065 65.9428 24.0729H62.5009C61.6939 24.0729 61.3226 24.1551 61.6091 23.7793L64.9058 18.9956C64.9058 18.9956 64.93 18.6667 65.5756 18.6589H69.4411L69.4169 18.655ZM116.934 20.35C116.845 20.4792 116.53 20.9685 116.377 21.2034L116.32 21.2778L116.219 21.4266L114.831 23.7988C114.601 24.1668 114.702 24.0572 113.871 24.065H110.619C109.792 24.065 109.441 24.1472 109.727 23.7714L112.895 18.8507C112.895 18.8507 112.919 18.5141 113.564 18.5062H116.889C116.889 18.5062 117.402 18.4749 117.486 18.5924C118.047 18.208 118.726 18.019 119.411 18.0561C120.468 18.0561 121.429 18.6902 121.122 19.7589C120.981 20.1721 120.718 20.5364 120.367 20.8075C120.016 21.0786 119.591 21.2447 119.145 21.2856C118.576 21.3287 118.866 21.3365 118.544 21.2856C117.922 21.1956 117.607 20.992 117.426 20.6162C117.389 20.5426 117.36 20.4651 117.341 20.3853C117.212 20.0603 117.01 20.2483 116.93 20.3657L116.934 20.35ZM104.566 24.1668C107.887 23.8615 110.546 22.3152 110.498 20.7102C110.449 19.1052 107.455 17.8329 104.134 18.1383C100.814 18.4436 98.4168 20.2208 98.4612 21.8298C98.5056 23.4387 101.237 24.4878 104.562 24.1825L104.566 24.1668ZM103.82 20.808L102.835 22.2721C102.202 23.1881 103.876 23.2195 104.199 22.6636L105.494 20.8002L105.898 20.2091C106.531 19.2892 104.857 19.2618 104.534 19.8176L103.82 20.808ZM33.2347 19.9468L32.7626 20.5771C32.6859 20.6789 32.6496 20.7689 32.7909 20.7415H33.7714C33.9166 20.7415 33.961 20.718 34.0498 20.5771L34.1991 20.3422C34.8447 19.4379 33.5696 19.4027 33.2347 19.9468ZM81.5866 21.0977L80.937 22.0646C80.3035 22.9846 81.978 23.012 82.3008 22.4561L83.2612 21.0899L83.6647 20.4988C84.2982 19.5788 82.6236 19.5514 82.3008 20.1073L81.5866 21.0977ZM36.8783 23.102L36.5596 23.744C36.3861 24.0415 36.612 24.0885 35.9543 24.0924H31.6772C28.4935 24.0924 27.0248 23.2273 27.0248 21.3913C27.0248 19.5554 30.6563 18.3418 33.8319 18.3418C37.0075 18.3418 38.7143 19.2813 38.2704 21.0821C38.2417 21.2523 38.1902 21.4181 38.1171 21.5753C37.9961 21.8963 37.9113 21.865 37.6934 21.8689H32.3147C31.8588 21.8689 32.0524 21.7945 31.7982 22.0803C31.544 22.3661 31.201 22.8867 31.6651 22.8045H36.3619C37.0317 22.8045 37.0559 22.7654 36.8783 23.102ZM140.982 31.3228C141.551 31.5929 141.612 31.7886 142.193 31.6829C142.754 31.5107 143.105 30.716 143.105 30.716C144.57 28.4377 146.414 28.5003 146.898 27.9953C147.241 27.6039 144.162 26.8209 144.162 26.8209C139.498 25.4586 122.478 26.8914 122.058 27.2124C120.093 28.5277 129.692 26.727 140.434 31.0292L140.982 31.3228ZM139.155 12.5756C142.383 13.2919 146.127 16.0987 146.034 19.1639C145.994 20.4401 143.335 21.3835 142.298 22.9298C141.725 23.7871 143.593 24.4056 143.593 24.4056C143.593 24.4056 147.225 25.3647 146.966 26.0537C146.466 26.359 145.784 25.8031 143.202 25.6622C129.337 24.9732 124.189 26.5939 122.151 26.5391C121.203 25.9323 129.329 25.4821 132.311 23.8575C132.739 23.3447 130.064 23.0746 130.98 22.6401C132.222 21.8924 138.335 19.1913 137.658 18.9956C135.692 18.9956 135.571 18.929 135.216 19.1443C133.501 20.1778 131.427 21.4931 128.809 22.0216C128.353 22.1155 125.488 20.2208 125.105 18.8899C124.959 18.381 126.133 17.05 127.058 16.2945C128.296 15.2806 130.883 14.2393 131.302 14.2823C132.404 14.3959 137.194 18.8507 139.841 18.8703H143.876C144.384 18.8703 144.319 18.6472 144.279 18.5689C142.726 14.6973 138.582 14.204 133.15 14.0788C132.88 14.0788 131.73 13.0179 130.992 12.4659C129.926 11.7026 136.463 11.9766 139.155 12.5756ZM131.843 18.8899H134.821C135.18 18.745 133.231 16.8151 130.911 15.3667C129.842 14.7012 125.637 18.244 126.226 18.8899C128.797 18.8899 130.185 18.9094 131.843 18.8899Z" fill="#1A70B0"/>
<path d="M11.0283 31.4644H121.064" stroke="#7398BD" stroke-width="0.35"/>
<path d="M18.4289 42.4893C18.3683 42.1761 18.0657 41.2249 16.6857 41.2249C15.1242 41.2249 14.6238 42.4267 14.6238 43.5736C14.6238 44.7206 15.1242 45.9224 16.6857 45.9224C17.8075 45.9224 18.2473 45.2961 18.445 44.4897H21.7174C21.7174 46.2239 19.946 48.0676 16.7785 48.0676C13.2802 48.0676 11.2949 46.1103 11.2949 43.5619C11.2949 40.853 13.4456 39.0562 16.7785 39.0562C19.7483 39.0562 21.3825 40.3088 21.673 42.4658H18.445" fill="#1A70B0"/>
<path d="M28.2797 39.0828C31.5682 39.0828 33.7633 40.9618 33.7633 43.5885C33.7633 46.2152 31.5561 48.0904 28.2797 48.0904C25.0032 48.0904 22.792 46.2113 22.792 43.5846C22.792 40.9579 24.9871 39.0789 28.2756 39.0789L28.2797 39.0828ZM28.2756 45.9451C29.123 45.9451 30.4263 45.4989 30.4263 43.5963C30.4263 41.6938 29.123 41.2476 28.2756 41.2476C27.4283 41.2476 26.1249 41.6938 26.1249 43.5963C26.1249 45.4989 27.4283 45.9451 28.2797 45.9451H28.2756Z" fill="#1A70B0"/>
<path d="M35.1582 39.2859H39.8994L41.4448 44.3436H41.473L43.0185 39.2859H47.7637V47.8864H44.6123V42.3667H44.58L42.7037 47.8864H40.2182L38.3378 42.3667H38.3055V47.8864H35.1582V39.2859Z" fill="#1A70B0"/>
<path d="M49.4609 39.2859H54.2021L55.7475 44.3436H55.7758L57.3212 39.2859H62.0664V47.8864H58.915V42.3667H58.8828L57.0024 47.8864H54.5209L52.6406 42.3667H52.6123V47.8864H49.4609V39.2859Z" fill="#1A70B0"/>
<path d="M63.7793 39.2859H72.7331V41.4898H67.1122V42.5624H72.2206V44.6098H67.1122V45.6824H72.9025V47.8864H63.7793V39.2859Z" fill="#1A70B0"/>
<path d="M74.4463 39.2867H80.7813C82.6737 39.2867 84.312 40.1166 84.312 41.7451C84.3233 42.2264 84.1715 42.698 83.88 43.0877C83.5884 43.4773 83.1732 43.7634 82.698 43.902C83.6058 44.18 84.1667 44.9746 84.2878 46.0472C84.3322 46.4661 84.3483 47.4917 84.6509 47.891H81.318C81.1681 47.4633 81.0759 47.0186 81.0436 46.5679C80.9629 45.7419 80.8701 44.8807 79.5708 44.8807H77.7994V47.8793H74.4463V39.2671V39.2867ZM77.7792 43.0251H79.5224C80.1438 43.0251 80.9911 42.9429 80.9911 42.1717C80.9911 41.6276 80.6118 41.3184 79.3408 41.3184H77.7792V43.0251Z" fill="#1A70B0"/>
<path d="M92.4845 42.4893C92.424 42.1761 92.1214 41.2249 90.7414 41.2249C89.1798 41.2249 88.6795 42.4267 88.6795 43.5736C88.6795 44.7206 89.1798 45.9224 90.7414 45.9224C91.8631 45.9224 92.3029 45.2961 92.5007 44.4897H95.7731C95.7731 46.2239 94.0017 48.0676 90.8342 48.0676C87.3358 48.0676 85.3506 46.1103 85.3506 43.5619C85.3506 40.853 87.5013 39.0562 90.8342 39.0562C93.804 39.0562 95.4382 40.3088 95.7287 42.4658H92.5007" fill="#1A70B0"/>
<path d="M97.1787 39.2859H100.512V47.8864H97.1787V39.2859Z" fill="#1A70B0"/>
<path d="M105.223 39.2862H108.479L112.417 47.8984H108.963L108.507 46.6692H105.069L104.589 47.8866H101.24L105.227 39.2744L105.223 39.2862ZM107.85 44.8019L106.881 42.1517H106.853L105.8 44.8136L107.85 44.8019Z" fill="#1A70B0"/>
<path d="M113.164 39.2859H116.497V45.6824H121.283V47.8864H113.164V39.2859Z" fill="#1A70B0"/>
</svg>
