<svg width="160" height="60" viewBox="0 0 160 60" fill="none" xmlns="http://www.w3.org/2000/svg">
<path d="M25.5908 16H31.9418L18.0961 29.4164L31.9905 44.4457H25.5421L12.11 29.4408L25.5908 16ZM11.453 44.4457H7V16H11.453V44.4457Z" fill="#4C5355"/>
<path d="M44.713 33.3276C44.5996 32.6935 44.4032 32.0772 44.129 31.4948C43.8797 30.9684 43.5422 30.489 43.1314 30.0774C42.739 29.6911 42.2764 29.3842 41.7687 29.1732C41.2529 28.9556 40.6978 28.8474 40.1383 28.8555C39.4756 28.8416 38.8159 28.9492 38.1917 29.1732C37.644 29.3768 37.1402 29.6837 36.7073 30.0774C36.2737 30.4803 35.9188 30.961 35.661 31.4948C35.3868 32.0687 35.1904 32.6769 35.077 33.3032H44.713V33.3276ZM39.968 25.2631C41.2071 25.2531 42.4369 25.4769 43.5937 25.9229C44.6828 26.3473 45.6758 26.9872 46.5137 27.8047C47.3611 28.643 48.0242 29.6503 48.4604 30.7616C48.9412 31.9825 49.1808 33.2856 49.1661 34.5984C49.1635 35.2194 49.1229 35.8397 49.0444 36.4557L48.9714 36.7978H34.8336C34.9626 37.299 35.1505 37.783 35.3933 38.2396C35.647 38.7201 35.985 39.1506 36.391 39.5104C36.8605 39.9169 37.4067 40.2244 37.997 40.4146C38.7436 40.6556 39.5246 40.7712 40.3087 40.7567C40.8053 40.764 41.3016 40.7313 41.793 40.659C42.2317 40.592 42.6581 40.4603 43.0584 40.268C43.4859 40.0567 43.8862 39.7941 44.2507 39.486C44.713 39.0693 45.1366 38.6113 45.5161 38.1174L48.3387 41.2944C47.3967 42.5067 46.1551 43.4504 44.7374 44.0314C43.2683 44.6251 41.6976 44.924 40.114 44.9112C38.8021 44.927 37.5011 44.669 36.2937 44.1536C35.1399 43.6677 34.0905 42.9623 33.2033 42.0764C32.3202 41.1817 31.6251 40.118 31.1593 38.9483C30.6551 37.7072 30.3988 36.3787 30.4049 35.0383C30.3912 33.75 30.5969 32.4689 31.0133 31.2504C31.4071 30.1029 32.0279 29.0472 32.8383 28.1468C33.6763 27.235 34.6961 26.5105 35.8313 26.0207C37.1502 25.508 38.5538 25.2509 39.968 25.2631Z" fill="#4C5355"/>
<path d="M60.3354 25.3157C61.1613 25.3066 61.9805 25.4645 62.7444 25.78C63.4774 26.0597 64.1474 26.4834 64.7154 27.0263C65.27 27.5588 65.7235 28.1881 66.0538 28.8836C66.3754 29.5977 66.5413 30.3726 66.5404 31.1563V44.4505H62.0387V32.256C62.0558 31.8544 61.9937 31.4533 61.8559 31.0758C61.7181 30.6984 61.5073 30.352 61.2357 30.0566C60.9608 29.7765 60.6302 29.5577 60.2654 29.4145C59.9006 29.2714 59.5099 29.207 59.1187 29.2257C58.5514 29.2186 57.9912 29.353 57.4884 29.6167C56.9732 29.8896 56.5116 30.2539 56.1257 30.692C55.7243 31.1701 55.4112 31.7163 55.201 32.3049C54.9738 32.9483 54.8585 33.6262 54.8603 34.3088V44.4017H50.4316V25.7067H54.8117V27.3685C55.2507 26.8841 55.7692 26.4791 56.3447 26.171C56.8277 25.9025 57.3428 25.6972 57.8777 25.5601C58.3315 25.4355 58.7958 25.3537 59.2647 25.3157H60.3354Z" fill="#4C5355"/>
<path d="M90.7317 25.3078C91.5576 25.2987 92.3768 25.4566 93.1407 25.7721C93.8736 26.0519 94.5437 26.4756 95.1117 27.0184C95.6663 27.5509 96.1198 28.1803 96.45 28.8757C96.7716 29.5898 96.9375 30.3647 96.9367 31.1484V44.4426H92.4837V32.2481C92.5023 31.8443 92.4385 31.4408 92.2962 31.0626C92.1539 30.6844 91.9362 30.3394 91.6563 30.0487C91.373 29.7662 91.034 29.5463 90.661 29.4032C90.2881 29.2601 89.8894 29.1969 89.4907 29.2178C88.9898 29.2207 88.4941 29.3202 88.0307 29.5111C87.5454 29.7082 87.0938 29.9803 86.6923 30.3176C86.2917 30.6706 85.9686 31.1033 85.7433 31.5883C85.4944 32.1061 85.3694 32.6752 85.3783 33.2501V44.4671H80.9253V32.2726C80.9439 31.8687 80.8801 31.4653 80.7378 31.0871C80.5955 30.7088 80.3778 30.3638 80.0979 30.0732C79.8168 29.7946 79.4817 29.577 79.1133 29.4341C78.7449 29.2911 78.3512 29.2259 77.9566 29.2423C77.3974 29.2383 76.8458 29.3726 76.3506 29.6333C75.8355 29.9062 75.3738 30.2705 74.9879 30.7086C74.5876 31.1917 74.2671 31.7362 74.0389 32.3215C73.8116 32.9648 73.6964 33.6427 73.6982 34.3254V44.4182H69.2695V25.7232H73.6496V27.385C74.0885 26.9007 74.6071 26.4956 75.1826 26.1876C75.672 25.9147 76.1959 25.7092 76.7399 25.5766C77.1937 25.452 77.658 25.3702 78.1269 25.3322C78.5406 25.3078 78.9056 25.2833 79.1976 25.2833C80.2755 25.264 81.3401 25.525 82.2879 26.0409C83.1787 26.5067 83.9335 27.1973 84.478 28.0448C84.9681 27.4262 85.5608 26.8971 86.23 26.4808C86.7851 26.1364 87.3821 25.8654 88.0063 25.6744C88.5302 25.5167 89.0681 25.4104 89.6123 25.3567C90.026 25.3322 90.4397 25.3078 90.7317 25.3078Z" fill="#4C5355"/>
<path d="M108.251 25.3161C109.641 25.2842 111.023 25.5335 112.315 26.0492C113.48 26.5497 114.538 27.2716 115.43 28.1753C116.325 29.0699 117.036 30.1328 117.522 31.3033C118.009 32.472 118.257 33.7268 118.252 34.9935C118.273 36.3589 118.016 37.7142 117.498 38.9768C117.03 40.1583 116.326 41.2311 115.43 42.1293C114.529 43.0215 113.462 43.7272 112.291 44.2065C111.021 44.7152 109.666 44.9724 108.3 44.9641C106.927 44.9805 105.564 44.7316 104.285 44.231C103.098 43.7642 102.015 43.0665 101.097 42.1782C100.194 41.2901 99.4818 40.2255 99.0045 39.0502C98.4866 37.7961 98.2298 36.4487 98.2501 35.0912C98.2425 33.7798 98.5077 32.4813 99.0288 31.2789C99.5272 30.1162 100.246 29.0621 101.146 28.1753C102.06 27.288 103.133 26.5831 104.309 26.0981C105.554 25.5629 106.897 25.2964 108.251 25.3161ZM108.3 29.4705C107.608 29.4677 106.922 29.6005 106.28 29.8615C105.635 30.1159 105.047 30.4982 104.553 30.9857C104.047 31.4906 103.642 32.0878 103.36 32.7452C103.053 33.4717 102.896 34.2531 102.898 35.0423C102.894 35.8112 103.034 36.5739 103.312 37.2906C103.573 37.9621 103.961 38.5763 104.455 39.099C104.946 39.6162 105.533 40.0314 106.183 40.3209C106.857 40.6187 107.587 40.7686 108.324 40.7608C109.695 40.7455 111.012 40.2235 112.023 39.2945C112.572 38.7966 113.011 38.189 113.313 37.5106C113.656 36.7517 113.822 35.9243 113.799 35.0912C113.805 34.3069 113.639 33.531 113.313 32.8185C112.721 31.4898 111.652 30.4339 110.32 29.8615C109.675 29.6122 108.991 29.4798 108.3 29.4705Z" fill="#4C5355"/>
<path d="M130.125 29.6333L129.76 29.5111C129.362 29.3331 128.931 29.2415 128.495 29.2423C127.936 29.2382 127.384 29.3725 126.889 29.6333C126.381 29.9067 125.928 30.2711 125.55 30.7085C125.158 31.1927 124.846 31.7373 124.626 32.3214C124.399 32.9648 124.283 33.6427 124.285 34.3253V44.4182H119.856V25.7232H124.236V27.385C124.667 26.9014 125.177 26.4963 125.745 26.1875C126.228 25.919 126.743 25.7137 127.278 25.5766C127.732 25.452 128.196 25.3702 128.665 25.3322C129.079 25.3078 129.444 25.2833 129.736 25.2833C129.955 25.2833 130.223 25.3078 130.49 25.3322C130.758 25.3566 131.099 25.43 131.464 25.5033L130.125 29.6333Z" fill="#4C5355"/>
<path d="M144.459 33.3275C144.346 32.6934 144.149 32.0771 143.875 31.4947C143.626 30.9684 143.288 30.4889 142.877 30.0773C142.485 29.691 142.022 29.3841 141.515 29.1731C140.999 28.9555 140.444 28.8473 139.884 28.8554C139.222 28.8415 138.562 28.9491 137.938 29.1731C137.39 29.3767 136.886 29.6836 136.453 30.0773C136.02 30.4802 135.665 30.9609 135.407 31.4947C135.133 32.0686 134.936 32.6768 134.823 33.3031H144.459V33.3275ZM139.714 25.263C140.953 25.253 142.183 25.4768 143.34 25.9228C144.429 26.3472 145.422 26.9871 146.26 27.8046C147.107 28.6429 147.77 29.6502 148.206 30.7615C148.687 31.9824 148.927 33.2855 148.912 34.5983C148.91 35.2193 148.869 35.8396 148.79 36.4556L148.717 36.7733H134.58C134.709 37.2745 134.897 37.7585 135.139 38.2151C135.393 38.6956 135.731 39.1261 136.137 39.4859C136.607 39.8924 137.153 40.1999 137.743 40.3901C138.49 40.6311 139.271 40.7466 140.055 40.7322C140.551 40.7394 141.048 40.7068 141.539 40.6344C141.978 40.5675 142.404 40.4358 142.804 40.2434C143.232 40.0322 143.632 39.7696 143.997 39.4614C144.459 39.0448 144.883 38.5867 145.262 38.0929L148.085 41.2698C147.143 42.4822 145.901 43.4258 144.483 44.0069C143.014 44.6006 141.444 44.8995 139.86 44.8866C138.548 44.9025 137.247 44.6445 136.04 44.1291C134.886 43.6431 133.837 42.9378 132.949 42.0518C132.066 41.1572 131.371 40.0935 130.905 38.9238C130.401 37.6827 130.145 36.3541 130.151 35.0137C130.137 33.7255 130.343 32.4444 130.759 31.2259C131.153 30.0784 131.774 29.0227 132.584 28.1223C133.422 27.2104 134.442 26.486 135.577 25.9962C136.901 25.5032 138.302 25.2548 139.714 25.263Z" fill="#4C5355"/>
<path d="M151.029 42.5648C151.103 42.5687 151.177 42.5605 151.248 42.5403C151.3 42.5353 151.35 42.5186 151.394 42.4914C151.419 42.467 151.467 42.4426 151.467 42.3937C151.489 42.3482 151.498 42.2973 151.492 42.2471C151.494 42.2088 151.486 42.1707 151.469 42.1365C151.452 42.1022 151.426 42.073 151.394 42.0516C151.306 41.9987 151.205 41.9731 151.102 41.9783H150.737V42.5403H151.029V42.5648ZM150.348 41.7094H151.273C151.447 41.6982 151.62 41.7502 151.759 41.8561C151.82 41.9058 151.867 41.9697 151.897 42.0422C151.926 42.1147 151.938 42.1935 151.93 42.2715C151.928 42.3395 151.912 42.4063 151.881 42.467C151.854 42.5269 151.821 42.5842 151.784 42.6381C151.731 42.6845 151.674 42.7255 151.613 42.7603C151.543 42.7881 151.47 42.8046 151.394 42.8091C151.443 42.8336 151.467 42.8336 151.492 42.858C151.519 42.8882 151.552 42.913 151.589 42.9313C151.613 42.9558 151.638 43.0046 151.686 43.0535C151.735 43.1024 151.759 43.1757 151.808 43.2735L152.027 43.6645H151.54L151.37 43.3468C151.327 43.2622 151.278 43.1805 151.224 43.1024C151.175 43.0291 151.151 42.9802 151.102 42.9558C151.071 42.9186 151.028 42.8928 150.981 42.8825C150.935 42.8625 150.885 42.8542 150.835 42.858H150.737V43.6645H150.372V41.7094H150.348ZM151.151 41.1718C151.02 41.1745 150.889 41.1909 150.762 41.2207C150.639 41.2439 150.523 41.294 150.421 41.3673C150.315 41.4285 150.217 41.5024 150.129 41.5872C150.041 41.6726 149.967 41.7716 149.91 41.8805C149.837 41.9914 149.787 42.1162 149.764 42.2471C149.699 42.5037 149.699 42.7725 149.764 43.0291C149.787 43.1525 149.837 43.2693 149.91 43.3712C149.971 43.4775 150.045 43.5759 150.129 43.6645C150.22 43.753 150.318 43.8347 150.421 43.9088C150.523 43.9822 150.639 44.0322 150.762 44.0555C151.017 44.1206 151.285 44.1206 151.54 44.0555C151.67 44.0281 151.793 43.9785 151.905 43.9088C152.018 43.8474 152.117 43.7644 152.197 43.6645C152.286 43.5791 152.36 43.4801 152.416 43.3712C152.489 43.2693 152.539 43.1525 152.562 43.0291C152.591 42.9005 152.607 42.7696 152.611 42.6381C152.608 42.5064 152.592 42.3754 152.562 42.2471C152.535 42.1173 152.486 41.9933 152.416 41.8805C152.355 41.7742 152.282 41.6758 152.197 41.5872C152.112 41.4987 152.014 41.4244 151.905 41.3673C151.795 41.294 151.671 41.2441 151.54 41.2207C151.413 41.1909 151.282 41.1745 151.151 41.1718ZM151.151 40.8052C151.316 40.8038 151.48 40.8286 151.638 40.8786C151.794 40.9183 151.942 40.9844 152.076 41.0741C152.217 41.1438 152.342 41.2439 152.441 41.3673C152.553 41.4771 152.651 41.6002 152.733 41.7339C152.808 41.8758 152.873 42.0228 152.927 42.1738C153.025 42.4923 153.025 42.8328 152.927 43.1513C152.888 43.3079 152.822 43.4567 152.733 43.5911C152.663 43.7333 152.564 43.8584 152.441 43.9577C152.331 44.07 152.209 44.1685 152.076 44.251C151.934 44.3263 151.788 44.3916 151.638 44.4465C151.48 44.4947 151.316 44.5194 151.151 44.5198C150.986 44.5212 150.822 44.4965 150.664 44.4465C150.51 44.4021 150.363 44.3363 150.226 44.251C150.085 44.1812 149.96 44.0811 149.861 43.9577C149.75 43.8479 149.652 43.7248 149.569 43.5911C149.494 43.4492 149.429 43.3023 149.375 43.1513C149.277 42.8328 149.277 42.4923 149.375 42.1738C149.414 42.0171 149.48 41.8684 149.569 41.7339C149.639 41.5917 149.739 41.4666 149.861 41.3673C149.971 41.255 150.093 41.1565 150.226 41.0741C150.368 40.9988 150.514 40.9334 150.664 40.8786C150.822 40.8286 150.986 40.8038 151.151 40.8052Z" fill="#4C5355"/>
</svg>
