<svg width="160" height="60" viewBox="0 0 160 60" fill="none" xmlns="http://www.w3.org/2000/svg">
<path fill-rule="evenodd" clip-rule="evenodd" d="M46.0605 39.4647V19.4282H48.8456L61.1594 37.2001V19.4282H63.2445V39.4647H60.1824L48.1457 21.9732V39.4647H46.0605Z" fill="#1D1D1B"/>
<path fill-rule="evenodd" clip-rule="evenodd" d="M29.2559 19.4282V39.4647H43.108V37.6818H31.3483V29.9965H42.204V28.2135H31.3483V21.2184H43.108V19.4282H29.2559Z" fill="#1D1D1B"/>
<path fill-rule="evenodd" clip-rule="evenodd" d="M12 19.4282V39.4647H14.0924V28.8318V19.4282H12Z" fill="#1D1D1B"/>
<path fill-rule="evenodd" clip-rule="evenodd" d="M16.9795 28.8677L27.2447 19.4282H24.3576L14.1289 28.8318L25.0502 39.4647H27.8353L16.9795 28.8677Z" fill="#1D1D1B"/>
<path fill-rule="evenodd" clip-rule="evenodd" d="M64.7412 19.4282L73.8545 40.9098L77.9591 31.916L82.0637 40.9098L91.1843 19.4282H88.9533L81.9252 35.8988L77.9591 27.3939L73.993 35.9707L66.9648 19.4282H64.7412Z" fill="#1D1D1B"/>
<path fill-rule="evenodd" clip-rule="evenodd" d="M74.6172 19.4282H81.2954L77.9563 26.7757L74.6172 19.4282Z" fill="#E30613"/>
<path fill-rule="evenodd" clip-rule="evenodd" d="M138.659 19.3696H131.908V39.4061H139.775C144.645 39.4061 148.4 34.8769 148.4 29.0464C148.35 26.5076 147.31 24.0855 145.496 22.2833C143.682 20.4811 141.233 19.4376 138.659 19.3696ZM139.425 37.5944H133.993V21.1526H138.448C141.16 21.1526 146.314 23.7623 146.314 29.2477C146.314 34.9991 142.275 37.6232 139.425 37.6232V37.5944Z" fill="#1D1D1B"/>
<path fill-rule="evenodd" clip-rule="evenodd" d="M99.6105 19C94.4196 19 90.2129 23.7521 90.2129 29.6257C90.2129 35.4994 94.3831 40.2515 99.6105 40.2515C104.838 40.2515 109.008 35.4922 109.008 29.6257C109.008 23.7593 104.765 19 99.6105 19ZM99.6105 38.411C95.5642 38.411 92.3199 34.4785 92.3199 29.6329C92.3199 24.7874 95.6007 20.8476 99.6105 20.8476C103.62 20.8476 106.901 24.773 106.901 29.6257C106.901 34.4785 103.62 38.4038 99.5667 38.4038L99.6105 38.411Z" fill="#1D1D1B"/>
<path fill-rule="evenodd" clip-rule="evenodd" d="M120.099 19C114.908 19 110.701 23.7521 110.701 29.6257C110.701 35.4994 114.922 40.2515 120.099 40.2515C125.275 40.2515 129.504 35.4922 129.504 29.6257C129.504 23.7593 125.297 19 120.106 19H120.099ZM120.099 38.411C116.052 38.411 112.764 34.4785 112.764 29.6329C112.764 24.7874 116.052 20.8405 120.099 20.8405C124.145 20.8405 127.433 24.773 127.433 29.6257C127.433 34.4785 124.145 38.4038 120.099 38.4038V38.411Z" fill="#1D1D1B"/>
</svg>
