<svg width="160" height="60" viewBox="0 0 160 60" fill="none" xmlns="http://www.w3.org/2000/svg">
<path fill-rule="evenodd" clip-rule="evenodd" d="M32.284 36.384V29.0623H26.3613V36.384H32.284Z" fill="#AE162D"/>
<path fill-rule="evenodd" clip-rule="evenodd" d="M29.2727 28.3371C30.9219 28.3371 32.2633 27.5721 32.2633 26.6259C32.2633 25.6797 30.9329 24.9183 29.2727 24.9183C27.6124 24.9183 26.2783 25.6834 26.2783 26.6259C26.2783 27.5684 27.6197 28.3371 29.2727 28.3371Z" fill="#AE162D"/>
<path fill-rule="evenodd" clip-rule="evenodd" d="M133.042 36.384V29.0623H127.123V36.384H133.042Z" fill="#AE162D"/>
<path fill-rule="evenodd" clip-rule="evenodd" d="M130.01 28.3371C131.663 28.3371 133.001 27.5721 133.001 26.6259C133.001 25.6797 131.663 24.9183 130.01 24.9183C128.357 24.9183 127.02 25.6834 127.02 26.6259C127.02 27.5684 128.361 28.3371 130.01 28.3371Z" fill="#AE162D"/>
<path fill-rule="evenodd" clip-rule="evenodd" d="M60.3662 25.1322V36.3643H66.4282V32.6683C66.4282 31.8146 67.1319 31.4597 67.7659 31.4597C68.4 31.4597 69.034 31.2454 69.034 32.8088V36.3643H74.6745V31.6704C74.6745 30.4618 74.1834 28.7358 71.1524 28.6877C69.5224 28.6434 67.9046 28.9839 66.4282 29.682V25.1322H60.3662Z" fill="#AE162D"/>
<path fill-rule="evenodd" clip-rule="evenodd" d="M34.6143 29.0401V31.4573H36.5861V33.8005C36.5861 34.8687 37.4327 36.3618 40.1118 36.3618C41.6892 36.4289 43.2596 36.1159 44.6931 35.4489V33.6601C44.2716 33.8005 42.2265 34.6543 42.2265 32.9504V31.472H44.6931V29.0401H42.2265V26.6931H36.5861V29.0401H34.6143Z" fill="#AE162D"/>
<path fill-rule="evenodd" clip-rule="evenodd" d="M58.3701 29.6982C57.0287 28.8814 55.4381 28.5598 53.0815 28.5598C50.7248 28.5598 46.4551 29.591 46.4551 32.5774C46.4551 35.5637 50.1934 36.643 52.5904 36.643C54.9873 36.643 57.8057 36.1107 58.3701 35.719V33.6418C57.6664 34.0705 52.5904 35.0648 52.5904 32.6845C52.5904 31.402 54.6318 31.1174 55.2328 31.1174C55.8339 31.1174 57.8424 31.402 58.3701 31.7938V29.6982Z" fill="#AE162D"/>
<path fill-rule="evenodd" clip-rule="evenodd" d="M91.543 29.0615V36.3833H97.6196V32.6873C97.6191 32.5095 97.6535 32.3334 97.7207 32.169C97.788 32.0047 97.8868 31.8554 98.0114 31.7296C98.1361 31.6039 98.2841 31.5043 98.4471 31.4365C98.6101 31.3687 98.7847 31.334 98.961 31.3345C100.123 31.3345 100.229 31.4047 100.229 32.8129V36.3685H105.87V31.6893C105.87 30.2701 105.236 28.581 102.205 28.6328C100.619 28.6591 99.0563 29.0231 97.6196 29.7009V29.0615H91.543Z" fill="#AE162D"/>
<path fill-rule="evenodd" clip-rule="evenodd" d="M119.787 24H112.091C112.457 24.0702 113.044 25.0312 112.868 25.423L106.956 36.3705H110.255L111.629 33.5985H116.742L118.079 36.3705H125.732L119.787 24ZM112.754 31.3587L114.359 28.1247L115.697 31.3587H112.754Z" fill="#AE162D"/>
<path fill-rule="evenodd" clip-rule="evenodd" d="M144.039 25.1322V29.22C142.899 28.7919 141.696 28.5631 140.48 28.5436C138.75 28.5436 135.012 29.1682 135.012 32.3837C135.012 35.8654 138.677 36.3643 140.121 36.3643C141.565 36.3643 143.225 36.15 144.035 35.688V36.3643H149.672V25.1322H144.039ZM144.039 32.7755C144.039 33.0564 143.438 33.4851 142.804 33.4851C142.17 33.4851 140.795 33.6256 140.795 32.2766C140.795 31.2823 142.261 30.8906 142.734 30.8906C143.207 30.8906 144.039 30.9977 144.039 31.7074V32.7755Z" fill="#AE162D"/>
<path fill-rule="evenodd" clip-rule="evenodd" d="M84.5447 34.4636C83.6651 34.4636 82.5033 34.2825 82.0451 32.9335H90.1522C90.1522 31.2629 89.4449 28.1693 83.4525 28.1287C79.8571 28.1287 76.2617 29.3373 76.2287 32.3199C76.1957 35.3026 80.1063 36.3855 83.7347 36.3855C87.3631 36.3855 88.9867 35.8163 89.4815 35.4615L89.8004 33.754C89.093 34.0755 87.2348 34.5375 84.5447 34.4673V34.4636ZM83.4195 30.1245C84.2295 30.1245 84.5447 30.5163 84.5447 31.2629H82.0781C82.0896 31.0984 82.1337 30.9378 82.2078 30.7908C82.282 30.6439 82.3846 30.5134 82.5098 30.4072C82.6349 30.301 82.7799 30.2213 82.9362 30.1727C83.0925 30.1241 83.2568 30.1078 83.4195 30.1245Z" fill="#AE162D"/>
<path fill-rule="evenodd" clip-rule="evenodd" d="M6 24V36.3705H12.4138V32.6006C12.9086 32.6006 13.8615 32.2827 14.6348 33.4913L16.4344 36.3705H24.3252L20.8067 30.7526C20.312 30.043 20.136 29.3333 18.3035 29.1559L22.8152 24H18.2669L14.7961 28.3724C14.4113 28.8344 14.5872 29.2594 12.3991 29.2594V24H6Z" fill="#AE162D"/>
<path fill-rule="evenodd" clip-rule="evenodd" d="M152.652 25.6995C152.542 25.587 152.411 25.4982 152.266 25.4385C152.121 25.3787 151.966 25.3494 151.809 25.3521C151.654 25.3493 151.499 25.3787 151.355 25.4384C151.212 25.4982 151.082 25.5871 150.973 25.6995C150.861 25.809 150.772 25.9406 150.712 26.0862C150.652 26.2318 150.623 26.3883 150.625 26.5459C150.622 26.7038 150.651 26.8607 150.71 27.0069C150.77 27.1531 150.858 27.2855 150.97 27.396C151.076 27.5131 151.206 27.6065 151.351 27.6702C151.495 27.7338 151.651 27.7663 151.809 27.7656C151.967 27.7659 152.124 27.7333 152.269 27.6697C152.414 27.6061 152.544 27.5129 152.652 27.396C152.764 27.2857 152.853 27.1534 152.913 27.0072C152.973 26.861 153.003 26.7041 153 26.5459C153.002 26.3884 152.973 26.232 152.913 26.0865C152.853 25.9409 152.764 25.8093 152.652 25.6995ZM152.535 27.2814C152.439 27.3798 152.325 27.4579 152.199 27.5112C152.073 27.5646 151.938 27.592 151.802 27.592C151.665 27.592 151.53 27.5646 151.404 27.5112C151.278 27.4579 151.164 27.3798 151.069 27.2814C150.973 27.1843 150.898 27.0688 150.848 26.9419C150.797 26.8149 150.773 26.679 150.776 26.5422C150.772 26.405 150.796 26.2685 150.847 26.1413C150.898 26.0141 150.975 25.8989 151.072 25.803C151.167 25.7057 151.279 25.6283 151.403 25.5755C151.528 25.5227 151.661 25.4955 151.796 25.4955C151.931 25.4955 152.065 25.5227 152.189 25.5755C152.313 25.6283 152.426 25.7057 152.52 25.803C152.617 25.8989 152.694 26.0141 152.745 26.1413C152.796 26.2685 152.821 26.405 152.817 26.5422C152.82 26.6793 152.795 26.8156 152.744 26.9427C152.693 27.0697 152.617 27.185 152.52 27.2814H152.535Z" fill="#AE162D"/>
<path fill-rule="evenodd" clip-rule="evenodd" d="M152.337 27.2017C152.335 27.1783 152.335 27.1548 152.337 27.1315V27.0354V26.9393C152.334 26.8644 152.308 26.7922 152.264 26.7323C152.237 26.6969 152.203 26.6675 152.165 26.6458C152.126 26.6242 152.084 26.6109 152.04 26.6066C152.106 26.5972 152.17 26.5746 152.227 26.5401C152.269 26.5122 152.303 26.4736 152.326 26.4281C152.348 26.3827 152.358 26.3321 152.355 26.2814C152.362 26.2113 152.347 26.1408 152.31 26.0807C152.274 26.0206 152.219 25.9743 152.154 25.9487C152.036 25.9089 151.911 25.8926 151.787 25.9007H151.329V27.2165H151.56V26.699H151.74C151.827 26.6929 151.915 26.7068 151.996 26.7397C152.042 26.7743 152.078 26.8207 152.1 26.874C152.122 26.9273 152.129 26.9856 152.121 27.0428V27.1906H152.337V27.2017ZM151.97 26.5068C151.901 26.5292 151.827 26.5392 151.754 26.5364H151.545V26.0596H151.74C151.835 26.0523 151.931 26.0688 152.018 26.1077C152.049 26.1285 152.073 26.1574 152.089 26.1913C152.104 26.2252 152.11 26.2628 152.106 26.2999C152.109 26.3446 152.098 26.3892 152.073 26.4266C152.049 26.4641 152.013 26.4923 151.97 26.5068Z" fill="#AE162D"/>
</svg>
