<svg width="160" height="60" viewBox="0 0 160 60" fill="none" xmlns="http://www.w3.org/2000/svg">
<path d="M52.8745 44.7159C63.2986 44.7159 71.749 36.2729 71.749 25.858C71.749 15.443 63.2986 7 52.8745 7C42.4504 7 34 15.443 34 25.858C34 36.2729 42.4504 44.7159 52.8745 44.7159Z" fill="#B50A3E"/>
<path d="M66.2942 25.0011C66.2942 34.4538 58.7201 42.1167 50.2306 42.1167C41.741 42.1167 34.8594 34.4538 34.8594 25.0011C34.8594 15.5485 43.5005 7.8855 51.99 7.8855C60.4795 7.8855 66.2942 15.5485 66.2942 25.0011V25.0011Z" fill="url(#paint0_linear_162_1925)"/>
<path opacity="0.8" d="M57.4389 25.2235V26.9523H67.3034C67.0881 30.549 65.5422 33.7813 63.1467 36.1761C60.5605 38.7593 56.9956 40.3537 53.0504 40.3537C49.1044 40.3537 45.5402 38.7593 42.9533 36.1761C40.3685 33.5907 38.7717 30.03 38.7717 26.0882C38.7717 22.1458 40.3689 18.5847 42.9533 16C45.5402 13.4168 49.1044 11.8221 53.0504 11.8221L53.8332 11.8214V10.0929H53.0504C44.2085 10.0939 37.0417 17.2538 37.041 26.0886C37.0417 34.923 44.2085 42.0829 53.0504 42.0836C61.8922 42.0829 69.059 34.923 69.0597 26.0886V25.2238H57.4389V25.2235ZM44.6287 20.1099C44.6287 20.7363 44.8777 21.3371 45.3211 21.78C45.7644 22.223 46.3657 22.4718 46.9927 22.4718C47.6197 22.4718 48.221 22.223 48.6643 21.78C49.1077 21.3371 49.3567 20.7363 49.3567 20.1099C49.3567 19.4834 49.1077 18.8827 48.6643 18.4397C48.221 17.9968 47.6197 17.7479 46.9927 17.7479C46.3657 17.7479 45.7644 17.9968 45.3211 18.4397C44.8777 18.8827 44.6287 19.4834 44.6287 20.1099ZM52.1108 17.8077V34.4714H57.4825V32.7426H53.8411L53.8418 17.8077H52.1108Z" fill="#4D4D4D"/>
<path d="M57.1528 25.03V26.7588H67.0173C66.802 30.3552 65.2561 33.5874 62.8606 35.9822C60.2744 38.5655 56.7095 40.1602 52.7642 40.1602C48.8183 40.1602 45.2541 38.5655 42.6672 35.9822C40.0827 33.3973 38.4856 29.8362 38.4856 25.8947C38.4856 21.9523 40.0827 18.3912 42.6672 15.8066C45.2541 13.2233 48.8183 11.6286 52.7642 11.6286L53.547 11.6279V9.89941H52.7642C43.9224 9.90011 36.7556 17.06 36.7549 25.8947C36.7556 34.7288 43.9224 41.8887 52.7642 41.8894C61.6061 41.8887 68.7729 34.7288 68.7736 25.8947V25.03H57.1528ZM44.3429 19.916C44.3429 20.2262 44.404 20.5333 44.5228 20.8199C44.6416 21.1065 44.8158 21.3669 45.0353 21.5862C45.2548 21.8055 45.5154 21.9795 45.8022 22.0982C46.0891 22.2169 46.3965 22.278 46.7069 22.278C47.0174 22.278 47.3248 22.2169 47.6116 22.0982C47.8984 21.9795 48.159 21.8055 48.3785 21.5862C48.598 21.3669 48.7722 21.1065 48.891 20.8199C49.0098 20.5333 49.0709 20.2262 49.0709 19.916C49.0709 19.2896 48.8219 18.6888 48.3785 18.2459C47.9352 17.8029 47.3339 17.5541 46.7069 17.5541C46.0799 17.5541 45.4786 17.8029 45.0353 18.2459C44.5919 18.6888 44.3429 19.2896 44.3429 19.916V19.916ZM51.8246 17.6142V34.2779H57.1964V32.5487H53.555L53.5557 17.6142H51.8246Z" fill="url(#paint1_linear_162_1925)"/>
<path d="M119.527 36.0668C116.625 37.6777 113.44 38.288 110.159 38.288C101.552 38.288 98.1107 33.4209 98.1107 25.8015C98.1107 18.1822 101.811 13.2269 110.159 13.2269C113.692 13.2269 116.936 14.0474 119.572 17.1991L116.029 20.4373C114.689 18.6237 112.651 17.7603 110.159 17.7603C105.225 17.7603 103.54 21.3709 103.54 25.8015C103.54 30.2322 104.75 33.6059 110.159 33.6059C112.304 33.6059 113.515 33.3656 114.43 32.8286V28.5798H109.892V24.1934H119.527V36.0668H119.527ZM80.1094 13.7643V37.9682H97.2978V33.1274H85.7621V13.7764L80.1094 13.7643ZM80.2149 52.2785V45.017H81.3372V51.2893H84.3778V52.2785H80.2149ZM85.1942 46.2293V45.1277H86.3162V46.2293H85.1942ZM85.2254 52.2785V47.1079H86.285V52.2785H85.2254ZM88.883 47.9951V52.2785H87.8233V47.9951H87.2205V47.1995H87.8233V46.4039C87.8233 45.6595 88.2805 44.9659 89.2679 44.9659H90.5061V45.8531H89.4651C89.0702 45.8531 88.883 46.0775 88.883 46.4547V47.1992H90.549V47.9948H88.883V47.9951ZM92.1756 49.994C92.1756 50.8809 92.6535 51.4421 93.5162 51.4421C94.1087 51.4421 94.4202 51.2789 94.7943 50.9121L95.4698 51.5341C94.9293 52.0645 94.4202 52.3398 93.4951 52.3398C92.1756 52.3398 91.1256 51.6565 91.1256 49.688C91.1256 48.0156 92.0091 47.0467 93.3602 47.0467C94.7735 47.0467 95.5944 48.0664 95.5944 49.5349V49.994H92.1756ZM94.3991 48.5664C94.233 48.1788 93.8589 47.9135 93.3602 47.9135C92.8615 47.9135 92.4766 48.1788 92.3105 48.5664C92.2064 48.8011 92.1859 48.954 92.1752 49.27H94.5448C94.5344 48.954 94.5032 48.8008 94.3991 48.5664V48.5664ZM99.4109 52.3398C98.5481 52.3398 97.8207 52.1969 97.1974 51.5953L97.8937 50.9121C98.3197 51.3401 98.8915 51.4525 99.4113 51.4525C100.055 51.4525 100.565 51.2281 100.565 50.7385C100.565 50.3917 100.367 50.1676 99.858 50.1265L99.016 50.0552C98.0287 49.9736 97.4573 49.5349 97.4573 48.6272C97.4573 47.6176 98.3409 47.0467 99.4421 47.0467C100.232 47.0467 100.907 47.2099 101.396 47.6279L100.731 48.2911C100.398 48.0156 99.9307 47.9135 99.4317 47.9135C98.7977 47.9135 98.4755 48.1891 98.4755 48.5764C98.4755 48.8824 98.6416 49.1168 99.2033 49.168L100.035 49.2392C101.022 49.3208 101.604 49.7797 101.604 50.698C101.604 51.7789 100.669 52.3398 99.4109 52.3398ZM109.801 46.3673C108.75 45.8292 107.622 45.9451 107.622 45.9451C107.126 45.9828 106.791 46.1183 106.531 46.3939C106.167 46.7815 106.084 47.1895 106.084 48.648C106.084 50.1064 106.167 50.5245 106.531 50.9121C106.791 51.1873 107.186 51.3508 107.622 51.3508C107.622 51.3508 108.568 51.4207 109.201 51.1814V49.2904H107.622V48.3523H110.324V49.464L110.307 52.0638C108.914 52.4296 107.667 52.3425 107.622 52.3401C106.883 52.3034 106.188 52.0649 105.679 51.5652C104.951 50.8516 104.962 50.0456 104.962 48.6483C104.962 47.2511 104.952 46.4454 105.679 45.7314C106.188 45.2318 106.832 44.9562 107.622 44.9562C107.622 44.9562 109.169 44.822 110.425 45.599L109.801 46.3673ZM115.484 51.7277C115.141 52.0745 114.621 52.3398 113.904 52.3398C113.187 52.3398 112.678 52.0745 112.335 51.7277C111.836 51.2177 111.711 50.5653 111.711 49.688C111.711 48.8212 111.836 48.1684 112.335 47.6587C112.678 47.3119 113.187 47.0467 113.904 47.0467C114.621 47.0467 115.141 47.3119 115.484 47.6587C115.982 48.1687 116.107 48.8212 116.107 49.688C116.107 50.5653 115.983 51.2177 115.484 51.7277ZM114.683 48.2704C114.486 48.0764 114.216 47.9747 113.904 47.9747C113.593 47.9747 113.333 48.0768 113.135 48.2704C112.813 48.5864 112.771 49.1272 112.771 49.688C112.771 50.2492 112.813 50.7897 113.135 51.106C113.332 51.3 113.592 51.4121 113.904 51.4121C114.216 51.4121 114.486 51.3 114.683 51.106C115.006 50.7897 115.047 50.2492 115.047 49.688C115.047 49.1272 115.006 48.5864 114.683 48.2704V48.2704ZM120.895 51.7277C120.552 52.0745 120.032 52.3398 119.315 52.3398C118.598 52.3398 118.089 52.0745 117.746 51.7277C117.248 51.2177 117.123 50.5653 117.123 49.688C117.123 48.8212 117.247 48.1684 117.746 47.6587C118.089 47.3119 118.598 47.0467 119.315 47.0467C120.032 47.0467 120.552 47.3119 120.895 47.6587C121.393 48.1687 121.518 48.8212 121.518 49.688C121.518 50.5653 121.393 51.2177 120.895 51.7277ZM120.094 48.2704C119.897 48.0764 119.627 47.9747 119.315 47.9747C119.003 47.9747 118.744 48.0768 118.546 48.2704C118.223 48.5864 118.182 49.1272 118.182 49.688C118.182 50.2492 118.223 50.7897 118.546 51.106C118.743 51.3 119.003 51.4121 119.315 51.4121C119.627 51.4121 119.897 51.3 120.094 51.106C120.417 50.7897 120.458 50.2492 120.458 49.688C120.458 49.1272 120.417 48.5864 120.094 48.2704V48.2704ZM125.791 52.2785V51.7277C125.396 52.1966 124.97 52.3398 124.399 52.3398C123.869 52.3398 123.401 52.1665 123.11 51.8809C122.58 51.3609 122.518 50.4736 122.518 49.688C122.518 48.9028 122.58 48.0256 123.11 47.5055C123.401 47.2199 123.858 47.0467 124.388 47.0467C124.949 47.0467 125.386 47.1791 125.77 47.6279V45.017H126.83V52.2785H125.791ZM124.679 47.9747C123.723 47.9747 123.577 48.7704 123.577 49.688C123.577 50.6061 123.723 51.4117 124.679 51.4117C125.635 51.4117 125.77 50.6061 125.77 49.688C125.77 48.77 125.635 47.9747 124.679 47.9747ZM97.0542 45.8583V44.9368H96.0661V45.8583C96.0661 45.8583 96.1014 46.5758 95.7941 47.0872L96.3668 47.62C97.0753 47.1335 97.0542 45.8583 97.0542 45.8583Z" fill="#6E6E70"/>
<defs>
<linearGradient id="paint0_linear_162_1925" x1="50.577" y1="7.8855" x2="50.577" y2="42.1171" gradientUnits="userSpaceOnUse">
<stop offset="0.06" stop-color="#E3838D"/>
<stop offset="0.385" stop-color="#CE3D61"/>
<stop offset="0.632" stop-color="#B50A3E"/>
</linearGradient>
<linearGradient id="paint1_linear_162_1925" x1="52.7642" y1="9.89941" x2="52.7642" y2="41.8894" gradientUnits="userSpaceOnUse">
<stop offset="0.082" stop-color="white"/>
<stop offset="0.35" stop-color="#FCFCFC"/>
<stop offset="0.527" stop-color="#F3F3F3"/>
<stop offset="0.679" stop-color="#E4E4E4"/>
<stop offset="0.815" stop-color="#CFCFCF"/>
<stop offset="0.941" stop-color="#B4B4B4"/>
<stop offset="0.945" stop-color="#B3B3B3"/>
</linearGradient>
</defs>
</svg>
