<svg width="160" height="60" viewBox="0 0 160 60" fill="none" xmlns="http://www.w3.org/2000/svg">
<path d="M41.3572 34.3677H46.0044V38.4118H32.6992V21H45.8712V25.044H41.3424V27.8243H45.4716V31.4892H41.3424V34.3677H41.3572ZM20.9924 38.4118H29.7688V21H20.9924V38.4118ZM14.6432 21H6V38.4118H18.6392V33.7499H14.6432V21ZM102.807 31.4751H106.936V27.8102H102.807V25.044H107.336V21H94.1636V38.4118H107.469V34.3677H102.807V31.4751ZM68.6632 33.7359C68.6632 36.0106 67.2572 37.4991 64.8596 38.0467C63.8088 38.2854 62.1068 38.4118 60.5676 38.4118H48.6536V21H60.4936C62.0032 21 63.6608 21.1264 64.6968 21.3651C67.0352 21.9127 68.4116 23.4011 68.4116 25.6759C68.4116 27.7681 67.1092 29.2004 65.4516 29.6638C67.2276 30.0429 68.6632 31.5313 68.6632 33.7359ZM57.0156 28.063H58.2144C59.8128 28.063 60.3456 27.3047 60.3456 26.2376C60.3456 25.1704 59.8128 24.4121 58.2144 24.4121H57.0156V28.063ZM60.612 33.118C60.612 31.9806 60.0644 31.2224 58.3476 31.2224H57.0156V35.0137H58.3476C60.0792 34.9996 60.612 34.2414 60.612 33.118ZM82.516 27.4311H79.5856V21H70.9424V38.4118H79.5856V31.7279H82.516V38.4118H91.1592V21H82.516V27.4311ZM149.249 31.1522C151.514 30.1693 152.52 28.5404 152.52 26.3218C152.52 23.7381 150.892 22.0531 148.169 21.4213C146.97 21.1545 145.031 21 143.285 21H132.644V38.4118H140.887V32.8653H141.627L144.75 38.4118H154L149.249 31.1522ZM142.086 29.2004H140.887V25.044H142.086C143.684 25.044 144.217 25.8023 144.217 27.1222C144.217 28.4421 143.684 29.2004 142.086 29.2004ZM126.679 31.1522C128.944 30.1693 129.95 28.5404 129.95 26.3218C129.95 23.7381 128.322 22.0531 125.599 21.4213C124.4 21.1545 122.461 21 120.715 21H110.074V38.4118H118.317V32.8653H119.057L122.18 38.4118H131.43L126.679 31.1522ZM119.501 29.2004H118.302V25.044H119.501C121.1 25.044 121.632 25.8023 121.632 27.1222C121.632 28.4421 121.1 29.2004 119.501 29.2004Z" fill="black"/>
</svg>
