<svg width="160" height="60" viewBox="0 0 160 60" fill="none" xmlns="http://www.w3.org/2000/svg">
<path fill-rule="evenodd" clip-rule="evenodd" d="M38.8198 22.9341C38.7646 22.8791 38.6947 22.8439 38.6199 22.8334C38.5451 22.8229 38.469 22.8375 38.4023 22.8753C37.6147 23.1946 37.4257 23.0181 37.2603 22.8081C37.0949 22.598 36.7562 22.5812 36.4727 22.8501C33.7082 25.48 29.7151 26.2866 27.5807 26.5387C26.9698 26.6366 26.3486 26.6366 25.7377 26.5387C25.525 26.7529 25.2426 26.8704 24.9501 26.8664C24.9033 26.8759 24.8552 26.8759 24.8084 26.8664C25.3471 26.3221 25.7458 25.6393 25.9662 24.8835C26.256 24.5437 26.5072 24.1686 26.7144 23.7659C26.7144 23.6987 26.8562 23.4803 26.7144 23.3291C26.5726 23.1778 26.3836 23.245 26.3206 23.2618C26.2576 23.2786 26.1 22.9425 26.1 22.7577C26.0011 22.0742 25.7611 21.4227 25.3974 20.8502C25.0338 20.2777 24.5555 19.7985 23.9972 19.4472C24.1918 19.0841 24.5063 18.8115 24.8793 18.6826C26.1394 18.1448 27.2893 16.6492 28.1635 14.3638C28.481 13.4938 28.6056 12.5573 28.5277 11.6274C28.4499 10.6975 28.1716 9.79938 27.7146 9.00317C27.2941 8.53031 26.7489 8.20485 26.1512 8.06981C25.5535 7.93478 24.9314 7.99658 24.3673 8.247C23.5797 8.54948 22.0045 9.98627 20.831 11.1374C20.1773 11.7591 19.6102 12.2969 19.2558 12.5237C18.6888 12.8809 18.0832 13.1631 17.4522 13.3639C16.5079 13.7051 15.5846 14.1092 14.6877 14.5739C14.2726 14.7644 13.8992 15.0451 13.5914 15.398C13.2835 15.751 13.048 16.1685 12.8999 16.624C12.7899 17.1024 12.7731 17.5996 12.8503 18.0852C12.9275 18.5707 13.0971 19.0343 13.3488 19.4472C14.2939 21.1276 16.641 20.6151 16.9954 20.4134C17.128 20.3624 17.2711 20.3503 17.4097 20.3784C17.5482 20.4064 17.6771 20.4737 17.783 20.5731C17.8582 20.6554 17.9053 20.7622 17.9167 20.8765C17.9281 20.9908 17.9033 21.1059 17.846 21.2033C17.4895 21.8898 17.3025 22.6618 17.3026 23.4466C17.3001 23.9464 17.3746 24.4431 17.5231 24.917C17.5394 24.9553 17.5478 24.9969 17.5478 25.0389C17.5478 25.0809 17.5394 25.1225 17.5231 25.1607C17.5231 25.1607 17.4601 25.1607 17.3971 25.1607C17.321 25.1443 17.242 25.1561 17.1732 25.1943C17.1043 25.2326 17.0499 25.2949 17.019 25.3708C16.9911 25.4443 16.9885 25.5258 17.0116 25.6012C17.0346 25.6765 17.0819 25.7407 17.145 25.7825C17.4657 25.9999 17.8206 26.1536 18.1926 26.2362C18.7596 27.0382 19.5513 27.6268 20.453 27.9167L21.0279 29.7903L22.5243 29.0089C22.8769 28.8359 23.2745 28.7973 23.6506 28.8997L25.3361 29.2106C25.7063 28.6225 26.0055 28.4544 26.1709 28.446C26.2226 28.4475 26.2734 28.4611 26.3196 28.4858C26.3659 28.5105 26.4065 28.5456 26.4387 28.5888C27.6412 30.1658 28.2077 32.1876 28.0139 34.2099C27.9036 36.2349 25.7456 37.1339 24.6666 37.1507C23.9078 37.2308 23.1423 37.105 22.4414 36.7847C21.7405 36.4645 21.1269 35.9602 20.6577 35.319C19.2086 33.2017 19.5472 29.824 19.9489 28.5972C11.876 26.7403 9.62345 22.7157 8.92249 21.4133L8.83586 21.2537C8.79457 21.1693 8.73651 21.0955 8.66579 21.0375C8.59506 20.9794 8.51334 20.9385 8.42629 20.9176C8.28298 20.9043 8.13866 20.9237 8.00288 20.9744C7.86711 21.0251 7.74298 21.106 7.63869 21.2117L6.68568 20.5143C6.47303 20.2874 6.28404 20.2202 6.1344 20.3042C5.98476 20.3882 6.00047 21.1444 6.00047 21.1444L6.42581 22.514C6.45876 22.6947 6.53071 22.8647 6.63598 23.0105C6.74124 23.1564 6.8769 23.2741 7.03223 23.3542C8.03838 23.915 8.91533 24.7071 9.59981 25.6733L17.4758 34.0755C17.6788 34.3011 17.8188 34.5825 17.88 34.8883C17.9412 35.1941 17.9213 35.512 17.8224 35.8064C16.641 39.3605 12.1989 43.8641 12.1989 43.8641H16.8615C17.9641 43.8641 17.9878 44.2842 18.0193 44.822C18.028 46.0488 17.9198 47.2735 17.6964 48.477C17.4758 49.3172 17.2632 49.5441 16.7433 49.7625C16.2235 49.981 16.2787 50.1406 16.3023 50.2834C16.3315 50.3778 16.3889 50.4593 16.4657 50.5155C16.5426 50.5717 16.6346 50.5993 16.7276 50.5943C16.7276 50.5943 17.2238 50.6784 17.7515 49.9894C18.0114 49.6617 21.3429 45.3934 21.6186 45.1077C21.7604 44.9312 21.9651 44.7464 22.1542 44.8052C22.3432 44.864 22.5165 45.2001 22.5716 45.4774C22.6582 45.9563 22.7212 50.5187 22.7212 50.5187H22.8945C23.3403 50.498 23.7802 50.6337 24.1468 50.9052L24.3516 51.0229C24.416 51.0713 24.4948 51.0929 24.5731 51.0836C24.6515 51.0743 24.724 51.0348 24.7769 50.9724C24.832 50.88 24.832 50.7456 24.6824 50.6111C24.3307 50.3706 24.0752 49.9993 23.9656 49.5693C23.9699 49.3125 24.069 49.068 24.2413 48.8887C25.6669 47.0738 29.8175 41.3267 30.6208 38.806C31.4558 36.0221 31.442 33.0275 30.5815 30.2525C31.2352 29.261 35.8033 26.0514 36.7326 25.7825C38.0243 25.4548 38.2606 24.833 38.6859 23.7408C38.8828 23.3543 38.804 23.1274 38.7331 23.0434L38.8198 22.9341Z" fill="#1D1D1B"/>
<path fill-rule="evenodd" clip-rule="evenodd" d="M38.559 23.1678C37.8266 23.4703 37.3619 23.4282 37.0311 23.0165C36.9287 22.8905 36.779 23.0166 36.6688 23.0922C33.8413 25.7809 29.7773 26.6043 27.6035 26.8564C27.008 26.9485 26.4032 26.9485 25.8078 26.8564C25.5721 27.0791 25.2637 27.1938 24.9493 27.1757C24.8486 27.15 24.7536 27.1034 24.6698 27.0385C24.5861 26.9736 24.5151 26.8917 24.461 26.7975C25.0476 26.23 25.4802 25.5044 25.7133 24.697C25.7133 24.697 26.367 23.756 26.5009 23.5291C26.4521 23.5557 26.3981 23.5695 26.3434 23.5695C26.2886 23.5695 26.2346 23.5557 26.1858 23.5291C26.0855 23.4341 26.0049 23.3177 25.9493 23.1875C25.8937 23.0572 25.8643 22.916 25.8629 22.7729C25.7701 22.1135 25.5346 21.4862 25.175 20.9407C24.8155 20.3953 24.3418 19.9467 23.7915 19.6304L23.6655 19.5548L23.7364 19.412C23.8394 19.1641 23.9912 18.9428 24.1814 18.763C24.3717 18.5833 24.596 18.4493 24.8391 18.3701C26.0205 17.866 27.1073 16.4208 27.9895 14.2194C28.2911 13.4025 28.4111 12.5221 28.34 11.6474C28.2689 10.7727 28.0088 9.92742 27.5799 9.17804C27.1986 8.761 26.7083 8.4762 26.173 8.36079C25.6378 8.24539 25.0823 8.30472 24.5791 8.53105C23.7915 8.81673 22.3345 10.2115 21.1452 11.3626C20.4758 11.9928 19.9087 12.5389 19.57 12.7742C18.9796 13.1348 18.3501 13.4169 17.6955 13.6144C16.7633 13.9504 15.8529 14.3518 14.9704 14.816C14.5906 14.9834 14.2483 15.2347 13.966 15.5533C13.6836 15.8719 13.4676 16.2505 13.3322 16.6644C13.2399 17.0935 13.23 17.538 13.3031 17.9712C13.3762 18.4044 13.5308 18.8173 13.7575 19.1851C14.6081 20.7479 16.8134 20.1346 16.9867 20.0253C17.171 19.9408 17.3741 19.9141 17.5722 19.9483C17.7703 19.9825 17.9551 20.0763 18.105 20.2186C18.2351 20.3501 18.3193 20.525 18.3437 20.7144C18.368 20.9039 18.3311 21.0965 18.239 21.2605C17.9072 21.8979 17.7337 22.6152 17.7349 23.3442C17.7324 23.809 17.7988 24.2712 17.9318 24.7138C17.9656 24.8026 17.9783 24.899 17.9687 24.9943C17.9591 25.0896 17.9275 25.1809 17.8767 25.26C17.8291 25.3221 17.7666 25.369 17.6957 25.3957C17.6249 25.4223 17.5485 25.4277 17.475 25.4112C17.4666 25.406 17.4571 25.4033 17.4474 25.4033C17.4377 25.4033 17.4282 25.406 17.4198 25.4112C17.7371 25.602 18.0759 25.7488 18.428 25.8481L18.5225 25.9153C19.0706 26.7069 19.8487 27.283 20.7356 27.5538L21.3185 29.2342L22.5077 28.6125C22.9217 28.4087 23.3883 28.3613 23.8309 28.478L25.2879 28.7889C25.6266 28.2932 25.9574 28.0327 26.2803 28.0243C26.3808 28.0216 26.4804 28.0447 26.5708 28.0914C26.6613 28.1382 26.7399 28.2074 26.8002 28.2932C28.0481 29.9323 28.637 32.0318 28.4383 34.1327C28.3202 36.1829 26.2016 37.3508 24.7839 37.3676C23.9777 37.4509 23.1649 37.3151 22.4212 36.9728C21.6775 36.6304 21.0272 36.0927 20.5309 35.4099C19.1919 33.4521 19.255 30.3685 19.7433 28.6881C11.6782 26.7891 9.50446 22.8065 8.76412 21.4705L8.6775 21.3193C8.65998 21.2746 8.63316 21.2347 8.59904 21.2026C8.56493 21.1706 8.52442 21.1473 8.4806 21.1344C8.232 21.2287 7.99419 21.3528 7.77174 21.5041C7.77174 21.5041 6.42495 20.4959 6.40132 20.4959C6.36232 20.6442 6.36232 20.8012 6.40132 20.9496C6.40132 21.042 6.80303 22.2436 6.82666 22.3108C6.84876 22.4488 6.90284 22.5787 6.98399 22.6888C7.06515 22.7988 7.17077 22.8855 7.29131 22.9409C8.33442 23.5256 9.24348 24.3491 9.9534 25.3524C10.2527 25.6801 17.8294 33.6874 17.79 33.679C18.0295 33.9468 18.1969 34.2787 18.2745 34.6395C18.3522 35.0003 18.3371 35.3767 18.2311 35.7291C17.5616 38.4011 14.3797 42.0981 13.1038 43.3836H16.9709C18.2547 43.3836 18.3886 43.955 18.428 44.6523C18.4408 45.9132 18.33 47.172 18.0972 48.4082C17.8609 49.3072 17.6089 49.6433 16.9631 49.9122C16.8674 49.9409 16.7805 49.9959 16.711 50.0718C16.7645 50.0942 16.8199 50.111 16.8764 50.1222C17.0497 50.1222 17.1678 50.1222 17.664 49.6097C17.9396 49.324 18.7745 48.2317 19.5857 47.1814C20.397 46.1311 21.2397 45.0221 21.5232 44.728C21.6144 44.5844 21.7422 44.4717 21.8916 44.4032C22.0409 44.3347 22.2056 44.3132 22.366 44.3415C22.5345 44.4256 22.6805 44.5535 22.7906 44.7136C22.9007 44.8736 22.9714 45.0606 22.9961 45.2573C23.0906 45.7699 23.1772 48.9711 23.1615 50.013C23.5536 50.0216 23.9366 50.1404 24.272 50.3575C24.016 50.1148 23.8464 49.7854 23.7915 49.4249C23.7884 49.2539 23.8174 49.084 23.8769 48.9252C23.9364 48.7664 24.0253 48.622 24.1381 48.5006C25.5479 46.6941 29.6513 40.9386 30.4389 38.5019C31.2688 35.7416 31.2467 32.77 30.3759 30.024C30.9035 29.041 35.7552 25.5289 36.7712 25.2684C37.9132 24.9743 38.1101 24.4281 38.5197 23.4031C38.5798 23.3067 38.6023 23.1892 38.5826 23.0754L38.559 23.1678Z" fill="#1D1D1B"/>
<path fill-rule="evenodd" clip-rule="evenodd" d="M9.77988 23.5315L8.99228 24.1196C8.99228 24.1196 7.94475 23.2795 7.59033 23.1114C7.30723 22.9665 7.08127 22.7195 6.95238 22.414L6.80273 21.8174C6.80273 21.2293 7.59032 21.9267 8.01562 22.3384C8.27553 22.624 8.50396 22.8005 8.44095 22.4812C8.2283 21.7503 8.56697 21.473 8.83475 22.0611C8.92927 22.288 9.02377 22.4476 9.12616 22.6913C9.29912 22.9985 9.5082 23.2809 9.74835 23.5315H9.77988Z" fill="white"/>
<path fill-rule="evenodd" clip-rule="evenodd" d="M9.29395 24.3727L10.0107 23.7426L10.499 24.2299L9.81376 24.9273L9.29395 24.3727Z" fill="white"/>
<path fill-rule="evenodd" clip-rule="evenodd" d="M35.834 25.521C36.323 25.3674 36.8019 25.1793 37.2675 24.958C37.4134 24.8838 37.5344 24.7636 37.614 24.6135C37.7164 24.3278 37.9291 23.5464 37.1257 23.9665C36.5823 24.2438 36.598 23.8153 36.2908 23.7733C35.9837 23.7313 35.582 24.2774 35.2197 24.6135L35.834 25.5546V25.521Z" fill="white"/>
<path fill-rule="evenodd" clip-rule="evenodd" d="M34.8807 24.826L34.29 25.1705L34.8492 26.078L35.5029 25.7335L34.8807 24.826Z" fill="white"/>
<path fill-rule="evenodd" clip-rule="evenodd" d="M18.8753 20.1118C19.488 19.5024 20.2547 19.0981 21.0806 18.9488C21.9065 18.7994 22.7553 18.9117 23.5221 19.2715C23.9474 18.8514 24.16 16.9609 24.2309 16.608C24.3018 16.2552 24.4514 16.356 24.4042 16.608C24.3569 16.8601 24.2939 17.5575 24.2782 17.8012C24.2624 18.0448 24.5381 18.4901 25.4202 17.86C26.4892 16.8413 27.3016 15.5528 27.783 14.1125C28.0396 13.3469 28.1289 12.5288 28.0443 11.7207C27.9597 10.9126 27.7033 10.1357 27.2947 9.44931C26.3102 8.08814 24.5145 8.75192 23.9238 9.23925C23.3331 9.72658 20.6552 12.4825 19.5368 13.2555C18.4184 14.0285 16.1974 14.373 14.5986 15.3813C14.2946 15.5891 14.0363 15.8646 13.8414 16.1889C13.6465 16.5132 13.5197 16.8786 13.4696 17.2601C13.4194 17.6415 13.4472 18.0301 13.551 18.399C13.6548 18.768 13.8321 19.1086 14.0709 19.3975C14.8585 20.3386 16.4337 20.095 16.6936 19.9605C17.1189 19.8177 17.8829 19.6917 17.2764 18.8094C17.1819 18.6666 17.2764 18.5909 17.3788 18.6246C17.5631 18.809 17.6896 19.0496 17.7411 19.3135C17.8066 19.6214 17.9676 19.8967 18.1979 20.095C18.4578 20.3806 18.5917 20.4142 18.8831 20.137L18.8753 20.1118Z" fill="white"/>
<path fill-rule="evenodd" clip-rule="evenodd" d="M25.6363 24.1433C24.699 25.0339 22.8246 24.9835 22.5647 24.9163C22.3048 24.8491 22.2339 24.9163 22.415 25.0759C23.3506 25.4074 24.3543 25.454 25.3134 25.2104C25.022 25.8311 24.5911 26.3651 24.059 26.7646C23.5269 27.1642 22.9103 27.4169 22.2644 27.5001C21.6184 27.5833 20.9632 27.4945 20.3572 27.2416C19.7513 26.9886 19.2135 26.5795 18.792 26.0506C19.2748 25.9734 19.7233 25.7386 20.0758 25.3784C20.1861 25.2776 20.1388 25.1684 19.9262 25.3112C19.4626 25.5141 18.9607 25.5975 18.4613 25.5549C18.2182 25.131 18.0475 24.6644 17.9572 24.1769C18.1737 24.008 18.4 23.8537 18.6345 23.7148C18.8312 23.585 19.0468 23.4913 19.2725 23.4375C19.4143 23.3955 19.5403 23.3451 19.5088 23.1854C19.4773 23.0258 18.9968 23.0174 18.7212 23.1098C18.3116 23.2611 18.0517 23.2443 17.8627 23.0594C17.855 22.4578 17.9686 21.8615 18.1957 21.3108C18.4228 20.7601 18.7581 20.2678 19.179 19.8673C19.5998 19.4668 20.0964 19.1674 20.6351 18.9894C21.1738 18.8114 21.7421 18.7589 22.3015 18.8354C22.8609 18.912 23.3983 19.1158 23.8774 19.4332C24.3566 19.7505 24.7662 20.174 25.0787 20.6749C25.3911 21.1757 25.5991 21.7423 25.6885 22.3364C25.7779 22.9304 25.7467 23.538 25.5969 24.1181L25.6363 24.1433Z" fill="white"/>
<path fill-rule="evenodd" clip-rule="evenodd" d="M21.6769 22.1978C21.4879 22.2651 21.2674 22.828 21.6769 22.618C21.902 22.5385 22.145 22.5385 22.37 22.618C22.6378 22.6768 22.7874 22.4499 22.5354 22.3071C22.2748 22.1492 21.9665 22.107 21.6769 22.1894V22.1978Z" fill="#1D1D1B"/>
<path fill-rule="evenodd" clip-rule="evenodd" d="M79.0576 45.468H83.035V34.7887H79.0576V45.468Z" fill="#1D1D1B"/>
<path fill-rule="evenodd" clip-rule="evenodd" d="M79.0576 33.4184H83.035V30.402H79.0576V33.4184Z" fill="#1D1D1B"/>
<path fill-rule="evenodd" clip-rule="evenodd" d="M90.2346 43.2345C89.0689 43.2345 88.494 41.8649 88.494 40.2517C88.494 38.983 88.7381 37.3362 90.2346 37.3362C90.4253 37.325 90.616 37.3574 90.7939 37.4313C90.9719 37.5052 91.133 37.6189 91.2663 37.7647C91.5708 38.0467 91.7671 38.4386 91.8177 38.8654H95.8502C95.5588 35.7061 92.9046 34.4794 90.2346 34.4794C86.9267 34.4794 84.5166 36.58 84.5166 40.2265C84.5166 43.8731 87.0054 45.772 90.2346 45.772C93.0069 45.772 95.5824 44.9318 95.9211 41.6465H91.9122C91.8761 42.0899 91.6821 42.5017 91.37 42.7972C91.058 43.0926 90.6516 43.2491 90.2346 43.2345Z" fill="#1D1D1B"/>
<path fill-rule="evenodd" clip-rule="evenodd" d="M140.988 41.0835C141.358 36.9832 138.806 34.4794 135.096 34.4794C131.891 34.4794 129.426 36.7228 129.426 40.2265C129.426 43.7303 132.167 45.9821 135.38 45.9821C137.743 45.9821 140.106 45.2931 140.728 42.806H136.955C136.812 43.0838 136.593 43.3088 136.327 43.4512C136.061 43.5937 135.761 43.647 135.467 43.6042C133.891 43.6042 133.427 42.3523 133.427 41.0835H135.207H140.988ZM133.395 38.9242C133.381 38.6653 133.42 38.4061 133.51 38.165C133.6 37.924 133.738 37.7072 133.916 37.5299C134.093 37.3525 134.305 37.2191 134.536 37.1392C134.768 37.0592 135.013 37.0347 135.254 37.0673C135.713 37.0798 136.151 37.279 136.477 37.6241C136.804 37.9692 136.994 38.4342 137.01 38.9242H135.175H133.395Z" fill="#1D1D1B"/>
<path fill-rule="evenodd" clip-rule="evenodd" d="M44.0187 40.2325C44.0187 40.2325 40.9393 30.3178 40.9393 30.385H35.6387V45.5091H39.6948C39.5491 42.5311 39.5491 39.547 39.6948 36.5691L42.4435 45.4671H45.5939L48.2167 36.8128C48.3112 39.4259 48.3427 42.5347 48.2167 45.4671H52.2728V30.343H47.0353L44.0187 40.2325Z" fill="#1D1D1B"/>
<path fill-rule="evenodd" clip-rule="evenodd" d="M143.051 34.7839H141.72V37.2374H143.035V45.4716H146.973V37.2374H148.635V34.7839H146.973C146.878 33.1034 147.335 33.1034 148.635 33.1034V30.4315H146.934C144.39 30.4315 142.996 31.0449 142.996 34.8091L143.051 34.7839Z" fill="#1D1D1B"/>
<path fill-rule="evenodd" clip-rule="evenodd" d="M73.815 34.782V35.9836C73.3983 35.4836 72.8823 35.0891 72.3046 34.8289C71.7269 34.5687 71.102 34.4494 70.4756 34.4796C67.1913 34.4796 66.002 37.2691 66.002 39.899C66.002 42.6298 67.5772 44.9404 70.3653 44.9404C71.7987 44.9404 72.8935 44.7892 73.5157 44.1674V44.6547C73.5157 46.1839 73.3739 47.0914 72.0429 47.0914C71.6249 47.0992 71.2131 46.9828 70.8536 46.7552C70.7172 46.6389 70.6294 46.4698 70.6094 46.2847H66.6084C66.8053 47.8559 68.2939 49.36 71.8302 49.36C76.7606 49.36 77.304 46.8393 77.304 43.6548V34.782H73.815ZM71.6491 42.4113C70.6567 42.4113 70.0739 41.5711 69.9951 40.2687C70.0739 39.1764 70.5543 37.496 71.6491 37.5212C72.1835 37.5621 72.6809 37.8274 73.0323 38.259C73.3837 38.6905 73.5604 39.2531 73.5236 39.8234C73.5236 41.3526 72.8699 42.4701 71.6491 42.4113Z" fill="#1D1D1B"/>
<path fill-rule="evenodd" clip-rule="evenodd" d="M64.6746 43.8983V38.9074C64.6746 36.3867 64.3911 34.4794 59.6497 34.4794C55.7117 34.4794 53.9239 35.8069 53.9239 38.0671H57.7438C57.8383 37.1513 58.8464 37.0253 59.3978 37.0253C59.8231 37.0253 60.6973 37.1345 60.6973 37.8655C60.6973 39.8652 53.3096 37.6638 53.3096 42.5119C53.3096 44.7385 54.9951 45.73 56.8853 45.73C58.3739 45.73 59.4371 45.604 60.4531 44.6713L61.0989 45.4275H65.0369V45.2259C64.7635 44.8327 64.6422 44.3423 64.6983 43.8563L64.6746 43.8983ZM58.681 43.369C57.8934 43.369 57.4209 42.9993 57.4209 42.4699C57.4209 41.0836 59.4056 41.4112 60.6973 40.7391C60.7996 42.2095 60.0751 43.369 58.681 43.369Z" fill="#1D1D1B"/>
<path fill-rule="evenodd" clip-rule="evenodd" d="M109.53 42.5426C107.238 42.5426 106.419 40.3328 106.419 38.2659C106.419 35.4343 107.774 33.9891 109.357 33.9891C110.775 33.9891 111.869 34.7622 112.003 36.2914H116.28C116.059 32.9305 113.783 30.4098 108.908 30.4098C105.064 30.4098 102.04 33.3674 102.04 38.1146C102.04 42.8619 104.552 45.8951 109.672 45.8615C113.303 45.8615 115.878 44.0802 116.658 40.1396H112.302C112.2 40.8354 111.861 41.4665 111.349 41.9116C110.837 42.3566 110.19 42.5844 109.53 42.551V42.5426Z" fill="#1D1D1B"/>
<path fill-rule="evenodd" clip-rule="evenodd" d="M124.156 34.4788C123.517 34.4663 122.884 34.6115 122.306 34.903C121.728 35.1945 121.221 35.6244 120.825 36.1593V30.8154H116.887V45.4941H120.825V40.0243C120.825 38.6632 121.447 37.8229 122.668 37.8229C123.888 37.8229 124.062 38.7639 124.062 39.8226V45.469H128V39.0664C128 36.1341 126.755 34.4788 124.117 34.4788H124.156Z" fill="#1D1D1B"/>
<path fill-rule="evenodd" clip-rule="evenodd" d="M151.919 31.041C151.624 31.0394 151.335 31.1313 151.089 31.3051C150.843 31.479 150.651 31.7269 150.538 32.0174C150.424 32.3079 150.394 32.6279 150.451 32.9368C150.508 33.2456 150.65 33.5293 150.859 33.7519C151.067 33.9745 151.333 34.1259 151.623 34.187C151.912 34.248 152.212 34.2158 152.485 34.0945C152.757 33.9733 152.989 33.7685 153.152 33.5061C153.315 33.2436 153.401 32.9355 153.4 32.6207C153.398 32.2024 153.241 31.8019 152.964 31.5061C152.687 31.2104 152.311 31.0432 151.919 31.041ZM151.919 34.0154C151.66 34.0171 151.407 33.9367 151.191 33.7844C150.975 33.6322 150.806 33.415 150.706 33.1603C150.606 32.9056 150.579 32.6248 150.628 32.3537C150.678 32.0826 150.802 31.8333 150.984 31.6374C151.167 31.4415 151.4 31.3078 151.653 31.2533C151.907 31.1988 152.171 31.2259 152.41 31.3312C152.649 31.4366 152.854 31.6154 152.998 31.8449C153.142 32.0744 153.219 32.3444 153.219 32.6207C153.22 32.8034 153.187 32.9846 153.122 33.1538C153.057 33.3229 152.962 33.4767 152.841 33.6064C152.72 33.736 152.577 33.8389 152.418 33.9091C152.26 33.9793 152.091 34.0154 151.919 34.0154Z" fill="#1D1D1B"/>
<path fill-rule="evenodd" clip-rule="evenodd" d="M152.706 32.211C152.709 32.1357 152.693 32.0609 152.66 31.9944C152.627 31.9278 152.577 31.8721 152.517 31.833C152.394 31.761 152.255 31.7288 152.115 31.7405H151.391V33.5134H151.595V32.6732H151.966L152.438 33.5134H152.682L152.178 32.6732C152.478 32.6732 152.706 32.5303 152.706 32.1858V32.211ZM151.918 32.5219H151.611V31.9001H152.084C152.289 31.9001 152.517 31.9002 152.517 32.2027C152.517 32.5051 152.155 32.5219 151.918 32.5219Z" fill="#1D1D1B"/>
</svg>
