<svg width="160" height="60" viewBox="0 0 160 60" fill="none" xmlns="http://www.w3.org/2000/svg">
<path fill-rule="evenodd" clip-rule="evenodd" d="M17 14H142.84V45.0346H17V14Z" fill="#CC2229"/>
<path fill-rule="evenodd" clip-rule="evenodd" d="M65.7663 23.7412L70.5904 21.2327L69.079 18.3164L64.2556 20.7662L65.7663 23.7412ZM72.5087 35.8748V24.0909H59.605V27.4163H61.9296V35.8748H59.605V39.2001H74.8333V35.8748H72.5087ZM87.0394 23.3328V26.4833C86.8257 26.483 86.614 26.5251 86.4165 26.6071C86.219 26.6891 86.0396 26.8094 85.8885 26.9611C85.7374 27.1127 85.6177 27.2929 85.536 27.4911C85.4545 27.6894 85.4126 27.9018 85.413 28.1163V30.2171H87.0394V32.783H85.413V34.3005C85.413 35.1747 85.9343 35.9922 86.7488 36.4007C86.8659 36.4587 86.9815 36.5168 87.0394 36.5168V39.9002C84.9482 39.9582 82.7958 39.5505 80.6454 38.733C78.6692 37.9749 77.2164 36.5748 76.4032 34.5915C74.7747 30.7416 76.5189 26.3078 80.3548 24.7322C82.5651 23.7412 84.8312 23.3328 87.0394 23.3328ZM40.0754 26.9498L45.7133 19.1332H57.454V22.4572H55.1294V35.8748H57.454V39.2001H42.1673V35.8748H44.551V27.1827L35.8325 39.2001L27.1132 27.1827V35.8748H29.4963V39.2001H21.0684V35.8748H23.3936V22.4572H21.0684V19.1332H34.3783L40.0754 26.9498ZM101.629 35.8748H99.304V39.2001H115.056V35.8748H112.672V19.1332H99.304V22.4572H101.629V35.8748ZM87.0394 32.783V30.2171H88.725V28.1163C88.725 27.1827 87.9696 26.4833 87.0394 26.4833V23.3328C89.4817 23.3909 91.8635 23.9741 94.1901 25.1413C97.0958 26.6001 98.6644 29.5751 98.2574 32.783H87.0394Z" fill="white"/>
<path fill-rule="evenodd" clip-rule="evenodd" d="M87.04 39.9009V36.5175C87.1571 36.5755 87.2149 36.5755 87.332 36.6336C89.4232 37.2755 91.6334 36.051 92.2717 33.9502H98.143C97.4455 35.9923 96.0505 37.393 94.1914 38.2672C91.8063 39.3757 89.4231 39.9009 87.04 39.9009ZM127.262 23.3335V26.484C126.332 26.484 125.577 27.184 125.577 28.117V30.2178H127.262V32.7837H125.577V34.3012C125.577 35.1754 126.099 35.9929 126.913 36.4C127.03 36.4594 127.145 36.5175 127.262 36.5175V39.9009C125.112 39.9589 122.961 39.5498 120.81 38.7337C118.834 37.9756 117.439 36.5755 116.567 34.5922C114.939 30.7423 116.742 26.3085 120.578 24.7329C122.786 23.7419 124.995 23.3335 127.262 23.3335ZM127.262 32.7837V30.2178H128.89V28.117C128.89 27.9024 128.849 27.6898 128.767 27.4914C128.685 27.293 128.565 27.1128 128.414 26.9611C128.263 26.8093 128.083 26.6891 127.886 26.6072C127.688 26.5253 127.476 26.4835 127.262 26.484V23.3335C129.645 23.3916 132.029 23.9748 134.412 25.142C137.317 26.6008 138.887 29.5758 138.48 32.7837H127.262ZM127.262 39.9009V36.5175C127.32 36.5755 127.378 36.5755 127.495 36.6336C129.588 37.2755 131.854 36.051 132.494 33.9502H138.365C137.609 35.9923 136.273 37.393 134.354 38.2672C131.971 39.3757 129.645 39.9009 127.262 39.9009Z" fill="white"/>
</svg>
