<svg width="160" height="60" viewBox="0 0 160 60" fill="none" xmlns="http://www.w3.org/2000/svg">
<path d="M10.847 20H148.753C151.435 20 153.6 22.1877 153.6 24.8974V35.6868C153.6 38.3965 151.435 40.5842 148.753 40.5842H10.847C8.16516 40.5842 6 38.3965 6 35.6868V24.9223C6 22.2126 8.16516 20 10.847 20Z" fill="#0071BB"/>
<path d="M10.847 20H148.753C151.435 20 153.6 22.1877 153.6 24.8974V35.6868C153.6 38.3965 151.435 40.5842 148.753 40.5842H10.847C8.16516 40.5842 6 38.3965 6 35.6868V24.9223C6 22.2126 8.16516 20 10.847 20Z" stroke="#0071BB" stroke-width="2.4087" stroke-miterlimit="3.864"/>
<path d="M29.4208 24.2747C29.6914 23.9515 30.0851 23.7278 30.5526 23.7278H37.0727C37.8846 23.7278 38.5243 24.399 38.5243 25.1945V35.4866C38.5243 36.307 37.86 36.9534 37.0727 36.9534H31.2415C30.4296 36.9534 29.7899 36.2822 29.7899 35.4866V30.7632C29.7899 30.7632 26.05 35.5363 26.0254 35.5612C25.4349 36.4313 24.9183 36.9534 24.1309 36.9534H19.9728C19.1609 36.9534 18.8164 36.1081 18.5212 35.5861C18.4966 35.5364 15.5933 30.7632 15.5933 30.7632V35.4866C15.5933 36.307 14.929 36.9534 14.1417 36.9534H13.1821C12.3702 36.9534 11.7305 36.2822 11.7305 35.4866V25.1945C11.7305 24.3741 12.3948 23.7278 13.1821 23.7278H20.5879C21.1538 23.7278 21.5967 23.9515 21.892 24.2996C21.9166 24.3244 25.681 29.4456 25.681 29.4456L29.4208 24.2747Z" fill="white"/>
<path d="M29.4208 24.2747C29.6914 23.9515 30.0851 23.7278 30.5526 23.7278H37.0727C37.8846 23.7278 38.5243 24.399 38.5243 25.1945V35.4866C38.5243 36.307 37.86 36.9534 37.0727 36.9534H31.2415C30.4296 36.9534 29.7899 36.2822 29.7899 35.4866V30.7632C29.7899 30.7632 26.05 35.5363 26.0254 35.5612C25.4349 36.4313 24.9183 36.9534 24.1309 36.9534H19.9728C19.1609 36.9534 18.8164 36.1081 18.5212 35.5861C18.4966 35.5364 15.5933 30.7632 15.5933 30.7632V35.4866C15.5933 36.307 14.929 36.9534 14.1417 36.9534H13.1821C12.3702 36.9534 11.7305 36.2822 11.7305 35.4866V25.1945C11.7305 24.3741 12.3948 23.7278 13.1821 23.7278H20.5879C21.1538 23.7278 21.5967 23.9515 21.892 24.2996C21.9166 24.3244 25.681 29.4456 25.681 29.4456L29.4208 24.2747Z" stroke="white" stroke-width="0.5248" stroke-miterlimit="3.864"/>
<path d="M74.4002 33.5244V35.5132C74.4002 36.3336 73.7605 36.98 72.9486 36.98H66.1333C65.3213 36.98 64.6816 36.3088 64.6816 35.5132V25.2211C64.6816 24.4008 65.3213 23.7544 66.1333 23.7544H82.1997C83.0117 23.7544 83.6514 24.4256 83.6514 25.2211V25.7183C83.6514 26.5387 82.9871 27.1851 82.1997 27.1851H74.4002V30.1186H82.1997C83.0117 30.1186 83.6514 30.7898 83.6514 31.5853V32.0825C83.6514 32.9029 82.9871 33.5493 82.1997 33.5493H74.4002" fill="white"/>
<path d="M74.4002 33.5244V35.5132C74.4002 36.3336 73.7605 36.98 72.9486 36.98H66.1333C65.3213 36.98 64.6816 36.3088 64.6816 35.5132V25.2211C64.6816 24.4008 65.3213 23.7544 66.1333 23.7544H82.1997C83.0117 23.7544 83.6514 24.4256 83.6514 25.2211V25.7183C83.6514 26.5387 82.9871 27.1851 82.1997 27.1851H74.4002V30.1186H82.1997C83.0117 30.1186 83.6514 30.7898 83.6514 31.5853V32.0825C83.6514 32.9029 82.9871 33.5493 82.1997 33.5493H74.4002V33.5244Z" stroke="white" stroke-width="0.5248" stroke-miterlimit="3.864"/>
<path d="M95.0426 33.5244V35.5132C95.0426 36.3336 94.4029 36.98 93.591 36.98H86.8003C85.9883 36.98 85.3486 36.3088 85.3486 35.5132V25.2211C85.3486 24.4008 85.9883 23.7544 86.8003 23.7544H102.867C103.679 23.7544 104.318 24.4256 104.318 25.2211V25.7183C104.318 26.5387 103.654 27.1851 102.867 27.1851H95.0672V30.1186H102.867C103.679 30.1186 104.318 30.7898 104.318 31.5853V32.0825C104.318 32.9029 103.654 33.5493 102.867 33.5493H95.0426" fill="white"/>
<path d="M95.0426 33.5244V35.5132C95.0426 36.3336 94.4029 36.98 93.591 36.98H86.8003C85.9883 36.98 85.3486 36.3088 85.3486 35.5132V25.2211C85.3486 24.4008 85.9883 23.7544 86.8003 23.7544H102.867C103.679 23.7544 104.318 24.4256 104.318 25.2211V25.7183C104.318 26.5387 103.654 27.1851 102.867 27.1851H95.0672V30.1186H102.867C103.679 30.1186 104.318 30.7898 104.318 31.5853V32.0825C104.318 32.9029 103.654 33.5493 102.867 33.5493H95.0426V33.5244Z" stroke="white" stroke-width="0.5248" stroke-miterlimit="3.864"/>
<path fill-rule="evenodd" clip-rule="evenodd" d="M114.281 30.2163V28.6252C114.281 27.8048 114.945 27.1585 115.732 27.1585H117.676C118.488 27.1585 119.128 27.8297 119.128 28.6252V30.2163H114.281ZM114.232 33.5475V35.4866C114.232 36.307 113.567 36.9534 112.78 36.9534H106.949C106.137 36.9534 105.497 36.2822 105.497 35.4866V27.6557C105.497 25.4929 107.293 23.7278 109.434 23.7278H123.999C126.14 23.7278 127.887 25.4929 127.887 27.6557V35.5115C127.887 36.3319 127.296 36.9782 126.484 36.9782H120.653C119.841 36.9782 119.202 36.307 119.202 35.5115V33.5724H114.232V33.5475Z" fill="white"/>
<path d="M114.232 33.5475V35.4866C114.232 36.307 113.567 36.9534 112.78 36.9534H106.949C106.137 36.9534 105.497 36.2822 105.497 35.4866V27.6557C105.497 25.4929 107.293 23.7278 109.434 23.7278H123.999C126.14 23.7278 127.887 25.4929 127.887 27.6557V35.5115C127.887 36.3319 127.296 36.9782 126.484 36.9782H120.653C119.841 36.9782 119.202 36.307 119.202 35.5115V33.5724H114.232V33.5475Z" stroke="white" stroke-width="0.5248" stroke-miterlimit="3.864"/>
<path d="M114.285 30.2187V28.6276C114.285 27.8073 114.949 27.1609 115.737 27.1609H117.681C118.492 27.1609 119.132 27.8321 119.132 28.6276V30.2187H114.285Z" stroke="white" stroke-width="0.5248" stroke-miterlimit="3.864"/>
<path d="M134.434 27.1585H130.546C129.734 27.1585 129.095 26.4873 129.095 25.6917V25.1945C129.095 24.3741 129.734 23.7278 130.546 23.7278H147.056C147.868 23.7278 148.507 24.399 148.507 25.1945V25.6917C148.507 26.5121 147.868 27.1585 147.056 27.1585H143.168V35.5115C143.168 36.3319 142.504 36.9782 141.717 36.9782H135.885C135.074 36.9782 134.434 36.307 134.434 35.5115V27.1585Z" fill="white"/>
<path d="M134.434 27.1585H130.546C129.734 27.1585 129.095 26.4873 129.095 25.6917V25.1945C129.095 24.3741 129.734 23.7278 130.546 23.7278H147.056C147.868 23.7278 148.507 24.399 148.507 25.1945V25.6917C148.507 26.5121 147.868 27.1585 147.056 27.1585H143.168V35.5115C143.168 36.3319 142.504 36.9782 141.717 36.9782H135.885C135.074 36.9782 134.434 36.307 134.434 35.5115V27.1585Z" stroke="white" stroke-width="0.5248" stroke-miterlimit="3.864"/>
<path d="M51.9093 35.9843C48.8338 35.9843 46.3242 33.4735 46.3242 30.366C46.3242 27.2584 48.8092 24.7476 51.8847 24.7476L51.9093 35.9843Z" fill="#EC1C24"/>
<path d="M51.9093 35.9843C48.8338 35.9843 46.3242 33.4735 46.3242 30.366C46.3242 27.2584 48.8092 24.7476 51.8847 24.7476L51.9093 35.9843Z" stroke="#EC1C24" stroke-width="0.5248" stroke-miterlimit="3.864"/>
<path fill-rule="evenodd" clip-rule="evenodd" d="M44.655 23.7278H59.1468C61.2874 23.7278 63.0343 25.4929 63.0343 27.6557V33.0503C63.0343 35.2132 61.2874 36.9782 59.1468 36.9782H44.655C42.5145 36.9782 40.7676 35.2132 40.7676 33.0503V27.6557C40.7922 25.4929 42.5145 23.7278 44.655 23.7278ZM46.3527 30.3406C46.3527 27.2331 48.8377 24.7222 51.9132 24.7222C54.9887 24.7222 57.4737 27.2331 57.4737 30.3406C57.4737 33.4481 54.9887 35.959 51.9132 35.959C48.8377 35.9838 46.3527 33.4481 46.3527 30.3406Z" fill="white"/>
<path d="M46.3506 30.3393C46.3506 27.2318 48.8356 24.7209 51.9111 24.7209C54.9866 24.7209 57.4716 27.2318 57.4716 30.3393C57.4716 33.4469 54.9866 35.9577 51.9111 35.9577C48.8356 35.9826 46.3506 33.4469 46.3506 30.3393Z" stroke="white" stroke-width="0.5248" stroke-miterlimit="3.864"/>
<path d="M44.655 23.7278H59.1468C61.2874 23.7278 63.0343 25.4929 63.0343 27.6557V33.0503C63.0343 35.2132 61.2874 36.9782 59.1468 36.9782H44.655C42.5145 36.9782 40.7676 35.2132 40.7676 33.0503V27.6557C40.7922 25.4929 42.5145 23.7278 44.655 23.7278Z" stroke="white" stroke-width="0.5248" stroke-miterlimit="3.864"/>
</svg>
