<svg width="160" height="60" viewBox="0 0 160 60" fill="none" xmlns="http://www.w3.org/2000/svg">
<rect width="160" height="60" fill="white"/>
<g clip-path="url(#clip0_2_965)">
<path d="M69.5922 2.79883L78.3429 22.4595L72.3951 35.8229L62.0406 12.5685H53.3671L57.7222 2.79883H69.5922ZM88.6275 2.86872L82.6981 16.1806L92.3757 37.9195H104.246L88.6275 2.86872ZM57.6744 25.7443L52.2525 37.9195H63.0962L57.6744 25.7443ZM114.814 57.0542H116.34V50.161H116.013L112.879 53.1919L109.793 50.1794H109.454V57.0542H110.992V53.6885L112.89 55.5792L114.825 53.6996L114.814 57.0542ZM45.3593 57.0542H46.8822V50.161H46.5585L43.4245 53.1919L40.3347 50.1794H40V57.0542H41.5228V53.6885L43.4208 55.5792L45.3593 53.6996V57.0542ZM53.768 57.2013C56.0412 57.2013 57.4095 55.6049 57.4095 53.6591C57.4095 51.7133 56.0412 50.1169 53.768 50.1169C51.4948 50.1169 50.1448 51.7133 50.1448 53.6591C50.1448 55.6049 51.5169 57.2013 53.768 57.2013V57.2013ZM53.768 55.616C53.3805 55.6182 53.0011 55.5052 52.6778 55.2916C52.3546 55.0779 52.102 54.773 51.9522 54.4156C51.8024 54.0583 51.7621 53.6645 51.8363 53.2841C51.9106 52.9038 52.0961 52.5541 52.3693 52.2793C52.6426 52.0045 52.9912 51.8171 53.3711 51.7407C53.751 51.6643 54.145 51.7024 54.5032 51.8502C54.8615 51.9979 55.1677 52.2487 55.3833 52.5708C55.5988 52.8928 55.7138 53.2716 55.7138 53.6591C55.7258 53.9183 55.6837 54.1772 55.5903 54.4193C55.4969 54.6613 55.3541 54.8814 55.1712 55.0654C54.9882 55.2494 54.769 55.3933 54.5274 55.4881C54.2859 55.5829 54.0273 55.6264 53.768 55.616V55.616ZM66.9585 50.172H65.4357V53.7584L61.0474 50.161H60.7789V57.0542H62.3017V53.5193L66.6936 57.0542H66.9585V50.172ZM73.9473 57.2013C76.2205 57.2013 77.5889 55.6049 77.5889 53.6591C77.5889 51.7133 76.2205 50.1169 73.9473 50.1169C71.6741 50.1169 70.3242 51.7133 70.3242 53.6591C70.3242 55.6049 71.6962 57.2013 73.951 57.2013H73.9473ZM73.9473 55.616C73.5598 55.6182 73.1804 55.5052 72.8571 55.2916C72.5339 55.0779 72.2813 54.773 72.1315 54.4156C71.9817 54.0583 71.9414 53.6645 72.0157 53.2841C72.0899 52.9038 72.2754 52.5541 72.5486 52.2793C72.8219 52.0045 73.1705 51.8171 73.5504 51.7407C73.9303 51.6643 74.3243 51.7024 74.6826 51.8502C75.0408 51.9979 75.3471 52.2487 75.5626 52.5708C75.7781 52.8928 75.8931 53.2716 75.8931 53.6591C75.905 53.918 75.8631 54.1765 75.7699 54.4184C75.6767 54.6602 75.5343 54.88 75.3517 55.064C75.1692 55.2479 74.9504 55.392 74.7093 55.487C74.4682 55.582 74.21 55.6259 73.951 55.616H73.9473ZM84.2246 54.2954H85.5635V54.3653C85.5377 55.0311 85.0301 55.6196 84.059 55.6196C83.5371 55.6196 83.0366 55.4123 82.6675 55.0433C82.2985 54.6742 82.0911 54.1737 82.0911 53.6517C82.0911 53.1298 82.2985 52.6293 82.6675 52.2602C83.0366 51.8912 83.5371 51.6838 84.059 51.6838C84.6357 51.686 85.1936 51.8889 85.637 52.2577L86.5787 51.0548C86.5787 51.0548 85.8798 50.1095 84.0811 50.1095C81.8189 50.1095 80.5536 51.7059 80.5536 53.6517C80.5536 55.5976 81.8189 57.194 84.0811 57.194C86.2513 57.194 87.3254 55.7447 87.3254 53.7658V53.008H84.2246V54.2954ZM90.6175 57.0468H92.1514V55.0679H93.7257L95.0609 57.0468H96.8192V56.9328L95.2191 54.6927L95.2927 54.6486C95.6512 54.4494 95.9471 54.1542 96.1472 53.7962C96.3473 53.4382 96.4437 53.0315 96.4256 52.6218C96.4256 51.1505 95.4729 50.1647 93.7514 50.1647H90.6543L90.6175 57.0468ZM94.8329 52.6917C94.8329 53.3685 94.4135 53.7106 93.6558 53.7106H92.1514V51.6728H93.6448C94.4025 51.6802 94.8329 52.0406 94.8329 52.6991V52.6917ZM99.2211 57.0542H101.06L101.472 56.1604H104.316L104.739 57.0542H106.578L103.013 50.161H102.741L99.2211 57.0542ZM103.819 55.009H101.98L102.899 53.0448L103.819 55.009ZM118.348 50.161V50.3891H118.003V51.5625H117.767V50.3891H117.429V50.161H118.348ZM118.591 50.1022L118.632 50.161C118.654 50.1941 118.683 50.2309 118.713 50.2787L118.823 50.4258C118.863 50.481 118.904 50.5399 118.948 50.595L119.069 50.7642C119.11 50.8157 119.143 50.8672 119.176 50.9114L119.257 51.0254L119.297 51.0806L119.334 51.0328L119.411 50.9224L119.518 50.7753L119.64 50.6061L119.765 50.4332L119.875 50.2787L119.96 50.161C119.976 50.1429 119.991 50.1232 120.004 50.1022V51.5735H119.754V50.8599C119.752 50.8489 119.752 50.8377 119.754 50.8268C119.755 50.8195 119.755 50.812 119.754 50.8047L119.29 51.4705C119.29 51.4705 119.268 51.4447 119.246 51.408L119.154 51.2866L119.047 51.1321L118.937 50.9813L118.852 50.8636C118.837 50.8451 118.824 50.8255 118.812 50.8047C118.811 50.812 118.811 50.8195 118.812 50.8268C118.814 50.8377 118.814 50.8489 118.812 50.8599V51.5735H118.576L118.591 50.1022Z" fill="#DDC07E"/>
</g>
<defs>
<clipPath id="clip0_2_965">
<rect width="80" height="54.4025" fill="white" transform="translate(40 2.79883)"/>
</clipPath>
</defs>
</svg>
