<svg width="24" height="24" viewBox="0 0 24 24" fill="none" xmlns="http://www.w3.org/2000/svg">
<path d="M21.6668 1.99991H2.33334C2.24493 1.99991 2.16014 2.03503 2.09763 2.09754C2.03512 2.16005 2 2.24484 2 2.33324V21.6667C2 21.7551 2.03512 21.8399 2.09763 21.9024C2.16014 21.9649 2.24493 22 2.33334 22H21.6668C21.7552 22 21.84 21.9649 21.9025 21.9024C21.965 21.8399 22.0001 21.7551 22.0001 21.6667V2.33324C22.0001 2.24484 21.965 2.16005 21.9025 2.09754C21.84 2.03503 21.7552 1.99991 21.6668 1.99991ZM21.3335 21.3334H2.66667V6.66661H21.3335V21.3334ZM21.3335 5.99993H2.66667V2.66658H21.3335V5.99993Z" fill="#2F8BFF"/>
<path d="M9.33334 5.33426H14.6667C14.7551 5.33426 14.8399 5.29914 14.9024 5.23663C14.9649 5.17411 15 5.08933 15 5.00092V3.66758C15 3.57917 14.9649 3.49439 14.9024 3.43188C14.8399 3.36936 14.7551 3.33424 14.6667 3.33424H9.33334C9.24493 3.33424 9.16014 3.36936 9.09763 3.43188C9.03512 3.49439 9 3.57917 9 3.66758V5.00092C9 5.08933 9.03512 5.17411 9.09763 5.23663C9.16014 5.29914 9.24493 5.33426 9.33334 5.33426ZM9.66667 4.00091H14.3334V4.66759H9.66667V4.00091Z" fill="#2F8BFF"/>
<path d="M4.66651 5.33426C4.86429 5.33426 5.05763 5.27561 5.22208 5.16573C5.38653 5.05584 5.51471 4.89966 5.59039 4.71694C5.66608 4.53421 5.68589 4.33314 5.6473 4.13916C5.60871 3.94518 5.51347 3.76699 5.37362 3.62714C5.23377 3.48729 5.05558 3.39204 4.8616 3.35346C4.66762 3.31487 4.46655 3.33468 4.28382 3.41037C4.1011 3.48605 3.94492 3.61423 3.83504 3.77868C3.72515 3.94313 3.6665 4.13647 3.6665 4.33425C3.6668 4.59938 3.77225 4.85356 3.95973 5.04103C4.1472 5.22851 4.40138 5.33396 4.66651 5.33426ZM4.66651 4.00092C4.73244 4.00092 4.79688 4.02047 4.8517 4.05709C4.90652 4.09372 4.94924 4.14578 4.97447 4.20669C4.9997 4.2676 5.0063 4.33462 4.99344 4.39928C4.98058 4.46394 4.94883 4.52334 4.90221 4.56995C4.85559 4.61657 4.7962 4.64832 4.73154 4.66118C4.66688 4.67404 4.59986 4.66744 4.53895 4.64221C4.47804 4.61698 4.42598 4.57426 4.38935 4.51944C4.35272 4.46463 4.33317 4.40018 4.33317 4.33425C4.3333 4.24588 4.36845 4.16117 4.43094 4.09868C4.49343 4.03619 4.57814 4.00104 4.66651 4.00092Z" fill="#2F8BFF"/>
<path d="M7.33301 5.33426C7.5308 5.33426 7.72414 5.27561 7.88859 5.16573C8.05304 5.05584 8.18121 4.89966 8.2569 4.71694C8.33259 4.53421 8.35239 4.33314 8.3138 4.13916C8.27522 3.94518 8.17998 3.76699 8.04012 3.62714C7.90027 3.48729 7.72209 3.39204 7.52811 3.35346C7.33412 3.31487 7.13306 3.33468 6.95033 3.41037C6.7676 3.48605 6.61142 3.61423 6.50154 3.77868C6.39166 3.94313 6.33301 4.13647 6.33301 4.33425C6.33331 4.59938 6.43876 4.85356 6.62623 5.04103C6.8137 5.22851 7.06789 5.33396 7.33301 5.33426ZM7.33301 4.00092C7.39894 4.00092 7.46339 4.02047 7.51821 4.05709C7.57302 4.09372 7.61575 4.14578 7.64098 4.20669C7.6662 4.2676 7.67281 4.33462 7.65994 4.39928C7.64708 4.46394 7.61534 4.52334 7.56872 4.56995C7.5221 4.61657 7.46271 4.64832 7.39804 4.66118C7.33338 4.67404 7.26636 4.66744 7.20545 4.64221C7.14454 4.61698 7.09248 4.57426 7.05586 4.51944C7.01923 4.46463 6.99968 4.40018 6.99968 4.33425C6.9998 4.24588 7.03496 4.16117 7.09744 4.09868C7.15993 4.03619 7.24464 4.00104 7.33301 4.00092Z" fill="#2F8BFF"/>
<path d="M16.6665 5.33426C16.8643 5.33426 17.0576 5.27561 17.2221 5.16573C17.3865 5.05584 17.5147 4.89966 17.5904 4.71694C17.6661 4.53421 17.6859 4.33314 17.6473 4.13916C17.6087 3.94518 17.5135 3.76699 17.3736 3.62714C17.2338 3.48729 17.0556 3.39204 16.8616 3.35346C16.6676 3.31487 16.4666 3.33468 16.2838 3.41037C16.1011 3.48605 15.9449 3.61423 15.835 3.77868C15.7252 3.94313 15.6665 4.13647 15.6665 4.33425C15.6668 4.59938 15.7723 4.85356 15.9597 5.04103C16.1472 5.22851 16.4014 5.33396 16.6665 5.33426ZM16.6665 4.00092C16.7324 4.00092 16.7969 4.02047 16.8517 4.05709C16.9065 4.09372 16.9492 4.14578 16.9745 4.20669C16.9997 4.2676 17.0063 4.33462 16.9934 4.39928C16.9806 4.46394 16.9488 4.52334 16.9022 4.56995C16.8556 4.61657 16.7962 4.64832 16.7315 4.66118C16.6669 4.67404 16.5999 4.66744 16.539 4.64221C16.478 4.61698 16.426 4.57426 16.3894 4.51944C16.3527 4.46463 16.3332 4.40018 16.3332 4.33425C16.3333 4.24588 16.3685 4.16117 16.4309 4.09868C16.4934 4.03619 16.5781 4.00104 16.6665 4.00092Z" fill="#2F8BFF"/>
<path d="M19.3335 5.33426C19.5313 5.33426 19.7246 5.27561 19.8891 5.16573C20.0535 5.05584 20.1817 4.89966 20.2574 4.71694C20.3331 4.53421 20.3529 4.33314 20.3143 4.13916C20.2757 3.94518 20.1805 3.76699 20.0406 3.62714C19.9008 3.48729 19.7226 3.39204 19.5286 3.35346C19.3346 3.31487 19.1335 3.33468 18.9508 3.41037C18.7681 3.48605 18.6119 3.61423 18.502 3.77868C18.3921 3.94313 18.3335 4.13647 18.3335 4.33425C18.3338 4.59938 18.4392 4.85356 18.6267 5.04103C18.8142 5.22851 19.0684 5.33396 19.3335 5.33426ZM19.3335 4.00092C19.3994 4.00092 19.4639 4.02047 19.5187 4.05709C19.5735 4.09372 19.6162 4.14578 19.6415 4.20669C19.6667 4.2676 19.6733 4.33462 19.6604 4.39928C19.6476 4.46394 19.6158 4.52334 19.5692 4.56995C19.5226 4.61657 19.4632 4.64832 19.3985 4.66118C19.3339 4.67404 19.2669 4.66744 19.2059 4.64221C19.145 4.61698 19.093 4.57426 19.0563 4.51944C19.0197 4.46463 19.0002 4.40018 19.0002 4.33425C19.0003 4.24588 19.0354 4.16117 19.0979 4.09868C19.1604 4.03619 19.2451 4.00104 19.3335 4.00092Z" fill="#2F8BFF"/>
<path d="M18.9999 10.0013H4.99984C4.91143 10.0013 4.82665 10.0364 4.76414 10.0989C4.70162 10.1614 4.6665 10.2462 4.6665 10.3346V19.0013C4.6665 19.0897 4.70162 19.1745 4.76414 19.237C4.82665 19.2995 4.91143 19.3346 4.99984 19.3346H18.9999C19.0883 19.3346 19.1731 19.2995 19.2356 19.237C19.2981 19.1745 19.3333 19.0897 19.3333 19.0013V10.3346C19.3333 10.2462 19.2981 10.1614 19.2356 10.0989C19.1731 10.0364 19.0883 10.0013 18.9999 10.0013ZM18.6666 18.668H5.33317V10.6679H18.6666V18.668Z" fill="#2F8BFF"/>
<path d="M6.33334 18.0006H17.6667C17.7551 18.0006 17.8399 17.9655 17.9024 17.903C17.965 17.8405 18.0001 17.7557 18.0001 17.6673C18.0001 17.5789 17.965 17.4941 17.9024 17.4316C17.8399 17.3691 17.7551 17.334 17.6667 17.334H6.33334C6.24493 17.334 6.16014 17.3691 6.09763 17.4316C6.03512 17.4941 6 17.5789 6 17.6673C6 17.7557 6.03512 17.8405 6.09763 17.903C6.16014 17.9655 6.24493 18.0006 6.33334 18.0006Z" fill="#2F8BFF"/>
<path d="M3.99984 8.00102H19.9999C20.0884 8.00102 20.1731 7.9659 20.2356 7.90339C20.2982 7.84088 20.3333 7.75609 20.3333 7.66769C20.3333 7.57928 20.2982 7.49449 20.2356 7.43198C20.1731 7.36947 20.0884 7.33435 19.9999 7.33435H3.99984C3.91143 7.33435 3.82665 7.36947 3.76414 7.43198C3.70162 7.49449 3.6665 7.57928 3.6665 7.66769C3.6665 7.75609 3.70162 7.84088 3.76414 7.90339C3.82665 7.9659 3.91143 8.00102 3.99984 8.00102Z" fill="#2F8BFF"/>
</svg>
