<svg width="160" height="60" viewBox="0 0 160 60" fill="none" xmlns="http://www.w3.org/2000/svg">
<path fill-rule="evenodd" clip-rule="evenodd" d="M40.6797 25.2835H46.1913L46.4372 27.0936C46.8612 25.6472 49.6424 24.6237 51.3383 24.6237C55.2812 24.6237 56.8499 27.0344 56.8499 31.2639V40.3911H50.7363V32.2367C50.7363 30.6041 50.431 29.3945 48.7944 29.3945C47.2851 29.3945 46.4966 31.0271 46.4966 32.1775V40.3911H40.6797V25.2835Z" fill="#005DA9"/>
<path fill-rule="evenodd" clip-rule="evenodd" d="M5 40.4531V19.0604H15.2347C21.3568 19.0604 24.1465 22.0211 24.1465 26.3182C24.1465 30.9114 21.6027 34.0497 15.2347 34.0497H11.7835V40.4531H5ZM14.5308 28.8559C16.1674 28.8559 17.9226 28.4921 17.9226 26.6142C17.9226 24.7364 16.0402 24.2627 14.5308 24.2627H11.8005V28.8559H14.5308Z" fill="#005DA9"/>
<path fill-rule="evenodd" clip-rule="evenodd" d="M108.041 25.2835H113.62L113.799 27.0936C114.282 25.6472 117.072 24.6237 118.767 24.6237C122.643 24.6237 124.279 27.0344 124.279 31.2639V40.4503H118.157V32.2367C118.157 30.6041 117.801 29.3945 116.164 29.3945C114.706 29.3945 113.917 31.0271 113.917 32.1775V40.4503H108.041V25.2835Z" fill="#005DA9"/>
<path fill-rule="evenodd" clip-rule="evenodd" d="M79.9315 35.0106C79.9372 35.6758 80.174 36.3185 80.6014 36.8292C81.0706 37.1951 81.6429 37.4052 82.2379 37.4298C83.3233 37.4298 84.1797 37.1253 84.1797 36.1018C84.2391 33.5641 74.9711 35.7972 74.9711 29.7576C74.9711 25.5281 78.2357 24.5553 81.6274 24.5553C85.0192 24.5553 89.6913 25.2236 89.5048 29.8168H84.3578C84.3371 29.4172 84.1885 29.0346 83.9338 28.7255C83.7354 28.5071 83.4913 28.3348 83.2188 28.2208C82.9462 28.1068 82.6519 28.0538 82.3566 28.0658C81.3306 28.0066 80.3555 28.1842 80.3555 28.9709C80.4233 31.3309 89.9287 29.7576 89.9287 35.3151C89.9287 39.1808 87.2069 40.9318 81.9327 40.9318C78.6003 40.8726 74.4199 39.1808 74.4199 35.0106H79.9315Z" fill="#005DA9"/>
<path fill-rule="evenodd" clip-rule="evenodd" d="M142.637 31.1455C142.67 30.619 142.497 30.1002 142.154 29.699C141.972 29.4243 141.731 29.1941 141.447 29.0256C141.164 28.8572 140.846 28.7548 140.517 28.7262C138.211 28.7262 137.609 30.9679 137.609 32.7781C137.609 34.8928 138.576 36.6438 140.39 36.6438C141.054 36.5981 141.674 36.2943 142.117 35.7977C142.559 35.3011 142.788 34.6512 142.756 33.9877H148.089C148.208 37.126 146.029 40.8733 140.153 40.8733C139.065 40.9238 137.979 40.7475 136.964 40.3557C135.949 39.9639 135.027 39.3652 134.257 38.5978C133.487 37.8304 132.886 36.9112 132.492 35.8989C132.098 34.8866 131.92 33.8036 131.97 32.7189C131.97 26.8568 136.337 24.6237 140.093 24.6237C145.181 24.6237 148.089 27.7027 148.03 31.1455H142.637Z" fill="#005DA9"/>
<path fill-rule="evenodd" clip-rule="evenodd" d="M34.2012 40.4512L33.5907 39.1823C32.4093 40.225 30.8674 40.768 29.2916 40.6965C27.4092 40.6372 23.7207 40.3919 23.7207 36.3486C23.7207 29.6998 33.6501 32.7197 33.6501 29.4546C33.6501 28.3634 32.4375 28.431 31.7761 28.431C30.5636 28.431 29.775 28.6679 29.5969 30.4865H24.5093C24.5093 27.3398 25.4844 24.6837 32.1407 24.6837C38.619 24.6837 39.2889 28.0673 39.2889 31.3916V38.2772C39.2402 38.6382 39.2744 39.0055 39.389 39.3514C39.5036 39.6972 39.6955 40.0126 39.9502 40.2735V40.392L34.2012 40.4512ZM33.7094 33.5064C31.6489 34.4707 29.0457 34.4115 28.9864 35.9171C28.9864 36.8899 29.5291 37.3721 30.7416 37.3721C32.7428 37.3721 33.8366 35.3166 33.7094 33.5064ZM68.3648 40.4512L67.7543 39.1823C66.5687 40.2181 65.0298 40.7601 63.4552 40.6965C61.5219 40.6372 57.8249 40.3919 57.8249 36.3486C57.8249 29.6998 67.7542 32.7197 67.8221 29.4546C67.8221 28.3634 66.5502 28.431 65.9397 28.431C64.6677 28.431 63.9385 28.6679 63.7604 30.4865H58.6728C58.6728 27.3398 59.5801 24.6837 66.3043 24.6837C72.7232 24.6837 73.393 28.0673 73.393 31.3916V38.2772C73.3444 38.6382 73.3786 39.0055 73.4932 39.3514C73.6078 39.6972 73.7997 40.0126 74.0545 40.2735V40.392L68.3648 40.4512ZM67.8814 33.5064C65.8209 34.4707 63.1499 34.4115 63.1499 35.9171C63.1499 36.8899 63.6417 37.3721 64.9136 37.3721C66.8469 37.3721 68.0001 35.3166 67.8814 33.5064Z" fill="#005DA9"/>
<path fill-rule="evenodd" clip-rule="evenodd" d="M131.004 40.4519V25.285H125.374V40.4519H131.004ZM125.374 23.3479H131.004V19H125.374V23.3479Z" fill="#005DA9"/>
<path fill-rule="evenodd" clip-rule="evenodd" d="M98.96 24.7441C103.988 24.7441 107.075 28.2461 107.075 32.8393C107.075 37.4325 103.988 40.9345 98.96 40.9345C93.9317 40.9345 90.7773 37.4917 90.7773 32.8393C90.7773 28.1869 93.9317 24.7441 98.96 24.7441ZM96.289 32.8393C96.289 34.7172 96.8995 37.0096 98.96 37.0688C101.02 37.128 101.563 34.7172 101.563 32.8393C101.563 30.9615 101.02 28.6691 98.96 28.6691C96.8995 28.6691 96.3483 31.0291 96.289 32.8393Z" fill="#005DA9"/>
<path fill-rule="evenodd" clip-rule="evenodd" d="M151.659 37.4895C152.024 37.4895 152.567 37.5488 152.567 37.0666C152.567 36.5844 152.202 36.5844 151.905 36.5844H151.176V37.4895H151.659ZM152.872 38.9445H152.507L151.778 37.7348H151.176V38.9529H150.871V36.356H151.964C152.448 36.356 152.88 36.4999 152.88 37.0751C152.88 37.6503 152.566 37.7433 152.083 37.7433L152.872 38.9529V38.9445ZM153.72 37.701C153.726 37.2967 153.612 36.8996 153.391 36.5606C153.17 36.2216 152.852 35.9562 152.479 35.7983C152.106 35.6405 151.694 35.5974 151.296 35.6747C150.898 35.7519 150.532 35.946 150.246 36.2319C149.959 36.5178 149.765 36.8827 149.687 37.2796C149.61 37.6766 149.653 38.0875 149.811 38.4598C149.969 38.8321 150.236 39.1488 150.575 39.3693C150.915 39.5898 151.313 39.704 151.719 39.6973C152.246 39.6865 152.749 39.4727 153.122 39.1006C153.494 38.7286 153.709 38.2271 153.72 37.701ZM149.387 37.701C149.385 37.2452 149.519 36.7992 149.772 36.4196C150.025 36.0399 150.385 35.7437 150.807 35.5685C151.228 35.3933 151.693 35.347 152.141 35.4355C152.589 35.524 153.001 35.7433 153.324 36.0656C153.647 36.3879 153.867 36.7986 153.956 37.2457C154.044 37.6929 153.998 38.1562 153.822 38.577C153.647 38.9977 153.35 39.357 152.969 39.6091C152.589 39.8613 152.142 39.995 151.685 39.9934C151.383 39.9934 151.084 39.9341 150.805 39.8189C150.526 39.7037 150.273 39.5348 150.06 39.322C149.846 39.1091 149.677 38.8564 149.562 38.5782C149.446 38.3001 149.387 38.0021 149.387 37.701Z" fill="#005DA9"/>
</svg>
