<svg width="160" height="60" viewBox="0 0 160 60" fill="none" xmlns="http://www.w3.org/2000/svg">
<path d="M15.7573 34.7339C15.9595 35.2402 15.8954 35.889 15.7967 36.2822C15.6241 36.9801 15.1505 37.6928 13.7496 37.6928C12.4374 37.6928 11.6383 36.9359 11.6383 35.7956V33.7657H6V35.3778C6 40.0471 9.68487 41.4577 13.6361 41.4577C17.4344 41.4577 20.5619 40.17 21.0601 36.6754C21.3166 34.8667 21.1292 33.6821 21.0404 33.2447C20.1525 28.8605 12.1809 27.5531 11.584 25.1005C11.5011 24.7388 11.4944 24.3639 11.5643 23.9995C11.7123 23.3262 12.171 22.5938 13.4832 22.5938C14.7164 22.5938 15.4317 23.3508 15.4317 24.491V25.7886H20.6754V24.3141C20.6754 19.753 16.5663 19.0403 13.5967 19.0403C9.85752 19.0403 6.80406 20.274 6.24664 23.6899C6.09866 24.6237 6.07399 25.4593 6.29597 26.5111C7.20856 30.7872 14.672 32.0258 15.7573 34.7339Z" fill="#034EA2"/>
<path d="M83.8217 34.6937C84.024 35.1999 83.9598 35.8487 83.8612 36.2419C83.6885 36.9398 83.215 37.6525 81.814 37.6525C80.5019 37.6525 79.7028 36.8956 79.7028 35.7553V33.7254H74.0645V35.3375C74.0645 40.0068 77.7493 41.4174 81.7006 41.4174C85.4989 41.4174 88.6264 40.1297 89.1246 36.6351C89.3811 34.8264 89.1936 33.6418 89.1048 33.2044C88.2169 28.8202 80.2454 27.5128 79.6485 25.0602C79.5656 24.6985 79.5589 24.3237 79.6288 23.9593C79.7767 23.2859 80.2355 22.5536 81.5477 22.5536C82.7809 22.5536 83.4961 23.3105 83.4961 24.4508V25.7483H88.7398V24.2738C88.7398 19.7127 84.6307 19 81.6611 19C77.922 19 74.8685 20.2337 74.3111 23.6496C74.1631 24.5835 74.1384 25.419 74.3604 26.4708C75.273 30.7469 82.7365 31.9855 83.8217 34.6937Z" fill="#034EA2"/>
<path d="M28.4946 19.7085L24.5977 40.6416H30.2754L33.1513 21.645H33.2697L36.0666 40.6416H41.7148L37.8425 19.7036L28.4946 19.7085ZM60.2378 19.7085L57.648 35.7118H57.5247L54.9399 19.7085H46.3714L45.9078 40.6416H51.1662L51.2945 21.822H51.4129L54.9201 40.6416H60.2526L63.7648 21.8269H63.8783L64.0115 40.6416H69.265L68.8013 19.7036L60.2378 19.7085Z" fill="#034EA2"/>
<path d="M101.697 37.5056C103.158 37.5056 103.606 36.503 103.71 35.9918C103.754 35.7657 103.759 35.461 103.759 35.1906V19.7083H109.077V34.7139C109.078 35.1731 109.062 35.6321 109.028 36.0901C108.658 39.9975 105.56 41.2656 101.697 41.2656C97.8301 41.2656 94.7322 39.9975 94.3623 36.0901C94.3475 35.8837 94.308 35.0973 94.3129 34.7139V19.7034H99.6306V35.1857C99.6256 35.461 99.6355 35.7657 99.6799 35.9918C99.7786 36.503 100.232 37.5056 101.697 37.5056ZM127.388 19.7083L127.674 36.1392H127.561L122.726 19.7083H114.932V40.4202H120.097L119.811 23.4192H119.924L125.109 40.4202H132.592V19.7083H127.388ZM145.516 37.2894C147.036 37.2894 147.568 36.3309 147.662 35.7657C147.707 35.5347 147.711 35.2398 147.711 34.9793V31.932H145.556V28.8847H153V34.4976C153 34.8908 152.99 35.1759 152.926 35.8738C152.58 39.6879 149.26 41.0493 145.536 41.0493C141.812 41.0493 138.497 39.6879 138.147 35.8738C138.087 35.1759 138.073 34.8908 138.073 34.4976V25.6899C138.073 25.3164 138.122 24.6578 138.161 24.3137C138.63 20.3964 141.812 19.1382 145.536 19.1382C149.26 19.1382 152.526 20.3866 152.911 24.3088C152.98 24.9772 152.96 25.685 152.96 25.685V26.3878H147.662V25.2131C147.662 25.2131 147.662 24.7216 147.598 24.4169C147.499 23.9549 147.105 22.8933 145.497 22.8933C143.967 22.8933 143.519 23.9008 143.405 24.4169C143.341 24.6922 143.316 25.0657 143.316 25.4048V34.9744C143.316 35.2398 143.326 35.5347 143.366 35.7706C143.464 36.3309 143.997 37.2894 145.516 37.2894Z" fill="#034EA2"/>
</svg>
