<svg width="160" height="60" viewBox="0 0 160 60" fill="none" xmlns="http://www.w3.org/2000/svg">
<rect width="160" height="60" fill="white"/>
<path d="M61.0432 27.829H50.2059V21.5272H44.606V38.0137H50.2059V31.3872H61.0432V38.0137H66.642V21.5272H61.0432V27.829Z" fill="#E6000D"/>
<path d="M77.7208 21.5272L67.679 38.0137H71.9574L74.0142 34.64H85.5891L87.5812 38.0137H94.4181L84.3785 21.5272H77.7208ZM75.9947 31.3872L79.8918 24.9859L83.6721 31.3872H75.9947Z" fill="#E6000D"/>
<path d="M116.63 28.6697C117.966 26.9218 117.784 24.3638 115.226 22.8958C112.839 21.5293 108.282 21.025 105.437 21.025C100.883 21.025 97.9501 21.3316 95.4559 21.7566V38.0135H101.056V24.2248C103.073 23.8272 105.119 23.8171 105.886 23.852C108.108 23.9531 109.357 24.2965 110.359 25.0078C111.39 25.7405 111.67 27.3719 110.33 28.501C109.327 29.3457 107.289 30.0115 102.735 29.3122L102.095 30.3695L110.704 38.0127H118.325L110.668 31.3863C112.509 31.1518 115.3 30.4127 116.63 28.6697Z" fill="#E6000D"/>
<path d="M32.3314 27.2231C29.1009 26.5967 26.3531 26.203 26.3531 25.1558C26.3531 23.9903 28.5741 23.6919 31.7205 24.0312C34.6974 24.3442 37.5064 25.1224 40.126 26.2387L42.1159 22.9758C39.9998 22.1687 35.6356 21.1366 31.6788 21.0193C27.3368 20.8923 20.0134 21.2824 19.697 25.6683C19.408 29.6868 25.1294 30.6453 28.8811 31.5162C32.5388 32.3729 35.9727 32.6795 35.9727 33.9446C35.9727 34.837 34.7613 35.5336 31.5634 35.2927C27.7178 35.0034 24.4403 33.9502 21.1702 32.3274L19 35.892C22.6251 37.3108 27.3762 38.4474 31.6604 38.5192C36.7493 38.6026 42.5003 37.7808 42.6273 33.4208C42.7336 29.7822 38.9673 28.513 32.3314 27.2231Z" fill="#E6000D"/>
<path d="M139.616 22.8958C137.337 21.5492 133.067 21.025 129.794 21.025C125.237 21.025 122.273 21.3316 119.779 21.7566V38.0135H125.377V32.0551C127.106 32.3455 129.277 32.5157 131.151 32.4999C135.734 32.4631 139.138 31.3863 140.691 29.7003C142.901 27.2979 142.16 24.3995 139.616 22.8958ZM134.722 28.5352C133.754 29.3265 132.34 29.6083 130.112 29.6019C128.466 29.5948 126.762 29.2949 125.377 28.9793V24.2248C127.393 23.8272 129.475 23.8216 130.238 23.852C132.477 23.9456 133.778 24.3258 134.746 25.0078C135.755 25.7134 136.089 27.4125 134.722 28.5352Z" fill="#E6000D"/>
</svg>
