<svg width="160" height="60" viewBox="0 0 160 60" fill="none" xmlns="http://www.w3.org/2000/svg">
<path d="M46.677 32.9227C44.22 32.9227 41.2139 32.812 41.2139 28.938V28.6834H45.9043V30.4326H46.7839V28.7522C46.0124 28.4721 45.1131 28.2111 44.2151 27.8966C42.7777 27.3747 41.4117 26.7051 41.3588 24.6376C41.3036 21.8814 43.2089 20.7649 46.3711 20.7649C50.4853 20.7649 51.4202 22.3855 51.4202 24.3028V24.7496H46.7839V23.3034H45.9043V24.7496C46.4976 24.9355 47.36 25.1965 48.3293 25.4944C49.9829 25.9781 51.6536 26.7051 51.6536 28.938C51.6536 31.9743 49.5161 32.9227 46.677 32.9227Z" fill="#E53313"/>
<path d="M61.5688 31.3976C61.0835 32.2888 60.2568 32.8502 59.0528 32.8502C57.903 32.8502 57.1487 32.4581 56.7187 31.8623V35.623H52.4189V23.7452H56.6769V24.6758C57.0197 24.0978 57.7727 23.5581 59.1044 23.5772C59.9472 23.5772 60.559 23.8318 61.0442 24.3219C61.8329 25.1036 62.0135 26.2213 62.0135 28.1208C62.0135 29.4791 61.9779 30.6147 61.5651 31.3976H61.5688ZM57.6339 26.2213H56.7187V30.1131H57.6339V26.2213Z" fill="#E53313"/>
<path d="M70.6595 32.2387C69.5993 32.7989 68.4138 32.8536 67.4961 32.8536C63.5981 32.8536 62.6816 30.9924 62.6816 28.1611C62.6816 24.9962 63.9937 23.4507 67.6583 23.4507C69.8511 23.4507 71.1632 24.0287 71.8806 25.2203C72.1681 25.7218 72.4199 26.3928 72.4199 27.9752V28.627H67.1005V30.6945H68.017V29.5385H72.4199C72.4199 30.6563 71.6644 31.718 70.6595 32.2387ZM68.017 25.4061H67.1005V27.0815H68.017V25.4061Z" fill="#E53313"/>
<path d="M81.0589 32.2387C79.9987 32.7989 78.8132 32.8536 77.8955 32.8536C73.9975 32.8536 73.0811 30.9924 73.0811 28.1611C73.0811 24.9962 74.3931 23.4507 78.0589 23.4507C80.2506 23.4507 81.5614 24.0287 82.28 25.2203C82.5687 25.7218 82.8194 26.3928 82.8194 27.9752V28.627H77.5012V30.6945H78.4189V29.5385H82.8194C82.8194 30.6563 82.0651 31.718 81.0589 32.2387ZM78.4189 25.4061H77.5012V27.0815H78.4189V25.4061Z" fill="#E53313"/>
<path d="M88.7084 32.5636V31.7272C88.2231 32.2848 87.4701 32.7457 86.3546 32.7457C85.6543 32.7457 85.0254 32.6183 84.4332 32.0213C83.6249 31.2205 83.4996 29.7679 83.4799 28.3294C83.4627 26.6362 83.6028 25.4815 84.0548 24.7558C84.5941 23.8876 85.3669 23.535 86.4086 23.535C87.4873 23.535 88.2047 23.8711 88.7084 24.4261V21.0767H93.0204V32.5636H88.7084ZM88.7084 26.1779H87.8104V30.0136H88.7084V26.1779Z" fill="#E53313"/>
<path d="M104.184 32.9204C102.315 32.9204 101.182 32.4544 100.375 31.6918C99.3322 30.7052 99.1885 29.0477 99.1885 26.8312C99.1885 22.1209 100.284 20.7434 104.348 20.7434C108.412 20.7434 109.508 22.1221 109.508 26.8312C109.508 28.0037 109.435 29.5874 109.075 30.4824H110.058V32.9204H104.184ZM104.776 23.3863H103.895V30.4811H104.776V23.3863Z" fill="#E53313"/>
<path d="M115.753 32.5718V31.6972C115.426 32.054 115.029 32.3336 114.589 32.5169C114.149 32.7001 113.676 32.7827 113.202 32.7589C112.16 32.7398 111.334 32.2013 110.938 31.4731C110.723 31.0835 110.507 30.4699 110.507 29.3534V23.729H114.854V30.06H115.753V23.729H120.066V32.5718" fill="#E53313"/>
<path d="M128.733 32.2387C127.674 32.7989 126.489 32.8536 125.571 32.8536C121.672 32.8536 120.757 30.9924 120.757 28.1611C120.757 24.9962 122.068 23.4507 125.733 23.4507C127.925 23.4507 129.237 24.0287 129.955 25.2203C130.243 25.7218 130.496 26.3928 130.496 27.9752V28.627H125.177V30.6945H126.093V29.5385H130.5C130.5 30.6563 129.743 31.718 128.737 32.2387H128.733ZM126.097 25.4061H125.181V27.0815H126.097V25.4061Z" fill="#E53313"/>
<path d="M139.133 32.2387C138.072 32.7989 136.886 32.8536 135.97 32.8536C132.072 32.8536 131.155 30.9924 131.155 28.1611C131.155 24.9962 132.466 23.4507 136.132 23.4507C138.324 23.4507 139.636 24.0287 140.354 25.2203C140.642 25.7218 140.894 26.3928 140.894 27.9752V28.627H135.575V30.6945H136.491V29.5385H140.894C140.894 30.6563 140.138 31.718 139.133 32.2387ZM136.491 25.4061H135.575V27.0815H136.491V25.4061Z" fill="#E53313"/>
<path d="M146.797 32.5727V26.2074H145.881V32.5727H141.581V23.73H145.748V24.5868C146.09 24.0775 146.934 23.4499 148.318 23.4499C150.134 23.4321 151.144 24.6606 151.144 26.4671V32.5778" fill="#E53313"/>
<path d="M152.376 31.1612C152.372 30.8015 152.472 30.4488 152.662 30.1478C152.852 29.8469 153.124 29.6112 153.444 29.4708C153.763 29.3303 154.116 29.2914 154.457 29.359C154.798 29.4265 155.112 29.5975 155.359 29.8503C155.606 30.103 155.775 30.4261 155.844 30.7785C155.914 31.1309 155.881 31.4968 155.749 31.8297C155.618 32.1626 155.394 32.4475 155.106 32.6483C154.818 32.8491 154.479 32.9567 154.132 32.9575C153.902 32.9624 153.673 32.9195 153.459 32.8313C153.246 32.743 153.051 32.6113 152.888 32.4438C152.724 32.2763 152.594 32.0765 152.506 31.8562C152.419 31.6359 152.374 31.3995 152.376 31.1612ZM154.132 32.6583C154.417 32.6649 154.699 32.5831 154.94 32.4234C155.18 32.2637 155.37 32.0334 155.484 31.7617C155.598 31.49 155.631 31.1893 155.58 30.8979C155.528 30.6064 155.394 30.3375 155.195 30.1253C154.995 29.9131 154.739 29.7673 154.459 29.7064C154.18 29.6455 153.889 29.6724 153.624 29.7835C153.359 29.8946 153.131 30.0849 152.971 30.3303C152.811 30.5756 152.725 30.8649 152.724 31.1612C152.717 31.3564 152.749 31.551 152.817 31.7332C152.885 31.9155 152.987 32.0816 153.119 32.2215C153.251 32.3614 153.408 32.4722 153.582 32.5473C153.756 32.6224 153.943 32.6601 154.132 32.6583ZM153.763 32.1987H153.461V30.1338H154.221C154.691 30.1338 154.924 30.3133 154.924 30.7207C154.924 31.0911 154.7 31.2515 154.408 31.2885L154.976 32.1987H154.637L154.111 31.3076H153.763V32.1987ZM154.124 31.0377C154.381 31.0377 154.616 31.0186 154.616 30.7016C154.616 30.447 154.392 30.3986 154.181 30.3986H153.769V31.0351L154.124 31.0377Z" fill="#E53313"/>
<path d="M28.8636 37.7963C33.479 35.7301 36.592 31.9834 36.5908 27.7301C36.5908 24.5054 34.8193 21.5748 31.9557 19.4475C29.0921 17.3202 25.1424 16 20.7948 16C16.4471 16 12.4963 17.3202 9.63389 19.4475C6.77149 21.5748 5 24.5054 5 27.7301C5 30.9548 6.77272 33.8714 9.63389 35.9949C12.4951 38.1184 16.4471 39.4411 20.7948 39.4398C21.0405 39.4398 21.2923 39.4398 21.5503 39.4233H21.6203C21.9668 39.4233 22.0626 39.4844 22.2346 39.8472C22.4201 40.2291 22.6412 40.7104 22.753 40.9586C23.0872 41.6295 23.7174 43.1572 25.9545 43.1788C27.6572 43.1394 29.3218 43.1597 31.0233 43.1394C31.2358 43.1394 31.3095 43.0299 31.3095 42.9395C31.3099 42.9177 31.3057 42.8961 31.2969 42.8763C31.2882 42.8564 31.2753 42.8389 31.2591 42.8249C30.7211 42.401 30.2174 41.9185 29.936 41.3151C29.6031 40.606 29.0847 39.4755 28.6793 38.5945C28.6028 38.4696 28.5572 38.327 28.5466 38.1795C28.5454 37.9962 28.667 37.8778 28.8636 37.7963ZM27.6547 34.6365C27.6031 34.6893 27.5353 34.7217 27.4631 34.7282C27.3107 34.7358 27.2075 34.4901 27.151 34.3806C26.1179 32.0827 25.0085 29.8218 24.0098 27.5226C23.968 27.4029 23.9471 27.3189 23.7739 27.3291H23.2334L23.2604 27.3825C23.3894 27.6499 23.5184 27.9376 23.6486 28.2075C23.7665 28.4668 23.8313 28.7485 23.839 29.035C23.839 29.6219 23.4987 29.9669 23.0245 29.9694C22.6265 29.9694 22.1265 29.7148 21.656 29.1241C21.4777 28.9002 21.3136 28.6646 21.1646 28.4188C20.9987 28.1324 20.8329 27.8268 20.667 27.52C20.6497 27.4605 20.6132 27.409 20.5635 27.3743C20.5138 27.3395 20.454 27.3235 20.3943 27.3291H19.8943L19.9176 27.3813C20.0294 27.6359 20.1633 27.9007 20.2862 28.1451C20.4419 28.4615 20.5303 28.8088 20.5454 29.1636C20.5454 29.8001 20.1412 30.0853 19.6314 30.0878C19.3086 30.0724 18.9948 29.9724 18.7193 29.7972C18.4439 29.622 18.2159 29.3773 18.0565 29.0859C17.7604 28.5691 17.4643 28.0318 17.1867 27.5149C17.0896 27.3278 16.9508 27.3214 16.8083 27.3036C16.7076 27.3036 16.597 27.324 16.4901 27.324H16.4312L16.4582 27.3775C17.8624 30.3488 19.2837 33.3609 20.7113 36.3654L20.7432 36.3488L20.7113 36.3666C20.7575 36.4501 20.7856 36.5431 20.7936 36.6391C20.7936 36.7447 20.7383 36.7867 20.5712 36.7918H20.5221C14.7481 36.6964 10.1449 32.6251 10.1462 27.6881C10.156 22.6747 14.9152 18.5652 20.7997 18.5652C26.6646 18.5652 31.4422 22.6747 31.4532 27.6881C31.4483 30.5156 30.0503 32.9548 27.6547 34.6365Z" fill="#E53313"/>
<path d="M22.7768 24.3728C22.6044 24.3723 22.4357 24.4248 22.2921 24.5238C22.1485 24.6227 22.0365 24.7636 21.9702 24.9285C21.9039 25.0935 21.8864 25.2751 21.9198 25.4504C21.9533 25.6257 22.0362 25.7868 22.158 25.9132C22.2798 26.0396 22.4351 26.1258 22.6042 26.1606C22.7734 26.1955 22.9487 26.1776 23.1079 26.1092C23.2672 26.0408 23.4033 25.9249 23.499 25.7762C23.5946 25.6276 23.6456 25.4528 23.6453 25.2741C23.6447 25.0355 23.553 24.8068 23.3903 24.638C23.2276 24.4691 23.007 24.3738 22.7768 24.3728Z" fill="#E53313"/>
<path d="M19.4082 24.373C19.2351 24.369 19.0648 24.4185 18.919 24.5152C18.7731 24.612 18.6584 24.7516 18.5895 24.9162C18.5206 25.0808 18.5006 25.2629 18.5321 25.4394C18.5635 25.6158 18.645 25.7786 18.7661 25.9068C18.8872 26.035 19.0425 26.1229 19.2121 26.1593C19.3816 26.1957 19.5578 26.1788 19.7181 26.111C19.8783 26.0431 20.0155 25.9272 20.1119 25.7782C20.2084 25.6292 20.2598 25.4538 20.2596 25.2744C20.259 25.0388 20.1697 24.8127 20.0107 24.6444C19.8517 24.476 19.6355 24.3787 19.4082 24.373Z" fill="#E53313"/>
<path d="M15.9472 24.3728C15.7749 24.3728 15.6064 24.4258 15.4631 24.525C15.3199 24.6242 15.2082 24.7653 15.1424 24.9303C15.0765 25.0953 15.0593 25.2768 15.093 25.452C15.1267 25.6271 15.2098 25.7879 15.3317 25.9141C15.4537 26.0403 15.609 26.1261 15.778 26.1608C15.947 26.1955 16.1222 26.1775 16.2813 26.1089C16.4405 26.0404 16.5764 25.9245 16.672 25.7759C16.7675 25.6273 16.8184 25.4527 16.8182 25.2741C16.8182 25.1557 16.7956 25.0384 16.7519 24.9289C16.7081 24.8195 16.6439 24.7201 16.563 24.6363C16.4821 24.5526 16.3861 24.4863 16.2804 24.441C16.1747 24.3958 16.0615 24.3726 15.9472 24.3728Z" fill="#E53313"/>
</svg>
