<svg width="160" height="60" viewBox="0 0 160 60" fill="none" xmlns="http://www.w3.org/2000/svg">
<path d="M109.684 36.8032C109.034 38.2333 108.04 39.4591 107.37 40.2559C106.741 40.9709 105.523 41.9924 104.67 41.9107C103.594 41.8086 103.635 39.786 104.264 37.6408C104.873 35.5774 107.898 28.386 110.516 28.386C111.511 28.386 111.815 29.2236 111.836 29.9795C111.836 30.7559 111.612 31.8591 111.166 33.0236C110.679 34.2086 110.029 36.0064 109.684 36.8032ZM108.649 42.3193C108.892 43.1569 109.583 43.7903 110.557 43.7903C111.552 43.8107 112.546 43.1365 113.155 42.5645C113.988 41.7677 114.86 40.6849 115.409 39.8064C115.855 39.1118 115.327 39.1322 114.962 39.5612C114.495 40.0924 113.866 40.787 113.155 41.4204C112.729 41.8085 112.303 42.0129 112.039 41.9924C111.267 41.9107 111.734 40.3376 112.465 38.4784L116.606 27.6505H113.236L112.587 29.3462C112.424 28.0795 111.552 27.5075 110.577 27.487C107.796 27.487 104.041 30.3473 101.869 34.9849C99.6764 37.9064 95.1699 42.2784 92.328 42.2376C90.8258 42.2172 90.1356 40.9913 90.2777 39.3978C90.7243 34.2698 95.3932 28.0795 97.687 28.1408C98.0727 28.1612 98.2757 28.2634 98.4178 28.386C98.7629 28.7333 98.7832 29.2645 98.7223 29.7752C98.3366 33.3709 94.297 35.5978 91.6175 36.3128C91.1506 36.4354 91.2521 36.6806 91.4957 36.6806C93.8707 36.7827 96.6315 35.9247 98.6614 34.658C100.143 33.7387 100.996 32.6763 101.239 31.4709C101.544 29.9999 101.28 27.4258 97.6464 27.4053C91.922 27.3849 87.8215 33.6978 87.0704 37.8247C86.8674 38.9279 86.8065 40.0311 87.2328 41.2161C87.9027 43.0752 89.3033 43.6881 90.7243 43.7698C94.1955 43.9741 98.8035 39.8881 101.036 37.0075C100.752 37.9473 100.61 38.9279 100.63 39.9903C100.691 42.7279 102.112 43.729 103.33 43.7698C105.746 43.872 108.304 40.3172 109.075 38.9688C108.628 40.215 108.365 41.4204 108.649 42.3193Z" fill="#CC092F"/>
<path d="M130.268 37.2731C131.729 33.4731 134.795 29.5097 136.337 29.571C137.17 29.6118 136.987 30.6129 136.581 31.614L132.014 43.4021H135.383L139.524 32.7172C140.154 31.1441 141.108 27.8753 138.388 27.5892C136.297 27.3849 134.429 29.2849 132.298 32.043C132.805 30.715 133.455 27.5892 130.897 27.5892C128.827 27.5892 126.918 29.3054 124.787 32.0634C125.193 30.8172 126.106 27.5892 123.346 27.5892C120.504 27.5892 118.027 30.7559 116.931 32.329C116.687 32.6763 117.012 33.0849 117.317 32.7581C118.19 31.6548 118.738 31.0419 119.611 30.2043C120.402 29.4484 121.133 29.0398 121.519 29.0806C122.351 29.1828 122.128 30.2247 121.823 31.0624L117.053 43.4021H120.423L122.798 37.2527C124.279 33.4527 127.324 29.5301 128.867 29.5505C129.699 29.5505 129.496 30.6538 129.131 31.5935L124.564 43.3817H127.913L130.268 37.2731Z" fill="#CC092F"/>
<path d="M76.799 43.7902C82.3813 43.8515 87.2532 36.3332 87.4359 31.4504C87.5374 28.7128 86.4412 27.3644 84.7564 27.4053C82.6046 27.4461 80.5747 29.4279 79.5597 31.001L84.2895 18.8042H80.9198L75.7434 32.2064C74.1397 36.3741 71.9068 39.173 70.4046 40.8483C69.6333 41.7064 69.0446 41.8698 68.6386 41.8494C67.9687 41.7881 67.9078 41.073 67.9484 40.5623C68.192 38.1719 71.4399 33.3913 71.8662 30.5924C72.1707 28.6107 71.3993 27.3848 69.7348 27.3848C68.9025 27.3848 68.0093 27.6504 66.8725 28.4268C65.5531 29.3257 64.1727 30.9397 63.381 32.1042L65.1268 27.6709H61.757L55.6875 43.4225H59.0572C59.0572 43.4225 61.0872 38.1719 61.757 36.4354C63.3404 32.3289 66.7913 28.9784 68.0499 28.9988C68.6183 28.9988 68.7401 29.4891 68.6589 30.1429C68.3747 32.5332 64.9035 36.987 64.6599 40.5623C64.5381 42.3193 65.411 43.6881 66.8319 43.7698C69.613 43.9332 72.394 39.7246 73.612 37.8246C72.8812 42.7279 75.2359 43.7698 76.799 43.7902ZM77.408 36.5171C79.0928 32.1655 81.5288 29.244 83.1121 29.2236C84.0662 29.2031 84.188 30.1021 84.1677 30.9397C84.0459 33.6365 81.7115 38.3967 80.6965 39.9085C79.6815 41.4408 78.4026 42.7074 77.205 42.6461C75.9058 42.5848 75.9261 40.6236 76.7178 38.3558C77.1035 37.273 77.2862 36.844 77.408 36.5171Z" fill="#CC092F"/>
<path d="M46.9789 18.886C46.918 20.0097 46.7353 20.929 45.8624 22.114C53.5763 17.3538 66.9942 11 88.3087 11C114.292 11 128.542 20.3979 135.038 24.9129C135.444 25.1989 135.302 25.4849 135.038 25.3011C128.542 20.786 114.292 13.4312 88.3087 13.4312C66.8318 13.4312 53.353 18.457 45.6595 22.7473C44.0152 23.6667 43.3859 24.2387 41.7619 25.2602C41.5793 24.8312 40.6658 23.1763 40.3207 22.2774C42.7363 21.2355 43.6092 19.8258 43.6701 18.5591C43.7513 16.6591 42.3506 14.6366 39.6914 14.6161C36.7277 14.5957 33.8045 16.7613 33.7233 20.5C33.6015 26.3634 40.0771 29.5301 39.6711 38.0903C39.4478 42.7688 36.9104 45.6699 33.703 47.4677C31.7949 48.5505 29.4198 48.9387 27.6132 48.7548C22.7007 48.2441 18.8235 44.771 19.0062 40.0925C19.2092 34.9645 22.4774 32.043 27.1666 32.2473C27.7756 32.2677 27.7756 32.4925 27.2275 32.6968C25.7253 33.4731 22.7413 35.128 22.4165 39.9495C22.2338 42.8301 23.3909 46.957 28.0801 47.3247C32.2212 47.6516 35.2458 44.914 35.5909 41.0731C36.2405 34.1065 30.11 30.6946 30.1506 24.157C30.1912 18.171 34.4541 13.2677 40.5846 13.3903C46.0248 13.4925 47.0804 17.0269 46.9789 18.886Z" fill="#CC092F"/>
<path d="M50.2472 36.6397L53.7185 27.6709H57.0882L52.9065 38.4989C52.196 40.358 51.7088 41.9107 52.5005 42.0128C52.7644 42.0333 53.1907 41.829 53.617 41.4408C54.3274 40.8075 55.0176 40.0515 55.4033 39.5612C55.7687 39.1118 56.2762 39.2548 55.8499 39.8881C55.2612 40.7462 54.4695 41.7064 53.617 42.544C53.0486 43.0752 52.1148 43.7903 51.0186 43.8107C49.0496 43.8515 48.7857 41.7472 49.212 40.0515C48.3594 41.2569 46.3497 43.8515 44.0559 43.7903C43.2236 43.7698 42.5943 43.5451 42.0259 42.6053C41.3764 41.5225 41.4982 39.6429 42.4522 37.1913L46.1061 27.6913H49.4759L45.7813 37.1709C44.7664 39.8064 44.401 41.686 45.8625 41.6451C47.1008 41.6247 49.1917 39.4591 50.2472 36.6397Z" fill="#CC092F"/>
<path d="M137.678 41.7471C137.678 40.8482 138.388 40.0923 139.261 40.0923C140.134 40.0923 140.824 40.8278 140.824 41.7471C140.824 42.6665 140.114 43.402 139.261 43.402C138.388 43.402 137.678 42.6665 137.678 41.7471ZM140.56 41.7471C140.56 40.9504 140.012 40.317 139.241 40.317C138.469 40.317 137.921 40.9504 137.921 41.7471C137.921 42.5643 138.49 43.1977 139.241 43.1977C140.012 43.1772 140.56 42.5643 140.56 41.7471ZM140.032 42.6665H139.769L139.261 41.8084H138.875V42.6665H138.652V40.8278H139.423C139.89 40.8278 140.053 41.0116 140.053 41.3181C140.053 41.6858 139.809 41.8084 139.505 41.8288L140.032 42.6665ZM139.2 41.6245C139.444 41.6245 139.809 41.6654 139.809 41.2977C139.809 41.0116 139.586 40.9708 139.363 40.9708H138.855V41.6245H139.2Z" fill="#CC092F"/>
</svg>
