<svg width="160" height="60" viewBox="0 0 160 60" fill="none" xmlns="http://www.w3.org/2000/svg">
<path fill-rule="evenodd" clip-rule="evenodd" d="M151.806 26.8777C151.495 27.202 151.325 27.637 151.332 28.0874C151.338 28.546 151.513 28.986 151.823 29.3226C152.136 29.6301 152.555 29.8041 152.993 29.8081C153.435 29.797 153.855 29.6126 154.164 29.2943C154.473 28.976 154.645 28.549 154.645 28.1044C154.658 27.8838 154.62 27.6631 154.535 27.4593C154.45 27.2556 154.32 27.0741 154.154 26.9289C154.005 26.7706 153.824 26.6451 153.625 26.5601C153.425 26.475 153.21 26.4324 152.993 26.4348C152.554 26.4411 152.135 26.6182 151.823 26.9289L151.806 26.8777ZM154.349 29.4333C153.968 29.7933 153.464 29.9917 152.942 29.987C152.691 29.989 152.442 29.9411 152.209 29.8461C151.976 29.7511 151.765 29.6108 151.586 29.4333C151.229 29.05 151.032 28.544 151.035 28.0192C151.034 27.7672 151.083 27.5175 151.178 27.2844C151.273 27.0514 151.414 26.8396 151.591 26.6614C151.768 26.4832 151.979 26.3421 152.211 26.2462C152.443 26.1502 152.691 26.1014 152.942 26.1026C153.465 26.101 153.969 26.3024 154.349 26.6648C154.703 27.0253 154.901 27.5123 154.9 28.0192C154.903 28.544 154.705 29.05 154.349 29.4333ZM153.306 27.2781C153.164 27.2492 153.019 27.2293 152.874 27.2185H152.569V28.0874H152.874C153 28.0781 153.125 28.0581 153.247 28.0277C153.309 27.9883 153.358 27.9323 153.389 27.866C153.421 27.7997 153.433 27.7259 153.425 27.6529C153.425 27.5337 153.425 27.4059 153.306 27.3463V27.2781ZM152.942 26.9715C153.128 26.9544 153.315 26.9747 153.493 27.0311C153.595 27.079 153.68 27.1584 153.735 27.2579C153.79 27.3574 153.812 27.4719 153.798 27.5848C153.801 27.6665 153.785 27.7479 153.753 27.823C153.721 27.8981 153.673 27.9652 153.611 28.0192C153.519 28.073 153.412 28.094 153.306 28.0789C153.493 28.1385 153.611 28.1981 153.671 28.3259C153.741 28.4139 153.785 28.5203 153.798 28.6326V29.067H153.493L153.425 29.0074V28.854C153.425 28.607 153.366 28.4196 153.247 28.36C153.128 28.3003 153.061 28.3003 152.815 28.3003H152.569V29.1011H152.205V27.0055L152.942 26.9715Z" fill="#0D0F0C"/>
<path fill-rule="evenodd" clip-rule="evenodd" d="M25.3997 19.0493C26.0692 19.0493 26.0098 19.5434 25.8912 20.0971L25.7047 21.0256C25.459 21.8775 25.0861 21.6986 24.7217 21.6986H22.1793C19.4844 21.6986 18.9929 23.6153 18.5607 25.336L15.0692 40.3797C14.8827 41.0612 14.4505 41.1804 13.8403 41.1804H9.45051C8.2217 41.1804 8.6539 40.3797 8.6539 40.073L12.1454 25.336C12.9929 21.8264 11.6539 21.6986 8.59458 21.6986H6.74712C6.38271 21.6986 5.89966 21.5793 6.01831 21.0853L6.41661 19.569C6.54373 18.9556 7.02678 19.0153 7.45898 19.0153L25.3997 19.0493Z" fill="#0D0F0C"/>
<path fill-rule="evenodd" clip-rule="evenodd" d="M70.9084 26.7582H87.1033C88.7982 26.7582 90.7813 27.6101 90.1033 30.336L87.7728 40.3793C87.6541 41.1204 87.0355 41.1204 86.4847 41.1801H83.0948C82.7897 41.1801 81.9931 41.1801 82.1796 40.439L84.5101 30.336C84.579 30.1685 84.6046 29.9863 84.5846 29.8062C84.5645 29.6261 84.4994 29.454 84.3953 29.3061C84.2913 29.1581 84.1516 29.039 83.9894 28.9599C83.8272 28.8808 83.6477 28.8443 83.4677 28.8538C83.117 28.8539 82.7775 28.9776 82.5081 29.2032C82.2387 29.4289 82.0565 29.7423 81.9931 30.089L79.6033 40.3793C79.4762 41.1204 78.9253 41.1801 78.4338 41.1801H75.0609C74.7558 41.1801 73.9592 41.1801 74.0779 40.3793L76.4677 30.336C76.5254 30.1635 76.5407 29.9796 76.5121 29.7999C76.4835 29.6202 76.412 29.4502 76.3036 29.3044C76.1953 29.1587 76.0533 29.0415 75.89 28.963C75.7267 28.8845 75.5469 28.847 75.366 28.8538C75.0257 28.8647 74.6997 28.9938 74.4432 29.2189C74.1868 29.4441 74.0158 29.7515 73.9592 30.089L71.5609 40.3793C71.4423 40.8138 71.3152 41.1801 70.4592 41.1801H66.8999C66.4762 41.1801 65.7389 41.0608 65.9169 40.3793L68.9847 27.3119C69.0192 27.1451 69.1133 26.9968 69.249 26.8948C69.3848 26.7928 69.553 26.7442 69.7219 26.7582H70.9084Z" fill="#0D0F0C"/>
<path fill-rule="evenodd" clip-rule="evenodd" d="M122.672 19.0487C123.595 19.0487 123.35 19.6621 123.29 20.0965L118.562 40.3791C118.384 41.0606 117.833 41.1798 117.273 41.1798H108.019C105.867 41.1798 105.621 38.6243 106.053 36.9206L107.833 29.1517C108.005 28.4175 108.435 27.7705 109.044 27.3292C109.652 26.888 110.399 26.6822 111.146 26.7495H114.697C115.375 26.7495 115.011 27.5502 114.884 28.0443C114.756 28.5384 114.578 28.6576 114.273 28.6576C113.231 28.6576 112.985 29.3391 112.799 29.9524L110.96 37.9087C110.89 38.0708 110.863 38.2478 110.879 38.4235C110.895 38.5992 110.955 38.768 111.052 38.9146C111.15 39.0611 111.283 39.1807 111.438 39.2624C111.594 39.3442 111.767 39.3854 111.943 39.3824C112.271 39.3988 112.593 39.2958 112.852 39.0924C113.11 38.889 113.287 38.5988 113.35 38.275L117.706 19.7217C117.892 18.9806 118.502 19.0402 118.934 19.0402L122.672 19.0487Z" fill="#0D0F0C"/>
<path fill-rule="evenodd" clip-rule="evenodd" d="M94.0949 26.7578C93.417 26.7578 93.0526 26.7578 92.8661 27.2519L92.739 27.9248C92.6797 28.1123 92.6204 28.5467 93.1119 28.5467H99.3068C100.349 28.5467 100.103 29.2197 99.7305 30.8893L98.0356 38.2237C97.9886 38.5488 97.8264 38.8459 97.5788 39.0604C97.3313 39.2748 97.015 39.3921 96.6881 39.3908C96.5126 39.3938 96.3392 39.3525 96.1836 39.2708C96.028 39.189 95.8953 39.0694 95.7976 38.9229C95.6998 38.7763 95.6401 38.6075 95.624 38.4318C95.6078 38.2561 95.6357 38.0791 95.7051 37.9171L96.7475 33.4789C96.8661 32.9848 96.9932 32.6271 97.8492 32.6271C98.0356 32.6271 98.5865 32.6271 98.6966 32.133C98.8237 31.8263 99.1288 31.0852 98.578 31.0852H93.9763C91.8915 31.0852 91.6458 32.6271 91.4339 33.496L90.6373 36.9034C90.2136 38.7519 90.6373 41.2137 92.722 41.2137H101.866C102.417 41.2137 103.027 41.1541 103.214 40.413L105.57 30.3356C106.247 27.6182 104.281 26.7578 102.502 26.7578H94.0949Z" fill="#0D0F0C"/>
<path fill-rule="evenodd" clip-rule="evenodd" d="M46.6201 34.8334C46.493 35.1997 46.6794 35.3871 46.9845 35.3871H51.4675C53.6116 35.3871 53.798 33.726 53.9167 32.9848L54.5947 30.0886C55.1455 27.9248 53.8574 26.7578 52.3235 26.7578H43.5523C43.072 26.7896 42.6164 26.9836 42.2595 27.3083C41.9026 27.633 41.6654 28.0694 41.5862 28.5467L39.4675 37.6104C38.798 40.3193 40.815 41.1797 42.5353 41.1797H51.154C51.8913 41.1797 52.0777 41.12 52.1964 40.6856L52.3828 40.0126C52.4421 39.8252 52.5099 39.3311 52.0184 39.3908H45.7557C44.7133 39.3908 44.9082 38.8371 45.3319 36.9885L47.0269 29.7137C47.074 29.3872 47.2375 29.0889 47.4868 28.8743C47.7362 28.6597 48.0545 28.5433 48.3828 28.5467C49.1794 28.5467 49.6031 29.0408 49.3658 30.0204L48.7896 32.9252C48.6031 33.4789 48.4845 33.8452 47.6286 33.8452C47.3828 33.8452 46.8913 33.8452 46.7811 34.3393L46.6625 34.8334H46.6201Z" fill="#0D0F0C"/>
<path fill-rule="evenodd" clip-rule="evenodd" d="M32.4505 26.7581H36.2556C38.0352 26.7581 39.9335 27.6781 39.3234 30.3955L36.9929 40.3792C36.9061 40.6436 36.7294 40.8689 36.4938 41.0153C36.2582 41.1617 35.9788 41.2201 35.7047 41.18H32.264C31.959 41.18 31.2217 41.18 31.4166 40.3792L33.7471 30.157C33.8247 29.9847 33.8568 29.7952 33.8402 29.6068C33.8236 29.4184 33.7589 29.2375 33.6524 29.0816C33.5459 28.9256 33.4011 28.8 33.2321 28.7168C33.0631 28.6336 32.8756 28.5957 32.6878 28.6067C31.2725 28.6067 31.0946 28.973 30.8488 29.7737L28.3912 40.3792C28.2132 41.0607 27.7217 41.18 27.0437 41.18H23.4335C22.4505 41.18 22.6369 40.6263 22.6963 40.1322L27.4844 19.6878C27.7301 18.887 28.3318 19.0063 28.7725 19.0063H32.5098C33.2471 19.0063 33.2471 19.56 33.1285 19.9944L31.7132 25.9574C31.5946 26.5707 31.7132 26.6985 32.4505 26.6985V26.7581Z" fill="#0D0F0C"/>
<path fill-rule="evenodd" clip-rule="evenodd" d="M133.959 26.7578C135.653 26.7578 137.696 27.6097 137.026 30.3356L134.882 39.3908C134.81 39.8713 134.575 40.312 134.217 40.6381C133.859 40.9642 133.399 41.1555 132.916 41.1797H123.959C122.12 41.1797 120.281 40.3278 120.891 37.6104L123.043 28.4786C123.117 28.0081 123.354 27.579 123.712 27.2673C124.071 26.9555 124.527 26.7811 125.001 26.7748L133.959 26.7578ZM126.755 37.9171C126.693 38.0842 126.672 38.2642 126.695 38.4413C126.718 38.6183 126.784 38.787 126.886 38.9326C126.989 39.0781 127.126 39.196 127.285 39.2759C127.444 39.3558 127.62 39.3952 127.798 39.3908C128.199 39.4274 128.599 39.3071 128.915 39.0549C129.231 38.8027 129.437 38.4379 129.492 38.0363L131.331 30.0886C131.39 29.9193 131.406 29.7379 131.377 29.561C131.348 29.3841 131.275 29.2173 131.166 29.0759C131.056 28.9344 130.913 28.8228 130.75 28.7512C130.586 28.6796 130.407 28.6503 130.23 28.666C129.842 28.6046 129.446 28.7001 129.128 28.9316C128.811 29.1631 128.597 29.5118 128.535 29.9011L126.755 37.9171Z" fill="#0D0F0C"/>
<path fill-rule="evenodd" clip-rule="evenodd" d="M55.0183 41.1806C54.5945 41.1806 53.9166 41.121 54.103 40.3288L57.103 27.3806C57.1559 27.1979 57.268 27.0383 57.4216 26.9271C57.5752 26.816 57.7614 26.7597 57.9505 26.7673H67.2725C67.6962 26.7673 67.5183 27.1932 67.4505 27.3806L67.3318 28.1217C67.2047 28.6158 66.8403 28.5562 66.5946 28.5562C64.8149 28.6158 62.6115 28.0621 61.7471 31.6995L59.7217 40.3884C59.603 40.8228 59.4759 41.1891 58.62 41.1891L55.0183 41.1806Z" fill="#0D0F0C"/>
<path fill-rule="evenodd" clip-rule="evenodd" d="M137.391 41.1797C136.968 41.1797 136.29 41.12 136.476 40.3278L139.468 27.3711C139.518 27.197 139.623 27.0435 139.766 26.9332C139.909 26.8229 140.084 26.7615 140.264 26.7578H149.527C149.959 26.7578 149.832 27.1837 149.773 27.3711L149.637 28.0867C149.51 28.5808 149.146 28.5211 148.959 28.5211C147.12 28.5808 144.976 28.0271 144.112 31.6645L142.086 40.3534C141.968 40.7878 141.84 41.1541 140.985 41.1541L137.391 41.1797Z" fill="#0D0F0C"/>
</svg>
