<svg width="160" height="60" viewBox="0 0 160 60" fill="none" xmlns="http://www.w3.org/2000/svg">
<rect width="160" height="60" fill="white"/>
<g clip-path="url(#clip0_2_978)">
<path d="M92.1151 9.64209C89.7512 9.64209 87.5739 9.92203 85.6143 10.4819C83.6547 11.0418 81.9751 11.9438 80.6065 13.1569C79.2068 14.3699 78.1493 15.9251 77.3717 17.8536C76.7496 19.4399 76.3764 21.2751 76.2519 23.3901H84.3079C84.3701 22.4259 84.5568 21.555 84.8056 20.8085C85.1789 19.7198 85.7076 18.8489 86.3919 18.1335C87.0762 17.4492 87.8849 16.9516 88.8491 16.6094C89.8445 16.2673 90.902 16.1429 92.1151 16.1429C93.2971 16.1429 94.4168 16.2984 95.381 16.6094C96.3764 16.9516 97.1851 17.4181 97.8694 18.1335C98.5848 18.8178 99.0824 19.6887 99.4868 20.8085C99.7356 21.555 99.9222 22.4259 100.016 23.3901H108.072C107.947 21.2751 107.574 19.4399 106.952 17.8536C106.174 15.9562 105.117 14.3699 103.717 13.1569C102.317 11.9438 100.638 11.0418 98.6781 10.4819C96.6563 9.95313 94.479 9.64209 92.1151 9.64209ZM108.009 26.0962H99.9534C99.8911 27.0604 99.7045 27.9314 99.4557 28.6779C99.0824 29.7354 98.5537 30.6374 97.8383 31.3528C97.1229 32.0371 96.3142 32.5348 95.3499 32.8769C94.3546 33.2191 93.297 33.3435 92.084 33.3435C90.902 33.3435 89.7823 33.188 88.818 32.8769C87.8227 32.5659 87.014 32.0682 86.3608 31.3528C85.6765 30.6685 85.1477 29.7976 84.7745 28.6779C84.5257 27.9314 84.339 27.0604 84.2768 26.0962H76.2208C76.3453 28.2113 76.7185 30.0775 77.3406 31.6639C78.1182 33.5612 79.2068 35.1164 80.5754 36.3295C81.9751 37.5426 83.6547 38.4446 85.5832 38.9733C87.5428 39.5332 89.689 39.8132 92.084 39.8132C94.4479 39.8132 96.5941 39.5332 98.5848 38.9733C100.544 38.4135 102.255 37.5426 103.624 36.3295C105.023 35.1164 106.081 33.5612 106.858 31.6639C107.543 30.0775 107.916 28.2113 108.009 26.0962ZM147.574 41.1817C146.89 41.1817 146.299 41.4617 145.863 41.8971C145.428 42.3326 145.148 42.9547 145.148 43.639C145.148 44.3233 145.428 44.9142 145.863 45.3497C146.299 45.7852 146.921 46.0651 147.574 46.0651C148.258 46.0651 148.849 45.7852 149.316 45.3497C149.751 44.9142 150.031 44.2922 150.031 43.639C150.031 42.9858 149.751 42.3637 149.316 41.8971C148.818 41.4617 148.227 41.1817 147.574 41.1817ZM147.574 45.6296C147.014 45.6296 146.516 45.3808 146.143 45.0076C145.77 44.6343 145.552 44.1366 145.552 43.5768C145.552 43.0169 145.801 42.5192 146.143 42.146C146.516 41.7727 147.045 41.555 147.574 41.555C148.134 41.555 148.663 41.8038 149.036 42.146C149.409 42.5192 149.627 43.0169 149.627 43.5768C149.627 44.1366 149.378 44.6343 149.036 45.0076C149.005 45.0387 149.005 45.0387 149.005 45.0698C148.569 45.443 148.072 45.6296 147.574 45.6296ZM147.729 42.146H146.392V45.1009H146.796V43.7945H147.263L147.481 43.8256L147.667 43.8878L147.885 44.1055C147.947 44.1989 148.04 44.3544 148.165 44.541L148.569 45.132H148.974L149.036 45.1009L148.538 44.3544C148.445 44.1989 148.32 44.0744 148.196 43.95L147.947 43.8256C148.227 43.7634 148.445 43.7012 148.569 43.5457C148.694 43.4212 148.787 43.2346 148.787 43.0169C148.787 42.8614 148.756 42.7058 148.663 42.5814C148.569 42.457 148.476 42.3326 148.32 42.3015C148.196 42.1771 147.978 42.146 147.729 42.146ZM146.796 43.4523V42.457H147.729C147.947 42.457 148.103 42.5192 148.227 42.6125C148.32 42.7058 148.383 42.8303 148.383 42.9547L148.32 43.2035L148.072 43.3901C147.978 43.4523 147.823 43.4523 147.636 43.4523H146.796V43.4523ZM71.493 10.1709C71.9596 10.1709 72.3328 10.5441 72.3328 11.0107V38.5068C72.3328 38.9733 71.9596 39.3466 71.493 39.3466H64.7123C64.2457 39.3466 63.8725 38.9733 63.8725 38.5068V26.5628H54.0747C52.2395 26.5628 50.3733 28.2735 50.3733 29.922V38.5068C50.3733 38.9733 50 39.3466 49.5334 39.3466H42.7838C42.3173 39.3466 41.944 38.9733 41.944 38.5068V11.0107C41.944 10.5441 42.3173 10.1709 42.7838 10.1709H49.5334C50 10.1709 50.3733 10.5441 50.3733 11.0107V19.9998H63.8725V11.0107C63.8725 10.5441 64.2457 10.1709 64.7123 10.1709H71.493V10.1709ZM130.56 10.1709C132.271 10.1709 133.888 10.3886 135.381 10.7618C145.925 13.5923 144.619 26.625 133.919 28.0558C137.03 31.6328 139.953 34.3388 143.033 37.9158C143.655 38.6312 144.184 39.0667 142.348 39.0667H134.635C133.359 39.0667 133.266 39.0356 132.333 37.8847L121.042 24.4788C120.793 24.1989 120.731 23.9811 120.98 23.7323C121.229 23.4835 121.54 23.359 121.975 23.359H128.289C135.194 23.359 136.998 16.0184 128.289 16.0184H120.42V38.5379C120.42 39.0045 120.047 39.3777 119.58 39.3777H112.799C112.333 39.3777 111.96 39.0045 111.96 38.5379V11.0418C111.96 10.5752 112.333 10.202 112.799 10.202L130.56 10.1709ZM13.6081 45.4741L13.577 45.5985L11.8663 47.7758L13.577 49.9842L13.5459 50.2331L13.4526 50.2642H12.5816L12.4572 50.202L11.0264 48.2735V50.1086L10.8709 50.2642H10.1555L10 50.0775V45.5052L10.1555 45.3497H10.8398L10.9953 45.5052V47.3093L12.4572 45.3808L12.5816 45.3186H13.4526L13.6081 45.4741ZM32.6128 45.3186L32.7683 45.4741V50.0464L32.6128 50.202H31.9285L31.7729 50.0464V45.4741L31.9285 45.3186H32.6128ZM55.0078 45.4741V46.0651L54.8523 46.2206H53.4837V50.0153L53.3282 50.1709H52.675L52.5194 50.0153V46.2206H51.1509L50.9953 46.0651V45.4741L51.1509 45.3186H54.8834L55.0078 45.4741ZM75.8165 45.2253L75.972 45.2564L76.1586 45.2875L76.3453 45.3497L76.563 45.4119L76.7807 45.5052C76.9051 45.5674 77.0607 45.6296 77.1851 45.7541L77.465 46.0029L77.6827 46.2517L77.8072 46.4695L77.9316 46.6561L77.8694 46.9049L77.8072 46.936H76.9984L76.874 46.8738L76.7496 46.7494L76.5008 46.5628L76.3453 46.4695L76.1586 46.4072L75.9409 46.3761L75.6921 46.345L75.381 46.3761L75.1011 46.4695L74.8523 46.625L74.6034 46.8116L74.4168 47.0604L74.2924 47.3404L74.1991 47.6514L74.168 47.9936L74.1991 48.3357L74.2924 48.6468V48.6779L74.4168 48.9267L74.6034 49.1755L74.8523 49.3621L75.1011 49.5177L75.381 49.611L75.6921 49.6421L76.0342 49.5799L76.3453 49.4555L76.6252 49.2999L76.874 49.0511L76.9984 48.9889H77.8072L77.9627 49.1444L77.9316 49.2377C77.8072 49.4866 77.6516 49.6732 77.465 49.8287L77.1851 50.0775L76.9051 50.2642L76.5941 50.4197L76.2831 50.513L75.972 50.5752L75.6921 50.6063C75.5366 50.6063 75.3499 50.5752 75.1944 50.5752C75.0389 50.5441 74.8523 50.4819 74.7278 50.4197C74.5723 50.3575 74.4168 50.2953 74.2924 50.1709C74.168 50.0775 74.0436 49.9842 73.9191 49.8287C73.7947 49.7043 73.7014 49.5799 73.6081 49.4555C73.5148 49.331 73.4526 49.1755 73.3593 49.02C73.297 48.8645 73.2348 48.709 73.2348 48.5223C73.2037 48.3668 73.2037 48.1802 73.2037 48.0247C73.2037 47.6825 73.2659 47.3093 73.4215 47.0293C73.4837 46.8738 73.577 46.7183 73.6703 46.5939C73.7636 46.4695 73.8569 46.345 73.9813 46.2206C74.1058 46.0962 74.2302 46.0029 74.3546 45.9096C74.479 45.8163 74.6345 45.7541 74.7901 45.6607C74.9456 45.5985 75.1011 45.5363 75.2566 45.5052C75.4121 45.4741 75.5988 45.4741 75.7543 45.4741H75.8165V45.2253ZM100.109 45.4741V50.0775L99.9534 50.2331H99.2691L99.1135 50.0775V48.2424H97.1229V50.0775L96.9673 50.2331H96.3142L96.1586 50.0775V45.5052L96.3142 45.3497H96.9673L97.1229 45.5052V47.3093H99.1135V45.4741L99.2691 45.3186H99.9222L100.109 45.4741ZM121.509 45.4741V46.0651L121.353 46.2206H119.269V47.2471H121.353L121.509 47.4026V47.9936L121.353 48.2113H119.269V49.2688H121.353L121.509 49.4244V50.0153L121.353 50.1709H118.429L118.274 50.0153V45.443L118.429 45.2875H121.353L121.509 45.4741ZM143.624 45.4741V50.0775L143.468 50.2331H142.753L142.628 50.1398L140.638 47.0604V50.0775L140.482 50.2331H139.798L139.642 50.0775V45.5052L139.798 45.3497H140.513L140.638 45.443L142.566 48.4912V45.5674L142.722 45.4119H143.375L143.624 45.4741ZM36.2208 10.6063L37.2784 10.9174C37.6205 11.0107 37.9005 11.1973 37.9005 11.5394V16.485C37.9005 16.7961 37.6205 17.0138 37.2784 17.1071L36.2208 17.4181V17.8225H31.3064C29.7201 18.1024 28.3204 19.2533 28.3204 20.6841V38.5068C28.3204 38.9733 27.916 39.3777 27.4495 39.3777H20.5132C20.0467 39.3777 19.6423 38.9733 19.6423 38.5068V20.7152C19.6423 19.2533 18.2426 18.1024 16.6563 17.8536H11.6796V17.4181L10.6532 17.1071C10.311 17.0138 10.0311 16.8272 10.0311 16.485V11.5394C10.0311 11.1973 10.311 11.0107 10.6532 10.9174L11.6796 10.6374V10.202H36.2208V10.6063V10.6063Z" fill="black"/>
</g>
<defs>
<clipPath id="clip0_2_978">
<rect width="140" height="40.7154" fill="white" transform="translate(10 9.64209)"/>
</clipPath>
</defs>
</svg>
