<svg width="160" height="60" viewBox="0 0 160 60" fill="none" xmlns="http://www.w3.org/2000/svg">
<path d="M138.303 14.5523L139.6 24.7585C139.6 24.7585 139.09 25.4729 138.728 24.7585C138.367 24.044 135.816 17.7979 129.608 17.7979C129.608 17.7979 122.614 17.9816 122.614 28.8001C122.614 39.6187 127.397 40.5168 128.247 40.3943C128.963 40.3383 129.659 40.1454 130.295 39.8271C130.932 39.5087 131.495 39.0713 131.953 38.5406C132.411 38.0099 132.753 37.3966 132.96 36.7369C133.167 36.0772 133.234 35.3844 133.158 34.6993C133.158 34.6993 133.052 31.1884 130.607 30.7189C130.607 30.7189 129.438 29.9432 130.607 29.9432H142.066C142.066 29.9432 143.193 29.9432 142.066 30.7801C140.939 31.617 139.94 31.6579 139.94 33.2704V42.7826C139.94 42.7826 140.131 43.844 138.898 42.7826C138.033 41.9669 136.943 41.405 135.757 41.1628C134.571 40.9206 133.338 41.008 132.202 41.4149C127.397 42.4559 128.8 42.4968 125.824 42.2518C122.851 41.4056 120.245 39.6534 118.4 37.2598C116.555 34.8663 115.572 31.9614 115.598 28.9838C115.598 18.349 125.08 15.675 129.672 15.7771C131.149 15.8176 132.6 16.1658 133.924 16.7977C133.924 16.7977 136.964 18.2266 137.58 14.6544C137.58 14.6544 138.324 13.0622 138.516 14.6544" fill="#030404"/>
<path d="M117.979 16.2255H107.945C106.669 16.2255 107.562 17.1033 107.562 17.1033C110.411 17.5319 110.666 20.8591 110.666 20.8591V31.4531L102.694 16.2255H65.4475C64.5121 16.2255 65.4475 17.0828 65.4475 17.0828C69.1678 17.0828 67.1908 19.5323 67.1908 19.5323L59.4311 27.1257V21.002C59.4311 19.3895 61.7271 17.9606 63.0239 17.1237C64.3207 16.2868 63.0239 16.246 63.0239 16.246H35.5781C35.7482 15.8377 35.8971 15.552 35.9609 15.4091C36.592 13.9207 37.7315 12.6826 39.1922 11.8981C40.1702 11.3674 39.1922 11.0612 39.1922 11.0612H25.9052C24.7359 11.0612 25.9052 11.8981 25.9052 11.8981C29.3705 13.6332 28.0311 16.246 28.0311 16.246L22.7588 27.8402L18.1243 15.3478C17.6991 13.0208 20.4203 11.8981 20.4203 11.8981C21.3557 11.3674 20.4203 11 20.4203 11H8.51512C7.94112 11 7.94107 11.3674 8.06863 11.6123C8.15404 11.7202 8.27329 11.799 8.40878 11.8369C10.9386 11.8369 12.1717 15.3478 12.1717 15.3478L23.6304 41.7614C23.758 42.0472 24.1407 41.7614 24.1407 41.7614C24.1407 41.7614 32.6444 22.8187 35.3018 16.94C36.1561 17.2234 36.9043 17.7426 37.4527 18.4325C38.001 19.1224 38.3251 19.9523 38.3844 20.8183V34.7395C38.3844 36.6379 36.8963 37.291 35.7695 38.0055L34.1963 38.3117V38.9036H62.4712C64.4696 38.9036 62.4712 38.0667 62.4712 38.0667C61.7412 37.7663 61.0866 37.3194 60.5512 36.7561C60.0159 36.1928 59.6122 35.5262 59.3673 34.8008V30.7183L62.4712 27.4931L66.3829 35.1069C66.4096 35.6876 66.2925 36.266 66.0412 36.7947C65.7899 37.3234 65.4115 37.7873 64.9372 38.1484C64.4057 38.7403 64.9372 38.9853 64.9372 38.9853H90.5972H91.1712C91.3821 39.0216 91.5981 39.0216 91.809 38.9853H101.142C102.332 38.9853 101.142 38.1484 101.142 38.1484C100.41 37.8514 99.753 37.4057 99.2172 36.8419C98.6814 36.2781 98.2791 35.6096 98.0379 34.8824V22.4105L107.52 38.9853H114.237V21.002C114.237 19.3895 116.533 17.9606 117.83 17.1237C119.127 16.2868 117.979 16.2255 117.979 16.2255ZM52.6281 34.7803C52.6281 36.6787 51.14 37.3319 50.0132 38.0463L48.6314 38.3117L48.2274 38.1076C47.4975 37.8071 46.8429 37.3603 46.3076 36.797C45.7722 36.2337 45.3686 35.567 45.1236 34.8416V21.002C45.1236 19.3895 47.4196 17.9606 48.7164 17.1237C48.8408 17.0572 48.9553 16.9748 49.0566 16.8788H49.2904C50.2067 17.1234 51.0207 17.6363 51.6189 18.3461C52.2172 19.056 52.57 19.9273 52.6281 20.8388V34.7803ZM80.8179 34.7803C80.8179 36.6787 79.3298 37.3319 78.203 38.0463L76.6298 38.3525C76.3916 38.3565 76.1572 38.2953 75.9538 38.176C75.7505 38.0567 75.5868 37.8843 75.4819 37.6789L67.6159 22.4309C69.8059 19.7034 72.8206 17.6928 76.2472 16.6746L77.459 16.8788C78.3792 17.1198 79.1978 17.6312 79.8001 18.3413C80.4025 19.0514 80.7583 19.9247 80.8179 20.8388V34.7803ZM94.4664 34.7803C94.4664 36.6787 92.9782 37.3319 91.8727 38.0463L91.32 38.4342C91.1306 38.3108 90.9316 38.2016 90.7247 38.1076C89.9948 37.8071 89.3402 37.3603 88.8048 36.797C88.2695 36.2337 87.8658 35.567 87.6209 34.8416V21.002C87.6209 19.3895 89.9169 17.9606 91.2137 17.1237C94.0625 17.5524 94.3175 20.8796 94.3175 20.8796L94.4664 34.7803Z" fill="#030404"/>
<path d="M148.268 45.0886H148.693C149.267 45.0886 149.799 45.0887 149.799 45.701C149.799 46.3134 149.458 46.3746 148.927 46.3746H148.268V45.0886ZM147.481 48.4567H148.268V46.8441H148.842L150.011 48.4567H150.883L149.607 46.7625C149.873 46.7177 150.116 46.589 150.297 46.3967C150.478 46.2044 150.587 45.9595 150.606 45.701C150.613 45.5267 150.568 45.3542 150.478 45.2028C150.388 45.0513 150.256 44.927 150.096 44.8437C149.671 44.6314 149.192 44.5393 148.714 44.5783H147.481V48.4567ZM148.906 43.2924C148.244 43.3322 147.608 43.5571 147.077 43.9393C146.547 44.3215 146.144 44.8443 145.919 45.4435C145.694 46.0426 145.656 46.692 145.81 47.3115C145.964 47.931 146.304 48.4937 146.787 48.9303C147.27 49.3668 147.876 49.6582 148.529 49.7685C149.182 49.8789 149.855 49.8034 150.464 49.5513C151.074 49.2993 151.593 48.8816 151.958 48.3498C152.323 47.818 152.518 47.1953 152.52 46.5583C152.512 46.1143 152.411 45.6763 152.224 45.2702C152.037 44.864 151.767 44.498 151.43 44.1936C151.093 43.8892 150.696 43.6527 150.263 43.4979C149.829 43.3431 149.368 43.2733 148.906 43.2924ZM148.906 43.7823C149.473 43.8023 150.021 43.982 150.482 44.2989C150.943 44.6159 151.297 45.0561 151.5 45.5648C151.703 46.0735 151.745 46.6282 151.622 47.1598C151.498 47.6914 151.215 48.1765 150.807 48.5546C150.398 48.9327 149.883 49.1871 149.326 49.2862C148.768 49.3853 148.192 49.3247 147.67 49.1119C147.148 48.8991 146.702 48.5435 146.389 48.0895C146.076 47.6354 145.909 47.1029 145.908 46.5583C145.911 46.1858 145.991 45.8176 146.144 45.4753C146.297 45.1329 146.519 44.8234 146.799 44.5648C147.078 44.3062 147.408 44.1037 147.77 43.9693C148.132 43.835 148.518 43.7714 148.906 43.7823Z" fill="#030404"/>
</svg>
