<svg width="160" height="60" viewBox="0 0 160 60" fill="none" xmlns="http://www.w3.org/2000/svg">
<path d="M40.2273 12.8508L33.2007 38.126H29.1175L24.1507 19.767L19.1105 38.126H15.0267L8 12.8508H12.0468L17.0501 31.21L22.0903 12.8508H26.1002L31.1773 31.21L36.181 12.8508H40.2273Z" fill="#231F20"/>
<path d="M42.1006 12.9235L46.1474 12.5976V18.7893L46.0737 21.1068H46.2213C48.0972 20.4187 49.606 20.0928 51.4454 20.0928C54.7199 20.0928 56.9269 21.5417 56.9269 27.0813V38.126H52.8801V27.4071C52.8801 24.076 51.2245 23.6417 49.3487 23.6417C48.1709 23.6417 47.1776 23.8953 46.1474 24.1849V38.126H42.1006V12.9235Z" fill="#231F20"/>
<path d="M60.4569 20.3466H64.5038V38.126H60.4569V20.3466ZM62.4804 13.1768C64.5776 13.1768 64.9086 14.3718 64.9086 15.7117C64.9086 17.0514 64.467 18.2829 62.4804 18.2829C60.4939 18.2829 60.0889 17.0514 60.0889 15.7117C60.0889 14.3718 60.4569 13.1768 62.4804 13.1768Z" fill="#231F20"/>
<path d="M67.9248 20.3466H70.6842L71.2362 21.7949H71.494C72.5605 20.8898 74.2524 20.0928 76.4603 20.0928C76.7176 20.0928 77.0118 20.0928 77.3061 20.1292V24.0396C76.5709 23.9317 75.7981 23.8228 75.0253 23.8228C73.9213 23.8228 73.0387 24.076 71.9717 24.5469V38.126H67.9248V20.3466Z" fill="#231F20"/>
<path d="M79.0352 38.126V12.9235L83.0821 12.5976V38.126H79.0352Z" fill="#231F20"/>
<path d="M115.676 29.3254C115.676 25.9587 115.123 23.2066 111.886 23.2066C108.612 23.2066 107.802 25.8498 107.802 29.3254C107.802 32.5481 108.465 35.3368 111.703 35.3368C114.94 35.3368 115.676 32.6934 115.676 29.3254ZM111.849 20.0921C117.589 20.0921 119.797 23.4235 119.797 29.3254C119.797 34.8656 117.736 38.4875 111.776 38.4875C105.816 38.4875 103.719 34.8656 103.719 29.3254C103.719 23.4235 106.11 20.0921 111.849 20.0921Z" fill="#231F20"/>
<path d="M133.82 29.3254C133.82 25.9587 133.268 23.2066 130.032 23.2066C126.757 23.2066 125.947 25.8498 125.947 29.3254C125.947 32.5481 126.61 35.3368 129.847 35.3368C133.085 35.3368 133.82 32.6934 133.82 29.3254ZM129.995 20.0921C135.733 20.0921 137.942 23.4235 137.942 29.3254C137.942 34.8656 135.881 38.4875 129.921 38.4875C123.961 38.4875 121.863 34.8656 121.863 29.3254C121.863 23.4235 124.255 20.0921 129.995 20.0921Z" fill="#231F20"/>
<path d="M140.562 38.126V12.9235L144.608 12.5976V38.126H140.562Z" fill="#231F20"/>
<path d="M90.4386 34.8322C91.5785 34.8675 92.2047 34.9039 93.3815 34.9039C95.8825 34.9039 97.5391 33.6003 97.5391 28.4217C97.5391 24.8734 96.067 23.933 93.4184 23.933C92.3881 23.933 91.4318 24.1127 90.4386 24.4395V34.8322ZM86.3916 20.3473H89.4453L89.7763 21.6509C90.9911 20.9992 93.2338 20.0941 95.2582 20.0941C98.9362 20.0941 101.622 22.7375 101.622 29.0735C101.622 35.3024 98.7886 38.3805 94.0805 38.3805C92.3474 38.3805 90.4386 38.0184 90.4386 38.0184V46.1653L86.3916 46.6001V20.3473Z" fill="#231F20"/>
<path d="M106.428 9.42246C103.402 5.97118 93.7991 9.00484 83.0829 16.3049V18.1445C92.5205 11.5417 100.84 8.49508 103.223 11.2124C106.198 14.6052 98.7971 25.7027 86.6909 35.9858C74.5838 46.2695 62.3531 51.8453 59.3786 48.4524C57.8336 46.69 59.0934 42.8497 62.3531 38.1265H60.4583C56.4221 44.0508 54.9092 49.0283 56.9814 51.3918C60.7593 55.7009 74.8906 49.8057 88.5415 38.2115C102.191 26.6174 110.206 13.7312 106.428 9.42246Z" fill="#EDAC09"/>
<path d="M149.483 18.1161C149.152 18.1244 148.824 18.0649 148.518 17.9414C148.212 17.8179 147.934 17.633 147.703 17.3982C147.472 17.1634 147.291 16.8837 147.173 16.5765C147.054 16.2692 147.001 15.941 147.015 15.6123C147.024 15.128 147.176 14.6572 147.453 14.2588C147.729 13.8605 148.118 13.5524 148.569 13.3732C149.021 13.194 149.515 13.1517 149.991 13.2516C150.467 13.3515 150.902 13.5892 151.243 13.9348C151.583 14.2804 151.814 14.7185 151.905 15.1941C151.997 15.6698 151.946 16.1618 151.758 16.6085C151.57 17.0551 151.253 17.4365 150.849 17.7047C150.444 17.9729 149.969 18.116 149.483 18.1161ZM149.483 13.5472C149.066 13.52 148.652 13.6182 148.292 13.829C147.933 14.0397 147.645 14.3533 147.467 14.729C147.289 15.1047 147.228 15.5252 147.293 15.9357C147.357 16.3462 147.545 16.7279 147.83 17.0311C148.115 17.3342 148.485 17.5449 148.892 17.6357C149.299 17.7265 149.724 17.6933 150.112 17.5402C150.5 17.3872 150.832 17.1216 151.067 16.7777C151.301 16.4339 151.426 16.0278 151.425 15.6123C151.443 15.3474 151.406 15.0817 151.316 14.8317C151.227 14.5817 151.087 14.3528 150.904 14.1591C150.722 13.9654 150.502 13.8112 150.257 13.7059C150.013 13.6006 149.749 13.5466 149.483 13.5472ZM148.99 17.0513H148.53V14.2764H149.586C150.234 14.2764 150.603 14.5088 150.603 15.0702C150.609 15.1691 150.595 15.2682 150.561 15.3613C150.527 15.4543 150.473 15.5394 150.405 15.6109C150.336 15.6825 150.253 15.7391 150.161 15.7771C150.069 15.8151 149.971 15.8337 149.871 15.8317L150.655 17.0513H150.137L149.431 15.8639H149.003L148.99 17.0513ZM149.502 15.4767C149.839 15.4767 150.15 15.438 150.15 15.0379C150.15 14.6378 149.819 14.6636 149.547 14.6636H148.997V15.4767H149.502Z" fill="#1D1D1B"/>
<path d="M99.0609 46.1964H98.2924V44.665H96.8922V46.1964H96.1172V42.6533H96.8922V44.0615H98.2924V42.6533H99.0609V46.1964Z" fill="#1D1D1B"/>
<path d="M100.069 44.4265C100.069 43.0767 100.721 42.603 101.71 42.603C102.7 42.603 103.345 43.1092 103.345 44.4265C103.345 45.7438 102.694 46.2499 101.704 46.2499C100.714 46.2499 100.069 45.7568 100.069 44.4265ZM102.531 44.4265C102.531 43.4856 102.218 43.1935 101.717 43.1935C101.216 43.1935 100.89 43.531 100.877 44.4265C100.864 45.322 101.19 45.6659 101.704 45.6659C102.218 45.6659 102.505 45.3674 102.505 44.42L102.531 44.4265Z" fill="#1D1D1B"/>
<path d="M104.324 42.6533H105.216L106.284 45.2944L107.313 42.6533H108.16L108.361 46.1964H107.58L107.489 43.8993H107.437L107.365 44.1458L106.583 46.1964H105.893L105.118 44.1523L105.047 43.9122H105.001L104.864 46.1964H104.115L104.324 42.6533Z" fill="#1D1D1B"/>
<path d="M109.227 42.6533H111.486V43.3022H109.995V44.0809H111.298V44.6844H109.995V45.5799H111.525V46.2289H109.227V42.6533Z" fill="#1D1D1B"/>
<path d="M113.213 46.1129L114.483 42.6282H115.239L116.541 46.1129V46.1972H115.701L115.408 45.4055H114.294L114.034 46.1972H113.2L113.213 46.1129ZM115.278 44.8929L114.92 43.6664L114.88 43.4718H114.828L114.789 43.6664L114.418 44.8929H115.278Z" fill="#1D1D1B"/>
<path d="M117.361 42.6533H118.306C119.361 42.6533 119.869 42.8934 119.869 43.8019C119.869 44.7104 119.263 44.97 118.495 44.97H118.11V46.1964H117.342L117.361 42.6533ZM118.13 44.4314H118.41C118.859 44.4314 119.061 44.2886 119.061 43.8473C119.061 43.4061 118.84 43.2763 118.41 43.2763H118.097L118.13 44.4314Z" fill="#1D1D1B"/>
<path d="M120.572 42.6533H121.562C122.611 42.6533 123.119 42.8934 123.119 43.8019C123.119 44.7104 122.513 44.97 121.751 44.97H121.36V46.1964H120.592L120.572 42.6533ZM121.341 44.4314H121.627C122.07 44.4314 122.279 44.2886 122.279 43.8473C122.279 43.4061 122.051 43.2763 121.627 43.2763H121.308L121.341 44.4314Z" fill="#1D1D1B"/>
<path d="M123.887 42.6533H124.662V45.5605H126.186V46.2094H123.887V42.6533Z" fill="#1D1D1B"/>
<path d="M126.974 46.1964V42.6533H127.742V46.1964H126.974Z" fill="#1D1D1B"/>
<path d="M128.591 46.1129L129.854 42.6282H130.609L131.912 46.1129V46.1972H131.065L130.766 45.4055H129.652L129.392 46.1972H128.564L128.591 46.1129ZM130.655 44.8929L130.297 43.6664L130.251 43.4718H130.206L130.16 43.6664L129.789 44.8929H130.655Z" fill="#1D1D1B"/>
<path d="M132.73 42.6533H133.381L134.684 44.5157L134.873 44.8207H134.918V42.6533H135.687V46.1964H135.036L133.681 44.2497L133.531 43.9901H133.473V46.1834H132.704L132.73 42.6533Z" fill="#1D1D1B"/>
<path d="M139.412 46.1332C139.106 46.2023 138.794 46.2414 138.481 46.25C137.328 46.25 136.677 45.7633 136.677 44.4525C136.677 43.1417 137.543 42.6031 138.631 42.6031C138.878 42.6013 139.124 42.6385 139.36 42.7134V43.3623C139.115 43.301 138.864 43.2684 138.611 43.265C137.96 43.265 137.484 43.3623 137.484 44.4265C137.484 45.4908 138.005 45.5946 138.572 45.5946C138.853 45.583 139.132 45.5439 139.406 45.4778L139.412 46.1332Z" fill="#1D1D1B"/>
<path d="M140.259 42.6533H142.525V43.3022H141.027V44.0809H142.33V44.6844H141.027V45.5799H142.558V46.2289H140.259V42.6533Z" fill="#1D1D1B"/>
<path d="M143.397 45.5742C143.746 45.6677 144.104 45.7221 144.465 45.7364C144.895 45.7364 145.182 45.6521 145.182 45.3341C145.182 44.5943 143.312 44.7825 143.312 43.6015C143.312 42.7709 143.964 42.5632 144.836 42.5632C145.137 42.5686 145.436 42.6056 145.729 42.6736V43.3225C145.41 43.2166 145.075 43.164 144.739 43.1667C144.276 43.1667 144.042 43.2576 144.042 43.5366C144.042 44.1855 145.937 44.0493 145.937 45.3276C145.937 46.1453 145.286 46.314 144.413 46.314C144.072 46.3046 143.732 46.2655 143.397 46.1972V45.5742Z" fill="#1D1D1B"/>
</svg>
