<svg width="160" height="60" viewBox="0 0 160 60" fill="none" xmlns="http://www.w3.org/2000/svg">
<path d="M21.1687 18H23.4437C24.3095 18.2743 25.1809 18.6357 25.8186 19.3157C26.9265 20.3428 27.3278 21.8685 27.6783 23.2941C28.2048 25.1812 28.7398 27.0654 29.2691 28.9511C29.3845 29.3411 29.431 29.7711 29.6957 30.0939C30.5389 26.6883 31.5131 23.3155 32.3789 19.9157C32.5521 19.24 32.7759 18.44 33.4995 18.1814C34.5568 17.7514 35.7604 18.85 35.5436 19.9528C34.1556 25.2441 32.8224 30.5496 31.4441 35.8437C31.3456 36.2123 31.1513 36.5523 30.8881 36.8237C30.3038 37.4708 29.1635 37.4394 28.6187 36.7551C28.1457 36.2309 28.0091 35.5109 27.8444 34.8438C26.752 30.7996 25.6736 26.7512 24.5798 22.707C24.2897 21.6727 23.2987 20.7099 22.1837 20.8413C21.1264 20.8542 20.2733 21.8013 20.0255 22.7913C18.8078 27.234 17.6098 31.6853 16.3934 36.1266C16.1231 36.8666 15.3489 37.398 14.5675 37.3008C14.0241 37.1837 13.6173 36.7308 13.316 36.2851C13.0161 35.448 12.8289 34.5723 12.6107 33.7095C11.5084 29.5311 10.4568 25.3398 9.35589 21.1613C9.1222 20.3514 8.79277 19.3285 9.39812 18.6043C10.1372 17.67 11.8294 18.1229 12.0321 19.3C12.995 22.9327 14.0086 26.5554 14.9462 30.1953C15.3306 29.2382 15.4713 28.2097 15.7839 27.2297C16.2527 25.3941 16.7088 23.5555 17.2254 21.7327C17.5901 20.5571 18.4235 19.6085 19.3583 18.8557C19.8946 18.44 20.5478 18.2414 21.1687 18V18Z" fill="#FF641B"/>
<path d="M5 19.5739C5.20413 18.4025 6.74848 17.8239 7.63398 18.6039C8.11826 18.9311 8.19569 19.5382 8.3238 20.0653C9.64853 25.0152 10.9606 29.9664 12.2755 34.9177C12.5612 35.7391 12.5669 36.7362 13.2694 37.3405C13.9395 38.0076 14.9855 37.9362 15.8245 37.7176C16.3552 37.3562 16.8958 36.8577 17 36.182C18.0995 31.9464 19.2975 27.7379 20.4027 23.5038C20.5688 22.9438 20.7152 22.3481 21.0897 21.8895C21.7626 21.3167 22.7734 21.2953 23.4745 21.8338C23.856 22.3781 24.0207 23.0366 24.1938 23.6723C25.2483 27.3908 26.1929 31.1407 27.2389 34.862C27.443 35.6248 27.588 36.4262 28.0061 37.1076C28.3623 37.6448 29.0155 37.8948 29.6364 37.8676C30.5359 38.0119 31.3764 37.3848 31.7945 36.6205C32.1901 35.6591 32.3252 34.6149 32.6406 33.6277C33.9048 28.8222 35.1873 24.0223 36.4515 19.2168C36.5444 18.7753 36.9766 18.5754 37.2947 18.3211C37.6059 18.3039 37.9156 18.2782 38.2281 18.2811C38.7603 18.2654 39.2319 18.6853 39.4261 19.1625C39.5331 19.8467 39.5022 20.561 39.2741 21.2181C37.993 26.2408 36.6781 31.255 35.3787 36.272C35.1662 37.2376 34.848 38.1962 34.3088 39.0262C33.8034 39.6147 33.2417 40.1818 32.5477 40.5375C31.9648 40.8775 31.2919 40.9732 30.6528 41.1504H29.0887C27.7189 40.9461 26.3478 40.3604 25.4468 39.2576C24.7344 38.4819 24.3417 37.4633 24.1446 36.4348C23.5364 34.0249 22.9874 31.6021 22.4088 29.185L22.244 28.9607C21.6387 31.555 20.9714 34.1334 20.3477 36.7234C20.0268 38.299 19.0498 39.8104 17.5772 40.4904C16.9676 40.8532 16.2637 40.9632 15.5922 41.1504H13.8789C12.5922 40.9175 11.3196 40.3533 10.465 39.3219C9.30644 37.8076 9.16706 35.8348 8.61521 34.0634C7.59315 30.0964 6.55983 26.1323 5.53074 22.1681C5.37306 21.5024 5.21258 20.8367 5 20.1867V19.5739Z" fill="#FF641B"/>
<path d="M152.163 24.0624C153.013 23.2238 154.643 23.8095 154.725 25.0366L154.78 25.0423V25.388C154.767 25.3895 154.74 25.3937 154.726 25.3952C154.666 26.4808 153.373 27.1394 152.461 26.6137C151.536 26.1537 151.366 24.7295 152.163 24.0624ZM152.965 23.8681C151.947 24.0181 151.428 25.4395 152.213 26.1666C152.841 26.9408 154.181 26.6294 154.474 25.6909C154.853 24.7538 153.931 23.6624 152.965 23.8681ZM45.3477 23.7466C45.7883 23.7481 46.2289 23.7481 46.671 23.7481C47.2088 26.1223 47.7662 28.4908 48.2885 30.8679C48.9699 28.5022 49.5936 26.1209 50.2538 23.7495C50.6902 23.7481 51.1281 23.7481 51.5659 23.7438C52.2135 26.1194 52.8709 28.4908 53.5114 30.8679C54.0788 28.5008 54.5969 26.1223 55.1515 23.7509C55.5978 23.7466 56.0455 23.7466 56.4931 23.7495C55.7146 26.7108 54.9615 29.6793 54.183 32.6407C53.7564 32.6421 53.3312 32.6421 52.9061 32.6407C52.2585 30.2193 51.5715 27.8094 50.9296 25.3866C50.2214 27.7951 49.5907 30.2279 48.9066 32.6435C48.4842 32.6421 48.0605 32.6421 47.6381 32.6407C46.8695 29.6779 46.105 26.7137 45.3477 23.7466ZM57.0788 23.7138H58.1712C58.167 24.798 58.1797 25.8823 58.1642 26.9665C58.8737 25.9266 60.3688 25.7166 61.419 26.3094C62.0863 26.708 62.2665 27.5537 62.2848 28.2808C62.2933 29.735 62.2848 31.1878 62.2876 32.6407C61.9117 32.6421 61.5359 32.6421 61.1614 32.6421C61.1572 31.2836 61.167 29.925 61.1586 28.5665C61.1276 28.1208 61.1248 27.5822 60.7616 27.2665C59.8521 26.5951 58.3528 27.2508 58.2402 28.3994C58.0825 29.8093 58.2233 31.235 58.16 32.6492C57.7996 32.6421 57.4392 32.6407 57.0788 32.6407V23.7138ZM77.5368 23.7481C77.9761 23.7466 78.4153 23.7466 78.8559 23.7509C79.4106 26.1209 79.9343 28.4979 80.4904 30.8693C81.1422 28.4951 81.7912 26.1194 82.4416 23.7438C82.878 23.7495 83.3158 23.7481 83.7536 23.7495C84.4111 26.1209 85.0418 28.5008 85.7133 30.8679C86.2483 28.4936 86.7987 26.1237 87.3365 23.7495C87.7813 23.7438 88.2276 23.7438 88.6739 23.7638C87.9066 26.7223 87.1394 29.6807 86.375 32.6407C85.9498 32.6421 85.5246 32.6421 85.0995 32.6407C84.4209 30.235 83.8057 27.8094 83.0934 25.4137C82.4289 27.8222 81.756 30.2293 81.1028 32.6421C80.6762 32.6407 80.2511 32.6407 79.8259 32.6421C79.0587 29.6779 78.2914 26.7151 77.5368 23.7481ZM120.255 23.7138H121.381C121.38 24.788 121.381 25.8609 121.383 26.9337C121.729 26.5766 122.088 26.178 122.599 26.0809C123.408 25.9009 124.426 25.9509 124.994 26.6508C125.474 27.2165 125.469 28.0037 125.496 28.7065C125.496 30.0193 125.503 31.3336 125.49 32.6464C125.106 32.6421 124.72 32.6407 124.337 32.6407C124.336 31.235 124.336 29.8293 124.339 28.4222C124.339 27.9808 124.273 27.4594 123.869 27.2051C122.944 26.6351 121.54 27.2951 121.436 28.4108C121.314 29.815 121.413 31.2307 121.381 32.6392C121.005 32.6421 120.629 32.6421 120.255 32.6407C120.255 29.665 120.253 26.6894 120.255 23.7138ZM63.4857 23.7481H64.6091C64.6105 24.1766 64.6091 24.6052 64.6105 25.0337C64.2346 25.0352 63.8601 25.0337 63.4857 25.0337C63.4842 24.6052 63.4842 24.1766 63.4857 23.7481ZM105.016 23.7481H106.139C106.139 24.1766 106.14 24.6052 106.14 25.0337H105.014C105.013 24.6052 105.013 24.1766 105.016 23.7481Z" fill="black"/>
<path d="M152.635 24.2115C153.015 24.2444 153.516 24.0744 153.789 24.4373C153.864 24.6944 153.879 25.0187 153.637 25.1929C153.891 25.4872 153.819 25.9101 153.898 26.2672C153.471 26.3072 153.643 25.8686 153.564 25.6329C153.543 25.2815 153.116 25.3572 152.884 25.3401C152.878 25.6329 152.878 25.9272 152.877 26.2201L152.635 26.1972C152.636 25.5358 152.636 24.873 152.635 24.2115ZM152.848 24.3701C152.845 24.6287 152.845 24.8872 152.846 25.1458C153.139 25.1644 153.698 25.1815 153.62 24.7272C153.62 24.3101 153.115 24.4187 152.848 24.3701ZM66.0924 24.3515H67.2172V26.1372H68.2026V27.0672C67.876 27.0657 67.5508 27.0643 67.2256 27.06C67.2073 28.42 67.2228 29.7785 67.2158 31.1385C67.1989 31.367 67.2383 31.6727 67.5072 31.7299C67.7381 31.7527 67.9718 31.7427 68.2055 31.7456C68.2026 32.0542 68.1998 32.3627 68.1843 32.6713C67.6452 32.7299 67.0468 32.8413 66.5541 32.5484C66.2134 32.287 66.0924 31.8313 66.091 31.417C66.0867 29.9657 66.098 28.5143 66.0853 27.0629L65.2463 27.0672C65.2449 26.7572 65.2449 26.4472 65.2463 26.1372H66.091C66.091 25.5415 66.0896 24.9472 66.0924 24.3515ZM102.201 24.353C102.563 24.3515 102.927 24.3515 103.29 24.3515C103.29 24.9458 103.29 25.5401 103.289 26.1343C103.63 26.1372 103.97 26.1372 104.312 26.1386C104.311 26.4472 104.311 26.7558 104.311 27.0643C103.97 27.0643 103.631 27.0657 103.29 27.0657C103.306 28.5043 103.259 29.9471 103.313 31.3842C103.39 31.8613 103.969 31.7227 104.312 31.7485C104.311 32.047 104.311 32.347 104.311 32.6484C103.754 32.7456 103.113 32.8513 102.612 32.5156C102.302 32.257 102.198 31.8199 102.199 31.4285C102.201 29.9742 102.202 28.52 102.199 27.0657C101.905 27.0657 101.612 27.0643 101.321 27.0643C101.32 26.7558 101.318 26.4472 101.32 26.1386C101.611 26.1372 101.904 26.1372 102.198 26.1386C102.204 25.5429 102.199 24.9487 102.201 24.353ZM69.5626 26.8C70.6705 25.6515 72.7019 25.7701 73.7395 26.9557C74.3674 27.73 74.4237 28.7857 74.3983 29.7428C72.8441 29.7428 71.2899 29.7428 69.7357 29.7442C69.7906 30.3956 69.9342 31.1128 70.4495 31.557C71.1632 32.087 72.2909 31.9856 72.8652 31.2856C73.044 31.077 73.1426 30.8142 73.2566 30.5671C73.6198 30.5656 73.983 30.5642 74.3462 30.5685C74.1477 31.4642 73.5748 32.3242 72.6991 32.647C71.708 33.0013 70.4861 32.967 69.6611 32.2399C68.9896 31.7027 68.6461 30.8456 68.5898 29.9957C68.4856 28.8657 68.7193 27.6086 69.5626 26.8ZM70.2876 27.5457C69.9652 27.9014 69.823 28.3757 69.7625 28.8457C70.938 28.8571 72.1121 28.8485 73.2876 28.8514C73.2073 28.3386 73.0919 27.7871 72.709 27.4114C72.0431 26.8 70.876 26.84 70.2876 27.5457ZM90.4711 26.7572C91.603 25.6415 93.6358 25.7872 94.6452 27.0029C95.2365 27.7757 95.2787 28.8057 95.2688 29.7428C93.7132 29.7471 92.1576 29.7342 90.602 29.7499C90.6555 30.3942 90.7977 31.1028 91.3017 31.547C91.8775 31.9913 92.7264 31.9942 93.343 31.6299C93.7315 31.3956 93.9554 30.9799 94.1201 30.5656C94.4833 30.5642 94.8479 30.5642 95.2125 30.5756C95.0014 31.527 94.3538 32.4327 93.3979 32.7056C92.4955 32.9713 91.4312 32.9398 90.6569 32.3442C89.9488 31.847 89.5476 30.9999 89.4687 30.1456C89.3153 28.95 89.5687 27.6057 90.4711 26.7572ZM91.0863 27.6243C90.7864 27.9614 90.6949 28.4143 90.6344 28.8485C91.8057 28.8543 92.977 28.8514 94.1482 28.85C94.0624 28.3043 93.9328 27.7072 93.488 27.3414C92.7869 26.7743 91.6339 26.8886 91.0863 27.6243ZM96.6344 26.5629C97.3833 25.9086 98.4659 25.8944 99.3838 26.0929C100.257 26.2886 100.915 27.12 100.918 28.0286C100.573 28.0286 100.23 28.0286 99.8864 28.0271C99.7808 27.6843 99.6541 27.2957 99.305 27.1357C98.8108 26.9057 98.221 26.9029 97.7029 27.04C97.2088 27.1586 96.9399 27.8114 97.2862 28.2186C97.7564 28.7014 98.473 28.7285 99.084 28.9085C99.6978 29.0943 100.426 29.2057 100.839 29.7557C101.312 30.4828 101.165 31.5342 100.569 32.1456C100.009 32.7727 99.1177 32.9041 98.328 32.8856C97.6902 32.8513 96.9849 32.7627 96.5119 32.2799C96.053 31.8356 95.8714 31.1956 95.8066 30.5742C96.1628 30.5656 96.519 30.5642 96.8765 30.5656C96.9328 31.0299 97.1102 31.547 97.5734 31.7399C98.2238 32.0199 99.0375 32.0099 99.6485 31.6227C100.11 31.327 100.181 30.4985 99.6372 30.2499C98.6489 29.8028 97.4847 29.8157 96.5682 29.1928C95.7264 28.5757 95.8911 27.1929 96.6344 26.5629ZM108.463 26.9815C109.234 25.9915 110.715 25.6915 111.795 26.3172C112.448 26.7315 112.603 27.5643 112.616 28.2886C112.621 29.7371 112.617 31.187 112.617 32.6356C112.241 32.637 111.868 32.637 111.494 32.637C111.488 31.237 111.496 29.8357 111.491 28.4343C111.474 27.9414 111.344 27.3529 110.856 27.13C109.855 26.6929 108.605 27.45 108.533 28.5614C108.456 29.9171 108.52 31.2785 108.499 32.6356C108.136 32.637 107.773 32.637 107.41 32.6356C107.41 30.4699 107.41 28.3028 107.411 26.1372H108.467C108.465 26.4186 108.463 26.7 108.463 26.9815ZM114.623 26.5272C115.628 25.7215 117.264 25.9058 118.015 26.9829C118.006 26.7243 118.002 26.4672 118.002 26.2086H119.023C119.023 28.2357 119.027 30.2614 119.023 32.2884C118.993 33.1113 118.866 34.0241 118.25 34.6241C117.729 35.1769 116.946 35.3626 116.215 35.3555C115.471 35.3855 114.688 35.1955 114.122 34.6827C113.777 34.3427 113.659 33.8541 113.58 33.3913C113.953 33.387 114.326 33.387 114.701 33.387C114.817 33.7484 114.974 34.1541 115.366 34.2798C116.042 34.5412 116.908 34.4898 117.464 33.9827C118.007 33.4084 117.908 32.5456 117.986 31.8156C117.009 33.1327 114.801 32.9684 113.908 31.6385C113.458 30.9485 113.403 30.0857 113.424 29.2814C113.418 28.2514 113.78 27.1557 114.623 26.5272ZM115.844 27.0786C115.331 27.1915 114.933 27.6114 114.764 28.1029C114.53 28.7585 114.512 29.4728 114.582 30.1585C114.651 30.7699 114.951 31.4056 115.53 31.6713C116.172 31.927 116.988 31.7713 117.44 31.2213C117.855 30.7271 117.975 30.0514 118.006 29.42C118 28.7728 117.908 28.0686 117.481 27.5586C117.074 27.1115 116.422 26.9157 115.844 27.0786ZM128.37 26.0772C129.36 25.8072 130.51 25.9786 131.28 26.7C131.997 27.3329 132.246 28.3443 132.228 29.2757C132.232 30.3571 131.929 31.5242 131.1 32.257C130.412 32.8527 129.444 32.9198 128.583 32.8284C127.717 32.7113 126.961 32.0913 126.606 31.2913C126.221 30.4428 126.208 29.4671 126.347 28.5586C126.519 27.45 127.265 26.3715 128.37 26.0772ZM128.518 27.0872C127.979 27.3115 127.703 27.8871 127.541 28.42C127.317 29.2985 127.324 30.2928 127.776 31.0985C128.339 32.2013 130.25 32.1842 130.718 31.0028C131.061 30.2471 131.134 29.3885 131.018 28.5714C130.955 28.13 130.779 27.6929 130.462 27.3757C129.946 26.9015 129.15 26.8443 128.518 27.0872ZM139.468 27.3143C139.72 26.6186 140.393 26.1429 141.102 26.0372C141.998 25.9115 143.049 25.9615 143.715 26.6672C144.087 27.0186 144.215 27.5329 144.278 28.0271C143.928 28.03 143.577 28.0286 143.228 28.0271C143.121 27.6143 142.927 27.1815 142.482 27.0643C141.902 26.9129 141.167 26.8343 140.683 27.2672C140.32 27.6186 140.481 28.27 140.926 28.4657C141.875 28.8943 142.98 28.9 143.881 29.4542C144.709 30.0771 144.592 31.4213 143.935 32.1299C143.38 32.7727 142.481 32.8998 141.687 32.887C141.074 32.8499 140.41 32.7684 139.925 32.3499C139.435 31.9027 139.193 31.2328 139.167 30.5742C139.519 30.5656 139.872 30.5642 140.227 30.5656C140.284 30.9685 140.386 31.4256 140.766 31.6442C141.402 32.0327 142.255 32.0184 142.909 31.677C143.396 31.4342 143.559 30.6299 143.069 30.3056C142.054 29.7657 140.791 29.8557 139.854 29.1414C139.303 28.7228 139.264 27.9286 139.468 27.3143ZM146.058 26.6972C147.295 25.5644 149.541 25.8386 150.384 27.3286C150.781 28.0629 150.798 28.9257 150.812 29.7414C149.258 29.7457 147.702 29.7414 146.148 29.7442C146.16 30.5585 146.467 31.5756 147.34 31.8113C148.279 32.127 149.396 31.5727 149.632 30.5756C149.995 30.5642 150.36 30.5628 150.726 30.5671C150.551 31.5956 149.774 32.527 148.754 32.7584C147.877 32.9598 146.877 32.8984 146.146 32.317C145.423 31.7856 145.046 30.8913 144.982 30.0057C144.863 28.8228 145.144 27.5086 146.058 26.6972ZM146.17 28.85C147.337 28.8514 148.504 28.8528 149.672 28.8485C149.629 27.9986 149.114 27.0543 148.191 27C147.122 26.8015 146.17 27.8 146.17 28.85ZM63.4894 26.1715C63.8624 26.1715 64.2355 26.1715 64.61 26.1701C64.6156 28.3257 64.6114 30.4814 64.6114 32.6356C64.2369 32.637 63.861 32.637 63.4865 32.6356C63.488 30.4814 63.4837 28.3257 63.4894 26.1715ZM105.015 26.1758C105.389 26.1701 105.767 26.1701 106.144 26.1758C106.141 28.33 106.144 30.4828 106.141 32.637C105.765 32.6356 105.391 32.637 105.016 32.6356C105.015 30.4828 105.019 28.33 105.015 26.1758ZM133.102 26.1372H134.228C134.231 27.5686 134.222 29 134.231 30.4314C134.241 30.8656 134.342 31.3685 134.719 31.6313C135.363 31.987 136.271 31.8342 136.711 31.2213C137.051 30.7499 137.135 30.1456 137.151 29.5771C137.151 28.43 137.149 27.2843 137.151 26.1372C137.525 26.1372 137.901 26.1372 138.278 26.1386C138.27 28.3057 138.288 30.4742 138.27 32.6413C137.918 32.637 137.569 32.6356 137.22 32.6341C137.217 32.367 137.217 32.0999 137.214 31.8327C136.468 32.8541 134.964 33.1141 133.903 32.4727C133.286 32.0627 133.105 31.277 133.103 30.5742C133.099 29.0957 133.103 27.6157 133.102 26.1372ZM75.067 28.6C76.0764 28.6014 77.0844 28.5971 78.0924 28.6028C78.091 28.9828 78.091 29.3628 78.091 29.7428H75.067C75.0656 29.3628 75.0656 28.9814 75.067 28.6Z" fill="black"/>
</svg>
