<?xml version="1.0" encoding="iso-8859-1"?>
<!-- Generator: Adobe Illustrator 19.0.0, SVG Export Plug-In . SVG Version: 6.00 Build 0)  -->
<svg version="1.1" id="Capa_1" xmlns="http://www.w3.org/2000/svg" xmlns:xlink="http://www.w3.org/1999/xlink" x="0px" y="0px"
	 viewBox="0 0 512 512" style="enable-background:new 0 0 512 512;" xml:space="preserve">
<g>
	<g>
		<path d="M460.8,0H51.2C37.086,0,25.6,11.486,25.6,25.6v426.667c0,14.114,11.486,25.6,25.6,25.6h409.6
			c14.114,0,25.6-11.486,25.6-25.6V25.6C486.4,11.486,474.914,0,460.8,0z M469.333,452.267c0,4.71-3.823,8.533-8.533,8.533H51.2
			c-4.702,0-8.533-3.823-8.533-8.533V25.6c0-4.702,3.831-8.533,8.533-8.533h409.6c4.71,0,8.533,3.831,8.533,8.533V452.267z"/>
	</g>
</g>
<g id="SVGCleanerId_0">
	<g>
		<path d="M315.733,145.067c-75.281,0-136.533,61.252-136.533,136.533s61.252,136.533,136.533,136.533
			S452.267,356.881,452.267,281.6S391.014,145.067,315.733,145.067z M315.733,401.067c-65.877,0-119.467-53.589-119.467-119.467
			s53.589-119.467,119.467-119.467S435.2,215.723,435.2,281.6S381.611,401.067,315.733,401.067z"/>
	</g>
</g>
<g>
	<g>
		<path d="M128,460.8H59.733c-4.71,0-8.533,3.823-8.533,8.533v25.6c0,9.429,7.637,17.067,17.067,17.067h51.2
			c9.429,0,17.067-7.637,17.067-17.067v-25.6C136.533,464.623,132.71,460.8,128,460.8z M119.467,494.933h-51.2v-17.067h51.2V494.933
			z"/>
	</g>
</g>
<g>
	<g>
		<path d="M452.267,460.8H384c-4.71,0-8.533,3.823-8.533,8.533v25.6c0,9.429,7.637,17.067,17.067,17.067h51.2
			c9.429,0,17.067-7.637,17.067-17.067v-25.6C460.8,464.623,456.977,460.8,452.267,460.8z M443.733,494.933h-51.2v-17.067h51.2
			V494.933z"/>
	</g>
</g>
<g>
	<g>
		<path d="M477.867,401.067H34.133c-4.71,0-8.533,3.823-8.533,8.533c0,4.71,3.823,8.533,8.533,8.533h443.733
			c4.71,0,8.533-3.823,8.533-8.533C486.399,404.89,482.577,401.067,477.867,401.067z"/>
	</g>
</g>
<g>
	<g>
		<path d="M477.867,110.933H34.133c-4.71,0-8.533,3.823-8.533,8.533c0,4.71,3.823,8.534,8.533,8.534h443.733
			c4.71,0,8.533-3.823,8.533-8.533C486.399,114.757,482.577,110.933,477.867,110.933z"/>
	</g>
</g>
<g>
	<g>
		<path d="M413.867,34.133C397.372,34.133,384,47.505,384,64s13.372,29.867,29.867,29.867S443.733,80.495,443.733,64
			S430.362,34.133,413.867,34.133z M413.867,76.8c-7.066,0-12.8-5.734-12.8-12.8s5.734-12.8,12.8-12.8c7.066,0,12.8,5.734,12.8,12.8
			S420.932,76.8,413.867,76.8z"/>
	</g>
</g>
<g>
	<g>
		<path d="M68.267,34.133c-4.71,0-8.533,3.823-8.533,8.533v42.667c0,4.71,3.823,8.533,8.533,8.533c4.71,0,8.533-3.823,8.533-8.533
			V42.667C76.8,37.956,72.977,34.133,68.267,34.133z"/>
	</g>
</g>
<g>
	<g>
		<path d="M102.4,34.133c-4.71,0-8.533,3.823-8.533,8.533v42.667c0,4.71,3.823,8.533,8.533,8.533c4.71,0,8.533-3.823,8.533-8.533
			V42.667C110.933,37.956,107.11,34.133,102.4,34.133z"/>
	</g>
</g>
<g>
	<g>
		<path d="M136.533,34.133c-4.71,0-8.533,3.823-8.533,8.533v42.667c0,4.71,3.823,8.533,8.533,8.533s8.533-3.823,8.533-8.533V42.667
			C145.067,37.956,141.244,34.133,136.533,34.133z"/>
	</g>
</g>
<g>
	<g>
		<path d="M170.667,34.133c-4.71,0-8.533,3.823-8.533,8.533v42.667c0,4.71,3.823,8.533,8.533,8.533c4.71,0,8.533-3.823,8.533-8.533
			V42.667C179.2,37.956,175.377,34.133,170.667,34.133z"/>
	</g>
</g>
<g>
	<g>
		<path d="M259.84,387.243c-10.889-5.777-20.821-13.201-29.44-22.016c-8.09-8.26-14.933-17.647-20.326-27.87
			c-30.78-58.359-8.422-130.62,49.937-161.399c1.527-0.802,2.773-2.048,3.576-3.575c2.202-4.173,0.597-9.336-3.576-11.529
			c-19.644-10.368-41.515-15.787-63.718-15.787C120.892,145.058,59.75,206.182,59.75,281.583
			c-0.009,75.409,61.107,136.542,136.516,136.55c22.153-0.06,43.964-5.47,63.573-15.787c1.527-0.802,2.773-2.048,3.575-3.575
			C265.617,394.598,264.013,389.436,259.84,387.243z M196.292,401.067c-65.98,0.008-119.467-53.47-119.475-119.45
			s53.47-119.475,119.45-119.484c14.182-0.034,28.262,2.483,41.557,7.424c-6.989,4.864-13.508,10.377-19.456,16.469
			c-5.325,5.427-10.189,11.29-14.541,17.527c-43.127,61.858-27.947,146.961,33.911,190.089
			C224.469,398.549,210.441,401.067,196.292,401.067z"/>
	</g>
</g>
<g>
	<g>
		<path d="M230.4,197.973c0.964-0.973,1.69-2.167,2.099-3.473c1.408-4.497-1.101-9.284-5.598-10.692
			c-9.924-3.055-20.25-4.608-30.635-4.608c-56.55,0-102.4,45.85-102.4,102.4s45.85,102.4,102.4,102.4
			c10.359-0.008,20.651-1.562,30.549-4.608c1.323-0.401,2.534-1.126,3.516-2.099c3.354-3.311,3.379-8.713,0.068-12.066
			C184.866,318.771,184.866,244.429,230.4,197.973z M196.591,366.933c-47.121,0.085-85.402-38.042-85.495-85.171
			c-0.085-47.121,38.042-85.402,85.171-85.495c4.087,0.026,8.166,0.333,12.194,0.939c-38.989,49.545-38.989,119.33,0,168.875
			C204.527,366.643,200.559,366.925,196.591,366.933z"/>
	</g>
</g>
<g>
	<g>
		<path d="M315.733,145.067c-75.281,0-136.533,61.252-136.533,136.533s61.252,136.533,136.533,136.533
			S452.267,356.881,452.267,281.6S391.014,145.067,315.733,145.067z M315.733,401.067c-65.877,0-119.467-53.589-119.467-119.467
			s53.589-119.467,119.467-119.467S435.2,215.723,435.2,281.6S381.611,401.067,315.733,401.067z"/>
	</g>
</g>
<g>
	<g>
		<path d="M315.725,179.2c-10.402,0.009-20.719,1.57-30.694,4.651c-32.077,10.018-57.207,35.149-67.226,67.226
			c-8.149,26.112-5.649,53.828,7.049,78.054c12.698,24.235,34.065,42.061,60.203,50.219c9.95,3.072,20.267,4.642,30.677,4.651
			c56.465,0,102.4-45.935,102.4-102.4C418.133,225.135,372.198,179.2,315.725,179.2z M315.733,366.933
			c-8.704-0.009-17.323-1.314-25.626-3.874c-21.751-6.801-39.561-21.658-50.142-41.839c-10.581-20.198-12.663-43.298-5.871-65.058
			c8.346-26.726,29.295-47.667,55.996-56.004c8.329-2.577,16.947-3.883,25.643-3.891c47.053,0,85.333,38.281,85.333,85.333
			S362.795,366.925,315.733,366.933z"/>
	</g>
</g>
<g>
	<g>
		<path d="M315.733,179.2c-10.385,0.034-20.71,1.613-30.635,4.693c-32.094,10.018-57.225,35.149-67.243,67.243
			c-16.845,53.982,13.261,111.403,67.243,128.256c9.924,3.055,20.25,4.608,30.635,4.608c56.55,0,102.4-45.85,102.4-102.4
			S372.284,179.2,315.733,179.2z M315.733,366.933c-8.678,0-17.306-1.289-25.6-3.84c-26.726-8.354-47.659-29.278-56.004-56.004
			c-14.054-44.979,11.017-92.843,56.004-106.897c8.286-2.577,16.922-3.9,25.6-3.925c47.13,0,85.333,38.204,85.333,85.333
			C401.067,328.73,362.863,366.933,315.733,366.933z"/>
	</g>
</g>
<g>
	<g>
		<path d="M477.867,281.6H34.133c-4.71,0-8.533,3.823-8.533,8.533c0,4.71,3.823,8.533,8.533,8.533h443.733
			c4.71,0,8.533-3.823,8.533-8.533C486.399,285.423,482.577,281.6,477.867,281.6z"/>
	</g>
</g>
<g>
</g>
<g>
</g>
<g>
</g>
<g>
</g>
<g>
</g>
<g>
</g>
<g>
</g>
<g>
</g>
<g>
</g>
<g>
</g>
<g>
</g>
<g>
</g>
<g>
</g>
<g>
</g>
<g>
</g>
</svg>
