<svg id="Layer_1" enable-background="new 0 0 512 512" viewBox="0 0 512 512" xmlns="http://www.w3.org/2000/svg"><path d="m255.99 50.05c-113.55 0-205.93 92.39-205.93 205.95s92.38 205.95 205.92 205.95c113.56 0 205.95-92.39 205.95-205.95s-92.38-205.95-205.94-205.95zm0 395.89c-104.72 0-189.91-85.21-189.91-189.94s85.19-189.94 189.91-189.94c104.73 0 189.94 85.21 189.94 189.94s-85.21 189.94-189.94 189.94zm0-350.68c-88.63 0-160.74 72.11-160.74 160.74s72.11 160.74 160.74 160.74c88.65 0 160.77-72.11 160.77-160.74s-72.13-160.74-160.77-160.74zm0 305.46c-79.8 0-144.72-64.92-144.72-144.72s64.92-144.72 144.72-144.72c79.82 0 144.75 64.92 144.75 144.72s-64.94 144.72-144.75 144.72zm200.6-400.73h-401.18c-30.55 0-55.41 24.85-55.41 55.4v401.22c0 30.55 24.85 55.4 55.4 55.4h401.19c30.55 0 55.4-24.85 55.4-55.4v-401.22c.01-30.55-24.85-55.4-55.4-55.4zm39.39 456.62c0 21.72-17.67 39.39-39.39 39.39h-401.18c-21.72 0-39.39-17.67-39.39-39.39v-401.22c0-21.72 17.67-39.39 39.39-39.39h401.19c21.72 0 39.39 17.67 39.39 39.39v401.22zm-170.96-203.87c5.76 16.41 12.28 35-3.96 69.51-1.36 2.9-4.25 4.6-7.25 4.6-1.14 0-2.3-.25-3.4-.76-4-1.88-5.72-6.65-3.84-10.66 13.45-28.58 8.76-41.93 3.34-57.39-5.71-16.28-12.19-34.72 4.87-68.5 1.99-3.95 6.81-5.53 10.76-3.54s5.53 6.81 3.54 10.76c-13.99 27.69-9.39 40.8-4.06 55.98zm-123.08 0c5.76 16.41 12.28 35-3.96 69.51-1.36 2.9-4.25 4.6-7.25 4.6-1.14 0-2.3-.25-3.4-.76-4-1.88-5.72-6.65-3.84-10.66 13.45-28.58 8.76-41.93 3.34-57.39-5.71-16.28-12.19-34.72 4.87-68.5 1.99-3.95 6.81-5.53 10.76-3.54s5.53 6.81 3.54 10.76c-13.99 27.69-9.39 40.8-4.06 55.98zm61.54 0c5.76 16.41 12.28 35-3.96 69.51-1.36 2.9-4.25 4.6-7.25 4.6-1.14 0-2.3-.25-3.4-.76-4-1.88-5.72-6.65-3.84-10.66 13.45-28.58 8.76-41.93 3.34-57.39-5.71-16.28-12.19-34.72 4.87-68.5 1.99-3.95 6.81-5.53 10.76-3.54s5.53 6.81 3.54 10.76c-13.99 27.69-9.39 40.8-4.06 55.98z"/></svg>