<?xml version="1.0" encoding="UTF-8" standalone="no"?>
<!-- Created with Inkscape (http://www.inkscape.org/) -->

<svg
   version="1.1"
   id="svg534"
   xml:space="preserve"
   width="682.66669"
   height="682.66669"
   viewBox="0 0 682.66669 682.66669"
   xmlns="http://www.w3.org/2000/svg"
   xmlns:svg="http://www.w3.org/2000/svg"><defs
     id="defs538"><clipPath
       clipPathUnits="userSpaceOnUse"
       id="clipPath548"><path
         d="M 0,512 H 512 V 0 H 0 Z"
         id="path546" /></clipPath></defs><g
     id="g540"
     transform="matrix(1.3333333,0,0,-1.3333333,0,682.66667)"><g
       id="g542"><g
         id="g544"
         clip-path="url(#clipPath548)"><g
           id="g550"
           transform="translate(488.7061,390.437)"><path
             d="m 0,0 h -465.412 c -8.667,0 -15.692,7.026 -15.692,15.692 v 49.483 c 0,8.667 7.025,15.693 15.692,15.693 H 0 c 8.667,0 15.692,-7.026 15.692,-15.693 V 15.692 C 15.692,7.026 8.667,0 0,0 Z"
             style="fill:none;stroke:#000000;stroke-width:15;stroke-linecap:round;stroke-linejoin:round;stroke-miterlimit:10;stroke-dasharray:none;stroke-opacity:1"
             id="path552" /></g><g
           id="g554"
           transform="translate(488.7061,53.3618)"><path
             d="m 0,0 h -465.412 c -8.667,0 -15.692,7.026 -15.692,15.693 v 305.689 c 0,8.667 7.025,15.693 15.692,15.693 H 0 c 8.667,0 15.692,-7.026 15.692,-15.693 V 15.693 C 15.692,7.026 8.667,0 0,0 Z"
             style="fill:none;stroke:#000000;stroke-width:15;stroke-linecap:round;stroke-linejoin:round;stroke-miterlimit:10;stroke-dasharray:none;stroke-opacity:1"
             id="path556" /></g><g
           id="g558"
           transform="translate(281.3701,7.748)"><path
             d="m 0,0 h -232.527 c -8.654,0 -15.669,7.016 -15.669,15.669 V 45.614 H 197.456 V 15.669 C 197.456,7.016 190.44,0 181.786,0 H 34.718"
             style="fill:none;stroke:#000000;stroke-width:15;stroke-linecap:round;stroke-linejoin:round;stroke-miterlimit:10;stroke-dasharray:none;stroke-opacity:1"
             id="path560" /></g><g
           id="g562"
           transform="translate(216.6089,332.3833)"><path
             d="m 0,0 h 218.061 c 5.581,0 10.106,-4.525 10.106,-10.106 v -19.846 c 0,-5.582 -4.525,-10.107 -10.106,-10.107 h -357.34 c -5.581,0 -10.106,4.525 -10.106,10.107 v 19.846 c 0,5.581 4.525,10.106 10.106,10.106 h 104.228"
             style="fill:none;stroke:#000000;stroke-width:15;stroke-linecap:round;stroke-linejoin:round;stroke-miterlimit:10;stroke-dasharray:none;stroke-opacity:1"
             id="path564" /></g><g
           id="g566"
           transform="translate(398.7549,100.0435)"><path
             d="m 0,0 h -285.51 c -10.154,0 -18.385,8.231 -18.385,18.385 V 192.281 H 18.385 V 18.385 C 18.385,8.231 10.154,0 0,0 Z"
             style="fill:none;stroke:#000000;stroke-width:15;stroke-linecap:round;stroke-linejoin:round;stroke-miterlimit:10;stroke-dasharray:none;stroke-opacity:1"
             id="path568" /></g><g
           id="g570"
           transform="translate(204.6089,471.3047)"><path
             d="m 0,0 h -123.865 v 22.539 c 0,5.749 4.659,10.408 10.407,10.408 h 103.05 C -4.66,32.947 0,28.288 0,22.539 Z"
             style="fill:none;stroke:#000000;stroke-width:15;stroke-linecap:round;stroke-linejoin:round;stroke-miterlimit:10;stroke-dasharray:none;stroke-opacity:1"
             id="path572" /></g><g
           id="g574"
           transform="translate(431.2568,471.3047)"><path
             d="m 0,0 h -123.866 v 22.539 c 0,5.749 4.66,10.408 10.408,10.408 h 103.05 C -4.66,32.947 0,28.288 0,22.539 Z"
             style="fill:none;stroke:#000000;stroke-width:15;stroke-linecap:round;stroke-linejoin:round;stroke-miterlimit:10;stroke-dasharray:none;stroke-opacity:1"
             id="path576" /></g><g
           id="g578"
           transform="translate(124.4072,430.8706)"><path
             d="m 0,0 c 0,-10.08 -8.171,-18.251 -18.251,-18.251 -10.08,0 -18.251,8.171 -18.251,18.251 0,10.08 8.171,18.251 18.251,18.251 C -8.171,18.251 0,10.08 0,0 Z"
             style="fill:none;stroke:#000000;stroke-width:15;stroke-linecap:round;stroke-linejoin:round;stroke-miterlimit:10;stroke-dasharray:none;stroke-opacity:1"
             id="path580" /></g><g
           id="g582"
           transform="translate(197.4478,430.8706)"><path
             d="m 0,0 c 0,-10.08 -8.171,-18.251 -18.251,-18.251 -10.081,0 -18.252,8.171 -18.252,18.251 0,10.08 8.171,18.251 18.252,18.251 C -8.171,18.251 0,10.08 0,0 Z"
             style="fill:none;stroke:#000000;stroke-width:15;stroke-linecap:round;stroke-linejoin:round;stroke-miterlimit:10;stroke-dasharray:none;stroke-opacity:1"
             id="path584" /></g><g
           id="g586"
           transform="translate(351.0547,430.8706)"><path
             d="m 0,0 c 0,-10.08 -8.171,-18.251 -18.251,-18.251 -10.08,0 -18.251,8.171 -18.251,18.251 0,10.08 8.171,18.251 18.251,18.251 C -8.171,18.251 0,10.08 0,0 Z"
             style="fill:none;stroke:#000000;stroke-width:15;stroke-linecap:round;stroke-linejoin:round;stroke-miterlimit:10;stroke-dasharray:none;stroke-opacity:1"
             id="path588" /></g><g
           id="g590"
           transform="translate(424.0947,430.8706)"><path
             d="m 0,0 c 0,-10.08 -8.171,-18.251 -18.251,-18.251 -10.08,0 -18.251,8.171 -18.251,18.251 0,10.08 8.171,18.251 18.251,18.251 C -8.171,18.251 0,10.08 0,0 Z"
             style="fill:none;stroke:#000000;stroke-width:15;stroke-linecap:round;stroke-linejoin:round;stroke-miterlimit:10;stroke-dasharray:none;stroke-opacity:1"
             id="path592" /></g><g
           id="g594"
           transform="translate(175.5913,249.5137)"><path
             d="M 0,0 -23.004,-25.005"
             style="fill:none;stroke:#000000;stroke-width:15;stroke-linecap:round;stroke-linejoin:round;stroke-miterlimit:10;stroke-dasharray:none;stroke-opacity:1"
             id="path596" /></g><g
           id="g598"
           transform="translate(206.6035,244.6729)"><path
             d="M 0,0 -47.297,-51.41"
             style="fill:none;stroke:#000000;stroke-width:15;stroke-linecap:round;stroke-linejoin:round;stroke-miterlimit:10;stroke-dasharray:none;stroke-opacity:1"
             id="path600" /></g></g></g></g></svg>
