<svg xmlns="http://www.w3.org/2000/svg" xmlns:xlink="http://www.w3.org/1999/xlink" width="500" zoomAndPan="magnify" viewBox="0 0 375 374.999991" height="500" preserveAspectRatio="xMidYMid meet" version="1.0"><defs><clipPath id="569ef292a4"><path d="M 37.5 37.5 L 337.5 37.5 L 337.5 337.5 L 37.5 337.5 Z M 37.5 37.5 " clip-rule="nonzero"/></clipPath><clipPath id="a6b3b8615f"><path d="M 37.5 43 L 337.5 43 L 337.5 332 L 37.5 332 Z M 37.5 43 " clip-rule="nonzero"/></clipPath><clipPath id="8fa03beefe"><path d="M 37.5 37.5 L 337.5 37.5 L 337.5 337.5 L 37.5 337.5 Z M 37.5 37.5 " clip-rule="nonzero"/></clipPath></defs><g clip-path="url(#569ef292a4)"><path fill="#ffffff" d="M 37.5 37.5 L 337.5 37.5 L 337.5 337.5 L 37.5 337.5 Z M 37.5 37.5 " fill-opacity="1" fill-rule="nonzero"/></g><g clip-path="url(#a6b3b8615f)"><path fill="#ffffff" d="M 37.5 43.5 L 121.5 43.5 M 133.5 43.5 L 157.5 43.5 M 169.5 43.5 L 181.5 43.5 M 205.5 43.5 L 217.5 43.5 M 253.5 43.5 L 337.5 43.5 M 37.5 55.5 L 49.5 55.5 M 109.5 55.5 L 121.5 55.5 M 133.5 55.5 L 145.5 55.5 M 157.5 55.5 L 169.5 55.5 M 253.5 55.5 L 265.5 55.5 M 325.5 55.5 L 337.5 55.5 M 37.5 67.5 L 49.5 67.5 M 61.5 67.5 L 97.5 67.5 M 109.5 67.5 L 121.5 67.5 M 133.5 67.5 L 157.5 67.5 M 169.5 67.5 L 217.5 67.5 M 229.5 67.5 L 241.5 67.5 M 253.5 67.5 L 265.5 67.5 M 277.5 67.5 L 313.5 67.5 M 325.5 67.5 L 337.5 67.5 M 37.5 79.5 L 49.5 79.5 M 61.5 79.5 L 97.5 79.5 M 109.5 79.5 L 121.5 79.5 M 157.5 79.5 L 181.5 79.5 M 193.5 79.5 L 205.5 79.5 M 229.5 79.5 L 241.5 79.5 M 253.5 79.5 L 265.5 79.5 M 277.5 79.5 L 313.5 79.5 M 325.5 79.5 L 337.5 79.5 M 37.5 91.5 L 49.5 91.5 M 61.5 91.5 L 97.5 91.5 M 109.5 91.5 L 121.5 91.5 M 133.5 91.5 L 145.5 91.5 M 157.5 91.5 L 181.5 91.5 M 193.5 91.5 L 217.5 91.5 M 229.5 91.5 L 241.5 91.5 M 253.5 91.5 L 265.5 91.5 M 277.5 91.5 L 313.5 91.5 M 325.5 91.5 L 337.5 91.5 M 37.5 103.5 L 49.5 103.5 M 109.5 103.5 L 121.5 103.5 M 157.5 103.5 L 181.5 103.5 M 193.5 103.5 L 217.5 103.5 M 253.5 103.5 L 265.5 103.5 M 325.5 103.5 L 337.5 103.5 M 37.5 115.5 L 121.5 115.5 M 133.5 115.5 L 145.5 115.5 M 157.5 115.5 L 169.5 115.5 M 181.5 115.5 L 193.5 115.5 M 205.5 115.5 L 217.5 115.5 M 229.5 115.5 L 241.5 115.5 M 253.5 115.5 L 337.5 115.5 M 145.5 127.5 L 181.5 127.5 M 193.5 127.5 L 205.5 127.5 M 217.5 127.5 L 241.5 127.5 M 37.5 139.5 L 49.5 139.5 M 73.5 139.5 L 157.5 139.5 M 169.5 139.5 L 193.5 139.5 M 205.5 139.5 L 217.5 139.5 M 229.5 139.5 L 253.5 139.5 M 277.5 139.5 L 289.5 139.5 M 301.5 139.5 L 337.5 139.5 M 61.5 151.5 L 109.5 151.5 M 133.5 151.5 L 145.5 151.5 M 169.5 151.5 L 181.5 151.5 M 193.5 151.5 L 241.5 151.5 M 265.5 151.5 L 289.5 151.5 M 301.5 151.5 L 313.5 151.5 M 49.5 163.5 L 73.5 163.5 M 85.5 163.5 L 121.5 163.5 M 157.5 163.5 L 169.5 163.5 M 181.5 163.5 L 265.5 163.5 M 325.5 163.5 L 337.5 163.5 M 49.5 175.5 L 61.5 175.5 M 73.5 175.5 L 85.5 175.5 M 97.5 175.5 L 109.5 175.5 M 121.5 175.5 L 157.5 175.5 M 181.5 175.5 L 193.5 175.5 M 205.5 175.5 L 217.5 175.5 M 229.5 175.5 L 241.5 175.5 M 265.5 175.5 L 313.5 175.5 M 37.5 187.5 L 73.5 187.5 M 97.5 187.5 L 121.5 187.5 M 157.5 187.5 L 169.5 187.5 M 193.5 187.5 L 241.5 187.5 M 253.5 187.5 L 277.5 187.5 M 313.5 187.5 L 325.5 187.5 M 37.5 199.5 L 49.5 199.5 M 85.5 199.5 L 97.5 199.5 M 121.5 199.5 L 157.5 199.5 M 181.5 199.5 L 193.5 199.5 M 205.5 199.5 L 241.5 199.5 M 277.5 199.5 L 289.5 199.5 M 37.5 211.5 L 61.5 211.5 M 73.5 211.5 L 97.5 211.5 M 109.5 211.5 L 121.5 211.5 M 133.5 211.5 L 157.5 211.5 M 205.5 211.5 L 229.5 211.5 M 241.5 211.5 L 265.5 211.5 M 289.5 211.5 L 337.5 211.5 M 37.5 223.5 L 49.5 223.5 M 61.5 223.5 L 73.5 223.5 M 85.5 223.5 L 97.5 223.5 M 145.5 223.5 L 157.5 223.5 M 181.5 223.5 L 265.5 223.5 M 277.5 223.5 L 313.5 223.5 M 37.5 235.5 L 49.5 235.5 M 73.5 235.5 L 85.5 235.5 M 97.5 235.5 L 121.5 235.5 M 145.5 235.5 L 193.5 235.5 M 217.5 235.5 L 289.5 235.5 M 301.5 235.5 L 325.5 235.5 M 133.5 247.5 L 145.5 247.5 M 157.5 247.5 L 181.5 247.5 M 229.5 247.5 L 241.5 247.5 M 277.5 247.5 L 289.5 247.5 M 301.5 247.5 L 325.5 247.5 M 37.5 259.5 L 121.5 259.5 M 133.5 259.5 L 145.5 259.5 M 181.5 259.5 L 217.5 259.5 M 229.5 259.5 L 241.5 259.5 M 253.5 259.5 L 265.5 259.5 M 277.5 259.5 L 313.5 259.5 M 325.5 259.5 L 337.5 259.5 M 37.5 271.5 L 49.5 271.5 M 109.5 271.5 L 121.5 271.5 M 133.5 271.5 L 145.5 271.5 M 157.5 271.5 L 181.5 271.5 M 193.5 271.5 L 205.5 271.5 M 217.5 271.5 L 241.5 271.5 M 277.5 271.5 L 301.5 271.5 M 325.5 271.5 L 337.5 271.5 M 37.5 283.5 L 49.5 283.5 M 61.5 283.5 L 97.5 283.5 M 109.5 283.5 L 121.5 283.5 M 133.5 283.5 L 145.5 283.5 M 169.5 283.5 L 181.5 283.5 M 193.5 283.5 L 205.5 283.5 M 217.5 283.5 L 301.5 283.5 M 313.5 283.5 L 337.5 283.5 M 37.5 295.5 L 49.5 295.5 M 61.5 295.5 L 97.5 295.5 M 109.5 295.5 L 121.5 295.5 M 133.5 295.5 L 145.5 295.5 M 157.5 295.5 L 169.5 295.5 M 181.5 295.5 L 205.5 295.5 M 241.5 295.5 L 265.5 295.5 M 289.5 295.5 L 301.5 295.5 M 313.5 295.5 L 337.5 295.5 M 37.5 307.5 L 49.5 307.5 M 61.5 307.5 L 97.5 307.5 M 109.5 307.5 L 121.5 307.5 M 157.5 307.5 L 181.5 307.5 M 193.5 307.5 L 205.5 307.5 M 229.5 307.5 L 241.5 307.5 M 265.5 307.5 L 301.5 307.5 M 313.5 307.5 L 337.5 307.5 M 37.5 319.5 L 49.5 319.5 M 109.5 319.5 L 121.5 319.5 M 169.5 319.5 L 205.5 319.5 M 241.5 319.5 L 277.5 319.5 M 289.5 319.5 L 337.5 319.5 M 37.5 331.5 L 121.5 331.5 M 133.5 331.5 L 145.5 331.5 M 157.5 331.5 L 205.5 331.5 M 217.5 331.5 L 241.5 331.5 M 265.5 331.5 L 277.5 331.5 M 289.5 331.5 L 301.5 331.5 M 325.5 331.5 L 337.5 331.5 " fill-opacity="1" fill-rule="nonzero"/></g><g clip-path="url(#8fa03beefe)"><path stroke-linecap="butt" transform="matrix(11.999999, 0, 0, 11.999999, 37.500002, 37.499998)" fill="none" stroke-linejoin="miter" d="M -0.000000169792 0.5 L 7 0.5 M 8 0.5 L 10 0.5 M 11.000001 0.5 L 12.000001 0.5 M 14.000001 0.5 L 15.000001 0.5 M 18.000001 0.5 L 25.000001 0.5 M -0.000000169792 1.5 L 1 1.5 M 6 1.5 L 7 1.5 M 8 1.5 L 9 1.5 M 10 1.5 L 11.000001 1.5 M 18.000001 1.5 L 19.000001 1.5 M 24.000001 1.5 L 25.000001 1.5 M -0.000000169792 2.5 L 1 2.5 M 2 2.5 L 5 2.5 M 6 2.5 L 7 2.5 M 8 2.5 L 10 2.5 M 11.000001 2.5 L 15.000001 2.5 M 16.000001 2.5 L 17.000001 2.5 M 18.000001 2.5 L 19.000001 2.5 M 20.000001 2.5 L 23.000001 2.5 M 24.000001 2.5 L 25.000001 2.5 M -0.000000169792 3.5 L 1 3.5 M 2 3.5 L 5 3.5 M 6 3.5 L 7 3.5 M 10 3.5 L 12.000001 3.5 M 13.000001 3.5 L 14.000001 3.5 M 16.000001 3.5 L 17.000001 3.5 M 18.000001 3.5 L 19.000001 3.5 M 20.000001 3.5 L 23.000001 3.5 M 24.000001 3.5 L 25.000001 3.5 M -0.000000169792 4.500001 L 1 4.500001 M 2 4.500001 L 5 4.500001 M 6 4.500001 L 7 4.500001 M 8 4.500001 L 9 4.500001 M 10 4.500001 L 12.000001 4.500001 M 13.000001 4.500001 L 15.000001 4.500001 M 16.000001 4.500001 L 17.000001 4.500001 M 18.000001 4.500001 L 19.000001 4.500001 M 20.000001 4.500001 L 23.000001 4.500001 M 24.000001 4.500001 L 25.000001 4.500001 M -0.000000169792 5.500001 L 1 5.500001 M 6 5.500001 L 7 5.500001 M 10 5.500001 L 12.000001 5.500001 M 13.000001 5.500001 L 15.000001 5.500001 M 18.000001 5.500001 L 19.000001 5.500001 M 24.000001 5.500001 L 25.000001 5.500001 M -0.000000169792 6.500001 L 7 6.500001 M 8 6.500001 L 9 6.500001 M 10 6.500001 L 11.000001 6.500001 M 12.000001 6.500001 L 13.000001 6.500001 M 14.000001 6.500001 L 15.000001 6.500001 M 16.000001 6.500001 L 17.000001 6.500001 M 18.000001 6.500001 L 25.000001 6.500001 M 9 7.500001 L 12.000001 7.500001 M 13.000001 7.500001 L 14.000001 7.500001 M 15.000001 7.500001 L 17.000001 7.500001 M -0.000000169792 8.500001 L 1 8.500001 M 3 8.500001 L 10 8.500001 M 11.000001 8.500001 L 13.000001 8.500001 M 14.000001 8.500001 L 15.000001 8.500001 M 16.000001 8.500001 L 18.000001 8.500001 M 20.000001 8.500001 L 21.000001 8.500001 M 22.000001 8.500001 L 25.000001 8.500001 M 2 9.500001 L 6 9.500001 M 8 9.500001 L 9 9.500001 M 11.000001 9.500001 L 12.000001 9.500001 M 13.000001 9.500001 L 17.000001 9.500001 M 19.000001 9.500001 L 21.000001 9.500001 M 22.000001 9.500001 L 23.000001 9.500001 M 1 10.500001 L 3 10.500001 M 4 10.500001 L 7 10.500001 M 10 10.500001 L 11.000001 10.500001 M 12.000001 10.500001 L 19.000001 10.500001 M 24.000001 10.500001 L 25.000001 10.500001 M 1 11.500001 L 2 11.500001 M 3 11.500001 L 4 11.500001 M 5 11.500001 L 6 11.500001 M 7 11.500001 L 10 11.500001 M 12.000001 11.500001 L 13.000001 11.500001 M 14.000001 11.500001 L 15.000001 11.500001 M 16.000001 11.500001 L 17.000001 11.500001 M 19.000001 11.500001 L 23.000001 11.500001 M -0.000000169792 12.500001 L 3 12.500001 M 5 12.500001 L 7 12.500001 M 10 12.500001 L 11.000001 12.500001 M 13.000001 12.500001 L 17.000001 12.500001 M 18.000001 12.500001 L 20.000001 12.500001 M 23.000001 12.500001 L 24.000001 12.500001 M -0.000000169792 13.500001 L 1 13.500001 M 4 13.500001 L 5 13.500001 M 7 13.500001 L 10 13.500001 M 12.000001 13.500001 L 13.000001 13.500001 M 14.000001 13.500001 L 17.000001 13.500001 M 20.000001 13.500001 L 21.000001 13.500001 M -0.000000169792 14.500001 L 2 14.500001 M 3 14.500001 L 5 14.500001 M 6 14.500001 L 7 14.500001 M 8 14.500001 L 10 14.500001 M 14.000001 14.500001 L 16.000001 14.500001 M 17.000001 14.500001 L 19.000001 14.500001 M 21.000001 14.500001 L 25.000001 14.500001 M -0.000000169792 15.500001 L 1 15.500001 M 2 15.500001 L 3 15.500001 M 4 15.500001 L 5 15.500001 M 9 15.500001 L 10 15.500001 M 12.000001 15.500001 L 19.000001 15.500001 M 20.000001 15.500001 L 23.000001 15.500001 M -0.000000169792 16.500001 L 1 16.500001 M 3 16.500001 L 4 16.500001 M 5 16.500001 L 7 16.500001 M 9 16.500001 L 13.000001 16.500001 M 15.000001 16.500001 L 21.000001 16.500001 M 22.000001 16.500001 L 24.000001 16.500001 M 8 17.500001 L 9 17.500001 M 10 17.500001 L 12.000001 17.500001 M 16.000001 17.500001 L 17.000001 17.500001 M 20.000001 17.500001 L 21.000001 17.500001 M 22.000001 17.500001 L 24.000001 17.500001 M -0.000000169792 18.500001 L 7 18.500001 M 8 18.500001 L 9 18.500001 M 12.000001 18.500001 L 15.000001 18.500001 M 16.000001 18.500001 L 17.000001 18.500001 M 18.000001 18.500001 L 19.000001 18.500001 M 20.000001 18.500001 L 23.000001 18.500001 M 24.000001 18.500001 L 25.000001 18.500001 M -0.000000169792 19.500001 L 1 19.500001 M 6 19.500001 L 7 19.500001 M 8 19.500001 L 9 19.500001 M 10 19.500001 L 12.000001 19.500001 M 13.000001 19.500001 L 14.000001 19.500001 M 15.000001 19.500001 L 17.000001 19.500001 M 20.000001 19.500001 L 22.000001 19.500001 M 24.000001 19.500001 L 25.000001 19.500001 M -0.000000169792 20.500002 L 1 20.500002 M 2 20.500002 L 5 20.500002 M 6 20.500002 L 7 20.500002 M 8 20.500002 L 9 20.500002 M 11.000001 20.500002 L 12.000001 20.500002 M 13.000001 20.500002 L 14.000001 20.500002 M 15.000001 20.500002 L 22.000001 20.500002 M 23.000001 20.500002 L 25.000001 20.500002 M -0.000000169792 21.500002 L 1 21.500002 M 2 21.500002 L 5 21.500002 M 6 21.500002 L 7 21.500002 M 8 21.500002 L 9 21.500002 M 10 21.500002 L 11.000001 21.500002 M 12.000001 21.500002 L 14.000001 21.500002 M 17.000001 21.500002 L 19.000001 21.500002 M 21.000001 21.500002 L 22.000001 21.500002 M 23.000001 21.500002 L 25.000001 21.500002 M -0.000000169792 22.500002 L 1 22.500002 M 2 22.500002 L 5 22.500002 M 6 22.500002 L 7 22.500002 M 10 22.500002 L 12.000001 22.500002 M 13.000001 22.500002 L 14.000001 22.500002 M 16.000001 22.500002 L 17.000001 22.500002 M 19.000001 22.500002 L 22.000001 22.500002 M 23.000001 22.500002 L 25.000001 22.500002 M -0.000000169792 23.500002 L 1 23.500002 M 6 23.500002 L 7 23.500002 M 11.000001 23.500002 L 14.000001 23.500002 M 17.000001 23.500002 L 20.000001 23.500002 M 21.000001 23.500002 L 25.000001 23.500002 M -0.000000169792 24.500002 L 7 24.500002 M 8 24.500002 L 9 24.500002 M 10 24.500002 L 14.000001 24.500002 M 15.000001 24.500002 L 17.000001 24.500002 M 19.000001 24.500002 L 20.000001 24.500002 M 21.000001 24.500002 L 22.000001 24.500002 M 24.000001 24.500002 L 25.000001 24.500002 " stroke="#171717" stroke-width="1" stroke-opacity="1" stroke-miterlimit="4"/></g></svg>